<?xml version="1.0" encoding="utf-8"?>
<!-- Generator: Adobe Illustrator 21.0.0, SVG Export Plug-In . SVG Version: 6.00 Build 0)  -->
<svg version="1.1" id="Layer_1" xmlns="http://www.w3.org/2000/svg" xmlns:xlink="http://www.w3.org/1999/xlink" x="0px" y="0px"
	 viewBox="0 0 320.3 218.9" style="enable-background:new 0 0 320.3 218.9;" xml:space="preserve">
<style type="text/css">
	.st0{fill:#3A4855;}
	.st1{fill:none;}
	.st2{fill:none;stroke:#3A4855;stroke-miterlimit:10;}
</style>
<g id="Layer_x0020_1">
	<path class="st0" d="M190.1,23.1c0-1.6,0.1-2.9,0.5-4c0.4-1.1,1.1-2.2,2.4-3.4c1.9-1.8,4.1-2.6,6.3-2.6c1.3,0,2.7,0.3,3.9,0.8
		c1.2,0.5,2.3,1.3,3.2,2.2c1.5,1.5,2.4,3.5,2.4,5.6c0,3.6-0.8,5-2.2,7.7l0,0c-0.2,0.5-0.5,1-0.8,1.5l0,0l-2.4,5.5
		c-0.1,0.3-0.2,0.6-0.2,0.8c-0.1,0.6-0.2,0.9-0.8,1.1c-0.4,0.1-1.2,0.1-2.6,0.1c-0.7,0-1.5,0-2.8,0c-0.8,0-1.2-1.1-1.7-2.4
		c-0.2-0.5-0.3-1-0.5-1.4c-0.4-1.1-0.9-1.9-1.4-2.9c-0.1-0.2-0.2-0.3-0.3-0.7l0-0.1C192,29.1,190.1,25.3,190.1,23.1L190.1,23.1
		L190.1,23.1z M191.5,19.5c-0.3,1-0.4,2.2-0.4,3.7c0,2,1.8,5.6,2.8,7.4l0,0.1c0,0.1,0.2,0.4,0.3,0.7c0.5,0.9,0.9,1.8,1.4,2.9
		c0.2,0.5,0.4,1,0.5,1.5c0.3,1,0.6,1.8,0.8,1.8c1,0,2,0,2.8,0c1.4,0,2.1,0,2.4-0.1c0.1,0,0.1-0.1,0.2-0.4c0.1-0.2,0.1-0.6,0.3-1v0
		l2.4-5.5v0c0.3-0.6,0.6-1.1,0.8-1.6l0,0c1.3-2.5,2-4,2-7.3c0-1.9-0.8-3.6-2.2-5c-0.8-0.8-1.8-1.5-2.9-2c-1.1-0.5-2.3-0.7-3.5-0.7
		c-1.9,0-4,0.7-5.6,2.4C192.5,17.5,191.8,18.4,191.5,19.5L191.5,19.5z M186,22.2c0,4,1.7,7.4,3.5,11l0,0.1l0.2,0.5
		c0.7,1.5,1.4,2.7,2,4.5c0.5,1.4,0.5,1.5,0.5,1.9c0,0.2,0.1,0.5,0.2,1.1c0.1,0.4,0.2,0.8,0.5,1.1c0.2,0.2,0.5,0.4,0.9,0.4
		c2.1,0,4,0,5.6,0c3.6,0,5.4,0.1,6.2-0.2c0.6-0.2,0.6-0.7,0.8-1.5c0.1-0.7,0.2-1.5,0.6-2.6c0.2-0.8,0.6-1.7,1-2.6
		c0.4-0.8,0.8-1.7,1.2-2.5c0.2-0.5,0.4-0.9,0.6-1.2c1.5-3,3-5.9,3-9.9c0-3.6-1.5-6.8-3.9-9.1c-2.4-2.4-5.8-3.9-9.5-3.9
		c-1.4,0-2.7,0.2-3.9,0.6c-1.3,0.4-2.5,1-3.7,1.7c-1.7,1.1-3.2,2.8-4.3,4.7C186.5,18,185.9,20.1,186,22.2L186,22.2z M188.6,33.6
		c-1.8-3.7-3.6-7.2-3.6-11.4c0-2.3,0.7-4.5,1.7-6.5c1.2-2.1,2.8-3.9,4.6-5.1c1.2-0.8,2.5-1.4,3.9-1.8c1.3-0.4,2.7-0.6,4.2-0.6
		c3.9,0.1,7.5,1.6,10.1,4.2c2.6,2.5,4.2,6,4.2,9.8c0,4.2-1.6,7.2-3.2,10.3c-0.2,0.4-0.5,0.9-0.6,1.2c-0.4,0.7-0.8,1.6-1.1,2.4
		c-0.4,0.8-0.7,1.7-1,2.5c-0.3,1-0.5,1.9-0.6,2.5c-0.2,1.2-0.3,1.9-1.4,2.3c-1,0.3-2.8,0.3-6.5,0.3c-1.4,0-3.2,0-5.6,0
		c-0.7,0-1.3-0.2-1.6-0.7c-0.4-0.4-0.6-0.9-0.7-1.5c-0.1-0.6-0.2-0.9-0.2-1.1c-0.1-0.3-0.1-0.5-0.5-1.8c-0.6-1.8-1.2-2.9-1.9-4.4
		L188.6,33.6L188.6,33.6C188.7,33.6,188.6,33.6,188.6,33.6z"/>
	<path class="st0" d="M193.3,46.5c0,0.4,0.2,0.7,0.5,1c0.4,0.3,0.9,0.4,1.5,0.4h8.3c1,0,1.6-0.4,1.9-0.8c0.1-0.2,0.1-0.3,0.1-0.5
		c0-0.2,0-0.3-0.1-0.5c-0.2-0.4-0.5-0.7-1.1-0.7h-10c-0.4,0-0.6,0.1-0.8,0.3C193.4,45.9,193.3,46.2,193.3,46.5L193.3,46.5
		L193.3,46.5z M193.2,48.2c-0.5-0.4-0.8-1-0.8-1.7c0-0.6,0.2-1.1,0.6-1.5l0,0c0.4-0.4,0.9-0.6,1.5-0.6h10c1,0,1.6,0.5,2,1.2
		c0.1,0.3,0.2,0.6,0.2,0.9c0,0.3-0.1,0.6-0.2,0.9c-0.4,0.7-1.3,1.4-2.7,1.4h-8.3C194.5,48.9,193.8,48.7,193.2,48.2L193.2,48.2z"/>
	<path class="st0" d="M194.7,51.4c0,0.4,0.1,0.7,0.3,0.8l0,0c0.2,0.2,0.5,0.3,0.8,0.3h7.1c0.6,0,0.9-0.3,1.1-0.7
		c0.1-0.2,0.1-0.3,0.1-0.5c0-0.2,0-0.3-0.1-0.5c-0.2-0.4-0.5-0.7-1.1-0.7h-7.1c-0.4,0-0.7,0.1-0.8,0.3l0,0
		C194.8,50.8,194.7,51.1,194.7,51.4z M194.4,53c-0.4-0.4-0.6-0.9-0.6-1.5c0-0.6,0.2-1.1,0.6-1.5l0,0c0.4-0.4,0.9-0.6,1.5-0.6h7.1
		c1,0,1.7,0.6,2,1.3c0.1,0.3,0.2,0.6,0.2,0.8S205,52,205,52.3c-0.3,0.7-0.9,1.3-2,1.3h-7.1C195.2,53.5,194.7,53.3,194.4,53L194.4,53
		z"/>
	<path class="st0" d="M181.5,14c0,0.3,0.1,0.6,0.2,0.8c0.1,0.2,0.3,0.4,0.6,0.5c0.8,0.5,1.4,0.9,1.9,0.9c0.4,0,0.8-0.2,1.2-0.9
		l0.2-0.3l0,0c0.6-1.1,1.1-1.8-0.3-2.7c-0.7-0.4-1.3-0.8-1.8-0.8c-0.4,0-0.8,0.2-1.1,0.8c0,0-0.1,0.1-0.2,0.2
		C181.9,13,181.5,13.8,181.5,14L181.5,14L181.5,14z M180.9,15.3c-0.2-0.3-0.3-0.7-0.3-1.3c0-0.5,0.5-1.4,0.9-1.9
		c0-0.1,0.1-0.1,0.2-0.2c0.6-1,1.2-1.3,2-1.3c0.7,0,1.4,0.4,2.2,0.9c2.2,1.3,1.6,2.4,0.6,4l0,0c0,0.1-0.1,0.1-0.2,0.3
		c-0.6,1.1-1.3,1.4-2.1,1.4c-0.7-0.1-1.5-0.5-2.4-1.1C181.4,15.9,181.1,15.6,180.9,15.3z"/>
	<path class="st0" d="M212.6,13.6c0,0.2,0.3,1.2,0.9,1.9c0.3,0.4,0.6,0.7,1.1,0.7c0.5,0,1.3-0.3,2-0.8c0.5-0.3,0.8-0.8,0.8-1.1
		c0-0.2-0.3-1.2-0.9-2c-0.3-0.4-0.7-0.7-1.1-0.7l0,0l0,0c-0.2,0-0.9,0.2-1.6,0.6l0,0C213.3,12.4,212.7,12.9,212.6,13.6L212.6,13.6
		L212.6,13.6L212.6,13.6z M212.8,16.1c-0.7-0.9-1.1-2.2-1.1-2.5l0,0v0l0,0c0-1,0.8-1.8,1.7-2.3l0,0c0.8-0.5,1.7-0.7,2-0.7l0,0l0,0
		c0.7,0,1.4,0.5,1.8,1.1c0.7,0.9,1.1,2.2,1.1,2.6c0,0.7-0.5,1.4-1.2,1.9c-0.8,0.6-1.9,1-2.5,1C213.9,17.1,213.3,16.7,212.8,16.1
		L212.8,16.1z"/>
	<path class="st0" d="M197.4,4.2c0,0.1,0,0.3,0,0.6c0,0.9,0,1.5,0.6,2c0.4,0.3,0.6,0.2,0.7,0.2c0.2-0.1,0.4-0.1,0.7-0.1h0.1h0.1l0,0
		c0,0,0.3,0.1,0.7,0.1c0.6,0,1.4-0.2,1.4-1.2c0-1.4,0-2.2-0.3-2.5c-0.2-0.3-0.8-0.3-2-0.3l0,0h-0.7c-0.3,0-0.6,0.1-0.8,0.3
		C197.5,3.5,197.4,3.9,197.4,4.2L197.4,4.2z M196.4,4.8c0-0.1,0-0.3,0-0.5c0-0.6,0.2-1.2,0.6-1.6c0.4-0.4,0.9-0.7,1.5-0.7h0.7l0,0
		c1.4,0,2.2,0.1,2.7,0.6c0.5,0.6,0.6,1.4,0.6,3.1c0,1.9-1.3,2.2-2.3,2.2c-0.4,0-0.7-0.1-0.9-0.1c-0.1,0-0.2,0-0.3,0.1
		c-0.4,0.1-0.7,0.2-1.6-0.3C196.3,6.8,196.4,5.9,196.4,4.8z"/>
	<path class="st0" d="M190.2,9.7c0.2,0,1.2-0.3,1.9-0.9c0.4-0.3,0.6-0.7,0.6-1.1c0-0.5-0.3-1.3-0.8-1.9c-0.4-0.5-0.8-0.9-1.1-0.9
		c-0.5,0-1,0.3-1.4,0.6c-0.1,0.1-0.2,0.2-0.4,0.2c-0.3,0.2-0.5,0.3-0.7,0.5c-0.2,0.2-0.2,0.4-0.2,0.7l0,0c0,0.2,0.2,0.8,0.6,1.5
		C189,9,189.5,9.6,190.2,9.7C190.1,9.7,190.1,9.7,190.2,9.7z M192.7,9.5c-0.9,0.7-2.2,1.1-2.5,1.1h-0.1l0,0c-1,0-1.7-0.9-2.2-1.7
		c-0.5-0.8-0.7-1.7-0.7-2l0,0l0,0l0,0c0-0.6,0.2-1,0.5-1.3c0.2-0.3,0.6-0.5,0.9-0.7c0.1-0.1,0.2-0.1,0.3-0.2
		c0.6-0.3,1.1-0.7,1.9-0.7c0.7,0,1.4,0.6,1.9,1.3c0.6,0.8,1,1.8,1,2.4C193.7,8.5,193.3,9.1,192.7,9.5L192.7,9.5z"/>
	<path class="st0" d="M206.1,7.3c0,0.5,0,0.8,0.1,1c0.1,0.2,0.3,0.3,0.7,0.6c0.1,0.1,0.2,0.1,0.3,0.2c0.9,0.6,1.8,1.1,2.6-0.2
		c0.4-0.7,0.8-1.3,0.8-1.9c0-0.5-0.2-0.9-0.9-1.3l0,0c-0.1,0-0.2-0.1-0.4-0.2c-0.8-0.5-1.6-1-2.4,0.2c-0.1,0.1-0.4,0.7-0.6,1.1
		C206.2,7,206.1,7.2,206.1,7.3L206.1,7.3L206.1,7.3z M205.4,8.7c-0.2-0.4-0.2-0.7-0.2-1.5c0-0.2,0.2-0.5,0.4-0.9
		c0.2-0.5,0.6-1.1,0.7-1.2c1.4-1.9,2.5-1.2,3.7-0.5c0.1,0.1,0.2,0.1,0.3,0.2l0,0c1,0.6,1.4,1.3,1.3,2.1c0,0.7-0.4,1.5-0.9,2.3
		c-1.3,2.1-2.5,1.3-3.8,0.5c-0.1-0.1-0.2-0.1-0.3-0.2C205.9,9.3,205.6,9,205.4,8.7L205.4,8.7z"/>
	<path class="st0" d="M215.5,22.7c0,0.2,0,0.5-0.1,0.7c0,0.2,0,0.4,0,0.5c0,0.5,0.4,0.9,2.7,0.9c1.2,0,1.4-0.9,1.4-1.8
		c0-0.2,0-0.4,0-0.6c0-0.2,0-0.5,0-0.6c0-0.4-0.2-0.6-0.5-0.8c-0.2-0.1-0.4-0.2-0.7-0.3c-0.3-0.1-0.6-0.1-0.8-0.1
		c-0.8,0-1.6,0.2-1.9,0.6c-0.3,0.4-0.2,0.6-0.2,0.7C215.5,22.2,215.5,22.4,215.5,22.7L215.5,22.7z M214.5,23.3
		c0-0.2,0.1-0.4,0.1-0.6c0-0.2,0-0.3-0.1-0.4c-0.1-0.4-0.2-0.7,0.3-1.5c0.4-0.7,1.5-1.1,2.6-1.1c0.4,0,0.7,0,1.1,0.1
		c0.4,0.1,0.7,0.2,1,0.4c0.6,0.4,0.9,0.9,0.9,1.6c0,0.2,0,0.4,0,0.6c0,0.2,0,0.5,0,0.6c0,1.5-0.3,2.8-2.3,2.8
		c-3.1,0-3.6-0.8-3.6-1.9C214.4,23.8,214.5,23.6,214.5,23.3L214.5,23.3L214.5,23.3z"/>
	<path class="st0" d="M179.4,21.9v0.2c0,2.5,0,2.7,2.8,2.7c0.2,0,0.5-0.1,0.6-0.2c0.2-0.1,0.3-0.2,0.5-0.4c0.3-0.4,0.2-0.6,0.2-0.7
		c-0.1-0.2-0.1-0.4-0.1-0.7c0-0.3,0.1-0.6,0.1-0.8c0.1-0.2,0.1-0.4-0.1-0.7c-0.2-0.3-0.6-0.6-1.2-0.7c-0.4-0.1-0.9-0.1-1.4,0
		c-0.4,0.1-0.8,0.2-1.1,0.5C179.6,21.4,179.5,21.6,179.4,21.9L179.4,21.9C179.5,21.9,179.4,21.9,179.4,21.9z M178.5,22.2v-0.2l0,0
		c0-0.6,0.2-1.1,0.6-1.4c0.4-0.4,0.9-0.6,1.5-0.7c0.6-0.1,1.2-0.1,1.7,0c0.8,0.2,1.5,0.6,1.8,1.1c0.4,0.7,0.3,1,0.2,1.4
		c0,0.2-0.1,0.3-0.1,0.6c0,0.2,0,0.3,0.1,0.4c0.1,0.4,0.2,0.7-0.3,1.5c-0.2,0.3-0.5,0.6-0.8,0.7c-0.3,0.2-0.7,0.2-1.1,0.2
		C178.5,25.9,178.5,25.6,178.5,22.2L178.5,22.2z"/>
	<path class="st0" d="M181.5,31.5c0,0.2,0.2,1.2,0.9,1.9c0.3,0.4,0.7,0.7,1.3,0.7c0.4,0,1.1-0.3,1.6-0.7c0.4-0.3,0.8-0.7,0.8-1
		c0-0.2-0.2-1.3-0.8-2.1l0,0c-0.2-0.4-0.6-0.7-1-0.7c-0.5,0-1.3,0.3-2,0.8C181.9,30.7,181.5,31.1,181.5,31.5L181.5,31.5L181.5,31.5z
		 M181.7,34c-0.8-0.9-1.1-2.3-1.1-2.5c0-0.7,0.5-1.4,1.2-1.9c0.8-0.6,1.8-1,2.5-1c0.8,0,1.3,0.5,1.8,1.1l0,0c0.6,1,0.9,2.4,0.9,2.7
		c0,0.6-0.5,1.3-1.1,1.8c-0.7,0.5-1.6,0.9-2.2,0.9C182.8,35,182.1,34.6,181.7,34L181.7,34L181.7,34z"/>
	<path class="st0" d="M212.8,32.1c0,0.3,0.3,0.8,0.7,1.2c0.3,0.3,0.7,0.5,1.1,0.7c0.4,0.1,0.7,0.2,1.1,0.1c0.3-0.1,0.7-0.3,0.9-0.8
		c0.6-1,0.9-1.5,0.8-2s-0.6-0.8-1.7-1.5c-0.5-0.3-0.9-0.4-1.2-0.3c-0.3,0.1-0.6,0.4-0.9,0.9c-0.1,0.1-0.1,0.2-0.2,0.4
		C213.1,31.2,212.8,31.7,212.8,32.1z M212.9,34c-0.6-0.6-1-1.3-1-1.9c0-0.6,0.3-1.2,0.6-1.8c0.1-0.1,0.1-0.2,0.2-0.3
		c0.4-0.8,0.9-1.2,1.5-1.4c0.6-0.2,1.2,0,1.9,0.4c1.4,0.8,2,1.4,2.2,2.1c0.2,0.7-0.2,1.5-0.9,2.6c-0.4,0.7-0.9,1.1-1.5,1.2
		c-0.6,0.2-1.1,0.1-1.6-0.1C213.8,34.6,213.3,34.3,212.9,34L212.9,34z"/>
	<path class="st0" d="M102.5,16.9c-0.3,0-0.7-0.1-0.9-0.2c-0.6-0.3-0.9-0.8-1-1.4c-0.1-0.5,0-1.2,0.2-1.8c0.3-1.1,0.9-2.4,1.6-3.3
		c0.7-0.9,1.9-1.7,3-2.1c0.6-0.2,1.1-0.3,1.6-0.2c0.6,0.1,1,0.3,1.3,0.7c0.2,0.3,0.3,0.7,0.3,1.3c0,1.3-0.6,1.5-1.6,1.8
		c-0.6,0.2-1.2,0.4-1.8,1.2c-0.2,0.3-0.4,0.6-0.5,0.8c-0.1,0.3-0.2,0.7-0.3,1.1c-0.1,0.5-0.2,1-0.4,1.4
		C103.7,16.6,103.3,16.9,102.5,16.9L102.5,16.9z M102.1,15.6c0.1,0.1,0.2,0.1,0.4,0.1c0.3,0,0.5-0.1,0.6-0.2
		c0.2-0.2,0.2-0.5,0.2-0.9c0.1-0.5,0.2-1,0.3-1.3c0.2-0.4,0.3-0.7,0.6-1.1c0.8-1.1,1.7-1.4,2.4-1.6c0.4-0.1,0.7-0.2,0.7-0.7
		c0-0.3-0.1-0.5-0.1-0.6C107.2,9.1,107,9,106.8,9c-0.3,0-0.7,0-1.1,0.2c-0.9,0.3-1.8,0.9-2.4,1.7c-0.6,0.7-1.1,1.9-1.4,2.9
		c-0.1,0.5-0.2,1-0.1,1.4C101.8,15.3,101.9,15.5,102.1,15.6C102.1,15.6,102.1,15.6,102.1,15.6z M97.4,14.6c0,2.3,0.3,3.9,0.8,5.3
		c0.6,1.4,1.5,2.7,2.7,4.3c0.7,0.9,2.5,2.5,4.6,4.1c2.8,2.2,6.1,4.6,7.7,5.6c0.2,0.1,0.5,0.3,0.8,0.5c0.7,0.4,1.5,1,1.9,1.2
		c0.1-0.1,0.2-0.2,0.4-0.2c0.2-0.2,0.5-0.3,0.8-0.5c0.6-0.4,0.9-0.6,1.3-0.8l0.2-0.1c0.7-0.5,1.4-0.9,2.2-1.3l0,0
		c0.4-0.2,0.7-0.4,0.9-0.5c1-0.6,2-1.2,2.9-1.8c0.9-0.6,1.9-1.2,2.8-1.9c0.9-0.7,1.8-1.4,2.6-2.2c0.7-0.7,1.4-1.6,2-2.4l0,0
		c1-1.5,1.6-2.8,1.9-4.1c0.3-1.4,0.4-2.8,0.4-4.6c0-1.7-0.6-3.8-1.6-5.5c-0.9-1.6-2.2-3-3.7-3.7c-1.4-0.7-2.9-1-4.6-0.9
		c-1.6,0-3.2,0.4-4.6,1.1c-0.9,0.4-1.5,0.8-2,1.1c-1,0.5-1.4,0.8-1.9,0.7c-0.5,0-0.8-0.2-1.4-0.6c-0.5-0.3-1.2-0.8-2.4-1.4
		c-0.8-0.4-1.4-0.7-2.1-0.9c-0.7-0.2-1.4-0.3-2.4-0.3c-1.5,0-3,0.5-4.4,1.2c-1.6,0.8-2.9,2-3.7,3.2c-0.6,0.7-1.1,1.7-1.4,2.8
		C97.6,12.7,97.4,13.7,97.4,14.6z M97.1,20.3c-0.6-1.6-0.9-3.3-0.9-5.8c0-1.1,0.2-2.2,0.6-3.2c0.4-1.1,1-2.2,1.6-3.1
		c1-1.3,2.4-2.6,4.1-3.5c1.5-0.8,3.2-1.3,4.9-1.3c1.1,0,2,0.1,2.8,0.3c0.8,0.2,1.5,0.5,2.3,1c1.2,0.6,2,1.1,2.5,1.4
		c0.4,0.3,0.7,0.4,0.8,0.4c0.2,0,0.6-0.2,1.3-0.6c0.5-0.3,1.1-0.6,2-1.1c1.6-0.8,3.3-1.2,5.1-1.2c1.8,0,3.5,0.3,5,1
		c1.7,0.8,3.2,2.4,4.2,4.2c1.1,1.9,1.8,4.2,1.8,6.1c0,1.9-0.1,3.4-0.5,4.9c-0.4,1.5-1,2.9-2,4.5l0,0c-0.6,0.9-1.3,1.8-2.1,2.6
		c-0.9,0.9-1.8,1.7-2.8,2.4c-0.9,0.7-1.9,1.3-2.9,2c-1,0.6-2,1.2-3,1.9c-0.4,0.2-0.7,0.4-0.9,0.5l0,0c-0.7,0.4-1.4,0.8-2.1,1.3
		l-0.2,0.1c-0.5,0.3-0.9,0.6-1.3,0.8c-0.3,0.2-0.5,0.3-0.7,0.5c-0.2,0.2-0.4,0.3-0.7,0.5l-0.2,0.2l-0.2-0.1
		c-0.5-0.1-1.6-0.9-2.5-1.5c-0.3-0.2-0.6-0.4-0.7-0.5c-1.7-1.1-5-3.5-7.9-5.7c-2.1-1.7-4-3.3-4.8-4.3C98.7,23.2,97.7,21.9,97.1,20.3
		L97.1,20.3z"/>
	<path class="st0" d="M85.1,30.2c0,0.5,0.2,1,0.3,1.4c0.1,0.2,0.1,0.4,0.2,0.6c0.4,1.5,1.1,3.7,1.9,5.7c0.8,2,1.8,3.8,2.9,4.7
		c2.2,1.8,4.8,2.7,7.1,3.5c3,1.1,5.4,1.9,5.7,4.2c0.1,0.3,0.1,0.7,0.3,0.9c0.2,0.2,0.6,0.3,1.5,0.3h5.8c0.2,0,0.5-0.1,0.7-0.1
		c0.2-0.1,0.3-0.2,0.4-0.3c0.3-0.4,0.1-1.8-0.5-3.3c-0.9-2.7-2.7-5.9-3.4-7c-1.2-1.8-2.4-2.2-4.6-2.8c-0.1,0-0.2-0.1-0.7-0.2
		c-0.5-0.1-2.9-0.8-4.8-1.3c-1.1-0.3-2-0.5-2.2-0.5s-0.5,0.1-0.7,0.3c-0.2,0.2-0.3,0.4-0.3,0.7c0,0.7,1.7,1.3,3,1.7
		c1.1,0.4,2.1,0.7,2.1,1.4c0,0.3,0,0.5-0.1,0.6c0,0,0,0.1-0.1,0.2l-0.1,0.5h-0.5c-1.1,0-2-0.1-2.9-0.2c-0.9-0.2-1.8-0.4-2.6-0.7
		c-2.2-0.8-2.6-1.4-3.7-3.2l0,0l0,0l-3.1-6.2l0,0c-0.3-0.7-0.6-1.1-0.9-1.2c-0.1,0-0.2-0.1-0.2,0c-0.1,0-0.2,0.1-0.3,0.2
		C85.2,30.1,85.1,30.2,85.1,30.2L85.1,30.2z M84.2,32c-0.2-0.5-0.4-1.1-0.4-1.8c0-0.3,0.2-0.8,0.7-1.2c0.2-0.2,0.5-0.3,0.8-0.4
		c0.3-0.1,0.7-0.1,1.1,0.1c0.5,0.2,1,0.8,1.4,1.8l3.1,6.2l0,0c0.9,1.5,1.2,2,3,2.7c0.7,0.2,1.5,0.5,2.4,0.6c0.7,0.1,1.5,0.2,2.3,0.2
		v-0.1c0-0.2-0.6-0.1-1.3-0.3c-1.7-0.6-3.8-1.3-3.8-2.9c0-0.6,0.3-1.1,0.7-1.5c0.4-0.4,1-0.7,1.5-0.7c0.3,0,1.3,0.2,2.5,0.5
		c1.9,0.5,4.4,1.1,4.9,1.3l0.7,0.2c2.4,0.7,3.8,1.1,5.3,3.3c0.8,1.2,2.6,4.5,3.5,7.3c0.7,1.9,0.9,3.6,0.3,4.5
		c-0.2,0.3-0.5,0.5-0.9,0.7c-0.3,0.2-0.7,0.2-1.1,0.2H105c-1.2,0-1.9-0.3-2.3-0.7c-0.4-0.5-0.5-1-0.6-1.5c-0.3-1.6-2.4-2.4-5-3.3
		c-2.4-0.8-5.1-1.8-7.4-3.7c-1.3-1.1-2.4-3.1-3.3-5.2c-0.9-2.1-1.5-4.3-2-5.9C84.4,32.4,84.3,32.2,84.2,32L84.2,32L84.2,32z
		 M87.8,30.6L87.8,30.6"/>
	<path class="st0" d="M131.1,41c-0.3-1.4-0.2-1.5,1.6-2.1c0.4-0.1,0.8-0.3,1.4-0.5l0,0l0.2-0.1c0.7-0.3,1.8-0.7,1.8-1.3
		c0-0.2-0.1-0.5-0.3-0.7l0,0c-0.2-0.2-0.4-0.3-0.5-0.3c-0.5,0-2.2,0.4-4.1,0.9c-2.6,0.7-5.5,1.6-6.3,1.9c-1.1,0.4-2.1,1.7-3,3.3
		c-0.9,1.6-1.6,3.3-2.1,4.5c-1.3,3.3-1.5,4.5-0.7,4.8c0.7,0.3,2.1,0.2,4.1,0.2c0.8,0,1.7,0,2.5,0c1.6,0,1.7-0.7,1.8-1.3
		c0.1-0.4,0.1-0.7,0.3-1.1l0,0c1.1-1.8,5.2-3.1,7.1-3.8l0.2-0.1c1.1-0.4,2.6-1,3.9-1.8c1-0.6,1.8-1.3,2.3-2.1c0.7-1.1,1.4-2.4,2-3.8
		c0.7-1.8,1.3-3.7,1.8-5.3c0.1-0.2,0.1-0.4,0.2-0.7c0.2-0.7,0.5-1.5,0.2-1.7c-0.3-0.3-0.6-0.3-0.9,0c-0.5,0.5-1,1.6-1.3,2.4
		c-0.1,0.2-0.2,0.5-0.3,0.7c-0.3,0.7-1.2,2.5-2.1,4c-0.6,1-1.1,1.8-1.5,2.2c-0.6,0.7-1.9,1.2-3.2,1.5c-1.6,0.4-3.4,0.7-4.7,0.7h-0.5
		L131.1,41C131.1,41,131.1,41,131.1,41z M133.2,40c-0.3,0.1-0.5,0.2-0.6,0.2c1.1-0.1,2.4-0.3,3.5-0.6c1.1-0.3,2.2-0.7,2.7-1.2
		c0.3-0.3,0.7-1.1,1.2-2c0.8-1.5,1.7-3.3,2-3.9c0.1-0.1,0.2-0.3,0.2-0.6c0.3-0.9,0.9-2.1,1.6-2.8c0.7-0.7,1.6-1,2.6,0
		c0.8,0.8,0.4,2,0.1,2.9c-0.1,0.2-0.1,0.4-0.2,0.6c-0.5,1.6-1.1,3.6-1.8,5.4c-0.6,1.5-1.3,2.9-2.1,4.1c-0.6,0.9-1.6,1.7-2.7,2.4
		c-1.4,0.9-2.9,1.6-4.2,2l-0.2,0.1c-1.8,0.6-5.7,1.9-6.5,3.2l0,0c-0.1,0.2-0.1,0.4-0.2,0.7c-0.2,1.1-0.4,2.3-3,2.3
		c-1.1,0-1.8,0-2.5,0c-2.1,0-3.6,0.1-4.6-0.3c-1.7-0.7-1.6-2.3,0-6.4c0.5-1.2,1.2-3,2.1-4.6c1-1.7,2.2-3.2,3.6-3.8
		c0.8-0.3,3.8-1.2,6.4-1.9c2-0.5,3.8-0.9,4.4-0.9c0.5,0,1,0.3,1.4,0.7l0,0c0.4,0.4,0.6,0.9,0.6,1.5c0,1.4-1.5,2-2.5,2.4l-0.2,0.1
		l0,0C133.9,39.8,133.5,39.9,133.2,40L133.2,40z"/>
	<path class="st0" d="M92.1,11c0.2,0,0.3-0.2,0.5-0.8c0.2-0.7,0.6-1.8,1.5-3.1c0.5-0.7,1-1.2,1.4-1.5c0.4-0.4,0.7-0.7,0.7-0.8
		c0-0.1-0.1-0.2-0.1-0.2c-0.1,0-0.1-0.1-0.2-0.1c-0.6,0-2.3,2.3-3.3,4.3c-0.2,0.5-0.4,1-0.5,1.4c-0.1,0.3-0.1,0.6-0.1,0.8
		C92,11,92,11,92.1,11L92.1,11z M93.7,10.6c-0.3,1.1-0.5,1.6-1.6,1.6c-0.7,0-1.1-0.3-1.4-0.9c-0.1-0.4-0.1-0.9,0-1.5
		c0.1-0.5,0.3-1.1,0.6-1.6c1.1-2.3,3.4-5,4.4-5c0.4,0,0.7,0.2,1,0.4c0.2,0.2,0.4,0.6,0.5,1c0.1,0.7-0.4,1.2-1,1.8
		c-0.4,0.4-0.8,0.8-1.2,1.4C94.3,9,93.9,9.9,93.7,10.6L93.7,10.6L93.7,10.6z"/>
	<path class="st0" d="M135.6,4.6c0,0.3,0.4,0.6,0.7,0.9l0,0c0.1,0.1,0.2,0.2,0.3,0.3c1.5,1.5,2,3,2.4,4.1c0.2,0.7,0.4,1.1,0.6,1.1
		s0.2-0.1,0.3-0.2c0-0.3-0.1-0.7-0.2-1c-0.8-2.1-1-2.3-2-3.7l-0.3-0.3c-0.6-0.8-1-1.1-1.3-1.3c-0.1,0-0.2-0.1-0.2,0l0,0
		C135.7,4.4,135.7,4.5,135.6,4.6C135.6,4.6,135.6,4.6,135.6,4.6z M135.5,6.4L135.5,6.4c-0.5-0.4-1.1-1-1.1-1.8
		c0-0.2,0.1-0.5,0.3-0.8c0.2-0.2,0.4-0.4,0.7-0.5l0,0c0.3-0.1,0.6-0.1,1.1,0.1c0.5,0.2,1.1,0.7,1.8,1.6l0.3,0.3
		c1.1,1.5,1.3,1.7,2.2,4c0.2,0.4,0.3,1,0.3,1.5c0,0.7-0.4,1.3-1.5,1.3c-1.1,0-1.3-0.7-1.7-1.9c-0.3-1-0.8-2.3-2.1-3.7
		C135.6,6.5,135.6,6.4,135.5,6.4L135.5,6.4L135.5,6.4z"/>
	<path class="st0" d="M6.7,26.6c0,0.9,0.3,1.6,0.7,2.2c0.5,0.5,1.1,0.8,1.8,0.8h41.2c0.7,0,1.4-0.3,1.8-0.8c0.5-0.5,0.7-1.3,0.7-2.2
		c0-0.7-0.3-1.3-0.8-1.8l0,0c-0.5-0.5-1.1-0.8-1.8-0.8H9.2c-0.7,0-1.3,0.3-1.8,0.8C7,25.3,6.6,25.9,6.7,26.6L6.7,26.6z M6.6,29.6
		c-0.7-0.7-1.1-1.8-1.1-3c0-1,0.5-1.9,1.1-2.6l0,0c0.7-0.7,1.6-1.1,2.6-1.1h41.2c1,0,1.9,0.5,2.6,1.1l0,0c0.7,0.7,1.1,1.6,1.1,2.6
		c0,1.2-0.4,2.2-1.1,3c-0.7,0.8-1.7,1.2-2.7,1.2H9.3C8.3,30.8,7.3,30.4,6.6,29.6z"/>
	<path class="st0" d="M6.7,40.2c0,0.9,0.3,1.6,0.7,2.2c0.5,0.5,1.1,0.8,1.8,0.8h41.2c0.7,0,1.4-0.3,1.8-0.8c0.5-0.5,0.7-1.3,0.7-2.2
		c0-0.7-0.3-1.3-0.8-1.8l0,0c-0.5-0.5-1.1-0.8-1.8-0.8H9.2c-0.7,0-1.3,0.3-1.8,0.8C7,38.9,6.6,39.5,6.7,40.2L6.7,40.2z M6.6,43.2
		c-0.7-0.7-1.1-1.8-1.1-3c0-1,0.5-1.9,1.1-2.6l0,0c0.7-0.7,1.6-1.1,2.6-1.1h41.2c1,0,1.9,0.5,2.6,1.1l0,0c0.7,0.7,1.1,1.6,1.1,2.6
		c0,1.2-0.4,2.2-1.1,3c-0.7,0.8-1.7,1.2-2.7,1.2H9.3C8.3,44.4,7.3,44,6.6,43.2z"/>
	<path class="st0" d="M6.7,13c0,0.9,0.3,1.6,0.7,2.2C7.9,15.7,8.6,16,9.3,16h41.2c0.7,0,1.4-0.3,1.8-0.8c0.5-0.5,0.7-1.3,0.7-2.2
		c0-0.7-0.3-1.3-0.8-1.8l0,0c-0.5-0.5-1.1-0.8-1.8-0.8H9.2c-0.7,0-1.3,0.3-1.8,0.8C7,11.7,6.6,12.4,6.7,13L6.7,13z M6.6,16
		c-0.7-0.7-1.1-1.8-1.1-3c0-1,0.5-1.9,1.1-2.6c0.7-0.7,1.6-1.1,2.6-1.1h41.2c1,0,1.9,0.5,2.6,1.1l0,0c0.7,0.7,1.1,1.6,1.1,2.6
		c0,1.2-0.4,2.2-1.1,3c-0.7,0.8-1.7,1.2-2.7,1.2H9.3C8.3,17.3,7.3,16.8,6.6,16z"/>
	<rect x="-5" y="-8" class="st1" width="69.7" height="69.7"/>
	<rect x="247.1" y="-7.1" class="st1" width="69.7" height="69.7"/>
	<path class="st0" d="M251.5,23.4v0.9l0.2,0.4v0c0,0,0,0.1,0,0.1c0.3,0.5,0.7,0.9,1.2,1c0.5,0.2,1.1,0.1,1.6-0.1l0,0l0.1,0
		l24.6-17.1l0,0l0.1-0.1l0,0c0.7-0.5,1.3-1,2.5-1c1.2,0,2.3,0.8,3.4,1.6c0.3,0.2,0.7,0.5,1.1,0.8c0.3,0.2,0.7,0.4,1,0.6
		c0.2,0.2,0.6,0.4,0.9,0.7l0,0l20.9,14.5c0.3,0.2,0.7,0.2,1,0.2c0.3,0,0.7-0.1,1-0.2c0.6-0.3,0.9-0.8,1-1.1c0.1-0.1,0.1-0.2,0.2-0.3
		v-0.8c-0.1-0.2-0.2-0.3-0.2-0.5c-0.1-0.2-0.2-0.3-0.2-0.5c-0.3-0.4-1.6-1.3-2.4-1.8l0,0l-0.3-0.2l0,0l-7.6-5.3l0,0
		c-1.8-1.3-3.7-2.6-5.5-3.9c-2-1.4-4-2.7-5.8-4.1c-0.7-0.5-1.4-1-1.9-1.3c-0.6-0.4-1.2-0.9-1.9-1.3c-1.5-1-3.1-1.5-4.6-1.5
		c-1.6,0-3.1,0.5-4.6,1.5l-19,13.2l0,0c-0.4,0.3-0.7,0.5-0.9,0.6c-1,0.7-2,1.4-2.9,2c-0.5,0.3-1.1,0.7-1.6,1.1l-0.3,0.2
		c-0.7,0.5-0.7,0.7-0.9,1C251.7,23.1,251.7,23.2,251.5,23.4L251.5,23.4z M250.4,24.4v-1.1v-0.2l0.1-0.2c0.1-0.2,0.2-0.3,0.2-0.5
		c0.2-0.5,0.3-0.8,1.3-1.5l0.3-0.2c0.5-0.4,1.1-0.8,1.6-1.1c1-0.6,1.9-1.3,2.9-2c0.4-0.2,0.7-0.5,0.9-0.7l0,0l19-13.2
		c1.6-1.1,3.4-1.7,5.2-1.7c1.8,0,3.6,0.6,5.3,1.7c0.6,0.4,1.3,0.9,1.9,1.3c0.7,0.5,1.3,1,1.9,1.3c1.9,1.4,3.9,2.7,5.8,4
		c1.9,1.3,3.7,2.6,5.6,3.9l0,0l7.6,5.3l0,0l0.2,0.2l0,0c0.8,0.5,2.2,1.5,2.6,2c0.2,0.2,0.3,0.5,0.4,0.7c0.1,0.2,0.1,0.3,0.2,0.4
		l0.1,0.2v0.2v1.1v0.2l-0.1,0.2c-0.1,0.1-0.1,0.2-0.2,0.3c-0.2,0.5-0.6,1.2-1.5,1.6c-0.5,0.2-1,0.4-1.5,0.4c-0.5,0-1-0.1-1.5-0.4
		l-0.1,0h0l-20.9-14.5l0,0c-0.2-0.2-0.6-0.4-0.9-0.7c-0.3-0.2-0.6-0.4-0.9-0.6c-0.4-0.2-0.8-0.5-1.1-0.8c-1-0.7-1.9-1.4-2.7-1.4
		c-0.8,0-1.3,0.4-1.8,0.7l0,0L280,9.6l0,0l-24.7,17.1l0,0l0,0c0,0-0.1,0-0.1,0.1l0,0c-0.8,0.3-1.6,0.4-2.4,0.2
		c-0.8-0.2-1.5-0.8-1.9-1.6c0,0,0-0.1-0.1-0.1l-0.3-0.5l-0.1-0.1L250.4,24.4L250.4,24.4z"/>
	<path class="st0" d="M290.9,30c0.2,0.9,0.2,2.4,0.2,3.7c0,0.4,0,0.8,0,1.2c0.1,2-0.1,6.3-0.3,10c-0.2,3.3-0.3,6.2-0.2,6.8
		c0,0.2,0.2,0.4,0.3,0.5c0.1,0,0.2,0.1,0.2,0.1c0.1,0,0.1,0,0.2-0.1c0.2-0.1,0.4-0.5,0.4-1.1c0-0.3,0.1-0.6,0.1-0.8
		c0-0.4,0.1-0.9,0.1-1.5c0.1-1.3,0.3-2.8,0.5-4.2c0.2-1.6,0.4-3.2,0.5-4.7l0.4-6.3l0.7,6.3l1.2,11.2l0,0c0,0.3,0.1,0.7,0.2,0.8
		c0.1,0.1,0.2,0.2,0.3,0.2c0.4,0.1,0.6-0.2,0.7-0.5c0.1-0.5,0-1.2,0-1.7c0-0.2,0-0.5,0-0.7c0-1.5-0.1-3-0.2-4.5
		c-0.2-4.9-0.4-9.8-0.1-14.8l0.1-2.3l1,2l2.6,5.6l0,0c0.1,0.2,0.2,0.4,0.2,0.6c0.1,0.3,0.2,0.5,0.4,0.8l0,0l0,0.1l0,0
		c0.1,0.2,0.3,0.6,0.4,0.6c0,0,0-0.2,0-0.3c-0.1-0.5-0.3-1.1-0.5-1.5c-0.1-0.1-0.1-0.2-0.2-0.4c-0.2-0.4-0.3-0.9-0.5-1.5
		c-0.7-2.4-1.9-6-3-6.8c-0.4-0.2-0.8-0.4-1.3-0.5c-0.5-0.1-1.1-0.2-1.7-0.2c-1.4,0-2.4,0.2-3.1,0.6c-0.7,0.4-1.2,1.1-1.5,2.1
		c-0.2,0.6-0.4,1.2-0.6,1.9c-0.5,1.4-1,2.7-1.5,4.2l0,0c0,0.1-0.1,0.3-0.2,0.5c-0.2,0.7-0.7,1.9-0.6,2c0.1,0,0.1,0,0.2-0.2l0,0
		c0.2-0.3,0.4-0.7,0.5-1.1c0.1-0.2,0.2-0.3,0.2-0.6l0,0l0.2-0.4c0.6-1.3,2.2-5.1,2.6-5.5l0.7-0.6L290.9,30L290.9,30L290.9,30z
		 M289.9,33.7c0-0.5,0-1.1,0-1.7c-0.6,1.2-1.2,2.8-1.6,3.5c-0.1,0.2-0.1,0.3-0.2,0.4l0,0c-0.1,0.1-0.2,0.3-0.2,0.5
		c-0.2,0.5-0.4,1-0.6,1.3l0,0c-0.5,0.7-1,1-1.8,0.5c-0.9-0.6-0.2-2.3,0.1-3.3c0.1-0.2,0.1-0.3,0.2-0.4l0,0c0.5-1.5,1-2.9,1.5-4.2
		c0.2-0.6,0.4-1.2,0.6-1.9c0.5-1.3,1.1-2.2,2-2.7c0.9-0.5,2.1-0.7,3.7-0.7c0.7,0,1.3,0.1,1.9,0.2c0.7,0.1,1.2,0.4,1.7,0.7
		c1.5,1,2.6,4.8,3.4,7.3c0.2,0.6,0.3,1.1,0.5,1.5c0,0.1,0.1,0.2,0.1,0.3c0.2,0.5,0.5,1.1,0.5,1.8c0.1,0.8-0.1,1.5-1,1.6
		c-1,0.1-1.3-0.7-1.5-1.3l0,0l0-0.1l0,0c-0.1-0.3-0.2-0.5-0.3-0.7c-0.1-0.2-0.2-0.4-0.3-0.6l0,0l-1.6-3.5c-0.1,4.2,0,8.2,0.2,12.4
		c0.1,1.5,0.1,3,0.2,4.6c0,0.2,0,0.4,0,0.7c0.1,0.7,0.1,1.4,0,2c-0.2,1-0.7,1.7-2,1.4c-0.6-0.1-0.9-0.4-1.1-0.9
		c-0.2-0.4-0.2-0.8-0.2-1.2l0,0l-0.7-6.2c-0.2,1.3-0.3,2.5-0.4,3.8c0,0.4-0.1,0.9-0.2,1.5c0,0.3-0.1,0.6-0.1,0.8
		c-0.1,1.1-0.5,1.7-0.9,2c-0.2,0.2-0.5,0.2-0.8,0.2c-0.3,0-0.5-0.1-0.7-0.2c-0.5-0.3-0.9-0.8-0.9-1.3c-0.1-0.7,0.1-3.6,0.2-7
		c0.2-3.8,0.3-8.1,0.3-10C289.9,34.4,289.9,34,289.9,33.7L289.9,33.7z"/>
	<path class="st0" d="M268.1,30.3L266.4,41h1.2h0.5l0.1,0.5c0.2,1.1,0.2,2.6,0.3,4.1c0,0.6,0,1.2,0.1,1.7l0.1,0.9
		c0,0.6,0.1,1.2,0.1,1.9c0,0.2,0,0.4,0,0.7c0,0.6,0,1.2,0.2,1.5c0.1,0,0.1-0.1,0.2-0.2c0-0.2,0-0.5,0.1-0.8c0-0.2,0-0.4,0-0.6
		l0.5-9.1l0-0.5l0.5,0h0.1c0.6,0,0.9-0.1,1.1,0.6c0.1,0.2,0.1,0.6,0.1,1.1c0,0.3,0,0.7,0.1,1.2l0,0l0.3,6l0,0c0,0.2,0,0.4,0,0.7
		c0,0.6,0,1.3,0.2,1.6c0.1,0,0.2-0.1,0.2-0.2c0-0.2,0-0.5,0-0.8c0-0.2,0-0.4,0-0.5c0-0.6,0.1-1.3,0.1-2c0.1-2.5,0.2-6,0.4-7.1
		l0.1-0.5h0.5h1.2c-0.2-1.4-0.8-4.9-1.1-6.8c-0.1-0.5-0.2-0.9-0.2-1.2c0-0.2-0.1-0.4-0.1-0.7c-0.2-0.7-0.3-1.6-0.3-2.3l0.1-1.8
		l1,1.5c0.5,0.8,1.5,2.8,2.3,4.5c0.4,0.9,0.8,1.7,1.1,2.3c0.1,0.1,0.1,0.2,0.2,0.3c0.1,0.2,0.2,0.5,0.3,0.5c0,0,0.1,0,0.1,0l0,0
		c0-0.4-0.3-1.1-0.5-1.6c-0.1-0.2-0.1-0.3-0.2-0.4c-0.4-1-0.8-2.1-1.2-3.2c-0.4-0.9-0.7-1.9-1.1-2.7l0,0l-0.2-0.3
		c-0.9-2-1.3-2.9-4-3c-1.5,0-2.4,0.1-3,0.6c-0.6,0.4-1,1.2-1.5,2.3c-0.4,1-0.8,2-1.2,2.9c-0.4,1-0.8,2-1.1,3
		c-0.1,0.2-0.1,0.3-0.2,0.5c-0.3,0.7-0.7,1.7-0.6,1.8c0.1,0,0.2-0.1,0.2-0.2c0.2-0.3,0.4-0.7,0.6-1.1c0.1-0.2,0.1-0.3,0.2-0.5l0,0
		l2.1-4.1c0-0.1,0.1-0.2,0.1-0.2c0.2-0.6,0.5-1.1,0.9-1.4l1.1-0.8L268.1,30.3L268.1,30.3z M265.2,41.5l1.3-8.2l-1.4,2.7l0,0
		c-0.1,0.1-0.1,0.3-0.2,0.4c-0.2,0.5-0.4,0.9-0.7,1.3c-0.5,0.7-1.1,1-1.8,0.5c-0.9-0.6-0.2-2.2,0.2-3.2c0.1-0.2,0.2-0.3,0.2-0.5
		c0.4-1,0.7-2,1.1-3c0.4-1,0.8-2,1.2-3c0.6-1.3,1-2.2,1.8-2.8c0.8-0.6,1.9-0.8,3.7-0.8c3.4,0.1,4,1.2,5,3.7l0.2,0.3l0,0
		c0.4,0.9,0.7,1.8,1.1,2.7c0.4,1.1,0.8,2.2,1.2,3.2c0,0.1,0.1,0.2,0.1,0.3c0.2,0.6,0.6,1.5,0.6,2.1l0,0c-0.1,0.7-0.4,1.1-1.3,1
		c-0.7-0.1-1-0.6-1.3-1.2c0-0.1-0.1-0.2-0.1-0.2c-0.3-0.5-0.7-1.4-1.1-2.3c-0.2-0.5-0.5-1-0.7-1.5l0.1,0.8c0.4,2.4,1.2,7,1.1,7.6
		v0.5H275h-1.3c-0.2,1.4-0.3,4.3-0.4,6.5c0,0.8-0.1,1.6-0.1,2.1c0,0.2,0,0.3,0,0.5c0,0.3,0,0.7-0.1,1c-0.2,0.8-0.6,1.3-1.7,1.1
		l-0.2,0l-0.1-0.1c-0.6-0.6-0.6-1.6-0.6-2.6c0-0.2,0-0.4,0-0.6l0,0l-0.2-4.2l-0.3,5c0,0.2,0,0.3,0,0.5c0,0.4,0,0.7-0.1,1
		c-0.2,0.8-0.6,1.2-1.6,1l-0.2,0l-0.1-0.1c-0.6-0.6-0.6-1.5-0.6-2.4c0-0.2,0-0.4,0-0.6c0-0.6-0.1-1.2-0.1-1.9l-0.1-0.9
		c0-0.5-0.1-1.1-0.1-1.8c0-1.2-0.1-2.5-0.2-3.4h-1.4H265l0.1-0.7L265.2,41.5z"/>
	<path class="st0" d="M283.5,50.4L283.5,50.4c-0.1-2.1-0.3-4.5-0.2-6.5c0.1-2,0.1-2,0.8-2.4c0.1-0.1,0.3-0.1,0.5-0.3
		c0.3-0.2,1.1-1.1,1.7-1.9c-0.4,0.4-0.8,0.8-1.4,1.2c-0.9,0.6-1.2,0.6-1.9,0.5c-0.2,0-0.4-0.1-0.7-0.1c-0.2,0-0.6,0-0.9,0.1
		c-0.6,0.1-1.3,0.1-1.8-0.1l0,0c-0.7-0.3-1.2-0.8-1.7-1.3c0.2,0.2,0.3,0.4,0.5,0.6c0.7,0.9,1.1,1.1,1.4,1.2c0.7,0.3,0.8,0.4,0.9,2.5
		c0,1.2,0,2.3-0.1,3.4c0,0.6-0.1,1.2-0.1,1.8c0,0.3,0,0.7-0.1,1c0,0.6-0.1,1.3-0.1,1.7c0,0.1,0,0.2,0.1,0.2c0,0,0,0,0,0l0,0
		c0,0,0,0,0,0l0,0c0.1,0,0.1-0.1,0.2-0.3c0.1-0.6,0.2-1.4,0.3-2.2c0.1-0.7,0.2-1.5,0.3-2.1l0,0l0-0.1l0,0c0-0.1,0-0.2,0.1-0.2
		c0-0.1,0.1-0.2,0.1-0.2l0,0l0-0.1l0.5-0.9l0.5,0.9l0,0c0,0.1,0.1,0.1,0.1,0.3v0v0l0.2,1.2l0,0c0,0.2,0.1,0.6,0.1,0.9
		c0.1,1.1,0.2,2.6,0.5,2.6c0.1,0,0.2-0.1,0.2-0.2c0.1-0.3,0-0.8,0-1.1C283.4,50.7,283.4,50.5,283.5,50.4L283.5,50.4L283.5,50.4z
		 M284.6,50.3L284.6,50.3c0,0.2,0,0.4,0,0.5c0.1,0.5,0.1,1,0,1.5c-0.1,0.7-0.5,1.2-1.5,1.1c-0.7-0.1-1.1-1.2-1.2-2.3
		c-0.1,0.4-0.1,0.8-0.2,1.2c-0.1,0.5-0.4,0.9-0.7,1l0,0c-0.2,0.1-0.4,0.2-0.6,0.1l0,0c-0.2,0-0.4-0.1-0.6-0.2
		c-0.3-0.2-0.5-0.6-0.6-1.1c0-0.5,0-1.2,0.1-1.9c0-0.4,0.1-0.7,0.1-1c0-0.7,0.1-1.2,0.1-1.9c0.1-1.1,0.1-2.2,0.1-3.4
		c0-1.4-0.1-1.4-0.3-1.5c-0.3-0.2-0.9-0.4-1.8-1.5c-0.3-0.4-0.6-0.8-0.9-1.2l-0.2-0.3l0,0c-0.5-0.6-0.6-1.1-0.6-1.4
		c0-0.2,0.1-0.5,0.2-0.6c0.2-0.1,0.3-0.2,0.5-0.2c0.3,0,0.6,0.1,0.9,0.2c0.2,0.2,0.4,0.4,0.7,0.8c0.5,0.6,1.2,1.4,2,1.8l0,0
		c0.2,0.1,0.7,0,1.2,0c0.4,0,0.8-0.1,1.1-0.1c0.3,0,0.6,0.1,0.8,0.1c0.4,0.1,0.6,0.1,1.1-0.3c0.7-0.5,1.1-1,1.5-1.5
		c0.1-0.1,0.2-0.2,0.3-0.3c0.6-0.7,1.1-1,1.8-0.4l0.1,0.1l0,0.1c0.3,0.5,0,1.3-0.6,2.1c-0.7,1.1-1.8,2.2-2.2,2.5
		c-0.3,0.2-0.5,0.3-0.7,0.4c-0.2,0.1-0.2,0.1-0.2,1.4C284.3,45.9,284.4,48.2,284.6,50.3C284.5,50.3,284.6,50.3,284.6,50.3z
		 M282.4,47.1L282.4,47.1L282.4,47.1L282.4,47.1z"/>
	<path class="st0" d="M270,19.9c-0.4,0.1-0.6,0.2-0.9,0.3l0,0c-0.2,0.1-0.3,0.3-0.6,0.6c-0.4,0.6-0.5,1.2-0.3,1.9
		c0.1,0.3,0.2,0.5,0.3,0.7c0.2,0.2,0.3,0.4,0.6,0.6c0.5,0.3,1.1,0.5,1.9,0.3c1.1-0.2,1.6-1,1.7-1.8c0-0.3,0-0.7-0.1-1
		c-0.1-0.3-0.2-0.6-0.4-0.9C271.7,20,270.9,19.6,270,19.9z M268.5,19.2L268.5,19.2c0.3-0.2,0.7-0.3,1.2-0.5c1.5-0.4,2.7,0.2,3.4,1.1
		c0.3,0.4,0.5,0.8,0.6,1.3c0.1,0.5,0.2,1,0.1,1.4c-0.2,1.2-0.9,2.3-2.5,2.7c-1.1,0.3-2.1,0-2.8-0.5c-0.3-0.2-0.6-0.6-0.8-0.9
		c-0.2-0.3-0.4-0.7-0.5-1.1c-0.2-0.9-0.1-2,0.5-2.8C268,19.7,268.2,19.5,268.5,19.2z"/>
	<path class="st0" d="M293,19.8c-1.1,0.3-1.7,1.1-1.8,1.8c0,0.3,0,0.7,0.1,1c0.1,0.3,0.2,0.6,0.5,0.9c0.5,0.6,1.3,1,2.3,0.7
		c1.1-0.3,1.6-1,1.7-1.8c0-0.3,0-0.7-0.1-1c-0.1-0.3-0.2-0.7-0.5-0.9C294.7,19.9,293.9,19.6,293,19.8z M290.1,21.5
		c0.2-1.1,1-2.2,2.6-2.7c1.5-0.4,2.6,0.1,3.4,1.1c0.3,0.4,0.5,0.8,0.7,1.3c0.1,0.5,0.2,1,0.1,1.5c-0.2,1.2-0.9,2.3-2.5,2.8
		c-1.5,0.4-2.7-0.2-3.4-1.1c-0.3-0.4-0.5-0.8-0.7-1.3C290.1,22.5,290,22,290.1,21.5L290.1,21.5z"/>
	<path class="st0" d="M280.8,38.6c0.1,0.5,0.5,0.7,0.9,0.8c0.2,0,0.4,0,0.6,0c0.2,0,0.3-0.1,0.5-0.2l0,0c0.3-0.2,0.5-0.7,0.4-1.2
		c-0.1-0.5-0.5-0.7-0.9-0.8c-0.2,0-0.4,0-0.5,0c-0.2,0-0.3,0.1-0.5,0.2C280.9,37.6,280.7,38,280.8,38.6L280.8,38.6z M281.5,40.5
		c-0.8-0.2-1.6-0.7-1.8-1.7c-0.2-1.1,0.2-1.9,0.8-2.4c0.3-0.2,0.6-0.3,0.9-0.4c0.3-0.1,0.6-0.1,1,0c0.8,0.2,1.5,0.7,1.8,1.6
		c0.3,1.1-0.1,1.9-0.8,2.4l0,0c-0.3,0.2-0.6,0.3-0.9,0.4C282.1,40.6,281.8,40.6,281.5,40.5C281.5,40.5,281.5,40.5,281.5,40.5z"/>
	<rect x="247.1" y="-7.1" class="st1" width="69.7" height="69.7"/>
	<rect x="80.6" y="-6.8" class="st1" width="69.7" height="69.7"/>
	<rect x="164.6" y="-7.1" class="st1" width="69.7" height="69.7"/>
	<rect x="158.4" y="55.1" class="st1" width="69.7" height="69.7"/>
	<rect x="76" y="55.1" class="st1" width="69.7" height="69.7"/>
	<rect x="-5" y="55.1" class="st1" width="69.7" height="69.7"/>
	<g id="_882495888">
		<path class="st0" d="M40.5,95.8H27.9h-0.5v-0.5v-5h-0.7v5v0.5h-0.5h-1.5h-0.5v-0.5c0-0.8,0-1.5,0.1-2.2c0-0.5,0-1,0-1.5
			c0-0.8,0-1.3-0.2-1.3H13.1c-5.5,0-5.5,4.1-5.5,8.3v0.7h44.3V85.7c0-0.2,0-0.3,0-0.3c-0.9,0-3.3,2.7-4.5,3.9
			c-0.2,0.3-0.5,0.5-0.6,0.6L44,92.9c-0.1,0.1-0.3,0.3-0.5,0.5C42.7,94.3,41.3,95.8,40.5,95.8L40.5,95.8z M28.4,94.8h12.1
			c0.3,0,1.5-1.3,2.3-2.1c0.2-0.2,0.4-0.4,0.5-0.6l2.9-2.9c0.1-0.1,0.3-0.3,0.5-0.6c1.3-1.4,3.9-4.2,5.2-4.2c0.6,0,1,0.4,1,1.3v14
			v0.5h-0.5H7.1H6.6v-0.5c0-0.6,0-0.9,0-1.2c-0.1-4.6-0.1-9.3,6.5-9.3h11.1c1,0,1.2,0.9,1.2,2.3c0,0.4,0,0.9,0,1.5
			c0,0.5,0,1.1-0.1,1.7h0.5v-5v-0.5h0.5h1.7h0.5v0.5L28.4,94.8L28.4,94.8z"/>
		<path class="st0" d="M7.6,102.3v12.2h1.7v-10.1v-0.5h0.5h39.8h0.5v0.5v10.1h1.7v-12.4H7.7c-0.1,0-0.1,0-0.2,0l0,0
			C7.5,102.1,7.5,102.2,7.6,102.3L7.6,102.3z M6.6,115.1v-12.8c0-0.4,0.1-0.7,0.3-0.9l0,0c0.2-0.2,0.5-0.3,0.9-0.3h44.7h0.5v0.5V115
			v0.5h-0.5h-2.8h-0.5V115v-10.1H10.4V115v0.5H9.9H7.1H6.6L6.6,115.1L6.6,115.1z"/>
		<path class="st0" d="M29.5,76.9h1.4h0.5v0.5c0,4.5,1,6.5,1.8,8.1c0.6,1.3,1.2,2.4,1.2,4.2v0.5h-0.5h-3.8v3h9.7
			c0.3,0,1.1-1,1.7-1.6l0,0c0.2-0.2,0.3-0.4,0.4-0.5c0.2-0.2,0.9-0.9,1.6-1.6c1.8-1.8,4.4-4.3,5.3-5.4c-0.9-0.6-1.8-1.1-2.8-1.2
			c-1.1-0.1-2.2,0.2-3.6,1.6l-0.6,0.6c-1.5,1.5-4.7,5-5.5,5h-1.1h-0.5v-0.5c0-1.8-0.5-2.9-1.1-4.2c-0.8-1.8-1.8-3.8-1.8-8.2v-0.5
			h0.5H35v-7.2c0-0.1,0-0.1,0-0.2c0,0,0,0-0.2,0h-5.5L29.5,76.9L29.5,76.9z M30.4,77.9H29h-0.5v-0.5v-8.3v-0.5H29h6
			c0.4,0,0.7,0.1,0.9,0.3c0.2,0.2,0.3,0.5,0.3,0.9v7.7v0.5h-0.5H33c0.1,3.8,1,5.6,1.7,7.2c0.6,1.3,1.1,2.4,1.2,4.1h0.6
			c0.3,0,3.4-3.2,4.8-4.6l0.6-0.6l0,0c1.6-1.7,3.1-2.1,4.5-2c1.3,0.2,2.5,0.9,3.7,1.7l0.4,0.3l-0.3,0.4c-0.5,0.8-3.6,3.8-5.8,5.9
			c-0.6,0.6-1.1,1.1-1.6,1.6c-0.1,0.1-0.2,0.2-0.4,0.4l0,0c-0.7,0.7-1.7,1.9-2.5,1.9H29.7h-0.5v-0.5v-4v-0.5h0.5h3.7
			c-0.1-1.3-0.6-2.2-1.1-3.3C31.5,84.4,30.5,82.4,30.4,77.9L30.4,77.9z"/>
		<path class="st0" d="M55,82.3v32.3h1.5V82.3c0-0.1-0.1-0.2-0.2-0.3c-0.2-0.2-0.4-0.2-0.6-0.2c-0.2,0-0.4,0.1-0.6,0.2
			C55.1,82.1,55.1,82.2,55,82.3C55.1,82.3,55,82.3,55,82.3z M54,115.1V82.3c0-0.4,0.2-0.8,0.6-1.1c0.3-0.3,0.8-0.5,1.2-0.5
			s0.9,0.2,1.2,0.5c0.3,0.3,0.6,0.7,0.6,1.1v32.8v0.5h-0.5h-2.5H54L54,115.1L54,115.1z"/>
		<path class="st0" d="M3.1,91.5v23.1h1.5V91.5c0-0.2-0.2-0.3-0.4-0.4C4.1,91,4,91,3.9,91s-0.2,0-0.4,0.1
			C3.3,91.1,3.1,91.3,3.1,91.5L3.1,91.5z M2.1,115.1V91.5c0-0.7,0.5-1.2,1.1-1.4C3.4,90,3.7,90,3.9,90c0.2,0,0.5,0,0.7,0.1
			c0.6,0.2,1.1,0.7,1.1,1.4v23.6v0.5H5.2H2.7H2.2L2.1,115.1C2.2,115.1,2.1,115.1,2.1,115.1z"/>
		<path class="st0" d="M44.8,77V78c0,1.5,0.9,2.5,2,2.9c0.5,0.2,1,0.2,1.5,0.2c0.5,0,1-0.1,1.5-0.2c1.1-0.4,2-1.4,2-2.9V77
			c0-0.6-0.4-1.3-1-1.9c-0.6-0.6-1.3-1-1.9-1h-1.3c-0.6,0-1.3,0.4-1.9,1l0,0C45.2,75.6,44.8,76.4,44.8,77L44.8,77z M43.8,78V77
			c0-0.9,0.5-1.9,1.3-2.6l0,0l0,0c0.7-0.7,1.7-1.3,2.6-1.3H49c0.9,0,1.9,0.5,2.6,1.3c0.7,0.7,1.3,1.7,1.3,2.6V78
			c0,2-1.2,3.3-2.7,3.8c-0.6,0.2-1.2,0.3-1.8,0.3s-1.2-0.1-1.8-0.3C45,81.3,43.8,80.1,43.8,78L43.8,78z"/>
		<path class="st0" d="M26.8,67.6v20.1h0.7V68.5c0-1,0.5-1.6,1.1-2c0.2-0.2,0.5-0.2,0.8-0.2c0.3,0,0.5,0,0.8,0.2
			c0.4,0.2,0.7,0.6,0.9,1.2h0.9c-0.1-1.1-0.7-1.7-1.4-2c-0.3-0.1-0.7-0.2-1.1-0.2c-0.4,0-0.7,0.1-1.1,0.2l0,0
			C27.5,66,26.8,66.7,26.8,67.6L26.8,67.6z M25.7,88.3V67.6c0-1.5,1-2.5,2.2-3l0,0c0.5-0.2,1-0.2,1.5-0.3c0.5,0,1,0.1,1.5,0.3
			c1.2,0.5,2.1,1.6,2.1,3.4v0.5h-0.5h-1.9H30l0-0.5c0-0.5-0.2-0.7-0.4-0.8c-0.1,0-0.2-0.1-0.3,0c-0.1,0-0.2,0-0.3,0.1
			c-0.3,0.2-0.6,0.6-0.6,1.1v19.8v0.5H28h-1.7h-0.5L25.7,88.3L25.7,88.3z"/>
	</g>
	<g id="_882502512">
		<path class="st0" d="M98.9,98.7c0-0.6,0.2-0.9,0.4-1.3c0.9,0.6,0.7,0.7,2.2,1.5c1.2,0.6,1.5,0.6,2.7,1.1c1.3,0.4,3.3,0.7,4.8,0.9
			c0.3,0,0.6,0,0.9,0c0.5,0,0.5,0.1,0.9,0.1s0.4-0.1,0.8-0.1c2.3-0.1,3.3-0.2,5.7-0.8c1-0.3,2-0.7,2.9-1.2l0.9-0.6
			c0.4-0.3,0.7-0.6,1.1-0.8c0.2,0.3,0.4,0.7,0.4,1.2c0,2-2.7,3.5-4.3,4.1c-5.1,2-13.4,1.9-17.9-1.5C99.9,100.9,98.8,99.8,98.9,98.7
			L98.9,98.7z M117.7,96.4c0.1-0.1-0.2-0.1,0.2-0.1C117.8,96.4,118,96.4,117.7,96.4z M117.7,96.4c-0.2,0.2-1,0.3-1.2,0.4
			c-2.5,0.7-6.5,0.9-9.1,0.5c-2.7-0.4-6.4-1.5-8-3.7c-0.6-0.9-0.7-1.6-0.2-2.5c0.6,0.3,1.7,0.5,2.3,0.7c1.8,0.4,0.6-0.1,1.9,1.1
			c2.7,2.6,7.5,3.7,11.3,3.7C115.8,96.5,116.7,96.5,117.7,96.4L117.7,96.4z M115.4,93.2c-2.1,0-5-0.3-6.9-1
			c-0.2-0.1-0.2-0.1-0.4-0.2c3.4,0,9.8-1.7,11.1-5.2c0.4-1.2,0.1-0.3,2-1.6c0.3-0.2,0.5-0.3,0.8-0.6c0.3-0.2,0.6-0.4,0.7-0.8
			c0.7,0.3,1.3,0.6,2.1,1.1C131,89,122.8,93.2,115.4,93.2L115.4,93.2L115.4,93.2z M97.8,79.9c0,0.9,0,1.7,0.2,2.4
			c0.4,1.2,1.3,2.2,2.3,2.8c0.2,0.2,0.5,0.3,0.7,0.5c0.3,0.2,0.6,0.3,0.9,0.4c2.4,1.2,7.5,2.1,10.6,1.7c0.3,0,0.9-0.1,1.1-0.1
			c-0.4,0.2-2.4,0.7-2.8,0.8c-4.3,0.9-10.9,0.4-14.4-2.2c-0.9-0.7-2.3-2-1.7-3.6C95.2,81.4,96.6,80.5,97.8,79.9L97.8,79.9z
			 M98.9,79.1c0-2,2.7-3.4,4.2-4.1c4.4-1.8,11.1-1.8,15.5,0c1.5,0.6,4.2,2.1,4.2,4.1c0,2.9-5.1,4.6-7.7,5c-4,0.7-7.9,0.5-11.7-0.9
			C101.7,82.7,98.9,81.1,98.9,79.1L98.9,79.1z M93.4,83.3c0,2.3-0.3,4,1.7,5.6c1.8,1.4,1.4,1,2.9,1.8c0,0.4-0.3,0.8-0.3,1.6
			c0,1-0.1,2.2,0.2,3.2c0.1,0.4,0.4,0.8,0.5,1.1c-0.4,0.8-0.7,1.2-0.7,2.4c0,2.2-0.2,3.7,1.9,5.2c3.4,2.7,7.4,3.2,12,3.2
			c3.3,0,8.3-1.1,10.7-3.4c1.8-1.7,1.6-2.8,1.6-5c0-1.2-0.3-1.8-0.8-2.5l0.3-0.4c0.8-1.4-0.1-0.9,1.2-1.6c1.5-0.8,3.6-2.3,3.6-4.3
			c0-2.8,0.3-4.1-2.3-6c-0.5-0.3-1.8-1.2-2.3-1.2c0-0.5,0.3-0.7,0.3-1.8c0-2.3,0.2-3.2-1.5-5c-0.4-0.4-0.8-0.7-1.3-1
			c-2.2-1.4-6.3-2.4-9.4-2.4c-2.9,0-4.7,0.1-7.5,0.9c-2.6,0.8-5.3,2.1-6.2,4.8c-0.2,0.6-0.5,0.4-1.5,1.1
			C95.1,80.1,93.4,81.5,93.4,83.3L93.4,83.3L93.4,83.3z"/>
		<path class="st0" d="M107.8,75v0.7c0,0.3,0.3,0.2,0.7,0.2c0.3,0,0.6,0,0.9,0c0.3,0,0.6,0.1,0.8,0.3c0.1,0.1,0.3,0.2,0.3,0.4h-2.2
			c-0.5,0-0.5,0-0.5,0.7c0,0.3,0.2,0.2,0.5,0.2h2.3c-0.1,0.2-0.1,0.3-0.4,0.6c-0.5,0.4-1.4,0.4-2.1,0.4c-0.2,0-0.2,0-0.2,0.2
			c0,0.2,0,0.7,0,0.8c0.1,0.1,0.1,0.2,0.2,0.2c0.2,0.2,0.7,0.7,0.9,1l1.5,1.7c0,0,0.1,0.1,0.1,0.1l0.2,0.2c0,0,0,0,0.1,0.1
			c0.1,0.1,0.1,0.2,0.2,0.2h1.2c0.1,0,0.3-0.2,0.1-0.3l-2.6-3c0,0-0.1-0.1-0.1-0.1c0.5,0,1.2-0.3,1.6-0.6c0.1-0.1,0.2-0.2,0.3-0.3
			c0.3-0.4,0.4-0.7,0.5-1.1c0.2,0,0.5,0,0.7,0c0.6,0,0.5,0,0.5-0.8c0-0.3-0.2-0.2-0.5-0.2c-0.2,0-0.5,0-0.7,0c0-0.1-0.1-0.4-0.2-0.7
			c0-0.1-0.1-0.1-0.1-0.2c0.3,0,1,0,1.3,0c0.2,0,0.2-0.1,0.2-0.2v-0.6c0-0.1-0.1-0.2-0.2-0.2h-5.1C107.9,74.8,107.8,74.9,107.8,75
			L107.8,75L107.8,75z"/>
	</g>
	<g id="_882435184">
		<path class="st2" d="M175.9,104.8V91.7c0-2.8,1.1-4.9,4.1-4.9h27.8c1.3,0,2.2,0.6,2.9,1.2c0.7,0.7,1.1,1.7,1.1,3v14.3
			c0,1.7-0.8,3-2.1,3.7c-0.5,0.2-0.9,0.4-1.6,0.4h-28.5c-1.1,0-2-0.7-2.7-1.4C176.1,107.3,175.9,106.2,175.9,104.8z M214.6,84.9v0.7
			c-0.1,1.4-0.7,2.5-1.2,3.8c-0.1,0.4,0.1,0.9,0.1,1.5v14.3c0,1.8-0.7,3.3-1.6,4.2c-0.9,0.9-2.2,1.9-3.7,1.9h-28.6
			c-1.7,0-3.4-1.3-4.2-2.3c-1.1-1.5-1.1-2.2-1.2-3.6c0-0.3-0.1-0.4-0.1-0.7c0.2-1.2,0-1,0-1.5c0-0.3,0.1-0.4,0.1-0.8
			c0-0.4-0.1-0.5-0.1-0.8c0-0.3,0.1-0.4,0.1-0.8c0-0.4-0.1-0.5-0.1-0.8c0-0.3,0.1-0.4,0.1-0.8c0-0.4-0.1-0.5-0.1-0.8
			c0-0.3,0.1-0.4,0.1-0.8c0-0.4-0.1-0.5-0.1-0.8c0-0.3,0.1-0.4,0.1-0.8c0-0.4-0.1-0.5-0.1-0.8c0-0.3,0.1-0.4,0.1-0.8
			c0-0.9-0.1,0,0-1.3c-1.3-1.4-2.2-2.5-2.2-4.8c0-1.2,0.4-2.1,0.8-3c1-2.4,2.4-5.8,3.2-8.1c0.2-0.5,0.3-0.9,0.6-1.4
			c0.9-2.3,1.4-4.5,3.7-5.8c2-1.1,3.5-1,5.4-0.2l6.4,2.6c2.7,1.2,5.8,2.4,8.5,3.5c0.7,0.3,1.4,0.6,2.2,0.9l6.4,2.6
			c0.4,0.2,0.7,0.3,1.1,0.4c0.4,0.2,0.7,0.3,1.1,0.4c0.7,0.4,1.2,0.6,1.8,1.2l0.7,0.8C214.2,83,214.5,83.9,214.6,84.9L214.6,84.9z
			 M174.2,89.9c-1-1.1-0.2-3.3,0.2-4.4l4.7-12c0.4-1,0.5-1.4,1.2-2.1c2-2,4.5-0.5,6.6,0.4l19.8,8.2c0.6,0.2,1.3,0.5,2,0.8
			c0.7,0.3,1.4,0.6,2,0.9c2.1,1,2.7,3.5,1.6,5.7c-0.5-0.3-1.6-2.3-4.7-2.3H180c-0.9,0-1.5,0.2-2.2,0.4c-1.2,0.5-2.2,1.4-2.9,2.5
			C174.7,88.4,174.2,89.3,174.2,89.9L174.2,89.9L174.2,89.9z"/>
		<path class="st0" d="M201.6,106.1c0,0.6,0.5,0.9,1.1,0.9c1.1,0,5.5,0.2,6-0.2c0.6-0.5,0.3-1.6-0.5-1.6h-5.8
			C202,105.2,201.6,105.6,201.6,106.1L201.6,106.1z"/>
		<path class="st0" d="M192.8,106c0,0.6,0.5,1,1.1,1c1.1,0,5.5,0.2,6-0.2c0.6-0.5,0.3-1.6-0.5-1.6h-5.8
			C193.2,105.1,192.8,105.6,192.8,106z"/>
		<path class="st0" d="M205.9,95.6h-0.7v-4.3c0-0.6,2-0.1,2.4,0.2C208.7,92.5,208.7,95.6,205.9,95.6L205.9,95.6z M204.4,90.6v5.7
			c1,0,2.5,0.4,3.7-0.7c1.1-0.9,1.3-3.4,0.1-4.4c-0.2-0.2-0.6-0.4-0.9-0.5C206.4,90.4,205.3,90.4,204.4,90.6L204.4,90.6L204.4,90.6z
			"/>
		<path class="st0" d="M201.6,93.1h-0.8v-2.1c1.2,0,1.9-0.1,1.9,1.2C202.7,92.8,202.2,93.2,201.6,93.1L201.6,93.1z M200,90.7v5.5
			h0.7v-2.5c0.9,0,1.4,0,1.6,0.7c0.1,0.3,0.1,0.5,0.2,0.9c0.1,0.3,0.2,0.6,0.2,0.9h0.8l-0.4-1.5c-0.1-0.5-0.3-1-0.8-1.1v-0.2
			c1.4-0.3,1.6-3-1-3c-0.4,0-0.6,0-0.8,0.1C200.3,90.4,200,90.3,200,90.7L200,90.7L200,90.7z"/>
		<path class="st0" d="M196.9,91.3c0,0.4,0.6,2.2,0.7,2.5h-1.6l0.6-1.9C196.7,91.6,196.6,91.5,196.9,91.3L196.9,91.3z M194.5,96.2
			h0.8c0.1-0.6,0.5-1.1,0.5-1.7h2l0.6,1.7h0.8l-1.9-5.7h-0.9L194.5,96.2L194.5,96.2z"/>
		<path class="st0" d="M189.7,93.4c0,0.8,0.3,1.6,0.7,2.1c1.1,1.3,3.5,0.7,3.5,0.5c0-0.3-0.1-0.2-0.1-0.5c-0.5,0-0.5,0.2-1.3,0.2
			c-2.7,0-2.6-4.6,0-4.6c1,0,0.8,0.1,1.3,0.2c0-0.3,0.1-0.3,0.1-0.6c-0.6-0.1-0.1-0.2-1.6-0.2c-0.7,0-1.6,0.5-1.9,0.9
			C190.1,91.8,189.7,92.5,189.7,93.4z"/>
	</g>
</g>
<g id="Layer_x0020_1_1_">
	<g id="_797200336">
		<path class="st0" d="M11.6,146.8h-0.5c-0.8,0-1.4-0.6-1.7-1.3c-0.1-0.3-0.2-0.6-0.2-0.9c0-0.3,0.1-0.6,0.2-0.9
			c0.4-0.7,1.2-1.3,2.6-1.3h1.1h0.5v0.5c0,0.2,0,0.3,0,0.4c0,0.2,0,0.4,0,0.6C13.6,145.3,13.4,146.8,11.6,146.8L11.6,146.8z
			 M11.1,145.8h0.5c1,0,1.2-1.1,1.2-2c0-0.3,0-0.4,0-0.5h-0.7c-1,0-1.6,0.3-1.8,0.8c-0.1,0.1-0.1,0.3-0.1,0.5c0,0.2,0,0.4,0.1,0.5
			C10.4,145.5,10.8,145.8,11.1,145.8z M9.2,134.5c0-0.5,0.2-1.1,0.5-1.5c0.3-0.4,0.8-0.7,1.3-0.7l0,0h0.1c0.8,0,1.2,0,1.8,0.7
			c0.6,0.6,0.6,1.7,0.6,2.8c0,0.1,0,0.3,0,0.5v0.5h-0.5h-0.3c-0.9,0-2.1,0-2.7-0.4c-0.3-0.2-0.5-0.5-0.7-0.8
			C9.3,135.3,9.2,134.9,9.2,134.5L9.2,134.5L9.2,134.5z M10.5,133.6c-0.2,0.3-0.3,0.6-0.3,0.9c0,0.2,0.1,0.4,0.1,0.6
			c0.1,0.2,0.3,0.4,0.4,0.5c0.4,0.3,1.3,0.3,2,0.3v-0.1c0-0.8,0-1.7-0.3-2.1c-0.4-0.4-0.7-0.4-1.2-0.4h-0.1l0,0
			C10.9,133.3,10.7,133.5,10.5,133.6L10.5,133.6L10.5,133.6z M8.9,134.2c0,0.5,0,1,0.2,1.4c0.1,0.4,0.4,0.7,0.8,1
			c0.3,0.2,0.6,0.3,1,0.4c0.5,0.1,1,0.1,1.5,0.1c0.2,0,0.3,0,0.4,0l0,0c0.3-0.1,0.5-0.1,0.9,0.2c0.1,0.1,0.4,0.4,0.7,0.6
			c0.5,0.4,1,1,1.2,1.2l0.4,0.3l-0.3,0.4c-0.3,0.5-0.8,0.9-1.3,1.3c-0.2,0.2-0.4,0.4-0.6,0.6c-0.5,0.5-0.7,0.5-1.1,0.3
			c-0.1,0-0.1,0-0.3,0c-1.2,0-2.1,0.1-2.8,0.6l0,0C9.3,143,9,143.7,9,144.9c0,1,0.6,1.7,1.4,2.1c0.3,0.1,0.7,0.2,1,0.2
			c0.4,0,0.7-0.1,1.1-0.2c0.9-0.4,1.5-1.2,1.5-2.7l0,0l-0.1-1.8v-0.3l0.2-0.1l2.7-1.7l0.3-0.1l0.3,0.2c0.6,0.4,1.2,0.8,1.7,1.2
			c1,0.7,2,1.4,3.1,2.1c0.3,0.1,0.5,0.4,0.9,0.6c1.7,1.1,4.3,2.8,5.8,1.7l0.1,0l0,0c0.1-0.1,0.2-0.1,0.3-0.2
			c-0.7-0.4-2.7-1.6-4.6-2.7c-2.5-1.4-5-2.8-5.2-3.1l-0.3-0.4l0.5-0.3c0.4-0.2,0.8-0.5,1.2-0.7c0.4-0.3,0.8-0.5,1.2-0.7l0,0l2.5-1.4
			l0,0c0.3-0.2,0.6-0.3,0.9-0.5l0.3-0.2l0,0l3.4-2c-0.1-0.1-0.2-0.2-0.4-0.3c-0.4-0.2-1-0.3-1.4-0.3c-0.9,0-1.8,0.5-2.5,0.9l0,0
			l-0.2,0.1l0,0c-0.8,0.4-1.6,1-2.5,1.5c-0.9,0.6-1.7,1.1-2.5,1.6c-0.4,0.3-0.8,0.6-1.2,0.9c-0.4,0.3-0.8,0.5-1.2,0.8L17,139
			l-0.3-0.2c-0.2-0.1-0.5-0.3-0.8-0.5c-0.1-0.1-0.3-0.2-0.5-0.3c-0.1-0.1-0.3-0.2-0.4-0.3c-0.3-0.2-0.6-0.4-0.9-0.6l-0.3-0.1v-0.3
			c0-0.3,0-0.5,0-0.8c0.1-1,0.2-2.2-0.7-3.1l0,0l0,0l0,0l0,0l-0.7-0.5c-0.4-0.2-0.8-0.3-1.2-0.3c-0.5,0-0.9,0.1-1.3,0.4l0,0
			c-0.4,0.2-0.7,0.5-0.9,0.9c-0.1,0.3-0.3,0.6-0.3,1L8.9,134.2L8.9,134.2z M8.3,136c-0.2-0.5-0.3-1.1-0.3-1.7c0-0.5,0.1-1,0.4-1.4
			c0.3-0.5,0.8-1,1.3-1.3l0,0c0.5-0.3,1.2-0.5,1.8-0.5c0.5,0,1.1,0.1,1.6,0.4h0h0l0.7,0.5h0l0,0l0,0l0,0l0,0l0,0
			c1.2,1.2,1.1,2.7,1,3.9c0,0.2,0,0.3,0,0.5c0.3,0.1,0.5,0.3,0.8,0.5c0.1,0.1,0.3,0.2,0.4,0.3c0.1,0.1,0.3,0.2,0.5,0.3
			c0.2,0.1,0.4,0.2,0.5,0.4c0.3-0.2,0.6-0.4,0.9-0.7c0.4-0.3,0.8-0.6,1.3-0.9c0.8-0.5,1.6-1.1,2.5-1.6c0.9-0.5,1.7-1.1,2.5-1.6l0,0
			l0.2-0.1l0,0c0.8-0.4,1.9-1.1,3-1.1c0.6,0,1.3,0.1,1.9,0.4c0.5,0.3,0.9,0.6,1,1.2l0.1,0.3l-0.3,0.2l-3.8,2.2l0,0l-0.3,0.2
			c-0.3,0.2-0.5,0.3-0.9,0.5l0,0l-2.5,1.4l0,0c-0.4,0.3-0.9,0.5-1.3,0.8c-0.2,0.1-0.4,0.3-0.6,0.4c0.8,0.5,2.6,1.5,4.4,2.6
			c2.5,1.4,5,2.8,5.2,3.1l0.2,0.2l-0.1,0.3c-0.3,0.5-0.4,0.6-0.8,0.9l0,0l-0.1,0c-2.1,1.3-5-0.5-6.8-1.7c-0.3-0.2-0.6-0.4-0.9-0.5
			c-1.1-0.6-2.1-1.4-3.2-2.1c-0.5-0.4-1-0.7-1.4-1l-2.2,1.4l0.1,1.5v0c0,1.9-0.9,3-2.1,3.5c-0.4,0.2-0.9,0.3-1.4,0.3
			c-0.5,0-1-0.1-1.4-0.3c-1.2-0.4-2.1-1.4-2.1-2.9s0.5-2.5,1.3-3.1l0,0c0.8-0.6,1.9-0.8,3.3-0.8c0.3,0,0.4,0.1,0.5,0.1
			c0,0,0,0,0.1-0.1c0.2-0.2,0.4-0.4,0.7-0.6c0.3-0.3,0.6-0.5,0.9-0.8c-0.3-0.3-0.7-0.7-1-0.9c-0.3-0.3-0.5-0.5-0.6-0.6
			c0,0-0.1,0-0.1,0l0,0c-0.1,0-0.3,0.1-0.6,0.1c-0.6,0-1.2,0-1.7-0.2c-0.5-0.1-1-0.3-1.3-0.5c-0.6-0.4-1-0.9-1.2-1.4L8.3,136z"/>
		<path class="st0" d="M27.6,164.5c0,0.3,0,0.5,0.1,0.6c0.1,0.1,0.3,0.2,0.6,0.2c0.4,0,0.8-0.7,1-1.2c0-0.1,0.1-0.1,0.1-0.2
			c0.2-0.3,0.4-0.7,0.6-1c0.2-0.4,0.4-0.7,0.6-1l0,0l6.1-9.9l0,0c0.1-0.2,0.2-0.4,0.3-0.5c0.1-0.2,0.2-0.3,0.3-0.5l0,0
			c0.3-0.4,0.4-0.7,0.4-1c0-0.1,0-0.2-0.1-0.3c0-0.1-0.1-0.1-0.1-0.2l0,0c-0.1-0.1-0.3-0.1-0.4-0.1c-0.4,0-0.8,0.6-1,1
			c-0.1,0.1-0.1,0.3-0.2,0.4c-0.2,0.4-0.4,0.7-0.6,1c-0.2,0.4-0.4,0.7-0.6,1c-0.5,0.7-0.9,1.5-1.4,2.2c-0.4,0.6-0.7,1.2-1.1,1.7
			c-0.1,0.1-0.2,0.3-0.3,0.4c-0.1,0.2-0.2,0.4-0.4,0.6c-0.4,0.7-2,3-3,4.9C28.1,163.6,27.6,164.4,27.6,164.5L27.6,164.5L27.6,164.5z
			 M27,165.7c-0.3-0.3-0.4-0.7-0.4-1.2c0-0.3,0.5-1.2,1.2-2.4c1.1-1.8,2.6-4.2,3-4.9c0.1-0.2,0.2-0.4,0.3-0.5
			c0.1-0.1,0.2-0.3,0.3-0.5c0.4-0.6,0.7-1.2,1.1-1.7c0.5-0.8,0.9-1.5,1.4-2.2c0.2-0.4,0.4-0.7,0.6-1c0.2-0.4,0.4-0.7,0.6-1
			c0.1-0.1,0.1-0.2,0.2-0.3c0.4-0.6,0.9-1.5,1.8-1.5c0.4,0,0.7,0.1,0.9,0.3l0,0c0.2,0.1,0.4,0.3,0.5,0.5c0.1,0.2,0.1,0.4,0.1,0.7
			c0,0.4-0.1,0.9-0.5,1.5l0,0c-0.1,0.2-0.2,0.3-0.3,0.5c-0.1,0.1-0.2,0.3-0.3,0.5l0,0l-6.1,9.9l0,0c-0.2,0.4-0.4,0.7-0.6,1
			c-0.2,0.3-0.4,0.7-0.6,1c0,0-0.1,0.1-0.1,0.2c-0.4,0.7-0.9,1.6-1.8,1.6C27.8,166.1,27.3,165.9,27,165.7
			C27,165.6,27,165.7,27,165.7z"/>
		<path class="st0" d="M26.1,154.3c0-0.3,0-0.5,0-0.8c0-0.3,0-0.5,0-0.6c0-1.3,0.2-2.2,1.6-2.2c0.1,0,0.1,0,0.2,0l0,0
			c0.5,0.1,0.7,0.5,0.9,1.1c0.1,0.4,0.1,1,0.1,1.5c0,0.7-0.1,1.4-0.1,1.7c-0.1,0.5-0.4,0.9-0.8,1c-0.2,0.1-0.4,0.1-0.7,0.1
			c-0.2,0-0.4-0.1-0.6-0.3C26.4,155.7,26.1,155.2,26.1,154.3C26.1,154.3,26.1,154.3,26.1,154.3z M27,153.5c0,0.3,0,0.6,0,0.8
			c0,0.5,0.1,0.8,0.3,0.9c0,0,0.1,0.1,0.1,0.1c0,0,0.1,0,0.1,0c0.1,0,0.2-0.2,0.3-0.4c0.1-0.3,0.1-0.9,0.1-1.5c0-0.5,0-0.9-0.1-1.3
			c-0.1-0.2-0.1-0.4-0.2-0.4l0,0c-0.6,0-0.7,0.5-0.7,1.2C27,153.1,27,153.3,27,153.5L27,153.5L27,153.5z M27.7,151.7L27.7,151.7
			L27.7,151.7L27.7,151.7L27.7,151.7z M24.4,153.5c0,1.8,0.8,3,1.8,3.4c0.4,0.2,0.8,0.3,1.3,0.3l0,0c0.4,0,0.9-0.1,1.3-0.3
			c1-0.4,1.8-1.4,1.8-2.9c0-0.9,0-1.8-0.3-2.5c-0.2-0.7-0.7-1.3-1.5-1.7c-0.6-0.3-1.3-0.4-2-0.2c-0.6,0.1-1.2,0.5-1.7,1
			c-0.2,0.2-0.4,0.6-0.5,1.1C24.5,152.3,24.4,153,24.4,153.5L24.4,153.5z M25.8,157.8c-1.3-0.6-2.4-2-2.4-4.3c0-0.6,0.1-1.3,0.3-2
			c0.1-0.6,0.4-1.1,0.7-1.4c0.6-0.7,1.4-1.1,2.2-1.3c0.9-0.2,1.8-0.1,2.6,0.3c1.1,0.5,1.7,1.3,2,2.2c0.3,0.9,0.3,1.8,0.3,2.8
			c0,1.9-1,3.1-2.4,3.7c-0.5,0.2-1.1,0.3-1.6,0.3l0,0C27,158.2,26.4,158.1,25.8,157.8L25.8,157.8z"/>
		<path class="st0" d="M38,163.6c-1.3,0-1.5-1.2-1.5-2.4c0-0.1,0-0.3,0-0.5c0-0.1,0-0.2,0-0.4c0-2.1,0.8-2.1,1.6-2.1c0,0,0,0,0.1,0
			c0.6,0,1,0.8,1.2,1.7c0,0.3,0.1,0.7,0.1,1s0,0.7-0.1,1C39.2,162.9,38.8,163.6,38,163.6z M37.5,161.2c0,0.8,0.1,1.5,0.6,1.5
			c0.2,0,0.3-0.4,0.4-0.9c0-0.3,0.1-0.5,0.1-0.9c0-0.3,0-0.6-0.1-0.9c-0.1-0.5-0.2-0.9-0.2-0.9h-0.1c-0.3,0-0.6,0-0.6,1.1
			c0,0.1,0,0.3,0,0.5C37.5,160.8,37.5,160.9,37.5,161.2L37.5,161.2L37.5,161.2z M34.9,160.3c0,0.1,0,0.1,0,0.4c0,1.1,0,2.1,0.8,3
			c0.3,0.4,0.9,0.7,1.6,0.8c0.6,0.1,1.2,0.1,1.7,0c0.5-0.2,1-0.5,1.4-1.1c0.4-0.6,0.7-1.4,0.7-2.5c0-1.2-0.3-2-0.7-2.6
			c-0.4-0.5-0.9-0.9-1.5-1.1c-0.6-0.2-1.2-0.1-1.8,0c-0.7,0.1-1.2,0.4-1.4,0.7c-0.2,0.3-0.4,0.7-0.6,1.1
			C35,159.4,34.9,159.9,34.9,160.3z M34,160.7v-0.4c0-0.5,0.1-1,0.3-1.5c0.2-0.5,0.4-1,0.7-1.4c0.4-0.5,1.1-0.9,2-1.1
			c0.7-0.1,1.5-0.1,2.2,0.1c0.8,0.2,1.4,0.7,2,1.4c0.5,0.7,0.8,1.8,0.8,3.1c0,1.3-0.3,2.3-0.8,3c-0.5,0.8-1.2,1.2-2,1.4
			c-0.7,0.2-1.5,0.2-2.2,0.1c-0.8-0.2-1.6-0.6-2.1-1.2C34,163.1,34,162,34,160.7z"/>
		<path class="st0" d="M21.4,170.8c0,0.2,0,0.4,0.1,0.5c0,0.1,0.1,0.2,0.2,0.3l0,0c0.1,0.1,0.2,0.2,0.4,0.3c0.1,0.1,0.3,0.1,0.4,0.1
			H28c0.5,0,0.8-0.3,0.9-0.6c0.1-0.1,0.1-0.3,0.1-0.4c0-0.1,0-0.3-0.1-0.4c-0.1-0.4-0.5-0.6-1.2-0.6h-5c-0.4,0-0.8,0.1-1,0.3
			C21.5,170.3,21.4,170.5,21.4,170.8L21.4,170.8z M20.6,171.6c-0.1-0.3-0.1-0.5-0.1-0.8c0-0.5,0.3-1,0.7-1.4
			c0.4-0.3,0.9-0.5,1.6-0.5h5c1.1,0,1.8,0.5,2.1,1.2c0.1,0.3,0.2,0.5,0.2,0.8c0,0.3-0.1,0.5-0.1,0.8c-0.3,0.7-0.9,1.2-1.8,1.2h-5.6
			c-0.3,0-0.6-0.1-0.8-0.2c-0.3-0.1-0.4-0.3-0.6-0.4l0,0C20.9,172.1,20.7,171.9,20.6,171.6L20.6,171.6L20.6,171.6z"/>
		<path class="st0" d="M15.1,151.6v5c0,0.6,0.3,1,0.6,1.2c0.1,0.1,0.3,0.1,0.4,0.1c0.1,0,0.3,0,0.4-0.1c0.4-0.1,0.6-0.5,0.6-1.2v-5
			c0-0.6-0.3-1-0.7-1.2c-0.1-0.1-0.3-0.1-0.4-0.1c-0.1,0-0.3,0-0.4,0.1C15.3,150.6,15,151,15.1,151.6L15.1,151.6z M14.1,156.6v-5
			c0-1,0.5-1.7,1.2-2c0.3-0.1,0.5-0.2,0.8-0.2c0.3,0,0.5,0.1,0.8,0.2c0.7,0.3,1.2,1,1.2,2v5c0,1.1-0.5,1.7-1.2,2
			c-0.3,0.1-0.5,0.2-0.8,0.2c-0.3,0-0.5-0.1-0.8-0.2C14.7,158.3,14.2,157.6,14.1,156.6L14.1,156.6z"/>
		<path class="st0" d="M15.1,163.2v0.7c0,1.4,0,2.7,0.5,4c0.3,0.8,0.7,1.2,1,1.4c0.2,0.1,0.3,0.1,0.5,0.1c0.1,0,0.3-0.1,0.4-0.2
			c0.3-0.2,0.4-0.6,0.4-0.9c0-0.1-0.1-0.3-0.2-0.6c-0.2-0.4-0.5-1-0.5-1.7c0-0.4,0-0.8,0-1.3c0-0.6,0-1.3,0-1.7
			c-0.1-0.5-0.3-0.8-0.7-0.9c-0.1-0.1-0.3-0.1-0.4-0.1c-0.1,0-0.3,0.1-0.4,0.1C15.3,162.2,15.1,162.6,15.1,163.2L15.1,163.2
			L15.1,163.2z M14.1,163.9c0-0.1,0-0.3,0-0.7c0-0.9,0.4-1.6,1-2c0.3-0.1,0.5-0.3,0.9-0.3c0.3,0,0.6,0,0.9,0.1
			c0.6,0.3,1.1,0.8,1.2,1.7c0.1,0.5,0.1,1.2,0,1.9c0,0.4,0,0.9,0,1.2c0,0.5,0.3,0.9,0.4,1.3c0.2,0.4,0.3,0.7,0.3,1
			c0,0.6-0.3,1.2-0.7,1.6c-0.3,0.2-0.5,0.4-0.9,0.5c-0.3,0.1-0.7,0-1.1-0.1c-0.5-0.3-1.1-0.8-1.5-1.9
			C14.2,166.8,14.2,165.3,14.1,163.9L14.1,163.9L14.1,163.9z"/>
		<path class="st0" d="M45.8,170.1c0,0.2,0.1,0.4,0.3,0.6c0.1,0.1,0.2,0.2,0.3,0.2c0.1,0.1,0.3,0.1,0.4,0.1l0,0
			c0.4,0,0.8-0.2,1.4-0.7c1.1-0.9,1.8-2.2,2.1-3.3c0.2-0.6,0.2-1.2,0.2-1.6c0-0.4-0.2-0.7-0.4-0.9c-0.1-0.1-0.3-0.1-0.5-0.1
			c-0.9,0-1,0.7-1.1,1.5l0,0c-0.1,0.5-0.1,1-0.4,1.4c-0.5,1-1.1,1.4-1.5,1.7C46.1,169.4,45.8,169.6,45.8,170.1L45.8,170.1
			L45.8,170.1z M45.3,171.4c-0.3-0.4-0.5-0.8-0.5-1.2c0-1,0.4-1.3,1-1.7c0.4-0.3,0.9-0.6,1.3-1.4c0.1-0.3,0.2-0.7,0.3-1.2l0,0
			c0.2-1.2,0.4-2.3,2-2.3c0.4,0,0.8,0.1,1.1,0.3c0.4,0.3,0.7,0.8,0.8,1.5c0.1,0.6,0,1.3-0.2,2c-0.4,1.3-1.2,2.8-2.4,3.8
			c-0.8,0.6-1.4,0.9-2,0.9l0,0c-0.3,0-0.6-0.1-0.8-0.2C45.7,171.7,45.5,171.5,45.3,171.4L45.3,171.4L45.3,171.4z"/>
		<path class="st0" d="M25.3,139.8c0,0.3,0.1,0.5,0.3,0.7c0.2,0.2,0.4,0.3,0.7,0.3H32c0.4,0,0.7-0.3,0.8-0.6c0-0.1,0.1-0.3,0.1-0.4
			s0-0.3-0.1-0.4c-0.1-0.3-0.3-0.5-0.7-0.5h-5.9c-0.2,0-0.4,0.1-0.5,0.3C25.4,139.4,25.3,139.6,25.3,139.8z M25,141.2
			c-0.4-0.4-0.6-0.9-0.6-1.4c0-0.5,0.2-0.9,0.5-1.3c0.3-0.4,0.8-0.6,1.2-0.6h5.9c0.8,0,1.3,0.5,1.6,1.1c0.1,0.3,0.1,0.5,0.1,0.8
			s0,0.5-0.1,0.8c-0.3,0.7-0.8,1.2-1.7,1.2h-5.6C25.8,141.8,25.3,141.6,25,141.2L25,141.2L25,141.2z"/>
		<path class="st0" d="M36.9,139.8c0,0.3,0.1,0.5,0.3,0.7l0,0c0.2,0.2,0.4,0.3,0.7,0.3h5.6c0.4,0,0.7-0.3,0.8-0.6
			c0-0.1,0.1-0.3,0.1-0.4c0-0.1,0-0.3-0.1-0.4c-0.1-0.3-0.3-0.5-0.7-0.5h-5.8c-0.3,0-0.5,0.1-0.6,0.3
			C37,139.4,36.9,139.7,36.9,139.8C36.9,139.9,36.9,139.8,36.9,139.8z M36.6,141.2L36.6,141.2c-0.4-0.4-0.6-0.9-0.6-1.4
			c0-0.4,0.2-0.9,0.6-1.3c0.3-0.3,0.8-0.5,1.3-0.5h5.8c0.8,0,1.3,0.5,1.6,1.2c0.1,0.3,0.1,0.5,0.1,0.8l0,0c0,0.3,0,0.5-0.1,0.8
			c-0.3,0.7-0.8,1.2-1.7,1.2h-5.6C37.4,141.8,36.9,141.6,36.6,141.2L36.6,141.2z"/>
		<path class="st0" d="M34.7,171.9h5.6c0.5,0,0.8-0.3,1-0.6c0-0.1,0.1-0.3,0.1-0.4c0-0.1,0-0.3-0.1-0.4c-0.1-0.3-0.4-0.5-0.7-0.5
			h-5.9c-0.2,0-0.4,0.1-0.5,0.2c-0.1,0.1-0.2,0.2-0.2,0.4c0,0.1-0.1,0.3-0.1,0.4l0,0c0,0.3,0.1,0.5,0.3,0.7c0.1,0.1,0.2,0.1,0.4,0.2
			C34.5,171.9,34.6,171.9,34.7,171.9L34.7,171.9L34.7,171.9z M40.3,172.9h-5.6c-0.2,0-0.4-0.1-0.7-0.2c-0.3-0.1-0.5-0.3-0.6-0.4
			c-0.4-0.4-0.5-0.9-0.5-1.3l0,0c0-0.3,0-0.5,0.1-0.8c0.1-0.3,0.3-0.5,0.4-0.7c0.3-0.3,0.7-0.5,1.2-0.5h5.9c0.8,0,1.3,0.5,1.6,1.2
			c0.1,0.3,0.1,0.5,0.1,0.8c0,0.3,0,0.5-0.1,0.8C41.8,172.3,41.3,172.8,40.3,172.9C40.3,172.8,40.3,172.9,40.3,172.9z"/>
		<path class="st0" d="M49.3,148.9c0.4,0,0.7-0.1,0.9-0.3c0.2-0.1,0.3-0.4,0.3-0.7c0-0.4,0-0.9,0-1.3c0-1.5,0-2.5-0.6-4
			c-0.3-0.7-0.6-1-0.9-1.1c-0.2-0.1-0.3-0.1-0.5,0c-0.1,0-0.3,0.1-0.4,0.2c-0.2,0.2-0.4,0.5-0.4,0.8c0,0.3,0.1,0.4,0.2,0.7
			c0,0.1,0.1,0.2,0.1,0.2l0,0c0.1,0.2,0.2,0.4,0.3,0.6c0.1,0.2,0.1,0.4,0.1,0.7c0.1,0.7,0.1,1.4,0,2c0,0.8-0.1,1.4,0.2,1.8
			c0.1,0.1,0.2,0.2,0.4,0.3c0.1,0,0.2,0.1,0.3,0.1L49.3,148.9z M50.8,149.3c-0.4,0.3-0.9,0.5-1.5,0.5c-0.3,0-0.5-0.1-0.7-0.2
			c-0.3-0.1-0.5-0.3-0.6-0.5c-0.5-0.6-0.5-1.4-0.5-2.4c0-0.6,0.1-1.2,0-1.8c0-0.2-0.1-0.4-0.1-0.5c0-0.1-0.1-0.3-0.2-0.5l0,0
			c0-0.1-0.1-0.1-0.1-0.2c-0.1-0.3-0.3-0.5-0.3-1c0-0.6,0.2-1.2,0.7-1.6c0.3-0.2,0.5-0.4,0.8-0.4c0.3-0.1,0.7-0.1,1,0
			c0.6,0.2,1.1,0.7,1.5,1.6c0.7,1.7,0.7,2.8,0.6,4.3c0,0.4,0,0.7,0,1.3C51.3,148.5,51.1,148.9,50.8,149.3L50.8,149.3z"/>
		<path class="st0" d="M48.4,153.8v5.8c0,0.2,0.1,0.4,0.3,0.6c0.2,0.1,0.5,0.3,0.8,0.3c0.2,0,0.4-0.1,0.6-0.3l0,0
			c0.2-0.2,0.3-0.4,0.3-0.6v-5.8c0-0.2-0.1-0.4-0.3-0.6c-0.2-0.1-0.4-0.3-0.7-0.3c-0.3,0-0.5,0.1-0.7,0.3
			C48.5,153.3,48.4,153.5,48.4,153.8L48.4,153.8z M47.5,159.6v-5.8c0-0.5,0.3-0.9,0.6-1.3s0.9-0.5,1.3-0.5c0.5,0,0.9,0.2,1.3,0.5
			c0.4,0.4,0.6,0.8,0.6,1.3v5.8c0,0.4-0.2,0.9-0.6,1.2l0,0l0,0c-0.3,0.3-0.8,0.6-1.2,0.6c-0.6,0-1.1-0.2-1.4-0.5
			C47.6,160.5,47.4,160.1,47.5,159.6L47.5,159.6L47.5,159.6z"/>
	</g>
	<g id="_797187408">
		<path class="st0" d="M85.3,156.1c0.7,2,1.7,4.2,2.8,6.3c0.9,1.8,1.8,3.7,2.5,5.5c1.1-0.3,1.6-0.8,2.1-1.3
			c1.6-1.4,2.6-2.4,11.7,2.8c6.6,3.8,7.6,3.1,12.8,0c0.4-0.3,0.8-0.5,1-0.6c1.2-0.7,2.2-1.4,3.3-2.1c0.9-0.6,1.8-1.2,2.8-1.8
			c1.2-0.7,2.2-1.4,3.3-2.2c0.9-0.6,1.8-1.2,2.8-1.8c0.2-0.1,0.3-0.2,0.4-0.3l0,0c1.6-1.1,4.5-2.8,4.7-4.2c0,0,0-0.1,0-0.1l0,0
			c0-0.5-0.1-1-0.5-1.3c-0.3-0.4-0.8-0.6-1.3-0.7c-0.1,0-0.1,0-0.2,0c-1.2-0.1-2.1,0.3-3,0.7c-0.3,0.1-0.6,0.3-0.9,0.4l-0.6,0.2
			l0-0.6c0-0.1,0-0.1,0-0.2l0,0c0-0.5-0.2-0.9-0.5-1.1l0,0c-0.3-0.3-0.8-0.4-1.3-0.5c-0.1,0-0.3,0-0.4,0c-0.7,0-1.3,0.1-1.8,0.4
			c-0.5,0.2-0.9,0.5-1.4,0.9l-0.2,0.1l-0.2-0.1c-0.3-0.2-0.6-0.4-0.8-0.6c-0.4-0.4-0.8-0.7-1.6-0.7c-0.6,0-1.6,0.4-2.8,0.9
			c-1.5,0.7-3,1.7-3.8,2.2c2.7,0,6.4,0.1,7.6,1.8c0.4,0.6,0.7,1.3,0.7,2.1c0,0.8-0.1,1.5-0.4,2.2c-1.5,3-6.6,2.8-10.6,2.6
			c-0.8,0-1.6-0.1-2.4-0.1c-1.5,0-2.9-0.3-4.1-0.8c-1.3-0.6-2.4-1.4-3.2-2.4l-0.7-0.8l1.1,0.1c1.7,0.3,2.4,0.5,3,0.7
			c1,0.4,1.7,0.6,6.9,0.6c0.4,0,0.8,0,1.2,0c1.7,0,4,0.1,5.4-0.4c0.9-0.3,1.4-0.9,1-2c-0.6-0.9-2.7-0.9-4.1-0.9c-0.1,0-0.3,0-0.4,0
			c-5.9-0.1-9-2.4-11.7-4.5c-2.9-2.2-5.2-3.9-10.2-1.9l0,0L85.3,156.1L85.3,156.1z M87.4,162.8c-1.1-2.3-2.2-4.6-2.9-6.8l-0.1-0.4
			l0.4-0.1l8.4-3.6l0,0c5.4-2.2,7.9-0.3,11,2c2.6,2,5.6,4.2,11.2,4.3c0.1,0,0.3,0,0.4,0c1.6,0,4,0,4.8,1.3l0,0v0
			c0.6,1.7-0.1,2.6-1.4,3.1c-1.6,0.6-3.9,0.5-5.7,0.5c-0.4,0-0.8,0-1.2,0c-5.4,0-6.1-0.2-7.2-0.6c-0.4-0.1-0.8-0.3-1.6-0.5
			c0.6,0.5,1.3,0.9,2.1,1.3c1.1,0.5,2.4,0.8,3.7,0.8c0.7,0,1.5,0,2.4,0.1c3.8,0.1,8.7,0.3,9.9-2.2c0.3-0.5,0.4-1.2,0.3-1.8
			c0-0.6-0.3-1.2-0.6-1.6c-1-1.4-4.9-1.4-7.5-1.4c-0.2,0-0.4,0-0.6,0h-1l0.7-0.7l0.5-0.5l0,0l0,0c0.6-0.5,2.5-1.7,4.3-2.5
			c1.2-0.6,2.4-1,3.1-1c1.1,0,1.6,0.4,2.1,0.8c0.1,0.1,0.3,0.3,0.5,0.4c0.4-0.3,0.9-0.6,1.3-0.8c0.6-0.3,1.2-0.4,2.1-0.4
			c0.1,0,0.3,0,0.4,0c0.7,0,1.3,0.3,1.8,0.7l0,0c0.4,0.3,0.6,0.8,0.7,1.4c0.1,0,0.2-0.1,0.4-0.1c1-0.4,2-0.9,3.4-0.8
			c0.1,0,0.2,0,0.3,0c0.7,0.1,1.3,0.4,1.8,0.9c0.5,0.5,0.7,1.2,0.7,1.9l0,0c0,0.1,0,0.1,0,0.2c-0.3,1.7-3.3,3.6-5,4.7l0,0
			c-0.2,0.1-0.4,0.3-0.4,0.3c-0.9,0.6-1.8,1.2-2.8,1.8c-1,0.7-2.1,1.4-3.3,2.2c-1,0.6-1.9,1.2-2.7,1.8c-1.1,0.7-2.1,1.4-3.3,2.2
			c-0.5,0.3-0.8,0.5-1,0.6c-5.5,3.4-6.6,4.1-13.6,0c-8.5-4.9-9.4-4.1-10.7-2.9c-0.7,0.6-1.3,1.3-2.8,1.6l-0.3,0.1l-0.1-0.3
			c-0.7-1.9-1.7-3.8-2.6-5.8L87.4,162.8z"/>
		<path class="st0" d="M105.2,146.3c0.1,1.7,0.9,3.2,2.2,4.2c1.2,1,2.8,1.6,4.6,1.4c2.9-0.2,4.6-2,5.2-4.1c0.3-0.8,0.3-1.7,0.3-2.6
			c-0.1-0.9-0.3-1.7-0.7-2.5c-1-2-3-3.4-5.9-3.1c-1.6,0.1-3.2,1-4.2,2.2C105.6,143,105.1,144.6,105.2,146.3z M106.9,151.2
			c-1.4-1.2-2.3-2.9-2.5-4.8c-0.2-2,0.5-3.7,1.6-5c1.2-1.4,2.9-2.3,4.8-2.5c3.3-0.3,5.6,1.3,6.7,3.5c0.4,0.9,0.7,1.8,0.8,2.8
			c0.1,1,0,2-0.3,2.9c-0.7,2.4-2.7,4.4-5.9,4.6C110.1,153,108.2,152.4,106.9,151.2L106.9,151.2L106.9,151.2z"/>
		<path class="st0" d="M119.4,140.2c2-0.2,3.3-1.2,3.8-2.4c0.3-0.6,0.4-1.2,0.4-1.8c0-0.6-0.1-1.2-0.4-1.8c-0.6-1.3-1.9-2.4-3.7-2.4
			c0,0-0.1,0-0.1,0c-1.1,0-2.2,0.4-2.9,1.1c-0.8,0.7-1.2,1.7-1.3,2.9l0,0v0.1l0,0c0,0.9,0.3,1,0.9,1.3
			C116.8,137.5,118,138,119.4,140.2L119.4,140.2z M123.9,138.1c-0.7,1.6-2.2,2.8-4.7,2.9H119l-0.1-0.2c-1.3-2-2.4-2.5-3.2-2.8
			c-0.9-0.4-1.3-0.6-1.3-2l0,0c0,0,0-0.1,0-0.1c0-1.4,0.6-2.6,1.5-3.5c0.9-0.9,2.1-1.3,3.5-1.3c0,0,0.1,0,0.1,0
			c2.2,0.1,3.7,1.3,4.4,2.9c0.3,0.7,0.5,1.4,0.5,2.1C124.3,136.7,124.2,137.4,123.9,138.1L123.9,138.1z"/>
		<path class="st0" d="M113.6,142.1v7.5v0.1h-0.1h-2.1h-0.1v-0.1V145c-0.1,0.1-0.2,0.1-0.3,0.2c-0.2,0.1-0.3,0.2-0.5,0.3l0,0
			c-0.1,0.1-0.4,0.1-0.5,0.3c-0.2,0.1-0.4,0.1-0.7,0.2l-0.2,0.1v-0.2v-1.7V144l0.1,0c0.3-0.1,0.7-0.2,0.9-0.4
			c0.3-0.1,0.5-0.3,0.7-0.4c0.4-0.3,0.7-0.7,0.9-1.1l0-0.1h0.1h1.7h0.1L113.6,142.1L113.6,142.1z M113.3,149.4v-7.2h-1.4
			c-0.2,0.4-0.5,0.8-0.9,1.1c-0.2,0.2-0.4,0.3-0.7,0.5c-0.3,0.1-0.5,0.3-0.8,0.4v1.3c0.1,0,0.3-0.1,0.4-0.1c0.2-0.1,0.4-0.1,0.5-0.2
			l0,0c0.1-0.1,0.3-0.2,0.5-0.3c0.1-0.1,0.3-0.2,0.5-0.3l0.3-0.2v0.3v4.7L113.3,149.4L113.3,149.4z"/>
		<path class="st0" d="M120.8,133.7v4.5v0.1h-0.1h-1.3h-0.1v-0.1v-2.7l-0.1,0c-0.1,0.1-0.2,0.1-0.3,0.2c-0.1,0-0.2,0.1-0.3,0.1
			c-0.1,0-0.3,0.1-0.4,0.1l-0.2,0.1v-0.2v-1v-0.1l0.1,0c0.2-0.1,0.4-0.1,0.5-0.2c0.1-0.1,0.3-0.1,0.4-0.3c0.1-0.1,0.2-0.2,0.3-0.3
			c0.1-0.1,0.1-0.2,0.2-0.4l0-0.1h0.1h1h0.1L120.8,133.7L120.8,133.7L120.8,133.7z M120.5,138.1v-4.2h-0.8c-0.1,0.1-0.1,0.2-0.2,0.3
			c-0.1,0.1-0.2,0.3-0.3,0.4s-0.3,0.2-0.4,0.3c-0.1,0.1-0.3,0.1-0.5,0.2v0.7c0.1,0,0.1,0,0.2-0.1c0.1,0,0.2-0.1,0.3-0.1
			c0.1,0,0.2-0.1,0.3-0.1c0.1-0.1,0.2-0.1,0.3-0.2l0.3-0.2v0.3v2.8L120.5,138.1L120.5,138.1z"/>
	</g>
</g>
<g>
	<path class="st2" d="M289.6,75.9c0-0.6,0-1.1,0-1.6c0-1.3,0-2.6,0-4c0-1,0.4-1.6,1.3-1.7c0.4-0.1,0.8,0.1,1.2,0.2
		c0.2,0.1,0.3,0.3,0.5,0.4c2.3,2.3,4.6,4.6,6.9,6.9c0.9,0.9,0.9,1.8,0,2.7c-2.3,2.3-4.6,4.6-7,7c-0.3,0.3-0.6,0.5-0.9,0.6
		c-0.6,0.2-1.3-0.1-1.7-0.6c-0.4-0.6-0.3-1.3,0.1-1.8c0.1-0.1,0.2-0.3,0.4-0.4c2-2,4-4,5.9-5.9c-1.2-1.2-2.3-2.3-3.5-3.5
		c0,0.3,0,0.7,0,1.1c0,0.7,0,1.3,0,2c0,1.3-0.6,1.9-1.9,1.9c-6,0-11.9,0-17.9,0c-3.3,0-5.6,1.5-7.1,4.4c-0.5,1-0.7,2.1-0.7,3.2
		c0,0.6-0.4,1.1-1,1.4c-0.6,0.3-1.1,0.2-1.6-0.2c-0.4-0.3-0.6-0.7-0.6-1.2c0-2.3,0.7-4.3,2-6.2c1.9-2.6,4.4-4.1,7.6-4.5
		c0.5-0.1,1-0.1,1.6-0.1c5.3,0,10.5,0,15.8,0C289.1,75.9,289.3,75.9,289.6,75.9z"/>
	<path class="st2" d="M265.9,102.7c1.2,1.2,2.3,2.3,3.5,3.5c0-0.7,0-1.4,0-2.1c0-0.4,0-0.8,0-1.2c0-1.2,0.6-1.8,1.8-1.8
		c5.1,0,10.2,0,15.2,0c1.3,0,2.6,0.1,3.9-0.1c3.7-0.5,6.4-3.4,6.6-7.2c0-0.2,0-0.5,0.1-0.7c0.2-0.8,0.9-1.3,1.7-1.2
		c0.8,0.1,1.4,0.7,1.4,1.6c0,2.7-0.9,5-2.6,7c-1.8,2.1-4.2,3.3-6.9,3.6c-0.5,0.1-1,0.1-1.6,0.1c-5.3,0-10.5,0-15.8,0
		c-0.2,0-0.4,0-0.6,0c0,0.2,0,0.3,0,0.5c0,1.7,0,3.3,0,5c0,0.4-0.1,0.9-0.3,1.2c-0.5,0.8-1.6,0.9-2.3,0.3c-0.1-0.1-0.2-0.2-0.3-0.3
		c-2.3-2.3-4.6-4.6-7-7c-0.9-0.9-0.9-1.7,0-2.6c2.3-2.3,4.7-4.7,7-7c0.4-0.4,0.9-0.7,1.5-0.6c0.6,0.1,1,0.4,1.3,1
		c0.2,0.5,0.1,1.1-0.2,1.5c-0.1,0.2-0.3,0.3-0.4,0.4C269.8,98.7,267.8,100.7,265.9,102.7z"/>
	<ellipse transform="matrix(5.543808e-03 -1 1 5.543808e-03 189.3593 370.65)" class="st2" cx="281" cy="90.1" rx="1.8" ry="1.8"/>
	<path class="st2" d="M286.5,91.9c-1,0-1.8-0.8-1.8-1.8c0-1,0.8-1.8,1.8-1.8c1,0,1.8,0.8,1.8,1.8C288.3,91.1,287.5,91.9,286.5,91.9z
		"/>
	<path class="st2" d="M277.3,90.1c0,1-0.8,1.8-1.8,1.8c-1,0-1.8-0.8-1.8-1.8c0-1,0.8-1.8,1.8-1.8C276.5,88.4,277.3,89.2,277.3,90.1z
		"/>
</g>
</svg>
