<?xml version="1.0" encoding="UTF-8"?>
<!DOCTYPE svg PUBLIC "-//W3C//DTD SVG 1.1//EN" "http://www.w3.org/Graphics/SVG/1.1/DTD/svg11.dtd">
<!-- Creator: CorelDRAW X6 -->
<svg xmlns="http://www.w3.org/2000/svg" xml:space="preserve" width="0.5in" height="5.5in" version="1.1" style="shape-rendering:geometricPrecision; text-rendering:geometricPrecision; image-rendering:optimizeQuality; fill-rule:evenodd; clip-rule:evenodd"
viewBox="0 0 140 1542"
 xmlns:xlink="http://www.w3.org/1999/xlink">
 <defs>
  <style type="text/css">
   <![CDATA[
    .fil1 {fill:none}
    .fil0 {fill:#3A4855}
    .fil2 {fill:#4FBBB2}
   ]]>
  </style>
 </defs>
 <g id="Layer_x0020_1">
  <metadata id="CorelCorpID_0Corel-Layer"/>
  <g id="_1047931904">
   <g>
    <g>
     <path class="fil0" d="M140 73c0,2 -1,5 -1,7 -4,18 -19,32 -37,35 -22,3 -44,-10 -51,-31 -2,-5 -2,-11 -2,-16 1,-23 18,-40 39,-43 1,0 3,0 4,-1 2,0 4,0 5,0 2,0 4,1 6,1 17,3 32,18 36,35 0,2 1,5 1,7 0,2 0,4 0,6zm-11 -3c0,-19 -16,-35 -35,-35 -20,0 -36,18 -35,38 1,18 16,32 35,32 19,0 35,-16 35,-35z"/>
     <path class="fil0" d="M0 67c0,-2 1,-5 1,-7 4,-18 20,-31 38,-31 0,0 1,0 1,0 -15,9 -23,23 -23,40 0,17 8,31 23,40 -1,0 -1,0 -1,0 -16,0 -30,-10 -36,-25 -2,-4 -3,-8 -3,-12 0,0 0,-1 0,-1 0,-2 0,-3 0,-5z"/>
     <path class="fil0" d="M64 110c-15,0 -27,-6 -34,-19 -9,-15 -8,-30 2,-44 8,-11 19,-17 33,-17 -15,10 -23,23 -23,40 0,17 8,31 22,40z"/>
     <g>
      <path class="fil0" d="M104 93c-2,0 -5,0 -7,0 -1,-1 -2,-2 -3,-4 -4,-6 -9,-11 -13,-17 0,0 0,0 0,0 0,-1 0,-2 0,-4 0,0 0,0 0,0 1,0 2,0 3,0 2,0 4,0 5,0 2,0 3,-1 4,-2 1,-1 2,-3 3,-5 0,0 0,0 0,-1 -5,0 -11,0 -16,0 0,0 0,0 0,0 1,-1 2,-3 2,-4 0,0 0,0 0,0 4,0 8,0 12,0 0,0 0,0 0,0 0,-1 -1,-1 -1,-2 -1,-1 -2,-2 -4,-2 -2,-1 -4,-1 -6,-1 -2,0 -3,0 -5,0 0,0 0,0 0,0 0,0 0,0 0,0 1,-1 2,-3 3,-4 0,0 0,0 0,0 9,0 18,0 27,0 0,0 0,0 0,0 0,0 0,0 0,0 -1,1 -2,3 -2,4 0,0 0,0 0,0 -2,0 -5,0 -7,0 0,0 0,0 0,0 1,1 1,1 2,2 0,1 1,2 1,2 3,0 5,0 8,0 0,0 0,0 0,0 -1,1 -2,2 -2,4 0,0 0,0 0,0 -2,0 -3,0 -5,0 0,0 0,0 0,0 0,1 0,1 0,2 -1,3 -2,5 -5,6 -2,1 -5,2 -7,3 0,0 -1,0 -1,0 0,0 0,0 0,0 5,6 10,12 14,18 1,1 1,1 2,2z"/>
     </g>
    </g>
    <rect class="fil1" width="140" height="140"/>
   </g>
   <g>
    <g>
     <path class="fil0" d="M53 304c0,-1 0,-2 0,-2 0,-6 4,-10 10,-10 5,0 10,0 14,0 5,0 9,3 10,8 0,1 0,2 0,3 0,0 0,1 0,1 0,0 1,0 1,0 9,0 18,0 28,0 4,0 8,2 10,6 1,1 1,3 1,4 0,11 0,21 0,32 0,10 0,19 0,29 0,6 -4,10 -10,10 -8,0 -16,0 -25,0 -16,0 -32,0 -47,0 -7,0 -14,0 -21,0 -6,0 -10,-5 -10,-10 0,-9 0,-19 0,-28 0,-11 0,-22 0,-32 0,-5 4,-9 9,-10 1,0 2,0 2,0 9,0 18,0 27,0 0,0 1,0 1,0zm-9 7c0,0 0,1 0,1 0,6 0,11 0,17 0,8 0,16 0,24 0,8 0,16 0,24 0,1 0,1 1,1 3,0 5,0 8,0 13,0 27,0 40,0 0,0 1,0 1,0 1,0 3,0 4,0 0,-22 0,-44 0,-67 -18,0 -36,0 -54,0zm-7 0c-4,0 -9,0 -13,0 -1,0 -2,0 -2,1 0,1 0,1 0,2 0,12 0,24 0,37 0,8 0,16 0,23 0,2 1,3 3,3 4,0 8,0 11,0 0,0 0,0 1,0 0,-22 0,-44 0,-66zm68 0c0,22 0,44 0,66 0,0 1,0 1,0 4,0 7,0 11,0 2,0 3,-1 3,-3 0,-9 0,-18 0,-27 0,-11 0,-22 0,-33 0,-2 -1,-3 -3,-3 -4,0 -7,0 -11,0 0,0 -1,0 -1,0zm-44 -7c7,0 13,0 20,0 0,-1 0,-2 0,-2 0,-2 -1,-3 -3,-3 -3,0 -5,0 -8,0 -2,0 -4,0 -6,0 -1,0 -2,1 -2,2 0,1 0,2 0,4z" display="inline"/>
     <path class="fil0" d="M122 399c-4,0 -8,0 -12,0 0,3 0,6 -3,9 -2,2 -4,2 -7,2 -4,0 -10,-4 -9,-11 -4,0 -8,0 -12,0 1,3 0,6 -3,8 -2,2 -4,3 -7,3 -4,0 -10,-4 -9,-11 -4,0 -8,0 -12,0 1,7 -5,11 -10,11 -5,0 -9,-5 -8,-11 -4,0 -8,0 -12,0 0,0 0,0 0,1 1,5 -3,9 -7,10 -6,1 -12,-3 -11,-9 0,-4 4,-8 8,-9 1,0 1,0 2,0 16,0 32,0 48,0 18,0 35,0 53,0 7,0 14,0 20,0 5,0 8,3 9,7 1,6 -4,12 -10,11 -5,-1 -9,-5 -8,-11 0,0 0,0 0,0z" display="inline"/>
    </g>
    <rect class="fil1" y="280" width="140" height="140"/>
   </g>
   <g>
    <g>
     <path class="fil0" d="M108 631c0,16 0,33 0,49 0,2 0,2 -2,2 -24,0 -48,0 -72,0 -2,0 -2,0 -2,-2 0,-33 0,-66 0,-99 0,-2 0,-2 2,-2 24,0 48,0 72,0 2,0 2,0 2,2 0,17 0,33 0,50 0,0 0,0 0,0zm-5 45c0,-30 0,-61 0,-91 -22,0 -43,0 -65,0 0,30 0,61 0,91 22,0 43,0 65,0z" display="inline"/>
     <path class="fil0" d="M124 592c-4,1 -7,2 -11,3 0,-2 0,-3 0,-5 0,0 0,-1 1,-1 5,-1 10,-3 15,-4 0,0 0,0 0,0 0,30 0,61 0,91 -3,-1 -6,-2 -9,-2 -2,0 -4,-1 -6,-2 0,0 -1,-1 -1,-1 0,-2 0,-3 0,-5 4,1 7,2 11,3 0,-26 0,-51 0,-77z" display="inline"/>
     <path class="fil0" d="M11 585c3,1 5,1 8,2 2,1 5,1 7,2 1,0 1,1 1,2 0,1 0,3 0,5 -4,-1 -7,-2 -11,-3 0,26 0,51 0,77 4,-1 7,-2 11,-3 0,2 0,4 0,5 0,0 0,1 -1,1 -5,1 -10,3 -15,4 0,0 0,0 0,0 0,-30 0,-60 0,-91z" display="inline"/>
     <path class="fil0" d="M5 677c-2,0 -3,0 -5,0 0,-30 0,-61 0,-91 2,0 3,0 5,0 0,30 0,61 0,91z" display="inline"/>
     <path class="fil0" d="M140 677c-2,0 -3,0 -5,0 0,-30 0,-61 0,-91 2,0 3,0 5,0 0,30 0,61 0,91z" display="inline"/>
    </g>
    <rect class="fil1" y="561" width="140" height="140"/>
   </g>
   <g>
    <rect class="fil1" y="841" width="140" height="140"/>
    <g>
     <path class="fil2" d="M140 914c0,2 -1,5 -1,7 -4,18 -19,33 -37,35 -22,3 -44,-10 -51,-31 -2,-5 -2,-11 -2,-16 1,-23 18,-40 39,-43 1,0 3,0 4,-1 2,0 4,0 5,0 2,0 4,1 6,1 17,3 32,18 36,35 0,2 1,5 1,7 0,2 0,4 0,6zm-11 -3c0,-19 -16,-35 -35,-35 -20,0 -36,18 -35,38 1,18 16,32 35,33 19,0 35,-16 35,-35z"/>
     <path class="fil2" d="M0 909c0,-2 1,-5 1,-7 4,-18 20,-31 38,-31 0,0 1,0 1,0 -15,10 -23,23 -23,40 0,18 8,31 23,40 -1,0 -1,0 -1,0 -16,0 -30,-10 -36,-25 -2,-4 -3,-8 -3,-12 0,0 0,-1 0,-1 0,-2 0,-3 0,-5z"/>
     <path class="fil2" d="M64 952c-15,0 -27,-6 -34,-20 -9,-15 -8,-30 2,-44 8,-11 19,-17 33,-17 -15,10 -23,23 -23,40 0,18 8,31 22,40z"/>
     <g>
      <path class="fil2" d="M104 934c-2,0 -5,0 -7,0 -1,-1 -2,-2 -3,-4 -4,-6 -9,-11 -13,-17 0,0 0,0 0,0 0,-1 0,-2 0,-4 0,0 0,0 0,0 1,0 2,0 3,0 2,0 4,0 5,0 2,0 3,-1 4,-2 1,-1 2,-3 3,-5 0,0 0,0 0,-1 -5,0 -11,0 -16,0 0,0 0,0 0,0 1,-1 2,-3 2,-4 0,0 0,0 0,0 4,0 8,0 12,0 0,0 0,0 0,0 0,-1 -1,-1 -1,-2 -1,-1 -2,-2 -4,-2 -2,-1 -4,-1 -6,-1 -2,0 -3,0 -5,0 0,0 0,0 0,0 0,0 0,0 0,0 1,-1 2,-3 3,-4 0,0 0,0 0,0 9,0 18,0 27,0 0,0 0,0 0,0 0,0 0,0 0,0 -1,1 -2,3 -2,4 0,0 0,0 0,0 -2,0 -5,0 -7,0 0,0 0,0 0,0 1,1 1,1 2,2 0,1 1,2 1,2 3,0 5,0 8,0 0,0 0,0 0,0 -1,1 -2,3 -2,4 0,0 0,0 0,0 -2,0 -3,0 -5,0 0,0 0,0 0,0 0,1 0,1 0,2 -1,3 -2,5 -5,6 -2,2 -5,2 -7,3 0,0 -1,0 -1,0 0,0 0,0 0,0 5,6 10,12 14,18 1,1 1,1 2,2z"/>
     </g>
    </g>
   </g>
   <g>
    <rect class="fil1" y="1122" width="140" height="140"/>
    <g>
     <path class="fil2" d="M53 1145c0,-1 0,-2 0,-2 0,-6 4,-10 10,-10 5,0 10,0 14,0 5,0 9,3 10,8 0,1 0,2 0,3 0,0 0,1 0,1 0,0 1,0 1,0 9,0 18,0 28,0 4,0 8,2 10,6 1,1 1,3 1,4 0,11 0,21 0,32 0,10 0,19 0,29 0,6 -4,10 -10,10 -8,0 -16,0 -25,0 -16,0 -32,0 -47,0 -7,0 -14,0 -21,0 -6,0 -10,-5 -10,-10 0,-9 0,-19 0,-28 0,-11 0,-22 0,-32 0,-5 4,-9 9,-10 1,0 2,0 2,0 9,0 18,0 27,0 0,0 1,0 1,0zm-9 7c0,0 0,1 0,1 0,6 0,11 0,17 0,8 0,16 0,24 0,8 0,16 0,24 0,1 0,1 1,1 3,0 5,0 8,0 13,0 27,0 40,0 0,0 1,0 1,0 1,0 3,0 4,0 0,-22 0,-44 0,-66 -18,0 -36,0 -54,0zm-7 0c-4,0 -9,0 -13,0 -1,0 -2,0 -2,1 0,1 0,1 0,2 0,12 0,24 0,37 0,8 0,16 0,23 0,2 1,3 3,3 4,0 8,0 11,0 0,0 0,0 1,0 0,-22 0,-44 0,-66zm68 0c0,22 0,44 0,66 0,0 1,0 1,0 4,0 7,0 11,0 2,0 3,-1 3,-3 0,-9 0,-18 0,-27 0,-11 0,-22 0,-33 0,-2 -1,-3 -3,-3 -4,0 -7,0 -11,0 0,0 -1,0 -1,0zm-44 -7c7,0 13,0 20,0 0,-1 0,-2 0,-2 0,-2 -1,-3 -3,-3 -3,0 -5,0 -8,0 -2,0 -4,0 -6,0 -1,0 -2,1 -2,2 0,1 0,2 0,4z" display="inline"/>
     <path class="fil2" d="M122 1240c-4,0 -8,0 -12,0 0,3 0,6 -3,9 -2,2 -4,2 -7,2 -4,0 -10,-4 -9,-11 -4,0 -8,0 -12,0 1,3 0,6 -3,8 -2,2 -4,3 -7,3 -4,0 -10,-4 -9,-11 -4,0 -8,0 -12,0 1,7 -5,11 -10,11 -5,0 -9,-5 -8,-11 -4,0 -8,0 -12,0 0,0 0,0 0,1 1,5 -3,9 -7,10 -6,1 -12,-3 -11,-9 0,-4 4,-8 8,-9 1,0 1,0 2,0 16,0 32,0 48,0 18,0 35,0 53,0 7,0 14,0 20,0 5,0 8,3 9,7 1,6 -4,12 -10,11 -5,-1 -9,-5 -8,-10 0,0 0,0 0,0z" display="inline"/>
    </g>
   </g>
   <g>
    <rect class="fil1" y="1402" width="140" height="140"/>
    <g>
     <path class="fil2" d="M108 1472c0,16 0,33 0,49 0,2 0,2 -2,2 -24,0 -48,0 -72,0 -2,0 -2,0 -2,-2 0,-33 0,-66 0,-99 0,-2 0,-2 2,-2 24,0 48,0 72,0 2,0 2,0 2,2 0,17 0,33 0,50 0,0 0,0 0,0zm-5 45c0,-30 0,-61 0,-91 -22,0 -43,0 -65,0 0,30 0,61 0,91 22,0 43,0 65,0z" display="inline"/>
     <path class="fil2" d="M124 1434c-4,1 -7,2 -11,3 0,-2 0,-3 0,-5 0,0 0,-1 1,-1 5,-1 10,-3 15,-4 0,0 0,0 0,0 0,30 0,61 0,91 -3,-1 -6,-2 -9,-2 -2,0 -4,-1 -6,-2 0,0 -1,-1 -1,-1 0,-2 0,-3 0,-5 4,1 7,2 11,3 0,-26 0,-51 0,-77z" display="inline"/>
     <path class="fil2" d="M11 1427c3,1 5,1 8,2 2,1 5,1 7,2 1,0 1,1 1,2 0,1 0,3 0,5 -4,-1 -7,-2 -11,-3 0,26 0,51 0,77 4,-1 7,-2 11,-3 0,2 0,4 0,5 0,0 0,1 -1,1 -5,1 -10,3 -15,4 0,0 0,0 0,0 0,-30 0,-60 0,-91z" display="inline"/>
     <path class="fil2" d="M5 1518c-2,0 -3,0 -5,0 0,-30 0,-61 0,-91 2,0 3,0 5,0 0,30 0,61 0,91z" display="inline"/>
     <path class="fil2" d="M140 1518c-2,0 -3,0 -5,0 0,-30 0,-61 0,-91 2,0 3,0 5,0 0,30 0,61 0,91z" display="inline"/>
    </g>
   </g>
  </g>
 </g>
</svg>
