<?xml version="1.0" encoding="UTF-8"?>
<!DOCTYPE svg PUBLIC "-//W3C//DTD SVG 1.1//EN" "http://www.w3.org/Graphics/SVG/1.1/DTD/svg11.dtd">
<!-- Creator: CorelDRAW X6 -->
<svg xmlns="http://www.w3.org/2000/svg" xml:space="preserve" width="0.5in" height="20.4914in" version="1.1" style="shape-rendering:geometricPrecision; text-rendering:geometricPrecision; image-rendering:optimizeQuality; fill-rule:evenodd; clip-rule:evenodd"
viewBox="0 0 324 13279"
 xmlns:xlink="http://www.w3.org/1999/xlink">
 <defs>
  <style type="text/css">
   <![CDATA[
    .str0 {stroke:#2B2A29;stroke-width:2.55084}
    .str5 {stroke:#2B2A29;stroke-width:2.55084;stroke-linecap:round;stroke-linejoin:round}
    .str1 {stroke:#2B2A29;stroke-width:3.18855}
    .str4 {stroke:#414141;stroke-width:3.18855}
    .str3 {stroke:#2B2A29;stroke-width:6.3771}
    .str2 {stroke:#4E565A;stroke-width:6.3771}
    .fil0 {fill:none}
    .fil31 {fill:#008DD2}
    .fil42 {fill:#00A0E3}
    .fil32 {fill:#045191}
    .fil37 {fill:#0B5BA6}
    .fil6 {fill:#2B2A29}
    .fil13 {fill:#379138}
    .fil26 {fill:#41735A}
    .fil15 {fill:#434242}
    .fil25 {fill:#4E565A}
    .fil34 {fill:#559734}
    .fil7 {fill:#5B5B5B}
    .fil36 {fill:#5C5191}
    .fil23 {fill:#5F2C2B}
    .fil33 {fill:#9D9E9E}
    .fil3 {fill:#A2D9F7}
    .fil10 {fill:#A79ECD}
    .fil4 {fill:#C7E8FB}
    .fil9 {fill:#D2CDE7}
    .fil39 {fill:#DA528F}
    .fil22 {fill:#E31E24}
    .fil19 {fill:#E5097F}
    .fil8 {fill:#E51A4B}
    .fil40 {fill:#E63633}
    .fil16 {fill:#E63F23}
    .fil17 {fill:#EF7F1A}
    .fil14 {fill:#FECC00}
    .fil1 {fill:#FEFEFE}
    .fil24 {fill:black}
    .fil2 {fill:#006CD8}
    .fil21 {fill:#232A2C}
    .fil41 {fill:#252525}
    .fil27 {fill:#2B78BF}
    .fil35 {fill:#333333}
    .fil18 {fill:#3A3B3F}
    .fil5 {fill:#3A4855}
    .fil28 {fill:#3B4551}
    .fil29 {fill:#414141}
    .fil12 {fill:#E6253C}
    .fil30 {fill:#ECB40C}
    .fil11 {fill:#F07886}
    .fil38 {fill:white}
    .fil20 {fill:#3F3183}
   ]]>
  </style>
     <clipPath id="id0">
      <path d="M86 7811l125 0 0 56 52 0 6 16 0 148c0,0 0,41 -45,26 0,0 -20,-21 -16,-25 4,-4 -123,0 -123,0l1 -220z"/>
     </clipPath>
     <clipPath id="id1">
      <path d="M132 9192l-5 9c0,1 -1,1 -2,0l-23 -12c-1,0 -1,-1 -1,-2l9 -17c0,0 0,0 0,0l33 -64c1,-2 5,-3 8,-2l91 49c3,2 4,5 3,7l-33 64c0,0 0,0 0,0l-9 17c0,1 -1,1 -2,0l-23 -12c-1,0 -1,-1 -1,-2l5 -9 -51 -27z"/>
     </clipPath>
     <clipPath id="id2">
      <path d="M135 9221l22 7c2,1 3,3 2,5l-24 74 7 3c3,1 4,4 3,6l-13 41c-1,3 -4,4 -6,3l-44 -15c-3,-1 -4,-4 -3,-6l13 -41c1,-3 4,-4 6,-3l7 3 24 -74c1,-2 3,-3 5,-3z"/>
     </clipPath>
    <clipPath id="id3">
     <path d="M161 7161l1 0c4,15 30,27 62,27 25,0 47,-8 57,-18 3,113 -38,195 -120,248 -76,-54 -121,-133 -119,-248 10,11 32,18 57,18 32,0 58,-12 62,-27z"/>
    </clipPath>
 </defs>
 <g id="Layer_x0020_1">
  <metadata id="CorelCorpID_0Corel-Layer"/>
  <g id="_1135413920">
   <rect class="fil0" y="6479" width="324" height="324"/>
   <rect class="fil0" y="7127" width="324" height="324"/>
   <rect class="fil0" y="7772" width="324" height="324"/>
   <g>
    <path class="fil1" d="M113 6649c-1,-1 -40,111 -40,111l139 2 20 -35 -33 -34 -30 -51c0,0 -48,-1 -52,3 -4,4 -4,4 -4,4z"/>
    <path class="fil2" d="M194 6708c9,0 13,0 19,4 2,2 4,3 6,6 6,8 4,19 -5,26 -4,3 -7,7 -11,11 -3,3 -2,3 -7,3 -39,0 -79,0 -118,0 2,-4 3,-9 5,-14 4,-11 8,-24 12,-35 1,-2 2,-5 3,-7 4,-11 8,-24 12,-35 1,-3 7,-19 7,-21 -6,3 -11,6 -16,9 -19,12 -32,29 -32,54l0 60c0,1 0,1 1,1l183 0c1,0 1,0 1,-1l0 -60c0,-53 -50,-66 -93,-66l14 29c1,2 1,2 2,4l12 25c1,2 4,7 4,8z"/>
    <path class="fil2" d="M105 6569c0,14 3,25 11,36 23,32 69,32 93,0 6,-8 11,-20 11,-31 0,-15 -2,-25 -11,-37 -4,-5 -9,-10 -14,-14 -16,-11 -37,-13 -55,-5 -5,2 -9,5 -13,8 -12,10 -21,26 -21,43z"/>
    <path class="fil2" d="M186 6743c10,0 19,1 26,-4 10,-8 5,-23 -9,-25 -9,-1 -19,0 -28,0 0,2 2,5 2,8 1,3 2,5 3,8l4 11c1,2 1,3 2,3z"/>
    <path class="fil2" d="M172 6708l11 0c-1,-3 -30,-64 -31,-66l-4 0c0,2 2,6 3,8l6 17c1,3 2,6 3,8l12 33z"/>
    <path class="fil2" d="M187 6748c0,3 2,5 2,7 6,0 5,1 8,-2 2,-2 4,-3 5,-5l-15 0z"/>
   </g>
   <rect class="fil0" y="11659" width="324" height="324"/>
   <rect class="fil0" y="9716" width="324" height="324"/>
   <rect class="fil0" y="12955" width="324" height="324"/>
   <rect class="fil0" y="11012" width="324" height="324"/>
   <rect class="fil0" y="8420" width="324" height="324"/>
   <rect class="fil0" y="9068" width="324" height="324"/>
   <rect class="fil0" y="10364" width="324" height="324"/>
   <rect class="fil0" y="12307" width="324" height="324"/>
   <g>
    <polygon class="fil3" points="58,8030 208,8032 221,8060 73,8059 55,8037 "/>
    <polygon class="fil3 str0" points="210,7815 264,7870 210,7870 "/>
    <path class="fil4" d="M86 7811l125 0 0 56 52 0 6 16 0 148c0,0 0,41 -45,26 0,0 -20,-21 -16,-25 4,-4 -123,0 -123,0l1 -220z"/>
    <g style="clip-path:url(#id0)">
     <g>
      <path id="1" class="fil3" d="M255 7903c0,42 -22,79 -55,100 -1,1 -2,2 -3,2 -16,9 -35,14 -55,14 -19,0 -36,-5 -52,-13 0,12 0,20 0,20 0,0 1,0 2,0l60 0c7,0 41,0 47,0 1,0 2,0 3,0 1,0 2,0 3,0 8,0 8,1 8,7 1,6 4,12 8,16 5,5 14,9 24,6 8,-2 14,-7 17,-14 2,-4 2,-8 2,-13 0,-42 -1,-88 -1,-132 0,-6 1,-14 0,-20 -4,0 -8,0 -12,0 2,9 3,18 3,27z"/>
     </g>
    </g>
    <path class="fil0" d="M86 7811l125 0 0 56 52 0 6 16 0 148c0,0 0,41 -45,26 0,0 -20,-21 -16,-25 4,-4 -123,0 -123,0l1 -220z"/>
    <path class="fil5" d="M61 8035c24,0 48,0 72,0l54 0c3,0 6,0 8,0 2,0 7,0 9,0 2,5 0,5 4,12 1,2 2,3 3,5 1,1 3,3 4,4 -7,1 -15,0 -22,0 -33,0 -66,0 -99,0 -3,0 -8,0 -11,0 -9,-1 -16,-5 -20,-13 -1,-2 -3,-6 -3,-8l0 0zm211 -13c0,7 0,14 -2,19 -2,7 -7,13 -14,17 -8,6 -15,6 -26,6 -41,0 -82,0 -123,0 -8,0 -23,1 -30,-1 -7,-2 -15,-6 -19,-12 -2,-3 -4,-6 -6,-10 -5,-15 -2,-16 11,-16 4,0 12,1 15,0l0 0c-1,-41 1,-83 0,-124 0,-26 0,-52 0,-77 0,-18 -2,-17 14,-17l108 0c17,0 7,1 18,9 1,1 1,1 2,2l35 35c1,1 1,1 2,2l11 11c4,4 2,150 2,155zm-9 -126c0,-6 1,-14 0,-20 -10,0 -20,0 -29,0l-22 0c-2,0 -4,0 -6,-1 -2,-2 -1,-10 -1,-14 0,-6 0,-41 0,-43 -3,0 -7,0 -10,0l-102 0c-6,0 -5,-1 -5,5 0,23 0,203 0,203 0,0 1,0 2,0l60 0c7,0 41,0 47,0 1,0 2,0 3,0 1,0 2,0 3,0 8,0 8,1 8,7 1,6 4,12 8,16 5,5 14,9 24,6 8,-2 14,-7 17,-14 2,-4 2,-8 2,-13 0,-42 -1,-88 -1,-132zm-49 -72c1,1 4,4 6,5l27 27c2,2 10,10 11,11l-43 0c0,0 0,-1 0,-1l0 -4 0 -38 0 0z"/>
    <path class="fil5" d="M126 7910c-5,1 -5,7 -1,8 2,1 78,0 89,0 3,0 13,0 15,0 2,0 3,-2 3,-4 0,-2 -1,-4 -3,-4 -2,-1 -78,0 -89,0 -3,0 -12,0 -15,0l0 0z"/>
    <path class="fil5" d="M127 7996c-6,1 -7,8 2,9 5,0 65,0 67,0 6,-1 7,-9 -2,-9 -8,0 -64,0 -67,0l0 0z"/>
    <path class="fil5" d="M131 7948c2,0 3,0 5,0 5,0 5,0 12,0 1,0 2,0 3,0l53 0c9,0 11,-9 -1,-9l-47 0c-9,0 -19,0 -28,0 -4,0 -7,2 -6,5 0,3 5,3 9,3l0 0z"/>
    <path class="fil5" d="M129 7977l68 0c2,0 5,0 7,0 6,-2 5,-8 -3,-8l-72 0c-9,0 -9,9 0,9z"/>
   </g>
   <g>
    <line class="fil0 str1" x1="307" y1="8561" x2="291" y2= "8508" />
    <path class="fil6" d="M307 8555c3,0 6,3 6,6 0,3 -3,6 -6,6 -3,0 -6,-3 -6,-6 0,-3 3,-6 6,-6z"/>
    <path class="fil7" d="M107 8624l183 -161c10,-9 24,-6 30,7l0 0c7,13 4,30 -6,39l-183 161c-10,9 -24,6 -30,-7l0 0c-7,-13 -4,-30 6,-39z"/>
    <path class="fil8" d="M257 8633c33,17 29,17 41,40l2 3c25,-8 26,-14 24,-44l-67 1z"/>
    <path class="fil6" d="M200 8698c12,53 96,39 85,-19 -11,-56 -98,-38 -85,19z"/>
    <path class="fil8" d="M135 8632l101 0c-24,2 -47,20 -50,49l-76 0 -64 1c-10,-3 2,-11 -19,-33 -8,-9 -17,-14 -27,-16l0 -163 20 0c7,2 6,2 8,5 5,11 2,132 2,156l104 1z"/>
    <path class="fil6" d="M0 8731c21,-5 38,-23 33,-51 -4,-20 -17,-30 -33,-33l0 84z"/>
    <path class="fil8" d="M0 8463l21 0c-2,-14 -7,-23 -21,-24l0 24z"/>
   </g>
   <g>
    <path class="fil9" d="M132 9192l-5 9c0,1 -1,1 -2,0l-23 -12c-1,0 -1,-1 -1,-2l9 -17c0,0 0,0 0,0l33 -64c1,-2 5,-3 8,-2l91 49c3,2 4,5 3,7l-33 64c0,0 0,0 0,0l-9 17c0,1 -1,1 -2,0l-23 -12c-1,0 -1,-1 -1,-2l5 -9 -51 -27z"/>
    <g style="clip-path:url(#id1)">
     <g>
      <path id="1" class="fil10" d="M131 9130c1,-2 5,-3 8,-2l91 49c3,2 4,5 3,7l12 -23c1,-2 0,-6 -3,-7l-91 -49c-3,-2 -6,-1 -8,2l-12 23z"/>
     </g>
    </g>
    <path class="fil0 str2" d="M132 9192l-5 9c0,1 -1,1 -2,0l-23 -12c-1,0 -1,-1 -1,-2l9 -17c0,0 0,0 0,0l33 -64c1,-2 5,-3 8,-2l91 49c3,2 4,5 3,7l-33 64c0,0 0,0 0,0l-9 17c0,1 -1,1 -2,0l-23 -12c-1,0 -1,-1 -1,-2l5 -9 -51 -27z"/>
    <path class="fil11" d="M135 9221l22 7c2,1 3,3 2,5l-24 74 7 3c3,1 4,4 3,6l-13 41c-1,3 -4,4 -6,3l-44 -15c-3,-1 -4,-4 -3,-6l13 -41c1,-3 4,-4 6,-3l7 3 24 -74c1,-2 3,-3 5,-3z"/>
    <g style="clip-path:url(#id2)">
     <g>
      <path id="1" class="fil12" d="M90 9348l36 12c3,1 5,-1 6,-3l13 -41c1,-3 -1,-5 -3,-6l-7 -3 24 -74c1,-2 0,-4 -2,-5l-22 -7c-1,0 -1,0 -2,0 3,11 4,23 4,35 0,45 -20,82 -47,92z"/>
     </g>
    </g>
    <path class="fil0 str2" d="M135 9221l22 7c2,1 3,3 2,5l-24 74 7 3c3,1 4,4 3,6l-13 41c-1,3 -4,4 -6,3l-44 -15c-3,-1 -4,-4 -3,-6l13 -41c1,-3 4,-4 6,-3l7 3 24 -74c1,-2 3,-3 5,-3z"/>
   </g>
   <g>
    <path class="fil13" d="M76 9943l0 0c4,3 12,5 17,6 8,2 8,1 9,3 5,7 60,79 171,15 9,-8 16,-19 16,-33 0,-27 3,-38 -17,-57 -3,-3 -13,-11 -17,-12 0,-5 3,-7 3,-17 0,-22 2,-30 -11,-47 -3,-4 -6,-6 -10,-9 -16,-13 -47,-23 -69,-23 -22,0 -35,1 -56,9 -19,8 -39,20 -46,45 -1,5 -3,4 -11,10 -10,8 -22,21 -22,37l0 0 0 0c0,21 -2,38 13,52 9,9 11,10 15,12l0 0c2,1 4,2 7,4l0 0c2,1 5,3 8,4zm120 20c-15,0 -37,-3 -51,-9 -2,-1 -2,-1 -3,-2 25,0 72,-16 82,-49 3,-11 0,-3 15,-15 3,-2 4,-3 6,-6 2,-2 5,-4 5,-8 5,3 10,5 15,10 45,39 -16,79 -70,79l0 0 0 0zm-130 -125c0,8 0,16 1,22 3,11 10,20 17,27 2,1 4,3 5,5 2,1 4,3 6,4 18,11 56,20 78,16 2,0 7,-1 8,-1 -3,2 -17,7 -20,8 -32,8 -80,4 -106,-21 -7,-6 -17,-19 -13,-34 4,-12 14,-20 22,-26l0 0zm8 -7c0,-19 20,-32 31,-38 32,-17 82,-17 114,0 11,6 31,20 31,38 0,27 -38,43 -56,47 -30,7 -58,4 -87,-8 -12,-5 -33,-20 -33,-39l0 0z"/>
    <path class="fil6" d="M130 9789l0 8c0,3 3,2 7,2 3,0 6,0 10,0 3,0 6,1 9,3 1,1 3,3 3,4l-24 0c-6,0 -5,0 -5,8 0,3 2,3 5,3l25 0c-1,3 -1,4 -4,6 -5,5 -16,4 -23,4 -2,0 -3,0 -3,3 0,2 0,8 0,9 1,1 1,2 2,2 2,3 8,8 10,11l16 19c0,0 1,1 1,1l2 2c0,0 0,0 1,1 1,1 1,2 2,2l14 0c1,0 3,-2 1,-4l-29 -33c0,0 -1,-1 -1,-1 5,0 13,-3 17,-7 1,-1 2,-2 3,-3 4,-4 4,-7 6,-12 3,0 5,0 8,0 6,0 5,0 5,-8 0,-3 -2,-2 -5,-2 -3,0 -5,0 -8,0 0,-1 -1,-4 -3,-7 0,-1 -1,-1 -1,-2 4,0 11,0 15,0 2,0 2,-1 2,-2l0 -7c0,-1 -1,-2 -2,-2l-55 0c-1,0 -2,1 -2,3l0 0z"/>
   </g>
   <path class="fil1" d="M161 7161l1 0c4,15 30,27 62,27 25,0 47,-8 57,-18 3,113 -38,195 -120,248 -76,-54 -121,-133 -119,-248 10,11 32,18 57,18 32,0 58,-12 62,-27z"/>
   <g style="clip-path:url(#id3)">
    <g>
     <path id="1" class="fil14" d="M162 7161l0 256c82,-53 123,-135 120,-248 -10,11 -31,18 -57,18 -32,0 -58,-12 -62,-27l-1 0z"/>
    </g>
   </g>
   <path class="fil0 str3" d="M161 7161l1 0c4,15 30,27 62,27 25,0 47,-8 57,-18 3,113 -38,195 -120,248 -76,-54 -121,-133 -119,-248 10,11 32,18 57,18 32,0 58,-12 62,-27z"/>
   <g>
    <path class="fil15" d="M139 11050l35 0 0 11 0 0c-3,0 -6,4 -6,8 0,5 3,8 6,8l0 0 0 21 -35 0 0 -49z"/>
    <polygon class="fil16" points="105,11109 206,11109 196,11086 110,11086 "/>
    <polygon class="fil17" points="98,11103 213,11103 213,11299 98,11299 "/>
    <polygon class="fil6" points="90,11289 221,11289 221,11305 90,11305 "/>
    <polygon class="fil6" points="184,11064 234,11051 234,11048 183,11061 "/>
    <polygon class="fil6" points="183,11067 234,11061 234,11058 183,11064 "/>
    <polygon class="fil6" points="183,11071 234,11071 234,11068 183,11068 "/>
    <polygon class="fil6" points="183,11075 234,11081 234,11078 183,11072 "/>
    <polygon class="fil6" points="183,11078 234,11091 234,11088 184,11075 "/>
   </g>
   <g>
    <g>
     <path class="fil18" d="M198 11702l86 82c9,8 8,22 0,32 -97,108 -225,-22 -118,-113 10,-8 23,-10 32,-1z"/>
     <path class="fil1" d="M215 11726l43 41c4,4 6,9 4,12 -21,26 -86,-38 -59,-57 2,-2 7,0 12,4z"/>
    </g>
    <path class="fil2" d="M129 11823l34 33 -94 96 -15 -2 81 -83c1,-1 1,-3 0,-5l0 0c-1,-1 -3,-1 -5,0l-86 88 -9 -9 86 -88c1,-1 1,-3 0,-5l0 0c-1,-1 -3,-1 -5,0l-58 60 -7 -6 78 -80z"/>
   </g>
   <g>
    <path class="fil7" d="M217 12525c13,58 -37,43 -80,43 -27,0 -48,-1 -58,-23 -4,-9 -27,-128 -25,-134 7,-24 27,1 42,16 29,31 -14,108 49,105 24,-1 12,-6 33,-9 12,-2 27,-1 39,1l-1 1z"/>
    <g>
     <path class="fil19" d="M155 12438l72 2 2 21c-22,7 -72,-4 -88,7l23 4 6 19c38,3 69,-10 80,15l11 49c8,32 20,48 -19,47 -16,-42 -8,-74 -17,-83 -19,-19 -64,7 -94,1 -15,-21 -11,-24 -11,-51 0,-21 -11,-40 -9,-55 34,-16 36,3 44,27l0 -1z"/>
     <path class="fil19" d="M129 12350c9,4 24,11 16,34 -4,12 -19,21 -38,14 -28,-11 -11,-63 22,-48l0 0z"/>
    </g>
    <path class="fil7" d="M61 12390c-4,-9 -6,-18 -2,-31 4,-17 9,-16 28,-13 3,23 2,48 -26,45l0 -1z"/>
   </g>
   <g>
    <path class="fil20" d="M180 13174l-41 -110c-4,-11 -17,-17 -29,-13 -137,44 -70,212 56,152 11,-5 18,-17 14,-29z"/>
    <g>
     <path class="fil20" d="M166 13054l79 -29c3,-1 7,1 8,4l2 7c1,3 -1,7 -4,8l-79 29c-3,1 -7,-1 -8,-4l-2 -7c-1,-3 1,-7 4,-8z"/>
     <path class="fil20" d="M183 13100l79 -29c3,-1 7,1 8,4l2 7c1,3 -1,7 -4,8l-79 29c-3,1 -7,-1 -8,-4l-2 -7c-1,-3 1,-7 4,-8z"/>
     <path class="fil20" d="M200 13146l79 -29c3,-1 7,1 8,4l2 7c1,3 -1,7 -4,8l-79 29c-3,1 -7,-1 -8,-4l-2 -7c-1,-3 1,-7 4,-8z"/>
    </g>
   </g>
   <path class="fil21" d="M177 10433l0 49c20,6 34,25 34,46 0,5 -1,9 -2,13l38 32c7,-14 11,-29 11,-46 0,-48 -36,-88 -82,-95zm-27 48l0 -49c-48,6 -84,47 -84,96 0,16 4,32 11,46l38 -32c-1,-4 -2,-9 -2,-13 0,-23 16,-42 37,-47zm81 114l-37 -31c-9,8 -20,12 -32,12 -12,0 -24,-5 -32,-12l-37 31c18,18 42,29 69,29 27,0 52,-11 69,-29zm-69 -195c71,0 128,57 128,128 0,71 -57,128 -128,128 -71,0 -128,-57 -128,-128 0,-71 57,-128 128,-128z"/>
   <rect class="fil0" y="1944" width="324" height="324"/>
   <g>
    <path class="fil22" d="M235 201l0 0zm-14 31c-3,6 1,12 -2,19 -13,-2 -26,1 -40,-1 -1,-3 0,-6 0,-9 0,-4 0,-7 1,-10 4,2 14,1 20,1 5,0 16,-1 20,1zm-22 -89c7,6 14,40 14,43l-19 0c-9,0 -130,1 -134,-1 6,-11 5,-32 14,-41 11,-10 33,-6 51,-7 4,0 6,0 10,0 7,0 14,0 21,0 4,0 6,0 10,0 10,-1 25,-1 32,5zm-105 89l0 19 -40 1c-1,-5 -1,-14 -1,-19 4,0 6,0 10,0l30 0zm141 -30c6,-2 12,-1 18,-2 7,-1 12,1 18,-1 3,-6 3,-12 -1,-19 -8,-13 -35,-2 -37,-1 -3,3 -3,15 -4,19 -4,-4 -10,-42 -13,-50 -2,-6 -5,-11 -10,-15 -11,-9 -23,-9 -34,-9 -6,0 -11,0 -17,0l-68 0c-30,4 -30,21 -34,39l-9 35c-7,-10 9,-20 -23,-25 -23,-3 -25,17 -19,25 12,1 25,1 37,2 -8,9 -11,12 -11,21 0,20 -5,53 15,58 -1,10 -4,31 7,37 11,5 40,8 39,-19 0,-5 0,-9 0,-14l79 0c4,0 8,-1 12,1 0,2 0,8 0,11 0,7 -3,23 20,24 26,2 28,-12 27,-29 -1,-15 3,-8 11,-21 6,-9 2,-32 3,-46 0,-8 -2,-15 -9,-22z"/>
    <polygon class="fil23" points="324,196 99,4 86,18 312,210 "/>
    <path class="fil24" d="M145 105l0 0zm0 0c-6,5 -14,6 -19,10 2,2 3,4 4,6l32 -15c3,-1 2,0 5,-2 -5,-3 -20,-7 -28,-11 2,-9 -1,-17 2,-22 -6,0 -14,9 -23,13 -7,-6 -12,-12 -20,-19 -1,3 0,24 1,28 -6,2 -29,4 -32,7 6,2 27,15 33,17l4 -6c-4,-4 -8,-4 -12,-7 9,-3 14,-1 17,-4 -3,-4 -3,-11 -2,-16l13 11c5,-6 8,-5 14,-10 2,6 -1,9 1,15 5,4 8,3 13,7z"/>
    <path class="fil25" d="M230 198c-1,-1 -3,-6 -4,-12 -3,-13 -7,-32 -8,-38 -2,-6 -5,-11 -10,-15 -11,-9 -23,-9 -34,-9 -6,0 -11,0 -17,0l-68 0c-30,4 -30,21 -34,39l-6 23 -3 12c-1,-2 -2,-3 -2,-4l-4 6c0,0 1,0 1,0 -3,4 -5,6 -7,9l-1 1c-1,1 -1,2 -2,4 33,6 101,13 213,1l-13 -20c0,2 0,3 -1,4zm-17 -13l-19 0c-9,0 -130,1 -134,-1 6,-11 5,-32 14,-41 11,-10 33,-6 51,-7 4,0 6,0 10,0 7,0 14,0 21,0 4,0 6,0 10,0 10,-1 25,-1 32,5 7,6 14,40 14,43z"/>
    <path class="fil6" d="M91 297c0,-5 0,-9 0,-14l79 0c4,0 8,-1 12,1 0,2 0,8 0,11 0,6 -2,20 15,23 2,0 3,0 5,1 5,0 9,0 12,-1 15,-3 16,-15 15,-29 0,-3 0,-5 0,-7l-185 0c-1,11 -2,28 7,33 2,1 5,2 8,3 5,1 11,1 16,0 8,-2 15,-8 15,-22z"/>
   </g>
   <g>
    <path class="fil26" d="M113 2235c-37,0 -68,-31 -68,-65 0,-13 1,-21 6,-32 2,-4 3,-7 6,-10 4,-6 7,-8 12,-13 2,-1 3,-2 5,-4 34,-25 85,-11 102,29 6,13 8,28 4,43 -3,10 -7,20 -14,28 -13,15 -32,25 -52,25zm-10 -167l102 0c12,0 17,4 23,13l-123 0c0,-4 -2,-8 -2,-13zm-103 -98c0,7 4,11 9,11l47 0c6,0 12,-10 15,9l8 32c2,10 3,21 5,31 1,5 2,11 3,16l3 16c-9,4 -10,3 -24,11 -7,4 -14,11 -18,17 -6,8 -9,13 -13,22 -16,40 2,86 42,106 14,7 24,8 40,8 16,0 32,-7 45,-15 23,-17 35,-41 35,-71l48 0c4,16 0,12 8,16 8,5 11,10 13,11 -1,-2 -14,-79 -15,-82 -2,-14 -4,-28 -11,-38 -6,-8 -17,-18 -30,-18l-110 0 -14 -65c-2,-9 -3,-19 -15,-23 -4,-1 -5,0 -8,-1 -3,-1 -3,-2 -7,-2l-47 0c-4,0 -9,5 -9,9z"/>
    <path class="fil27" d="M102 2184c8,5 14,4 22,0l18 18c-4,2 -6,5 -13,7 -13,5 -28,4 -39,-3 -2,-1 -4,-2 -6,-4l18 -18zm1 -17c0,-13 20,-15 20,1 0,10 -20,12 -20,-1zm27 -11l18 -18c1,3 4,5 7,12 4,11 4,21 0,33 -1,3 -5,11 -8,13l-17 -17c1,-4 6,-11 1,-20l-1 -3zm-38 11c0,5 2,9 4,12l-18 17c-6,-4 -10,-19 -10,-29 0,-9 4,-24 10,-28l17 17c-1,2 -3,7 -3,11zm-8 -34c12,-8 15,-10 32,-10 11,0 18,5 25,10l-17 18c-9,-5 -14,-5 -23,0l-17 -18zm-24 32c0,17 5,29 15,39 8,8 21,16 34,16 15,0 21,-1 35,-10 11,-7 22,-25 22,-39 0,-11 0,-17 -5,-27 -2,-5 -5,-8 -8,-11 -16,-20 -47,-25 -69,-9 -4,2 -4,3 -7,6 -5,5 -7,8 -11,15 -3,5 -5,13 -5,21z"/>
    <path class="fil27" d="M232 2239c-6,0 -6,0 -12,-2 -9,-5 -14,-16 -9,-26 8,-20 38,-16 40,7 1,11 -9,22 -19,22zm-33 -23l0 4c0,16 14,30 32,30 16,0 30,-14 30,-30 0,-10 -3,-17 -9,-23 -12,-12 -32,-13 -45,0 -4,4 -9,12 -9,19z"/>
    <path class="fil26" d="M274 2224l42 0c5,0 7,-3 8,-6l0 -2c0,-3 -3,-6 -7,-6l-44 0c0,4 3,11 1,15z"/>
    <path class="fil28" d="M219 2219c0,3 2,6 4,8 8,8 20,0 20,-8 0,-15 -23,-16 -23,0z"/>
   </g>
   <rect class="fil0" width="324" height="324"/>
   <rect class="fil0" y="648" width="324" height="324"/>
   <rect class="fil0" y="1296" width="324" height="324"/>
   <rect class="fil0" y="2592" width="324" height="324"/>
   <rect class="fil0" y="3240" width="324" height="324"/>
   <rect class="fil0" y="3887" width="324" height="324"/>
   <rect class="fil0" y="4535" width="324" height="324"/>
   <rect class="fil0" y="5183" width="324" height="324"/>
   <rect class="fil0" y="5831" width="324" height="324"/>
   <g>
    <g>
     <path class="fil29" d="M140 694c0,0 44,-25 54,-5 10,19 39,71 21,79 -18,8 -86,41 -170,-7 0,0 -14,-29 29,-78 0,0 6,-14 51,11 0,0 6,6 15,-1z"/>
     <path class="fil29" d="M0 782c29,25 79,42 135,42 53,0 99,-14 129,-36 -2,-11 -8,-24 -19,-30 -21,23 -62,38 -110,38 -51,0 -95,-18 -114,-43 -13,5 -19,19 -21,30z"/>
     <path class="fil12" d="M44 824c59,19 118,19 176,0 2,-1 4,2 3,3l-4 29c0,2 -2,2 -3,3 -65,39 -115,35 -168,-2 -2,-1 -3,-2 -3,-3l-4 -27c0,-2 2,-4 3,-3z"/>
     <path class="fil1" d="M76 859c-5,-10 3,-13 16,-13 12,0 37,12 21,17 -10,3 -31,8 -37,-4z"/>
     <path class="fil1" d="M195 859c5,-10 -3,-13 -16,-13 -12,0 -37,12 -21,17 10,3 31,8 37,-4z"/>
    </g>
    <path class="fil30" d="M263 828c-17,6 -28,21 -29,38l-96 35c-3,1 -4,4 -3,7l11 29c1,3 4,4 7,3l46 -17 5 -11 11 5 6 -2 5 -11 11 5 13 -5c12,10 29,14 45,8 23,-8 35,-34 27,-58 -9,-23 -35,-35 -58,-27zm31 47c-5,2 -11,-1 -12,-6 -2,-5 1,-11 6,-12 5,-2 11,1 12,6 2,5 -1,11 -6,12z"/>
    <polygon class="fil6" points="161,919 239,890 237,886 159,914 "/>
   </g>
   <g>
    <path class="fil31" d="M0 1400c7,0 12,-1 17,3 2,2 5,5 7,7l41 41 -65 0 0 10c6,0 17,-1 17,7 0,8 -11,7 -17,7l0 88 73 0c-1,-8 -10,-25 6,-49 2,-3 6,-9 9,-11 15,-11 20,-15 42,-15 27,0 53,27 53,53 0,8 0,15 -3,22 11,0 22,0 34,0 6,0 12,1 16,-1 11,-6 8,-24 -7,-25l0 -42c0,-11 -7,-20 -14,-27 -4,-4 -8,-6 -13,-8 -8,-3 -28,-4 -38,-4 -6,0 -14,-2 -20,-2 -25,0 -36,-8 -50,-23l-49 -45c-11,-11 -25,-12 -40,-12l0 26z"/>
    <path class="fil32" d="M108 1543c0,-9 9,-19 16,-19l5 0c9,0 17,9 17,17 0,6 -1,11 -6,16 -12,11 -33,3 -33,-14zm-26 -2c0,15 3,24 13,35 29,29 79,9 79,-32 0,-39 -47,-61 -78,-33 -7,6 -14,18 -14,31z"/>
    <path class="fil17" d="M231 1449c-1,1 3,1 -3,1l3 -1zm-26 -46c2,0 3,1 0,0zm26 46l2 -2c1,0 2,-1 3,-2 10,-14 -6,-24 -18,-29 0,0 -1,0 -1,0 0,0 -1,0 -1,0l-1 -1c1,-1 1,0 2,0 6,0 32,-5 35,-9 3,-3 15,-35 14,-39 -2,-6 -11,-8 -15,-2 -2,4 -6,15 -8,19 -4,11 -3,8 -14,11 -35,8 -5,3 2,-14 5,-12 5,-9 -1,-28 -2,-5 -7,-24 -10,-26 -5,-3 -11,-1 -13,4 -1,4 2,10 3,14 2,6 9,23 7,27 0,1 -6,14 -7,15 -2,3 -19,11 -22,15 -5,7 -2,11 1,15l22 34c2,5 4,7 7,11 8,11 9,9 25,3 9,-3 18,-6 27,-9 7,-3 7,-2 16,-1 11,2 29,6 34,1 4,-4 4,-10 1,-14 -4,-5 -27,-6 -35,-8 -16,-2 -17,1 -30,5 -5,2 -23,9 -27,9z"/>
    <path class="fil17" d="M190 1358c-24,1 -22,35 1,34 22,-1 21,-35 -1,-34z"/>
    <path class="fil17" d="M272 1466c7,6 24,27 27,29 5,3 12,1 14,-2 6,-9 -4,-15 -11,-23 -5,-6 -7,-4 -15,-5 -6,-1 -11,-3 -16,1z"/>
    <path class="fil24" d="M193 1435c-4,-4 -8,-8 -12,-12l-33 -32c-4,-2 -7,1 -6,4 0,3 32,33 38,39 3,3 12,15 14,1z"/>
    <path class="fil24" d="M132 1428c-10,6 9,10 13,11 4,1 22,8 25,7 4,-2 3,-6 -1,-8 -3,-1 -9,-3 -12,-4 -5,-2 -21,-8 -24,-6z"/>
    <polygon class="fil17" points="212,1400 257,1441 227,1459 205,1403 "/>
   </g>
   <g>
    <path class="fil33" d="M72 2866c-4,0 -8,-2 -11,-3 -4,-1 -8,-2 -12,-4 -4,-1 -7,-2 -11,-3 -3,-1 -9,-3 -12,-3 3,-4 17,-3 21,-10 -5,1 -8,1 -14,1 -9,0 -2,-4 -14,-7 0,-6 -1,-15 2,-18 4,-4 12,-1 18,1 3,1 4,1 6,2l32 9 -3 18c-1,3 -1,5 -2,9 0,3 -2,6 -2,9zm-13 -53l0 0zm0 0l-1 -1 1 1zm-1 -1c-2,-1 -3,-2 -5,-4l-14 -13c-4,-3 -7,-4 -12,-6l-14 -5c-2,1 -4,3 -5,4 0,4 2,4 1,7 0,2 -3,3 -3,6 1,1 2,2 3,4 1,3 -2,9 -2,18 0,20 -6,28 -2,34 5,8 18,11 27,13 17,5 34,10 51,14 6,2 24,6 31,7 6,1 -1,-7 -1,-17 -7,-2 -14,-2 -21,-4 -3,-1 -3,0 -3,-3 0,-4 6,-27 6,-34 4,1 7,2 11,3l70 16c5,1 7,1 11,4 0,8 -5,8 -16,13 -13,5 -25,9 -41,9 0,-3 -1,-3 -2,-5 -2,-6 2,-12 -6,-14 0,7 4,15 2,22 -1,4 -2,3 -4,6 5,3 9,1 11,8 12,0 24,-3 34,-6l50 -21c4,-2 22,0 28,1 6,0 13,1 19,1 -2,-2 -11,-6 -14,-8l-11 -5c0,0 -1,-1 -2,-1 -2,-1 -1,0 -2,-1l17 1c5,0 12,2 15,4 4,2 8,5 11,7 3,2 3,2 8,1 3,-1 6,0 9,-1 1,-1 -3,-10 8,-16 -1,-2 -1,-5 -1,-8 3,-2 11,-4 12,-8 1,-2 0,-7 0,-9 0,-3 -2,-6 -2,-8l5 -2c2,-1 3,-2 4,-3 0,-9 3,-5 4,-10 -4,-1 -9,-4 -14,-4 0,15 -8,27 -17,34 -9,7 -25,12 -39,8 -24,-7 -42,-35 -28,-64 -2,0 -11,-3 -13,-3 0,17 -4,33 -4,50 -3,-4 -3,-11 -5,-15 -2,-4 -7,-7 -10,-10 -1,-4 8,-21 8,-27 -5,0 -16,-4 -22,-5 -18,-4 -36,-9 -53,-14 -3,-1 -9,-2 -11,-3 0,12 -5,22 -13,31l-4 4c-4,3 -11,7 -17,9 -36,9 -65,-27 -52,-60 1,-2 1,-3 2,-5 -3,-1 -5,-1 -9,-2 -3,-1 -7,-2 -9,-2 -7,-1 -11,4 -12,10 -1,4 -4,14 -3,17 2,6 6,10 2,17 8,4 27,13 34,17 3,2 20,24 23,28z"/>
    <path class="fil17" d="M203 2631c0,11 -2,20 -7,30 -3,5 -10,15 -14,18 0,-5 0,-6 -1,-11 -3,-9 -7,-14 -15,-20 1,8 1,4 1,17 0,18 -14,25 -14,53 0,12 5,21 14,27 2,1 6,5 9,5 -4,-7 -9,-14 -2,-22 1,-1 0,0 1,-1 3,-3 5,-4 8,-6 1,5 1,5 4,8 4,4 10,6 10,3 0,-5 -5,-14 -7,-19 -3,-7 -3,-17 2,-20 1,3 1,4 2,6 8,15 32,16 32,31 0,7 -2,12 -6,18 -1,2 -2,3 -3,5 13,-3 26,-15 27,-31 2,-20 -11,-29 -11,-49 0,-4 1,-6 2,-10 -14,3 -14,22 -14,34 -7,-8 -2,-27 0,-36 2,-7 1,-15 0,-22 -1,-7 -4,-12 -7,-17 -2,-4 -9,-10 -13,-12 1,6 4,8 4,19z"/>
    <path class="fil15" d="M73 2763c-21,0 -19,-29 -1,-29 8,0 14,7 15,15 0,4 -2,8 -4,10 -3,3 -6,5 -10,5zm-34 -15c0,19 16,34 32,34 34,0 49,-41 22,-61 -2,-1 -3,-2 -5,-3 -22,-11 -49,6 -49,30z"/>
    <path class="fil15" d="M251 2799c0,-18 23,-20 28,-6 5,12 -7,24 -19,19 -4,-2 -9,-7 -9,-13zm12 33c12,0 18,-1 28,-11 9,-9 12,-25 6,-36 -2,-3 -4,-7 -7,-10 -3,-3 -6,-5 -9,-7 -12,-7 -29,-3 -38,6 -22,22 -4,57 20,57z"/>
   </g>
   <g>
    <path class="fil34" d="M76 3509c-3,0 -2,0 -3,-2 0,-1 -1,-3 -2,-3 -1,-2 -2,-4 -4,-6 -4,-7 -1,-8 4,-11 25,-15 21,-16 37,-11 4,1 10,2 10,6 0,3 -1,4 -4,5 -7,3 -35,22 -39,22zm117 -74c0,-9 1,-20 8,-25 3,-2 5,-1 12,4l-6 17c-2,4 -14,10 -14,3zm24 -8c0,-2 2,-5 3,-7 1,-4 1,-4 4,-6 3,-2 11,-6 14,-6 4,7 2,6 -6,11 -3,2 -11,7 -14,8zm-6 -23c6,-2 18,-15 21,-4 -3,2 -7,3 -11,5 -4,2 -4,3 -8,0 -1,0 -1,0 -1,-1 -1,-1 0,0 -1,-1zm-63 -35c0,2 3,10 3,12 2,5 2,10 7,10 8,0 0,-15 -1,-19 4,-2 7,-5 10,-8 4,-3 7,-6 10,-8 1,3 6,12 6,13 0,3 -11,9 -11,15 0,1 2,7 9,0 9,-10 5,-9 17,-14 3,-1 8,-3 11,-5 5,7 16,8 -1,17 -18,9 -36,16 -56,25 -16,8 -26,14 -41,24 -10,7 -52,41 -57,41 -6,0 -8,-16 -9,-23 -1,-5 -2,-9 -2,-14 -7,-34 6,-35 31,-51 11,-7 35,-20 44,-26 2,1 4,3 6,5 2,2 4,3 6,5 -1,2 -8,12 -11,13 -5,2 -23,-3 -23,4 0,6 11,4 21,4 -1,4 -6,21 -6,24 0,2 0,1 1,3 5,1 6,1 8,-6 1,-3 2,-6 2,-10 1,-4 2,-6 2,-10 2,-7 8,-13 14,-21 2,-3 9,-12 11,-13 1,1 4,3 5,4 -2,0 -3,2 -4,3 -1,1 -3,3 -3,4zm13 -21c-2,-3 -8,-10 -13,-10 -5,0 -11,10 -14,15 -10,-7 -9,-13 -21,-6 -2,1 -4,3 -7,4l-54 32c-6,3 -8,5 -13,9 -4,4 -7,7 -10,12 -9,14 -5,26 -3,40l1 14c0,2 1,3 1,5 -5,2 -8,5 -13,8 -4,2 -10,5 -12,9 -3,6 8,26 14,26 8,0 14,-6 20,-10 2,-2 4,-3 6,-5 5,10 37,64 41,67 11,11 21,4 32,-3 11,-7 12,-19 6,-30l101 -62c0,-4 -10,-15 1,-22 4,-3 22,-13 26,-13 6,0 11,6 12,11 2,-1 6,-3 8,-4 -1,-4 -29,-50 -33,-57 3,-1 26,-10 26,-18 0,-6 -2,-8 -6,-14 -9,-15 -15,-8 -32,2l-3 2c-2,-1 -4,-3 -7,-3 -2,0 -12,5 -15,6 -3,1 -5,3 -7,3 -5,-10 -8,-26 -19,-18l-14 10z"/>
    <path class="fil35" d="M268 3499c-3,-6 6,-28 9,-35l4 -8c2,-3 0,-1 2,-2 0,5 -7,42 -15,45zm-9 1c0,13 9,14 22,18 8,2 20,7 24,-7 3,-10 15,-46 15,-52 0,-8 -6,-11 -12,-13 -13,-4 -28,-12 -34,4 -2,5 -3,11 -5,17 -2,5 -3,11 -5,16 -1,3 -5,14 -5,17z"/>
    <path class="fil23" d="M148 3246c0,5 0,4 2,7 3,4 7,11 11,11 7,0 6,-7 7,-13 2,-15 -1,-14 -13,-11 -3,1 -7,2 -7,5z"/>
    <path class="fil23" d="M114 3312c8,0 9,-10 -1,-19 -10,-10 -21,-3 -12,11 3,4 7,8 13,8z"/>
    <path class="fil23" d="M224 3319c0,10 10,4 14,2 14,-7 5,-11 -1,-18 -1,-2 -2,-3 -5,-3 -5,0 -5,4 -6,8 -1,3 -3,8 -3,11z"/>
    <path class="fil23" d="M263 3275c0,6 0,7 6,7 9,0 21,-21 7,-21 -5,0 -13,8 -13,13z"/>
    <path class="fil23" d="M178 3278c0,4 1,16 6,16 4,0 11,-12 11,-12 0,-6 -1,-5 -9,-6 -3,-1 -8,-1 -8,3z"/>
    <path class="fil23" d="M237 3276c4,0 6,-4 7,-7 2,-5 1,-7 -2,-10 -10,2 -11,17 -5,17z"/>
    <path class="fil23" d="M66 3326c0,4 11,10 16,5l1 -1c-1,-10 -17,-12 -17,-4z"/>
    <path class="fil23" d="M134 3302c0,12 11,16 11,5 0,-11 -11,-14 -11,-5z"/>
    <path class="fil35" d="M147 3510l-72 33c5,8 9,14 10,15 11,11 21,4 32,-3 11,-7 12,-19 6,-30l24 -15z"/>
   </g>
   <g>
    <g>
     <polyline class="fil0 str4" points="322,4123 171,4111 198,4130 175,4129 152,4128 174,4154 148,4154 162,4180 107,4211 114,4186 62,4158 112,4138 84,4119 116,4097 2,4096 "/>
     <path class="fil36" d="M217 4027l-71 -17c-4,-1 -6,2 -7,5 5,4 66,18 77,20 5,1 0,1 4,0 1,-4 1,-7 -4,-8zm-151 34l26 6c10,1 9,-4 14,-25 21,5 44,14 65,19 21,5 45,8 66,13 -3,11 -9,26 0,28l26 6c10,1 11,-4 15,-23 6,-25 11,-11 14,-24l8 -32c4,-16 -3,-23 -6,-30 15,0 21,-20 10,-30 -4,-4 -10,-5 -18,-7 -2,-11 1,-44 -31,-51l-95 -23c-32,-8 -44,23 -50,32 -8,-2 -15,-4 -21,-1 -13,5 -16,24 -3,31 -4,4 -7,3 -11,10 -8,11 -11,31 -15,47 -2,7 2,8 4,13 4,9 -14,39 0,42zm41 -86c-26,-6 -29,27 -9,32 20,5 28,-27 9,-32zm164 40c-26,-6 -29,27 -9,32 20,5 28,-27 9,-32zm-132 -17l93 23c1,-4 2,-7 -2,-8l-89 -22c-4,-1 -3,0 -5,2 0,3 -1,4 3,5zm116 -77l-97 -24c-23,-6 -32,16 -41,32 -3,5 -7,12 -10,16l173 42c-3,-14 -1,-45 -9,-56 -3,-4 -9,-9 -16,-11z"/>
    </g>
    <path class="fil6" d="M238 4075c19,4 33,6 43,7 0,1 -1,3 -1,4 -4,19 -5,24 -15,23l-26 -6c-9,-2 -3,-17 0,-28z"/>
    <path class="fil6" d="M107 4043c-4,16 -4,23 -8,25 -1,1 -3,1 -6,0l-2 0 -25 -6c-11,-3 -2,-22 0,-35 57,20 102,32 136,41 2,0 4,1 5,1 -2,0 -5,-1 -7,-1 -10,-2 -20,-4 -29,-6 -21,-5 -44,-14 -65,-19z"/>
   </g>
   <g>
    <path class="fil12" d="M161 4707c-1,1 -14,-3 -11,-9l4 0c2,1 2,1 4,2 1,1 4,2 4,2 1,2 0,3 0,3 0,0 0,1 -1,1zm79 28c6,0 5,-2 11,-5l2 -1 -4 -10 -11 -13c-4,-5 -7,-7 -12,-11 -9,-7 -17,-14 -28,-20 -40,-23 -46,-26 -98,-23 -18,1 -42,-30 -73,-16 -6,3 -9,7 -12,11 -4,5 -27,15 -7,24 6,-17 36,-28 57,-14 7,5 15,14 17,26 3,17 -4,22 -9,34 8,5 23,16 32,18l8 -5c6,-3 14,-4 20,0l7 6c0,0 1,0 1,-1 0,0 1,0 1,-1 19,-14 27,-2 33,1 6,-4 7,-7 17,-7 10,0 11,5 17,7 10,-6 5,-6 20,-7 -3,-3 -50,-30 -55,-33l-55 -33c47,-2 74,19 105,45 5,4 8,7 12,12 7,8 4,8 6,15z"/>
    <path class="fil32" d="M119 4755c6,-5 14,21 37,-2l9 6c6,2 9,2 15,1 7,-2 5,-4 11,-6 2,1 5,4 8,5 3,2 4,2 8,2 6,0 11,-2 15,-5l4 -3c1,1 2,2 3,3 9,11 22,8 30,-3 4,1 14,13 28,6 4,-2 4,-3 6,-6 5,2 6,4 7,9 8,0 16,1 10,-10 -2,-4 -4,-4 -7,-7 -16,-14 -16,8 -29,4 -8,-2 -3,-8 -19,-8l-1 1c-5,5 -6,7 -14,7 -5,-3 -11,-10 -16,-9 -7,2 -10,10 -18,8 -6,-1 -11,-10 -18,-8 -7,2 -8,11 -18,8 -8,-2 -9,-12 -19,-7 -6,3 -9,11 -18,5 -6,-4 -9,-11 -19,-4 -7,5 -10,9 -18,2 -19,-17 -17,15 -37,-2 -8,-7 -13,-2 -19,3 -12,9 -8,15 6,15 0,-4 1,-6 7,-9 11,10 21,11 33,0 8,7 18,15 32,2z"/>
    <path class="fil6" d="M39 4679c15,-5 19,18 6,21 -15,4 -20,-17 -6,-21zm31 15c3,-17 -9,-29 -22,-32 -17,-4 -31,8 -33,22 -6,37 48,46 55,10z"/>
    <path class="fil37" d="M267 4720l1 2c3,0 0,0 1,-2 -8,-12 -10,-33 -3,-47 12,-25 24,-15 34,-24 -1,-12 -17,-9 -25,-4 -30,16 -26,52 -8,75z"/>
    <path class="fil37" d="M269 4679c6,-4 17,-25 40,-8 5,3 6,8 14,7 8,-21 -47,-32 -55,1z"/>
    <path class="fil37" d="M284 4675c20,0 3,13 20,23 17,10 -2,-38 -20,-23z"/>
    <path class="fil38" d="M150 4698c-2,6 11,9 11,9 0,0 1,-1 1,-1 0,0 2,-1 0,-3 0,-1 -3,-2 -4,-2 -2,-1 -2,-2 -4,-2l-4 0z"/>
   </g>
   <g>
    <g>
     <path class="fil39" d="M222 5461c-3,5 -21,-5 -27,-7 -9,-3 -20,-9 -30,-14 2,-4 8,-25 14,-36 13,9 36,26 49,33 0,4 -2,20 -5,24zm-73 -31c-12,-7 -20,-12 -29,-20 -13,-12 -29,-30 -38,-45 -3,-6 -13,-19 -9,-25 2,-3 7,-2 10,1l76 51c-3,7 -10,31 -11,38zm168 5c5,-9 6,-11 7,-21 1,-4 1,-3 -3,-6 -2,-1 -5,-4 -7,-5 -9,17 -24,24 -44,17 -4,-1 -9,-6 -11,-8 -5,-6 -8,-14 -8,-22 0,-10 3,-13 8,-23 -5,-3 -10,-6 -15,-8 -2,2 -5,3 -8,4 -7,3 -18,6 -26,6l-1 0c-16,0 -24,-2 -37,-9 -11,-6 -23,-18 -27,-30 -5,-12 -6,-17 -6,-30 -10,-6 -20,-11 -30,-17 -1,10 -12,21 -23,25 -30,8 -58,-27 -32,-56 -6,-4 -18,-8 -26,-11 -12,-4 -6,4 -11,9 -6,6 -15,21 -11,28 -2,1 -8,2 -1,13l14 20c11,13 23,25 35,37 3,3 17,25 20,30 14,21 32,42 55,55 8,5 18,11 26,16 5,2 8,4 13,7 15,8 44,20 61,26 5,2 12,-1 17,-2 4,-1 6,-1 11,-3l21 -9c7,-4 13,-8 19,-15 5,-6 13,-6 19,-17z"/>
     <path class="fil29" d="M84 5258c4,2 8,7 9,10 4,11 -4,23 -14,26 -14,3 -31,-10 -21,-29 5,-10 17,-12 25,-7zm17 31c7,-13 2,-32 -10,-39 -8,-5 -15,-6 -24,-3 -39,12 -18,67 17,55 6,-2 13,-6 17,-13z"/>
     <path class="fil29" d="M292 5372c28,15 -3,53 -24,29 -2,-2 -2,-3 -3,-6 -4,-15 8,-26 19,-25 2,0 6,1 8,2zm7 -7c-9,-5 -14,-6 -25,-3 -26,7 -26,42 -7,52 12,6 23,5 34,-2 13,-9 14,-27 6,-39 -2,-3 -4,-6 -8,-8z"/>
     <line class="fil0 str5" x1="125" y1="5448" x2="195" y2= "5480" />
     <line class="fil0 str5" x1="121" y1="5473" x2="174" y2= "5484" />
    </g>
    <g>
     <path class="fil24" d="M170 5287c-3,0 -4,-1 -5,-3 -1,-2 0,-4 1,-7 2,-3 3,-5 5,-8 5,-6 10,-10 16,-14 3,-2 7,-4 10,-1 1,1 2,3 2,4 0,6 -9,5 -17,15 -2,2 -3,3 -5,6 0,1 -1,1 -1,2 0,1 -1,1 -1,2 -1,2 -2,3 -4,3zm42 69l-1 0c-14,0 -20,-2 -32,-8 -9,-5 -19,-16 -24,-26 -4,-10 -5,-15 -5,-27l0 -1c0,-11 5,-22 9,-29l2 -3c3,-5 7,-9 11,-12 17,-13 39,-16 59,-8l6 3c3,-2 5,-7 9,-7 4,0 6,5 9,7 1,-1 4,-4 5,-5 2,-2 14,-15 15,-15l3 4c0,1 -9,9 -10,10l-10 10c2,3 7,6 7,9 0,4 -5,7 -7,9l3 7c1,2 2,5 2,7 2,6 2,15 2,21 -1,4 -1,7 -2,12 -2,7 -7,16 -12,21 -1,1 -1,2 -2,2 -5,5 -11,9 -17,12 -6,3 -15,5 -22,5z"/>
     <path class="fil24" d="M265 5212c0,2 2,4 4,6 1,1 4,5 5,5 2,0 3,-1 3,-3 0,-2 -5,-6 -7,-8 -1,-1 -2,-2 -3,-2 -1,0 -3,1 -3,3z"/>
     <path class="fil24" d="M284 5232c0,2 5,6 7,8 1,1 2,2 3,2 2,0 3,-1 3,-3 0,-2 -3,-4 -4,-5 -1,-1 -4,-5 -5,-5 -2,0 -3,1 -3,3z"/>
     <path class="fil24" d="M284 5220c0,2 1,3 3,3 2,0 6,-5 8,-7 1,-1 2,-2 2,-3 0,-2 -1,-3 -3,-3 -2,0 -4,3 -5,4 -1,1 -5,4 -5,5z"/>
     <path class="fil24" d="M279 5209l0 9c0,3 5,3 5,0l0 -9c0,-1 -1,-2 -2,-2l-1 0c-1,0 -2,1 -2,2z"/>
     <path class="fil24" d="M286 5226c0,1 1,3 2,3l9 0c1,0 2,-1 2,-2l0 -1c0,-1 -1,-2 -2,-2l-9 0c-2,0 -2,1 -2,3z"/>
    </g>
   </g>
   <g>
    <path class="fil40" d="M190 5995c-3,-2 -22,-1 -26,0 -4,2 -11,10 -15,13 -5,5 -9,9 -14,14 -2,2 -6,5 -6,8 -1,4 2,7 4,9 3,1 51,1 55,1 9,-2 7,-13 7,-22 0,-9 2,-19 -5,-23zm91 0c-4,-2 -51,-1 -60,-1 -13,0 -11,7 -11,19 0,33 -8,27 65,27 13,0 11,-7 11,-19 0,-10 2,-22 -5,-26zm43 -1c-26,0 -23,-3 -23,35 0,8 3,10 10,10l12 0 0 38 -191 0c-32,0 -40,-35 -24,-51 1,-1 3,-2 4,-3 1,-1 2,-2 4,-4l15 -15c19,-20 33,-41 67,-41l125 0 0 30z"/>
    <path class="fil41" d="M195 6090c-4,8 -9,19 -25,18 -12,-1 -20,-10 -21,-22l91 0c-2,26 -34,30 -44,8l-2 -3c0,0 0,0 0,-1z"/>
    <path class="fil41" d="M278 6086l46 0c-2,30 -44,30 -46,0z"/>
    <path class="fil42" d="M31 5949c0,2 13,6 15,7 4,1 47,17 48,18 -4,3 -39,35 -39,35 -3,1 -27,-1 -33,-1 -3,0 -8,-1 -12,0 -5,1 -11,5 -10,11l0 0c0,2 19,8 23,10l20 8c3,1 18,8 21,7 4,-1 9,-7 12,-9l33 -29c7,-7 14,-13 22,-19l33 -29c2,-2 3,-3 6,-5l22 -20c2,-2 4,-3 6,-5 4,-3 7,-6 11,-10l17 -15c2,-2 4,-3 6,-5 1,-1 4,-4 5,-5 1,-3 2,-5 2,-7l0 -1c-1,-5 -7,-7 -15,-5 -25,5 -33,12 -50,28l-32 29 -21 -1c-8,0 -67,-2 -70,-2 -8,2 -18,12 -17,17z"/>
   </g>
  </g>
 </g>
</svg>
