<?xml version="1.0" encoding="UTF-8"?>
<!DOCTYPE svg PUBLIC "-//W3C//DTD SVG 1.1//EN" "http://www.w3.org/Graphics/SVG/1.1/DTD/svg11.dtd">
<!-- Creator: CorelDRAW X6 -->
<svg xmlns="http://www.w3.org/2000/svg" xml:space="preserve" width="0.5in" height="22.491in" version="1.1" style="shape-rendering:geometricPrecision; text-rendering:geometricPrecision; image-rendering:optimizeQuality; fill-rule:evenodd; clip-rule:evenodd"
viewBox="0 0 140 6286"
 xmlns:xlink="http://www.w3.org/1999/xlink">
 <defs>
  <style type="text/css">
   <![CDATA[
    .str2 {stroke:#2B2A29;stroke-width:1.10012}
    .str1 {stroke:#2B2A29;stroke-width:1.10012;stroke-linecap:round;stroke-linejoin:round}
    .str3 {stroke:#2B2A29;stroke-width:1.37515}
    .str0 {stroke:#414141;stroke-width:1.37515}
    .str5 {stroke:#2B2A29;stroke-width:2.75029}
    .str4 {stroke:#4E565A;stroke-width:2.75029}
    .fil0 {fill:none}
    .fil13 {fill:#008DD2}
    .fil26 {fill:#00A0E3}
    .fil14 {fill:#045191}
    .fil21 {fill:#0B5BA6}
    .fil5 {fill:#2B2A29}
    .fil37 {fill:#379138}
    .fil6 {fill:#41735A}
    .fil17 {fill:#434242}
    .fil4 {fill:#4E565A}
    .fil18 {fill:#559734}
    .fil30 {fill:#5B5B5B}
    .fil20 {fill:#5C5191}
    .fil2 {fill:#5F2C2B}
    .fil16 {fill:#9D9E9E}
    .fil27 {fill:#A2D9F7}
    .fil35 {fill:#A79ECD}
    .fil28 {fill:#C7E8FB}
    .fil34 {fill:#D2CDE7}
    .fil23 {fill:#DA528F}
    .fil1 {fill:#E31E24}
    .fil41 {fill:#E5097F}
    .fil33 {fill:#E51A4B}
    .fil24 {fill:#E63633}
    .fil39 {fill:#E63F23}
    .fil15 {fill:#EF7F1A}
    .fil38 {fill:#FECC00}
    .fil11 {fill:#FEFEFE}
    .fil3 {fill:black}
    .fil32 {fill:#006CD8}
    .fil43 {fill:#232A2C}
    .fil25 {fill:#252525}
    .fil7 {fill:#2B78BF}
    .fil19 {fill:#333333}
    .fil40 {fill:#3A3B3F}
    .fil29 {fill:#3A4855}
    .fil8 {fill:#3B4551}
    .fil9 {fill:#414141}
    .fil10 {fill:#E6253C}
    .fil12 {fill:#ECB40C}
    .fil36 {fill:#F07886}
    .fil31 {fill:#F5C125}
    .fil22 {fill:white}
    .fil42 {fill:#3F3183}
   ]]>
  </style>
     <clipPath id="id0">
      <path d="M39 2814l50 0 0 23 21 0 3 6 0 59c0,0 0,17 -18,10 0,0 -8,-8 -7,-10 2,-2 -50,0 -50,0l0 -88z"/>
     </clipPath>
      <clipPath id="id1">
       <path d="M37 3926l54 0 0 24 23 0 3 7 0 64c0,0 0,18 -19,11 0,0 -9,-9 -7,-11 2,-2 -53,0 -53,0l1 -95z"/>
      </clipPath>
      <clipPath id="id2">
       <path d="M57 4522l-2 4c0,0 -1,0 -1,0l-10 -5c0,0 0,-1 0,-1l4 -7c0,0 0,0 0,0l14 -27c1,-1 2,-1 3,-1l39 21c1,1 2,2 1,3l-14 27c0,0 0,0 0,0l-4 7c0,0 -1,0 -1,0l-10 -5c0,0 0,-1 0,-1l2 -4 -22 -12z"/>
      </clipPath>
      <clipPath id="id3">
       <path d="M58 4535l9 3c1,0 1,1 1,2l-10 32 3 1c1,0 2,2 1,3l-6 18c0,1 -2,2 -3,1l-19 -6c-1,0 -2,-2 -1,-3l6 -18c0,-1 2,-2 3,-1l3 1 10 -32c0,-1 1,-1 2,-1z"/>
      </clipPath>
     <clipPath id="id4">
      <path d="M70 3646l1 0c2,7 13,12 27,12 11,0 20,-3 25,-8 1,49 -16,84 -52,107 -33,-23 -52,-57 -51,-107 4,5 14,8 25,8 14,0 25,-5 27,-12z"/>
     </clipPath>
 </defs>
 <g id="Layer_x0020_1">
  <metadata id="CorelCorpID_0Corel-Layer"/>
  <g id="_1905992672">
   <rect class="fil0" y="838" width="140" height="140"/>
   <g>
    <path class="fil1" d="M101 87l0 0zm-6 13c-1,3 1,5 -1,8 -6,-1 -11,0 -17,0 0,-1 0,-2 0,-4 0,-2 0,-3 1,-4 2,1 6,0 9,0 2,0 7,0 9,0zm-10 -39c3,3 6,17 6,18l-8 0c-4,0 -56,1 -58,0 2,-5 2,-14 6,-18 5,-4 14,-2 22,-3 2,0 3,0 4,0 3,0 6,0 9,0 2,0 3,0 4,0 4,0 11,0 14,2zm-45 38l0 8 -17 0c-1,-2 -1,-6 0,-8 2,0 3,0 4,0l13 0zm61 -13c3,-1 5,-1 8,-1 3,0 5,0 8,0 1,-3 1,-5 0,-8 -3,-5 -15,-1 -16,0 -1,1 -1,6 -2,8 -2,-2 -5,-18 -5,-21 -1,-3 -2,-5 -4,-7 -5,-4 -10,-4 -15,-4 -3,0 -5,0 -7,0l-29 0c-13,2 -13,9 -15,17l-4 15c-3,-5 4,-9 -10,-11 -10,-1 -11,7 -8,11 5,1 11,0 16,1 -3,4 -5,5 -5,9 0,9 -2,23 7,25 0,4 -2,13 3,16 5,2 17,3 17,-8 0,-2 0,-4 0,-6l34 0c2,0 3,-1 5,0 0,1 0,4 0,5 0,3 -1,10 9,10 11,1 12,-5 12,-13 0,-7 1,-3 5,-9 3,-4 1,-14 1,-20 0,-4 -1,-6 -4,-9z"/>
    <polygon class="fil2" points="140,84 43,2 37,8 134,91 "/>
    <path class="fil3" d="M63 45l0 0zm0 0c-3,2 -6,2 -8,4 1,1 1,2 2,3l14 -6c1,-1 1,0 2,-1 -2,-1 -8,-3 -12,-5 1,-4 0,-7 1,-10 -2,0 -6,4 -10,6 -3,-3 -5,-5 -9,-8 -1,1 0,11 1,12 -2,1 -12,2 -14,3 3,1 12,7 14,7l2 -3c-2,-2 -3,-2 -5,-3 4,-1 6,-1 8,-2 -1,-2 -1,-5 -1,-7l5 5c2,-2 4,-2 6,-4 1,3 0,4 1,7 2,2 4,1 6,3z"/>
    <path class="fil4" d="M99 86c-1,-1 -1,-3 -2,-5 -1,-6 -3,-14 -4,-16 -1,-3 -2,-5 -4,-7 -5,-4 -10,-4 -15,-4 -2,0 -5,0 -7,0l-29 0c-13,2 -13,9 -15,17l-3 10 -1 5c0,-1 -1,-1 -1,-2l-2 3c0,0 0,0 1,0 -1,2 -2,3 -3,4l0 0c0,1 -1,1 -1,2 14,3 43,6 92,0l-6 -9c0,1 0,1 0,2zm-7 -6l-8 0c-4,0 -56,1 -58,0 2,-5 2,-14 6,-18 5,-4 14,-2 22,-3 2,0 3,0 4,0 3,0 6,0 9,0 2,0 3,0 4,0 4,0 11,0 14,2 3,3 6,17 6,18z"/>
    <path class="fil5" d="M39 128c0,-2 0,-4 0,-6l34 0c2,0 3,-1 5,0 0,1 0,4 0,5 0,3 -1,9 6,10 1,0 1,0 2,0 2,0 4,0 5,0 6,-1 7,-6 6,-12 0,-1 0,-2 0,-3l-80 0c-1,5 -1,12 3,14 1,0 2,1 3,1 2,0 5,1 7,0 4,-1 7,-4 6,-9z"/>
   </g>
   <g>
    <path class="fil6" d="M49 964c-16,0 -29,-13 -29,-28 0,-6 0,-9 3,-14 1,-2 1,-3 3,-5 2,-3 3,-4 5,-6 1,-1 1,-1 2,-2 15,-11 37,-5 44,12 2,6 3,12 2,18 -1,4 -3,9 -6,12 -6,7 -14,11 -23,11zm-4 -72l44 0c5,0 7,2 10,5l-53 0c0,-2 -1,-3 -1,-5zm-44 -42c0,3 2,5 4,5l20 0c3,0 5,-4 6,4l4 14c1,4 1,9 2,14 0,2 1,5 1,7l1 7c-4,2 -5,1 -10,5 -3,2 -6,5 -8,7 -3,3 -4,6 -6,10 -7,17 1,37 18,46 6,3 11,4 17,4 7,0 14,-3 19,-7 10,-7 15,-18 15,-30l21 0c2,7 0,5 3,7 4,2 5,4 6,5 0,-1 -6,-34 -6,-35 -1,-6 -2,-12 -5,-16 -2,-4 -7,-8 -13,-8l-47 0 -6 -28c-1,-4 -1,-8 -6,-10 -2,-1 -2,0 -4,0 -1,0 -1,-1 -3,-1l-20 0c-2,0 -4,2 -4,4z"/>
    <path class="fil7" d="M44 942c4,2 6,2 10,0l8 8c-2,1 -2,2 -5,3 -5,2 -12,2 -17,-1 -1,-1 -2,-1 -3,-2l8 -8zm1 -7c0,-5 8,-6 8,1 0,4 -8,5 -8,-1zm12 -5l8 -8c0,1 2,2 3,5 2,5 2,9 0,14 -1,1 -2,5 -3,5l-7 -7c0,-2 3,-5 1,-9l-1 -1zm-16 5c0,2 1,4 2,5l-8 7c-3,-2 -4,-8 -5,-12 0,-4 2,-10 4,-12l7 7c0,1 -1,3 -1,5zm-4 -15c5,-4 7,-4 14,-4 5,0 8,2 11,4l-7 8c-4,-2 -6,-2 -10,0l-7 -8zm-10 14c0,7 2,13 6,17 4,4 9,7 15,7 7,0 9,0 15,-4 5,-3 9,-11 9,-17 0,-5 0,-7 -2,-12 -1,-2 -2,-3 -3,-5 -7,-8 -20,-11 -30,-4 -2,1 -2,1 -3,3 -2,2 -3,3 -5,6 -1,2 -2,6 -2,9z"/>
    <path class="fil7" d="M100 966c-3,0 -3,0 -5,-1 -4,-2 -6,-7 -4,-11 4,-9 16,-7 17,3 0,5 -4,9 -8,9zm-14 -10l0 2c0,7 6,13 14,13 7,0 13,-6 13,-13 0,-4 -1,-7 -4,-10 -5,-5 -14,-6 -19,0 -2,2 -4,5 -4,8z"/>
    <path class="fil6" d="M118 959l18 0c2,0 3,-1 3,-3l0 -1c0,-1 -1,-3 -3,-3l-19 0c0,2 1,5 0,7z"/>
    <path class="fil8" d="M94 957c0,1 1,3 2,3 4,4 9,0 9,-3 0,-7 -10,-7 -10,0z"/>
   </g>
   <rect class="fil0" width="140" height="140"/>
   <rect class="fil0" y="279" width="140" height="140"/>
   <rect class="fil0" y="559" width="140" height="140"/>
   <rect class="fil0" y="1118" width="140" height="140"/>
   <rect class="fil0" y="1397" width="140" height="140"/>
   <rect class="fil0" y="1677" width="140" height="140"/>
   <rect class="fil0" y="1956" width="140" height="140"/>
   <rect class="fil0" y="2235" width="140" height="140"/>
   <rect class="fil0" y="2515" width="140" height="140"/>
   <rect class="fil0" y="2794" width="140" height="140"/>
   <rect class="fil0" y="3074" width="140" height="140"/>
   <g>
    <g>
     <path class="fil9" d="M61 299c0,0 19,-11 23,-2 4,8 17,31 9,34 -8,3 -37,18 -73,-3 0,0 -6,-12 12,-33 0,0 3,-6 22,5 0,0 3,3 6,0z"/>
     <path class="fil9" d="M0 337c13,11 34,18 58,18 23,0 43,-6 56,-16 -1,-5 -3,-10 -8,-13 -9,10 -27,16 -47,16 -22,0 -41,-8 -49,-18 -6,2 -8,8 -9,13z"/>
     <path class="fil10" d="M19 355c26,8 51,8 76,0 1,0 2,1 1,1l-2 13c0,1 -1,1 -1,1 -28,17 -50,15 -72,-1 -1,0 -1,-1 -1,-1l-2 -12c0,-1 1,-2 1,-1z"/>
     <path class="fil11" d="M33 370c-2,-4 1,-6 7,-6 5,0 16,5 9,7 -4,1 -13,4 -16,-2z"/>
     <path class="fil11" d="M84 370c2,-4 -1,-6 -7,-6 -5,0 -16,5 -9,7 4,1 13,4 16,-2z"/>
    </g>
    <path class="fil12" d="M113 357c-7,3 -12,9 -13,16l-42 15c-1,0 -2,2 -1,3l5 12c0,1 2,2 3,1l20 -7 2 -5 5 2 3 -1 2 -5 5 2 6 -2c5,5 12,6 19,3 10,-4 15,-15 12,-25 -4,-10 -15,-15 -25,-11zm14 20c-2,1 -5,0 -5,-2 -1,-2 0,-5 3,-5 2,-1 5,0 5,2 1,2 0,5 -3,5z"/>
    <polygon class="fil5" points="69,396 103,384 102,382 69,394 "/>
   </g>
   <g>
    <path class="fil13" d="M0 604c3,0 5,0 7,1 1,1 2,2 3,3l18 18 -28 0 0 4c2,0 7,-1 7,3 0,4 -5,3 -7,3l0 38 32 0c0,-4 -4,-11 3,-21 1,-1 3,-4 4,-5 6,-5 9,-6 18,-6 12,0 23,11 23,23 0,3 0,7 -1,10 5,0 10,0 15,0 3,0 5,0 7,-1 5,-2 3,-11 -3,-11l0 -18c0,-5 -3,-9 -6,-12 -2,-2 -3,-3 -5,-3 -3,-1 -12,-2 -16,-2 -3,0 -6,-1 -8,-1 -11,0 -15,-4 -22,-10l-21 -19c-5,-5 -11,-5 -17,-5l0 11z"/>
    <path class="fil14" d="M46 666c0,-4 4,-8 7,-8l2 0c4,0 7,4 7,7 0,3 0,5 -3,7 -5,5 -14,1 -14,-6zm-11 -1c0,6 1,10 6,15 12,12 34,4 34,-14 0,-17 -20,-26 -34,-14 -3,3 -6,8 -6,13z"/>
    <path class="fil15" d="M100 625c-1,1 1,1 -1,1l1 -1zm-11 -20c1,0 1,1 0,0zm11 20l1 -1c0,0 1,0 1,-1 4,-6 -3,-11 -8,-13 0,0 0,0 0,0 0,0 0,0 0,0l0 0c0,0 1,0 1,0 3,0 14,-2 15,-4 1,-1 7,-15 6,-17 -1,-3 -5,-3 -6,-1 -1,2 -3,6 -3,8 -2,5 -1,4 -6,5 -15,3 -2,1 1,-6 2,-5 2,-4 -1,-12 -1,-2 -3,-10 -4,-11 -2,-1 -5,-1 -6,2 -1,2 1,4 1,6 1,2 4,10 3,12 0,1 -3,6 -3,6 -1,1 -8,5 -10,7 -2,3 -1,5 0,6l9 15c1,2 2,3 3,5 4,5 4,4 11,1 4,-1 8,-3 11,-4 3,-1 3,-1 7,0 5,1 12,3 14,0 2,-2 2,-4 0,-6 -2,-2 -12,-3 -15,-3 -7,-1 -7,0 -13,2 -2,1 -10,4 -12,4z"/>
    <path class="fil15" d="M82 586c-10,0 -9,15 0,15 10,0 9,-15 0,-15z"/>
    <path class="fil15" d="M117 632c3,2 10,12 12,13 2,1 5,1 6,-1 3,-4 -2,-7 -5,-10 -2,-2 -3,-2 -6,-2 -3,0 -5,-1 -7,1z"/>
    <path class="fil3" d="M83 619c-2,-2 -3,-3 -5,-5l-14 -14c-2,-1 -3,0 -3,2 0,1 14,14 16,17 1,1 5,6 6,1z"/>
    <path class="fil3" d="M57 616c-4,3 4,4 6,5 2,1 9,4 11,3 2,-1 1,-3 -1,-3 -1,-1 -4,-1 -5,-2 -2,-1 -9,-4 -11,-3z"/>
    <polygon class="fil15" points="92,604 111,621 98,629 88,605 "/>
   </g>
   <g>
    <path class="fil16" d="M31 1236c-2,0 -3,-1 -5,-1 -2,-1 -3,-1 -5,-2 -2,-1 -3,-1 -5,-1 -1,0 -4,-1 -5,-1 1,-2 7,-1 9,-4 -2,1 -3,0 -6,0 -4,0 -1,-2 -6,-3 0,-3 -1,-6 1,-8 2,-2 5,0 8,0 1,0 2,0 3,1l14 4 -1 8c0,1 0,2 -1,4 0,1 -1,3 -1,4zm-6 -23l0 0zm0 0l0 0 0 0zm0 0c-1,0 -1,-1 -2,-2l-6 -6c-2,-1 -3,-2 -5,-2l-6 -2c-1,1 -2,1 -2,2 0,2 1,2 1,3 0,1 -1,2 -1,3 1,0 1,1 1,2 0,1 -1,4 -1,8 0,9 -2,12 -1,15 2,4 8,5 12,6 7,2 15,4 22,6 3,1 10,2 13,3 2,0 0,-3 0,-7 -3,-1 -6,-1 -9,-2 -1,0 -1,0 -1,-1 0,-2 3,-12 3,-15 2,0 3,1 5,1l30 7c2,1 3,0 5,2 0,4 -2,4 -7,5 -6,2 -11,4 -18,4 0,-1 0,-1 -1,-2 -1,-3 1,-5 -3,-6 0,3 2,7 1,10 0,2 -1,1 -2,3 2,1 4,0 5,3 5,0 11,-1 15,-3l22 -9c2,-1 9,0 12,0 3,0 6,1 8,1 -1,-1 -5,-3 -6,-3l-5 -2c0,0 -1,0 -1,0 -1,0 0,0 -1,0l7 1c2,0 5,1 7,2 2,1 3,2 5,3 1,1 1,1 3,0 1,0 3,0 4,0 0,0 -1,-4 3,-7 0,-1 -1,-2 -1,-4 2,-1 5,-2 5,-3 0,-1 0,-3 0,-4 0,-1 -1,-2 -1,-4l2 -1c1,0 1,-1 2,-1 0,-4 1,-2 2,-4 -2,0 -4,-2 -6,-2 0,6 -4,12 -7,15 -4,3 -11,5 -17,4 -10,-3 -18,-15 -12,-28 -1,0 -5,-1 -6,-1 0,7 -2,14 -2,22 -1,-2 -1,-5 -2,-6 -1,-2 -3,-3 -4,-4 0,-2 3,-9 4,-12 -2,0 -7,-2 -9,-2 -8,-2 -15,-4 -23,-6 -1,0 -4,-1 -5,-1 0,5 -2,10 -5,13l-2 2c-2,1 -5,3 -7,4 -15,4 -28,-11 -23,-26 0,-1 1,-1 1,-2 -1,0 -2,0 -4,-1 -1,0 -3,-1 -4,-1 -3,0 -5,2 -5,4 0,2 -2,6 -1,7 1,2 2,4 1,7 3,2 12,6 14,7 1,1 9,10 10,12z"/>
    <path class="fil15" d="M87 1135c0,5 -1,9 -3,13 -1,2 -4,7 -6,8 0,-2 0,-3 0,-5 -1,-4 -3,-6 -7,-8 0,3 1,2 1,7 0,8 -6,11 -6,23 0,5 2,9 6,12 1,1 3,2 4,2 -2,-3 -4,-6 -1,-10 0,-1 0,0 0,0 1,-1 2,-2 4,-2 0,2 0,2 2,3 2,2 4,3 4,1 0,-2 -2,-6 -3,-8 -1,-3 -1,-7 1,-9 0,1 0,2 1,3 3,7 14,7 14,13 0,3 -1,5 -2,8 0,1 -1,1 -1,2 6,-1 11,-6 12,-13 1,-9 -5,-12 -5,-21 0,-2 1,-3 1,-4 -6,1 -6,10 -6,15 -3,-4 -1,-12 0,-15 1,-3 0,-6 0,-9 -1,-3 -2,-5 -3,-7 -1,-2 -4,-4 -6,-5 1,2 2,4 2,8z"/>
    <path class="fil17" d="M32 1192c-9,0 -8,-13 0,-13 3,0 6,3 6,6 0,2 -1,3 -2,4 -1,1 -3,2 -4,2zm-15 -7c0,8 7,15 14,15 15,0 21,-18 9,-26 -1,-1 -1,-1 -2,-1 -10,-5 -21,3 -21,13z"/>
    <path class="fil17" d="M108 1207c0,-8 10,-9 12,-3 2,5 -3,10 -8,8 -2,-1 -4,-3 -4,-6zm5 14c5,0 8,-1 12,-5 4,-4 5,-11 3,-16 -1,-1 -2,-3 -3,-4 -1,-1 -2,-2 -4,-3 -5,-3 -13,-1 -16,3 -10,10 -2,25 9,25z"/>
   </g>
   <g>
    <path class="fil18" d="M33 1513c-1,0 -1,0 -1,-1 0,0 -1,-1 -1,-1 -1,-1 -1,-2 -2,-3 -2,-3 -1,-3 2,-5 11,-6 9,-7 16,-5 2,1 4,1 4,3 0,1 -1,2 -2,2 -3,1 -15,9 -17,9zm50 -32c0,-4 1,-9 3,-11 1,-1 2,0 5,2l-3 8c-1,2 -6,4 -6,1zm10 -4c0,-1 1,-2 1,-3 1,-2 0,-2 2,-2 1,-1 5,-3 6,-3 2,3 1,3 -3,5 -1,1 -5,3 -6,3zm-2 -10c3,-1 8,-7 9,-2 -1,1 -3,1 -5,2 -2,1 -2,1 -3,0 0,0 0,0 -1,0 -1,0 0,0 -1,0zm-27 -15c0,1 1,4 1,5 1,2 1,4 3,4 3,0 0,-7 0,-8 2,-1 3,-2 4,-3 2,-1 3,-2 4,-3 0,1 2,5 2,6 0,1 -5,4 -5,6 0,0 1,3 4,0 4,-4 2,-4 8,-6 1,-1 3,-1 5,-2 2,3 7,3 -1,7 -8,4 -16,7 -24,11 -7,4 -11,6 -18,10 -4,3 -23,18 -25,18 -3,0 -3,-7 -4,-10 0,-2 -1,-4 -1,-6 -3,-15 2,-15 14,-22 5,-3 15,-9 19,-11 1,1 2,1 2,2 1,1 2,1 3,2 -1,1 -4,5 -5,5 -2,1 -10,-1 -10,2 0,3 5,2 9,2 0,2 -2,9 -2,10 0,1 0,0 0,1 2,1 3,1 3,-2 0,-1 1,-3 1,-4 0,-2 1,-3 1,-4 1,-3 4,-6 6,-9 1,-1 4,-5 5,-6 0,0 2,1 2,2 -1,0 -1,1 -2,1 0,0 -1,1 -1,2zm6 -9c-1,-1 -4,-4 -5,-4 -2,0 -5,4 -6,6 -4,-3 -4,-6 -9,-3 -1,1 -2,1 -3,2l-23 14c-2,1 -4,2 -5,4 -2,2 -3,3 -4,5 -4,6 -2,11 -1,17l1 6c0,1 0,1 0,2 -2,1 -4,2 -6,3 -2,1 -4,2 -5,4 -1,3 3,11 6,11 3,0 6,-3 9,-4 1,-1 2,-1 3,-2 2,4 16,28 18,29 5,5 9,2 14,-1 5,-3 5,-8 3,-13l44 -27c0,-2 -4,-7 0,-9 2,-1 9,-6 11,-6 3,0 5,2 5,5 1,0 2,-1 3,-2 0,-2 -13,-21 -14,-25 1,0 11,-4 11,-8 0,-3 -1,-3 -3,-6 -4,-7 -7,-3 -14,1l-1 1c-1,-1 -2,-1 -3,-1 -1,0 -5,2 -6,3 -1,1 -2,1 -3,1 -2,-4 -3,-11 -8,-8l-6 4z"/>
    <path class="fil19" d="M116 1509c-1,-3 3,-12 4,-15l2 -3c1,-1 0,0 1,-1 0,2 -3,18 -6,19zm-4 1c0,6 4,6 10,8 3,1 9,3 11,-3 1,-4 6,-20 6,-23 0,-3 -3,-5 -5,-6 -6,-2 -12,-5 -15,2 -1,2 -1,5 -2,7 -1,2 -1,5 -2,7 0,1 -2,6 -2,7z"/>
    <path class="fil2" d="M64 1400c0,2 0,2 1,3 1,2 3,5 5,5 3,0 3,-3 3,-5 1,-6 0,-6 -6,-5 -1,0 -3,1 -3,2z"/>
    <path class="fil2" d="M49 1428c3,0 4,-4 0,-8 -4,-4 -9,-1 -5,5 1,2 3,3 5,3z"/>
    <path class="fil2" d="M96 1431c0,4 4,2 6,1 6,-3 2,-5 0,-8 -1,-1 -1,-1 -2,-1 -2,0 -2,2 -3,3 0,1 -1,4 -1,5z"/>
    <path class="fil2" d="M114 1412c0,3 0,3 3,3 4,0 9,-9 3,-9 -2,0 -6,3 -6,6z"/>
    <path class="fil2" d="M77 1414c0,2 1,7 3,7 2,0 5,-5 5,-5 0,-2 -1,-2 -4,-3 -1,0 -4,-1 -4,1z"/>
    <path class="fil2" d="M102 1413c2,0 3,-2 3,-3 1,-2 0,-3 -1,-4 -5,1 -5,7 -2,7z"/>
    <path class="fil2" d="M28 1434c0,2 5,4 7,2l0 -1c0,-4 -7,-5 -7,-2z"/>
    <path class="fil2" d="M58 1424c0,5 5,7 5,2 0,-5 -5,-6 -5,-2z"/>
    <path class="fil19" d="M63 1514l-31 14c2,4 4,6 4,7 5,5 9,2 14,-1 5,-3 5,-8 3,-13l10 -6z"/>
   </g>
   <g>
    <g>
     <polyline class="fil0 str0" points="139,1778 74,1773 85,1781 76,1781 66,1781 75,1792 64,1792 70,1803 46,1816 49,1805 27,1793 48,1785 36,1776 50,1767 1,1767 "/>
     <path class="fil20" d="M94 1737l-31 -7c-2,0 -2,1 -3,2 2,2 29,8 33,9 2,1 0,0 2,0 0,-2 0,-3 -2,-3zm-65 15l11 3c4,1 4,-2 6,-11 9,2 19,6 28,8 9,2 20,4 29,6 -1,5 -4,11 0,12l11 3c4,1 5,-2 7,-10 2,-11 5,-5 6,-10l3 -14c2,-7 -1,-10 -2,-13 7,0 9,-9 4,-13 -2,-2 -4,-2 -8,-3 -1,-5 1,-19 -13,-22l-41 -10c-14,-3 -19,10 -22,14 -4,-1 -6,-2 -9,0 -6,2 -7,10 -1,13 -2,2 -3,2 -5,4 -4,5 -5,13 -6,20 -1,3 1,3 2,5 2,4 -6,17 0,18zm18 -37c-11,-3 -13,12 -4,14 8,2 12,-12 4,-14zm71 17c-11,-3 -13,12 -4,14 8,2 12,-12 4,-14zm-57 -7l40 10c0,-2 1,-3 -1,-3l-38 -9c-2,0 -1,0 -2,1 0,1 0,2 1,2zm50 -33l-42 -10c-10,-2 -14,7 -18,14 -1,2 -3,5 -4,7l75 18c-1,-6 0,-20 -4,-24 -1,-2 -4,-4 -7,-5z"/>
    </g>
    <path class="fil5" d="M103 1757c8,2 14,3 18,3 0,1 0,1 0,2 -2,8 -2,11 -7,10l-11 -3c-4,-1 -1,-7 0,-12z"/>
    <path class="fil5" d="M46 1743c-2,7 -2,10 -4,11 -1,0 -1,0 -2,0l-1 0 -11 -3c-5,-1 -1,-10 0,-15 25,8 44,14 59,18 1,0 2,0 2,1 -1,0 -2,0 -3,-1 -4,-1 -9,-2 -12,-3 -9,-2 -19,-6 -28,-8z"/>
   </g>
   <g>
    <path class="fil10" d="M69 2030c0,0 -6,-1 -5,-4l2 0c1,0 1,1 2,1 1,0 2,1 2,1 1,1 0,1 0,1 0,0 0,0 0,0zm34 12c3,0 2,-1 5,-2l1 -1 -2 -4 -5 -6c-2,-2 -3,-3 -5,-5 -4,-3 -8,-6 -12,-9 -17,-10 -20,-11 -42,-10 -8,0 -18,-13 -31,-7 -3,1 -4,3 -5,5 -2,2 -12,7 -3,11 3,-7 15,-12 24,-6 3,2 7,6 7,11 1,7 -2,10 -4,14 4,2 10,7 14,8l3 -2c3,-1 6,-2 8,0l3 2c0,0 0,0 0,0 0,0 0,0 0,0 8,-6 12,-1 14,0 3,-2 3,-3 7,-3 4,0 5,2 7,3 4,-3 2,-3 9,-3 -1,-1 -22,-13 -24,-14l-24 -14c20,-1 32,8 45,19 2,2 3,3 5,5 3,3 2,3 3,7z"/>
    <path class="fil14" d="M51 2051c3,-2 6,9 16,-1l4 2c3,1 4,1 7,0 3,-1 2,-2 5,-3 1,0 2,2 3,2 1,1 2,1 4,1 3,0 5,-1 6,-2l2 -1c1,1 1,1 1,1 4,5 9,3 13,-1 2,1 6,5 12,2 2,-1 2,-1 3,-2 2,1 3,2 3,4 3,0 7,0 4,-4 -1,-2 -2,-2 -3,-3 -7,-6 -7,3 -12,2 -3,-1 -1,-4 -8,-3l-1 1c-2,2 -3,3 -6,3 -2,-1 -5,-4 -7,-4 -3,1 -4,4 -8,4 -3,-1 -5,-5 -8,-4 -3,1 -4,5 -8,4 -3,-1 -4,-5 -8,-3 -2,1 -4,5 -8,2 -3,-2 -4,-5 -8,-2 -3,2 -4,4 -8,1 -8,-7 -7,7 -16,-1 -3,-3 -6,-1 -8,1 -5,4 -4,6 2,6 0,-2 1,-3 3,-4 5,5 9,5 14,0 3,3 8,6 14,1z"/>
    <path class="fil5" d="M17 2018c6,-2 8,8 3,9 -6,2 -9,-7 -3,-9zm13 7c1,-7 -4,-12 -9,-14 -7,-2 -13,4 -14,10 -3,16 21,20 24,4z"/>
    <path class="fil21" d="M115 2036l0 1c1,0 0,0 0,-1 -3,-5 -4,-14 -1,-20 5,-11 11,-6 15,-10 0,-5 -7,-4 -11,-2 -13,7 -11,22 -3,33z"/>
    <path class="fil21" d="M116 2018c2,-2 7,-11 17,-3 2,1 2,4 6,3 3,-9 -20,-14 -24,1z"/>
    <path class="fil21" d="M123 2016c9,0 1,6 9,10 7,4 -1,-17 -9,-10z"/>
    <path class="fil22" d="M65 2026c-1,3 5,4 5,4 0,0 0,0 0,0 0,0 1,-1 0,-1 0,0 -1,-1 -2,-1 -1,0 -1,-1 -2,-1l-2 0z"/>
   </g>
   <g>
    <g>
     <path class="fil23" d="M96 2355c-1,2 -9,-2 -12,-3 -4,-2 -9,-4 -13,-6 1,-2 3,-11 6,-15 6,4 16,11 21,14 0,2 -1,8 -2,11zm-32 -13c-5,-3 -9,-5 -12,-8 -6,-5 -13,-13 -16,-19 -1,-2 -6,-8 -4,-11 1,-1 3,-1 4,0l33 22c-1,3 -5,13 -5,17zm73 2c2,-4 3,-5 3,-9 0,-2 0,-1 -1,-3 -1,-1 -2,-2 -3,-2 -4,7 -10,10 -19,7 -2,-1 -4,-3 -5,-4 -2,-2 -3,-6 -3,-9 0,-4 1,-6 3,-10 -2,-1 -4,-2 -7,-4 -1,1 -2,1 -3,2 -3,1 -8,3 -11,3l0 0c-7,0 -10,-1 -16,-4 -5,-3 -10,-8 -12,-13 -2,-5 -3,-8 -3,-13 -4,-2 -9,-5 -13,-7 0,4 -5,9 -10,11 -13,4 -25,-12 -14,-24 -3,-2 -8,-4 -11,-5 -5,-2 -3,2 -5,4 -2,3 -6,9 -5,12 -1,0 -4,1 -1,5l6 8c5,6 10,11 15,16 1,1 7,11 9,13 6,9 14,18 24,24 3,2 8,5 11,7 2,1 4,2 6,3 6,4 19,9 26,11 2,1 5,0 7,-1 2,0 3,0 5,-1l9 -4c3,-2 6,-3 8,-6 2,-3 6,-2 8,-7z"/>
     <path class="fil9" d="M36 2268c2,1 4,3 4,5 2,5 -2,10 -6,11 -6,1 -13,-4 -9,-12 2,-4 7,-5 11,-3zm7 14c3,-6 1,-14 -4,-17 -4,-2 -7,-3 -10,-1 -17,5 -8,29 7,24 2,-1 6,-3 7,-6z"/>
     <path class="fil9" d="M126 2317c12,7 -1,23 -10,13 -1,-1 -1,-1 -1,-3 -2,-6 4,-11 8,-11 1,0 3,0 3,1zm3 -3c-4,-2 -6,-3 -11,-1 -11,3 -11,18 -3,23 5,3 10,2 14,-1 5,-4 6,-11 3,-17 -1,-1 -2,-2 -4,-3z"/>
     <line class="fil0 str1" x1="54" y1="2350" x2="84" y2= "2363" />
     <line class="fil0 str1" x1="52" y1="2360" x2="75" y2= "2365" />
    </g>
    <g>
     <path class="fil3" d="M73 2280c-1,0 -2,0 -2,-1 0,-1 0,-2 0,-3 1,-1 1,-2 2,-3 2,-3 4,-4 7,-6 1,-1 3,-2 4,0 1,0 1,1 1,2 0,3 -4,2 -7,6 -1,1 -1,1 -2,3 0,0 0,1 -1,1 0,0 0,1 0,1 0,1 -1,1 -2,1zm18 30l0 0c-6,0 -9,-1 -14,-3 -4,-2 -8,-7 -10,-11 -2,-4 -2,-6 -2,-11l0 0c0,-5 2,-10 4,-12l1 -1c1,-2 3,-4 5,-5 7,-6 17,-7 25,-4l3 1c1,-1 2,-3 4,-3 2,0 3,2 4,3 0,-1 2,-2 2,-2 1,-1 6,-6 7,-6l1 2c0,1 -4,4 -4,4l-4 4c1,1 3,2 3,4 0,2 -2,3 -3,4l1 3c0,1 1,2 1,3 1,3 1,7 1,9 0,2 0,3 -1,5 -1,3 -3,7 -5,9 0,0 -1,1 -1,1 -2,2 -5,4 -7,5 -3,1 -6,2 -10,2z"/>
     <path class="fil3" d="M114 2248c0,1 1,2 2,2 0,0 2,2 2,2 1,0 1,-1 1,-1 0,-1 -2,-3 -3,-3 0,0 -1,-1 -1,-1 -1,0 -1,1 -1,1z"/>
     <path class="fil3" d="M123 2256c0,1 2,3 3,3 0,0 1,1 1,1 1,0 1,-1 1,-1 0,-1 -1,-2 -2,-2 0,0 -2,-2 -2,-2 -1,0 -1,1 -1,1z"/>
     <path class="fil3" d="M123 2251c0,1 1,1 1,1 1,0 3,-2 3,-3 0,0 1,-1 1,-1 0,-1 -1,-1 -1,-1 -1,0 -2,1 -2,2 0,0 -2,2 -2,2z"/>
     <path class="fil3" d="M120 2247l0 4c0,1 2,1 2,0l0 -4c0,-1 0,-1 -1,-1l0 0c0,0 -1,0 -1,1z"/>
     <path class="fil3" d="M124 2254c0,1 0,1 1,1l4 0c1,0 1,0 1,-1l0 0c0,0 0,-1 -1,-1l-4 0c-1,0 -1,1 -1,1z"/>
    </g>
   </g>
   <g>
    <path class="fil24" d="M82 2586c-2,-1 -10,-1 -11,0 -2,1 -5,4 -6,6 -2,2 -4,4 -6,6 -1,1 -2,2 -3,3 0,2 1,3 2,4 1,0 22,1 24,0 4,-1 3,-6 3,-9 0,-4 1,-8 -2,-10zm39 0c-2,-1 -22,0 -26,0 -6,0 -5,3 -5,8 0,14 -3,12 28,11 6,0 5,-3 5,-8 0,-4 1,-10 -2,-11zm19 0c-11,0 -10,-1 -10,15 0,3 1,5 5,5l5 0 0 16 -82 0c-14,0 -17,-15 -10,-22 1,-1 1,-1 2,-1 1,-1 1,-1 2,-2l7 -7c8,-9 14,-18 29,-18l54 0 0 13z"/>
    <path class="fil25" d="M84 2627c-2,3 -4,8 -11,8 -5,0 -9,-4 -9,-10l39 0c-1,11 -15,13 -19,4l-1 -1c0,0 0,0 0,0z"/>
    <path class="fil25" d="M120 2625l20 0c-1,13 -19,13 -20,0z"/>
    <path class="fil26" d="M13 2566c0,1 6,3 7,3 2,1 20,7 21,8 -2,1 -17,15 -17,15 -1,0 -12,0 -14,-1 -1,0 -4,0 -5,0 -2,0 -5,2 -4,5l0 0c0,1 8,4 10,4l9 3c1,1 8,3 9,3 2,0 4,-3 5,-4l14 -13c3,-3 6,-5 9,-8l14 -13c1,-1 1,-1 2,-2l10 -8c1,-1 2,-1 2,-2 2,-1 3,-3 5,-4l7 -6c1,-1 2,-1 2,-2 1,-1 2,-2 2,-2 1,-1 1,-2 1,-3l0 -1c-1,-2 -3,-3 -6,-2 -11,2 -14,5 -22,12l-14 12 -9 0c-4,0 -29,-1 -30,-1 -3,1 -8,5 -7,7z"/>
   </g>
   <g>
    <polygon class="fil27" points="28,2902 88,2902 94,2914 34,2913 27,2904 "/>
    <polygon class="fil27 str2" points="89,2815 111,2837 89,2837 "/>
    <path class="fil28" d="M39 2814l50 0 0 23 21 0 3 6 0 59c0,0 0,17 -18,10 0,0 -8,-8 -7,-10 2,-2 -50,0 -50,0l0 -88z"/>
    <g style="clip-path:url(#id0)">
     <g>
      <path id="1" class="fil27" d="M107 2851c0,17 -9,32 -22,40 0,0 -1,1 -1,1 -7,4 -14,6 -22,6 -7,0 -15,-2 -21,-5 0,5 0,8 0,8 0,0 0,0 1,0l24 0c3,0 17,0 19,0 0,0 1,0 1,0 0,0 1,0 1,0 3,0 3,0 3,3 0,2 1,5 3,6 2,2 6,3 9,2 3,-1 6,-3 7,-6 1,-2 1,-3 1,-5 0,-17 0,-36 0,-53 0,-2 0,-6 0,-8 -2,0 -3,0 -5,0 1,3 1,7 1,11z"/>
     </g>
    </g>
    <path class="fil0" d="M39 2814l50 0 0 23 21 0 3 6 0 59c0,0 0,17 -18,10 0,0 -8,-8 -7,-10 2,-2 -50,0 -50,0l0 -88z"/>
    <path class="fil29" d="M29 2904c10,0 19,0 29,0l22 0c1,0 2,0 3,0 1,0 3,0 4,0 1,2 0,2 2,5 0,1 1,1 1,2 0,0 1,1 2,2 -3,0 -6,0 -9,0 -13,0 -27,0 -40,0 -1,0 -3,0 -4,0 -3,0 -6,-2 -8,-5 0,-1 -1,-2 -1,-3l0 0zm85 -5c0,3 0,6 -1,8 -1,3 -3,5 -5,7 -3,2 -6,2 -10,2 -17,0 -33,0 -50,0 -3,0 -9,0 -12,0 -3,-1 -6,-2 -8,-5 -1,-1 -2,-2 -2,-4 -2,-6 -1,-6 4,-6 2,0 5,0 6,0l0 0c0,-17 0,-33 0,-50 0,-10 0,-21 0,-31 0,-7 -1,-7 6,-7l43 0c7,0 3,1 7,3 0,0 0,0 1,1l14 14c0,0 0,0 1,1l5 5c2,2 1,60 1,62zm-4 -51c0,-2 0,-6 0,-8 -4,0 -8,0 -12,0l-9 0c-1,0 -2,0 -2,0 -1,-1 0,-4 0,-5 0,-2 0,-16 0,-17 -1,0 -3,0 -4,0l-41 0c-2,0 -2,0 -2,2 0,9 0,81 0,82 0,0 0,0 1,0l24 0c3,0 17,0 19,0 0,0 1,0 1,0 0,0 1,0 1,0 3,0 3,0 3,3 0,2 1,5 3,6 2,2 6,3 9,2 3,-1 6,-3 7,-6 1,-2 1,-3 1,-5 0,-17 0,-36 0,-53zm-20 -29c0,0 2,2 2,2l11 11c1,1 4,4 4,4l-17 0c0,0 0,0 0,0l0 -2 0 -15 0 0z"/>
    <path class="fil29" d="M55 2853c-2,0 -2,3 0,3 1,0 32,0 36,0 1,0 5,0 6,0 1,0 1,-1 1,-2 0,-1 0,-1 -1,-2 -1,0 -32,0 -36,0 -1,0 -5,0 -6,0l0 0z"/>
    <path class="fil29" d="M56 2888c-3,0 -3,3 1,3 2,0 26,0 27,0 2,0 3,-3 -1,-3 -3,0 -26,0 -27,0l0 0z"/>
    <path class="fil29" d="M57 2869c1,0 1,0 2,0 2,0 2,0 5,0 1,0 1,0 1,0l21 0c4,0 4,-3 -1,-3l-19 0c-3,0 -8,0 -11,0 -1,0 -3,1 -2,2 0,1 2,1 4,1l0 0z"/>
    <path class="fil29" d="M56 2880l27 0c1,0 2,0 3,0 2,-1 2,-3 -1,-3l-29 0c-3,0 -3,3 0,3z"/>
   </g>
   <g>
    <line class="fil0 str3" x1="132" y1="3133" x2="126" y2= "3110" />
    <path class="fil5" d="M132 3131c1,0 3,1 3,3 0,1 -1,3 -3,3 -1,0 -3,-1 -3,-3 0,-1 1,-3 3,-3z"/>
    <path class="fil30" d="M46 3160l79 -70c4,-4 10,-2 13,3l0 0c3,5 2,13 -3,17l-79 70c-4,4 -10,2 -13,-3l0 0c-3,-5 -2,-13 3,-17z"/>
    <path class="fil31" d="M111 3164c14,7 13,7 18,18l1 1c11,-4 11,-6 10,-19l-29 0z"/>
    <path class="fil5" d="M86 3193c5,23 41,17 37,-8 -5,-24 -42,-17 -37,8z"/>
    <path class="fil31" d="M58 3164l44 0c-10,1 -20,8 -22,21l-33 0 -27 0c-4,-1 1,-5 -8,-14 -3,-4 -8,-6 -12,-7l0 -71 9 0c3,1 2,1 3,2 2,5 1,57 1,68l45 0z"/>
    <path class="fil5" d="M0 3207c9,-2 16,-10 14,-22 -2,-9 -8,-13 -14,-14l0 36z"/>
    <path class="fil31" d="M0 3091l9 0c-1,-6 -3,-10 -9,-10l0 10z"/>
   </g>
   <g>
    <rect class="fil0" y="5028" width="140" height="140"/>
    <rect class="fil0" y="4190" width="140" height="140"/>
    <rect class="fil0" y="5587" width="140" height="140"/>
    <rect class="fil0" y="4749" width="140" height="140"/>
    <rect class="fil0" y="5867" width="140" height="140"/>
    <rect class="fil0" y="3352" width="140" height="140"/>
    <rect class="fil0" y="3631" width="140" height="140"/>
    <rect class="fil0" y="3911" width="140" height="140"/>
    <rect class="fil0" y="4470" width="140" height="140"/>
    <rect class="fil0" y="5308" width="140" height="140"/>
    <rect class="fil0" y="6146" width="140" height="140"/>
    <g>
     <path class="fil11" d="M49 3425c0,-1 -17,48 -17,48l60 1 9 -15 -14 -15 -13 -22c0,0 -21,0 -23,1 -2,2 -2,2 -2,2z"/>
     <path class="fil32" d="M84 3451c4,0 6,0 8,2 1,1 2,1 2,2 2,4 2,8 -2,11 -2,1 -3,3 -5,5 -1,1 -1,1 -3,1 -17,0 -34,0 -51,0 1,-2 1,-4 2,-6 2,-5 4,-11 5,-15 0,-1 1,-2 1,-3 2,-5 4,-11 5,-15 0,-1 3,-8 3,-9 -2,1 -5,2 -7,4 -8,5 -14,12 -14,23l0 26c0,0 0,1 1,1l79 0c0,0 1,0 1,-1l0 -26c0,-23 -22,-28 -40,-28l6 12c0,1 1,1 1,2l5 11c0,1 2,3 2,4z"/>
     <path class="fil32" d="M45 3391c0,6 1,11 5,16 10,14 30,14 40,0 2,-3 5,-9 5,-13 0,-7 -1,-11 -5,-16 -2,-2 -4,-4 -6,-6 -7,-5 -16,-6 -24,-2 -2,1 -4,2 -6,3 -5,4 -9,11 -9,18z"/>
     <path class="fil32" d="M80 3466c4,0 8,1 11,-2 4,-3 2,-10 -4,-11 -4,-1 -8,0 -12,0 0,1 1,2 1,3 0,1 1,2 1,3l2 5c0,1 0,1 1,1z"/>
     <path class="fil32" d="M74 3451l5 0c0,-1 -13,-27 -13,-29l-2 0c0,1 1,3 1,4l3 7c0,1 1,2 1,4l5 14z"/>
     <path class="fil32" d="M81 3468c0,1 1,2 1,3 2,0 2,0 3,-1 1,-1 2,-1 2,-2l-6 0z"/>
    </g>
    <g>
     <polygon class="fil27" points="25,4021 90,4022 96,4034 32,4033 24,4024 "/>
     <polygon class="fil27 str2" points="91,3928 114,3952 91,3952 "/>
     <path class="fil28" d="M37 3926l54 0 0 24 23 0 3 7 0 64c0,0 0,18 -19,11 0,0 -9,-9 -7,-11 2,-2 -53,0 -53,0l1 -95z"/>
     <g style="clip-path:url(#id1)">
      <g>
       <path id="1" class="fil27" d="M110 3966c0,18 -10,34 -24,43 0,0 -1,1 -2,1 -7,4 -15,6 -24,6 -8,0 -16,-2 -22,-5 0,5 0,8 0,9 0,0 0,0 1,0l26 0c3,0 18,0 20,0 1,0 1,0 1,0 1,0 1,0 1,0 4,0 3,0 4,3 0,2 2,5 3,7 2,2 6,4 10,3 3,-1 6,-3 7,-6 1,-2 1,-3 1,-6 0,-18 0,-38 0,-57 0,-3 0,-6 0,-9 -2,0 -3,0 -5,0 1,4 1,8 1,12z"/>
      </g>
     </g>
     <path class="fil0" d="M37 3926l54 0 0 24 23 0 3 7 0 64c0,0 0,18 -19,11 0,0 -9,-9 -7,-11 2,-2 -53,0 -53,0l1 -95z"/>
     <path class="fil29" d="M26 4023c10,0 21,0 31,0l23 0c1,0 3,0 4,0 1,0 3,0 4,0 1,2 0,2 2,5 0,1 1,1 1,2 0,1 1,1 2,2 -3,0 -7,0 -9,0 -14,0 -28,0 -43,0 -1,0 -3,0 -5,0 -4,0 -7,-2 -9,-5 0,-1 -1,-3 -1,-3l0 0zm91 -5c0,3 0,6 -1,8 -1,3 -3,6 -6,7 -3,2 -6,2 -11,2 -18,0 -35,0 -53,0 -3,0 -10,0 -13,0 -3,-1 -6,-3 -8,-5 -1,-1 -2,-3 -2,-4 -2,-6 -1,-7 5,-7 2,0 5,0 7,0l0 0c0,-18 0,-36 0,-53 0,-11 0,-22 0,-33 0,-8 -1,-7 6,-7l46 0c7,0 3,1 8,4 0,0 1,1 1,1l15 15c0,0 0,0 1,1l5 5c2,2 1,65 1,67zm-4 -55c0,-3 0,-6 0,-9 -4,0 -8,0 -13,0l-9 0c-1,0 -2,0 -2,-1 -1,-1 -1,-4 -1,-6 0,-2 0,-18 0,-19 -1,0 -3,0 -4,0l-44 0c-3,0 -2,-1 -2,2 0,10 0,87 0,88 0,0 0,0 1,0l26 0c3,0 18,0 20,0 1,0 1,0 1,0 1,0 1,0 1,0 4,0 3,0 4,3 0,2 2,5 3,7 2,2 6,4 10,3 3,-1 6,-3 7,-6 1,-2 1,-3 1,-6 0,-18 0,-38 0,-57zm-21 -31c1,0 2,2 2,2l12 12c1,1 4,4 5,5l-18 0c0,0 0,0 0,0l0 -2 0 -16 0 0z"/>
     <path class="fil29" d="M54 3969c-2,0 -2,3 0,4 1,0 34,0 38,0 1,0 5,0 6,0 1,0 1,-1 1,-2 0,-1 -1,-2 -1,-2 -1,0 -34,0 -38,0 -1,0 -5,0 -6,0l0 0z"/>
     <path class="fil29" d="M55 4006c-3,0 -3,4 1,4 2,0 28,0 29,0 2,0 3,-4 -1,-4 -3,0 -28,0 -29,0l0 0z"/>
     <path class="fil29" d="M57 3986c1,0 1,0 2,0 2,0 2,0 5,0 1,0 1,0 1,0l23 0c4,0 5,-4 -1,-4l-20 0c-4,0 -8,0 -12,0 -2,0 -3,1 -3,2 0,1 2,1 4,1l0 0z"/>
     <path class="fil29" d="M55 3998l29 0c1,0 2,0 3,0 2,-1 2,-4 -1,-4l-31 0c-4,0 -4,4 0,4z"/>
    </g>
    <g>
     <line class="fil0 str3" x1="132" y1="4250" x2="126" y2= "4227" />
     <path class="fil5" d="M132 4247c1,0 3,1 3,2 0,1 -1,2 -3,2 -1,0 -3,-1 -3,-2 0,-1 1,-2 3,-2z"/>
     <path class="fil30" d="M46 4277l79 -69c4,-4 10,-2 13,3l0 0c3,5 2,13 -3,17l-79 69c-4,4 -10,2 -13,-3l0 0c-3,-5 -2,-13 3,-17z"/>
     <path class="fil33" d="M111 4281c14,7 13,7 18,17l1 1c11,-4 11,-6 10,-19l-29 0z"/>
     <path class="fil5" d="M86 4309c5,23 41,17 37,-8 -5,-24 -42,-16 -37,8z"/>
     <path class="fil33" d="M58 4280l44 0c-10,1 -20,8 -22,21l-33 0 -27 0c-4,-1 1,-5 -8,-14 -3,-4 -8,-6 -12,-7l0 -70 9 0c3,1 2,1 3,2 2,5 1,57 1,67l45 0z"/>
     <path class="fil5" d="M0 4323c9,-2 16,-10 14,-22 -2,-9 -8,-13 -14,-14l0 36z"/>
     <path class="fil33" d="M0 4207l9 0c-1,-6 -3,-10 -9,-10l0 10z"/>
    </g>
    <g>
     <path class="fil34" d="M57 4522l-2 4c0,0 -1,0 -1,0l-10 -5c0,0 0,-1 0,-1l4 -7c0,0 0,0 0,0l14 -27c1,-1 2,-1 3,-1l39 21c1,1 2,2 1,3l-14 27c0,0 0,0 0,0l-4 7c0,0 -1,0 -1,0l-10 -5c0,0 0,-1 0,-1l2 -4 -22 -12z"/>
     <g style="clip-path:url(#id2)">
      <g>
       <path id="1" class="fil35" d="M57 4495c1,-1 2,-1 3,-1l39 21c1,1 2,2 1,3l5 -10c1,-1 0,-2 -1,-3l-39 -21c-1,-1 -3,0 -3,1l-5 10z"/>
      </g>
     </g>
     <path class="fil0 str4" d="M57 4522l-2 4c0,0 -1,0 -1,0l-10 -5c0,0 0,-1 0,-1l4 -7c0,0 0,0 0,0l14 -27c1,-1 2,-1 3,-1l39 21c1,1 2,2 1,3l-14 27c0,0 0,0 0,0l-4 7c0,0 -1,0 -1,0l-10 -5c0,0 0,-1 0,-1l2 -4 -22 -12z"/>
     <path class="fil36" d="M58 4535l9 3c1,0 1,1 1,2l-10 32 3 1c1,0 2,2 1,3l-6 18c0,1 -2,2 -3,1l-19 -6c-1,0 -2,-2 -1,-3l6 -18c0,-1 2,-2 3,-1l3 1 10 -32c0,-1 1,-1 2,-1z"/>
     <g style="clip-path:url(#id3)">
      <g>
       <path id="1" class="fil10" d="M39 4589l15 5c1,0 2,0 3,-1l6 -18c0,-1 0,-2 -1,-3l-3 -1 10 -32c0,-1 0,-2 -1,-2l-9 -3c0,0 -1,0 -1,0 1,5 2,10 2,15 0,19 -9,36 -20,40z"/>
      </g>
     </g>
     <path class="fil0 str4" d="M58 4535l9 3c1,0 1,1 1,2l-10 32 3 1c1,0 2,2 1,3l-6 18c0,1 -2,2 -3,1l-19 -6c-1,0 -2,-2 -1,-3l6 -18c0,-1 2,-2 3,-1l3 1 10 -32c0,-1 1,-1 2,-1z"/>
    </g>
    <g>
     <path class="fil37" d="M33 4846l0 0c2,1 5,2 7,3 3,1 3,1 4,1 2,3 26,34 74,6 4,-3 7,-8 7,-14 0,-11 1,-17 -7,-25 -1,-1 -6,-5 -7,-5 0,-2 1,-3 1,-7 0,-9 1,-13 -5,-20 -1,-2 -3,-3 -4,-4 -7,-6 -20,-10 -30,-10 -9,0 -15,0 -24,4 -8,3 -17,8 -20,19 -1,2 -1,2 -5,4 -4,3 -9,9 -9,16l0 0 0 0c0,9 -1,16 5,23 4,4 5,4 6,5l0 0c1,0 2,1 3,2l0 0c1,1 2,1 3,2zm52 9c-7,0 -16,-1 -22,-4 -1,0 -1,0 -1,-1 11,0 31,-7 35,-21 1,-5 0,-1 6,-7 1,-1 2,-1 3,-2 1,-1 2,-2 2,-3 2,1 4,2 7,4 20,17 -7,34 -30,34l0 0 0 0zm-56 -54c0,4 0,7 1,10 1,5 4,9 7,11 1,1 2,1 2,2 1,1 2,1 3,2 8,5 24,9 34,7 1,0 3,0 4,0 -1,1 -7,3 -9,3 -14,4 -35,2 -46,-9 -3,-3 -7,-8 -5,-15 2,-5 6,-9 10,-11l0 0zm4 -3c0,-8 8,-14 13,-16 14,-7 35,-7 49,0 5,3 13,8 13,16 0,12 -16,18 -24,20 -13,3 -25,2 -37,-4 -5,-2 -14,-9 -14,-17l0 0z"/>
     <path class="fil5" d="M56 4779l0 3c0,1 1,1 3,1 1,0 3,0 4,0 1,0 3,1 4,1 0,0 1,1 1,2l-10 0c-2,0 -2,0 -2,3 0,1 1,1 2,1l11 0c-1,1 0,2 -2,3 -2,2 -7,2 -10,2 -1,0 -1,0 -1,1 0,1 0,3 0,4 0,1 1,1 1,1 1,1 3,4 4,5l7 8c0,0 0,0 0,1l1 1c0,0 0,0 0,0 0,0 0,1 1,1l6 0c0,0 1,-1 1,-2l-12 -14c0,0 0,0 0,-1 2,0 6,-1 7,-3 1,0 1,-1 1,-1 2,-2 2,-3 2,-5 1,0 2,0 3,0 3,0 2,0 2,-4 0,-1 -1,-1 -2,-1 -1,0 -2,0 -3,0 0,0 0,-2 -1,-3 0,0 0,-1 -1,-1 2,0 5,0 6,0 1,0 1,0 1,-1l0 -3c0,0 0,-1 -1,-1l-24 0c0,0 -1,1 -1,1l0 0z"/>
    </g>
    <path class="fil11" d="M70 3646l1 0c2,7 13,12 27,12 11,0 20,-3 25,-8 1,49 -16,84 -52,107 -33,-23 -52,-57 -51,-107 4,5 14,8 25,8 14,0 25,-5 27,-12z"/>
    <g style="clip-path:url(#id4)">
     <g>
      <path id="1" class="fil38" d="M70 3646l0 111c35,-23 53,-58 52,-107 -4,5 -14,8 -25,8 -14,0 -25,-5 -27,-12l0 0z"/>
     </g>
    </g>
    <path class="fil0 str5" d="M70 3646l1 0c2,7 13,12 27,12 11,0 20,-3 25,-8 1,49 -16,84 -52,107 -33,-23 -52,-57 -51,-107 4,5 14,8 25,8 14,0 25,-5 27,-12z"/>
    <g>
     <path class="fil17" d="M60 5323l15 0 0 5 0 0c-1,0 -3,2 -3,4 0,2 1,4 3,4l0 0 0 9 -15 0 0 -21z"/>
     <polygon class="fil39" points="45,5349 89,5349 85,5339 48,5339 "/>
     <polygon class="fil15" points="42,5346 92,5346 92,5430 42,5430 "/>
     <polygon class="fil5" points="39,5426 95,5426 95,5433 39,5433 "/>
     <polygon class="fil5" points="79,5329 101,5324 101,5322 79,5328 "/>
     <polygon class="fil5" points="79,5331 101,5328 101,5327 79,5329 "/>
     <polygon class="fil5" points="79,5332 101,5332 101,5331 79,5331 "/>
     <polygon class="fil5" points="79,5334 101,5337 101,5335 79,5333 "/>
     <polygon class="fil5" points="79,5335 101,5341 101,5339 79,5334 "/>
    </g>
    <g>
     <g>
      <path class="fil40" d="M85 5604l37 35c4,4 4,10 0,14 -42,46 -97,-9 -51,-49 4,-4 10,-4 14,0z"/>
      <path class="fil11" d="M93 5615l19 18c2,2 3,4 2,5 -9,11 -37,-17 -26,-24 1,-1 3,0 5,2z"/>
     </g>
     <path class="fil32" d="M55 5657l15 14 -41 42 -7 -1 35 -36c1,-1 1,-1 0,-2l0 0c-1,-1 -2,-1 -2,0l-37 38 -4 -4 37 -38c1,-1 1,-1 0,-2l0 0c-1,-1 -2,-1 -2,0l-25 26 -3 -3 34 -34z"/>
    </g>
    <g>
     <path class="fil30" d="M94 5959c6,25 -16,18 -34,18 -12,0 -21,0 -25,-10 -2,-4 -11,-55 -11,-58 3,-11 11,0 18,7 13,13 -6,47 21,45 10,0 5,-3 14,-4 5,-1 12,0 17,0l0 0z"/>
     <g>
      <path class="fil41" d="M67 5922l31 1 1 9c-10,3 -31,-2 -38,3l10 2 3 8c17,1 30,-4 35,6l5 21c3,14 9,21 -8,20 -7,-18 -4,-32 -7,-36 -8,-8 -28,3 -41,0 -6,-9 -5,-11 -5,-22 0,-9 -5,-17 -4,-24 15,-7 15,1 19,11l0 0z"/>
      <path class="fil41" d="M55 5884c4,2 11,5 7,15 -2,5 -8,9 -16,6 -12,-5 -5,-27 9,-21l0 0z"/>
     </g>
     <path class="fil30" d="M26 5901c-2,-4 -2,-8 -1,-13 2,-7 4,-7 12,-6 1,10 1,21 -11,19l0 0z"/>
    </g>
    <g>
     <path class="fil42" d="M78 6239l-18 -48c-2,-5 -7,-7 -13,-6 -59,19 -30,91 24,65 5,-2 8,-7 6,-12z"/>
     <g>
      <path class="fil42" d="M72 6188l34 -13c1,-1 3,0 4,2l1 3c1,1 0,3 -2,4l-34 13c-1,1 -3,0 -4,-2l-1 -3c-1,-1 0,-3 2,-4z"/>
      <path class="fil42" d="M79 6207l34 -13c1,-1 3,0 4,2l1 3c1,1 0,3 -2,4l-34 13c-1,1 -3,0 -4,-2l-1 -3c-1,-1 0,-3 2,-4z"/>
      <path class="fil42" d="M86 6227l34 -13c1,-1 3,0 4,2l1 3c1,1 0,3 -2,4l-34 13c-1,1 -3,0 -4,-2l-1 -3c-1,-1 0,-3 2,-4z"/>
     </g>
    </g>
    <path class="fil43" d="M76 5057l0 21c9,3 15,11 15,20 0,2 0,4 -1,6l17 14c3,-6 5,-13 5,-20 0,-21 -15,-38 -35,-41zm-12 21l0 -21c-21,3 -36,20 -36,41 0,7 2,14 5,20l17 -14c-1,-2 -1,-4 -1,-6 0,-10 7,-18 16,-20zm35 49l-16 -13c-4,3 -9,5 -14,5 -5,0 -10,-2 -14,-5l-16 13c8,8 18,13 30,13 12,0 22,-5 30,-13zm-30 -84c31,0 55,25 55,55 0,31 -25,55 -55,55 -31,0 -55,-25 -55,-55 0,-31 25,-55 55,-55z"/>
   </g>
  </g>
 </g>
</svg>
