<?xml version="1.0" encoding="UTF-8"?>
<!DOCTYPE svg PUBLIC "-//W3C//DTD SVG 1.1//EN" "http://www.w3.org/Graphics/SVG/1.1/DTD/svg11.dtd">
<!-- Creator: CorelDRAW X6 -->
<svg xmlns="http://www.w3.org/2000/svg" xml:space="preserve" width="1.60426in" height="0.916535in" version="1.1" style="shape-rendering:geometricPrecision; text-rendering:geometricPrecision; image-rendering:optimizeQuality; fill-rule:evenodd; clip-rule:evenodd"
viewBox="0 0 789 451"
 xmlns:xlink="http://www.w3.org/1999/xlink">
 <defs>
  <style type="text/css">
   <![CDATA[
    .fil2 {fill:none}
    .fil0 {fill:#050708}
    .fil1 {fill:#FDB917}
   ]]>
  </style>
 </defs>
 <g id="Layer_x0020_1">
  <metadata id="CorelCorpID_0Corel-Layer"/>
  <g id="_886339312">
   <path class="fil0" d="M419 199c21,0 37,17 37,37 0,20 -17,37 -37,37 -21,0 -37,-17 -37,-37 0,-20 17,-37 37,-37zm103 107l37 0 0 -134 -37 0 0 134zm-235 0l36 0c1,0 2,0 2,-2l0 -131c0,-1 0,-2 -2,-2l-36 0 0 134zm18 -174l180 0 0 -27c0,-1 0,-2 -2,-2l-179 0 0 29zm275 57l0 16c0,1 0,2 2,2l18 0 0 54c0,15 5,25 12,33 8,8 19,13 32,13l35 0 0 -35 -27 0c-11,0 -16,-8 -16,-18l0 -47 43 0 0 -35 -43 0 0 -27 -19 0c-1,0 -2,1 -3,2l-30 37c-1,1 -1,2 -2,3 -1,1 -2,2 -2,4zm-398 13c21,0 37,17 37,37 0,20 -17,37 -37,37 -21,0 -37,-17 -37,-37 0,-20 17,-37 37,-37zm-54 -10c13,-15 30,-23 50,-23 16,0 25,4 36,11l0 -69c0,-2 -1,-8 2,-8l36 0 0 203 -36 0 0 -9c-2,0 -4,3 -7,4 -3,1 -5,2 -8,4 -9,3 -11,3 -19,4 -8,1 -21,-2 -29,-5 -1,0 -3,-1 -4,-2 -1,-1 -2,-1 -3,-2 -5,-2 -9,-6 -13,-10 -4,-4 -7,-7 -10,-12 -8,-14 -10,-24 -10,-39 0,-17 5,-34 16,-47zm294 173l-5 0c-21,-1 -41,-10 -52,-26 -3,-5 -7,-11 -8,-17l34 -12c0,2 2,7 4,8 12,17 40,14 50,1 6,-8 5,-14 5,-28 -2,0 -2,1 -4,2 -1,1 -2,1 -4,2 -2,1 -5,2 -8,3 -26,9 -46,0 -66,-17 -13,-16 -20,-33 -17,-53 1,-5 1,-9 3,-13 7,-21 22,-39 44,-44 12,-3 26,-3 37,2 7,3 8,4 14,8l0 -9 37 0 0 133c0,8 -3,19 -6,25 -11,23 -34,34 -58,35z"/>
   <path class="fil1" d="M521 147c13,0 8,1 12,-4l24 -27 -23 -25c-3,-3 -4,-5 -6,-5l-8 0 0 61z"/>
   <rect class="fil2" width="789" height="451"/>
  </g>
 </g>
</svg>
