<?xml version="1.0" encoding="UTF-8"?>
<!DOCTYPE svg PUBLIC "-//W3C//DTD SVG 1.1//EN" "http://www.w3.org/Graphics/SVG/1.1/DTD/svg11.dtd">
<!-- Creator: CorelDRAW X6 -->
<svg xmlns="http://www.w3.org/2000/svg" xml:space="preserve" width="0.5in" height="14.5in" version="1.1" style="shape-rendering:geometricPrecision; text-rendering:geometricPrecision; image-rendering:optimizeQuality; fill-rule:evenodd; clip-rule:evenodd"
viewBox="0 0 215 6222"
 xmlns:xlink="http://www.w3.org/1999/xlink">
 <defs>
  <style type="text/css">
   <![CDATA[
    .str0 {stroke:#2B2A29;stroke-width:1.68933}
    .str1 {stroke:#2B2A29;stroke-width:2.11166}
    .str3 {stroke:#2B2A29;stroke-width:4.22332}
    .str2 {stroke:#4E565A;stroke-width:4.22332}
    .fil0 {fill:none}
    .fil25 {fill:#008DD2}
    .fil22 {fill:#0B5BA6}
    .fil6 {fill:#2B2A29}
    .fil29 {fill:#325024}
    .fil13 {fill:#379138}
    .fil15 {fill:#434242}
    .fil31 {fill:#53201D}
    .fil7 {fill:#5B5B5B}
    .fil3 {fill:#A2D9F7}
    .fil10 {fill:#A79ECD}
    .fil4 {fill:#C7E8FB}
    .fil28 {fill:#CC6F3C}
    .fil9 {fill:#D2CDE7}
    .fil26 {fill:#DF2924}
    .fil23 {fill:#E31E24}
    .fil19 {fill:#E5097F}
    .fil8 {fill:#E51A4B}
    .fil16 {fill:#E63F23}
    .fil30 {fill:#EBECEC}
    .fil17 {fill:#EF7F1A}
    .fil14 {fill:#FECC00}
    .fil1 {fill:#FEFEFE}
    .fil24 {fill:#FFED00}
    .fil2 {fill:#006CD8}
    .fil21 {fill:#232A2C}
    .fil18 {fill:#3A3B3F}
    .fil5 {fill:#3A4855}
    .fil27 {fill:#4FBBB2}
    .fil12 {fill:#E6253C}
    .fil11 {fill:#F07886}
    .fil20 {fill:#3F3183}
   ]]>
  </style>
     <clipPath id="id0">
      <path d="M57 882l83 0 0 37 35 0 4 11 0 98c0,0 0,27 -29,17 0,0 -13,-14 -11,-17 3,-3 -82,0 -82,0l1 -146z"/>
     </clipPath>
     <clipPath id="id1">
      <path d="M87 1796l-3 6c0,0 -1,1 -1,0l-15 -8c0,0 -1,-1 -1,-1l6 -11c0,0 0,0 0,0l22 -42c1,-2 3,-2 5,-1l60 32c2,1 3,3 2,5l-22 42c0,0 0,0 0,0l-6 11c0,0 -1,1 -1,0l-15 -8c0,0 -1,-1 -1,-1l3 -6 -34 -18z"/>
     </clipPath>
     <clipPath id="id2">
      <path d="M89 1816l14 5c1,0 2,2 2,3l-16 49 5 2c2,1 3,2 2,4l-9 27c-1,2 -2,3 -4,2l-29 -10c-2,-1 -3,-2 -2,-4l9 -27c1,-2 2,-3 4,-2l5 2 16 -49c0,-1 2,-2 3,-2z"/>
     </clipPath>
    <clipPath id="id3">
     <path d="M107 452l1 0c3,10 20,18 41,18 17,0 31,-5 38,-12 2,75 -25,129 -79,164 -50,-36 -80,-88 -79,-164 6,7 21,12 38,12 21,0 38,-8 41,-18z"/>
    </clipPath>
 </defs>
 <g id="Layer_x0020_1">
  <metadata id="CorelCorpID_0Corel-Layer"/>
  <g id="_1089969392">
   <rect class="fil0" y="2575" width="215" height="215"/>
   <rect class="fil0" y="1287" width="215" height="215"/>
   <rect class="fil0" y="3433" width="215" height="215"/>
   <rect class="fil0" y="2145" width="215" height="215"/>
   <rect class="fil0" y="3862" width="215" height="215"/>
   <rect class="fil0" width="215" height="215"/>
   <rect class="fil0" y="429" width="215" height="215"/>
   <rect class="fil0" y="858" width="215" height="215"/>
   <rect class="fil0" y="1716" width="215" height="215"/>
   <rect class="fil0" y="3004" width="215" height="215"/>
   <rect class="fil0" y="4291" width="215" height="215"/>
   <rect class="fil0" y="4720" width="215" height="215"/>
   <rect class="fil0" y="5149" width="215" height="215"/>
   <rect class="fil0" y="5578" width="215" height="215"/>
   <rect class="fil0" y="6007" width="215" height="215"/>
   <g>
    <path class="fil1" d="M75 113c0,-1 -26,74 -26,74l92 2 13 -23 -22 -23 -20 -34c0,0 -32,-1 -35,2 -3,3 -3,3 -3,3z"/>
    <path class="fil2" d="M129 152c6,0 9,0 12,3 2,1 3,2 4,4 4,6 2,13 -3,17 -3,2 -5,5 -7,7 -2,2 -1,2 -5,2 -26,0 -53,0 -78,0 1,-3 2,-6 3,-9 3,-7 5,-16 8,-23 1,-2 1,-3 2,-5 3,-7 5,-16 8,-23 1,-2 5,-12 5,-14 -4,2 -7,4 -11,6 -12,8 -21,19 -21,36l0 39c0,1 0,1 1,1l121 0c1,0 1,0 1,-1l0 -40c0,-35 -33,-44 -62,-44l9 19c1,1 1,2 1,3l8 16c1,1 3,5 3,6z"/>
    <path class="fil2" d="M69 59c0,9 2,17 7,24 15,21 46,21 61,0 4,-5 7,-14 7,-21 0,-10 -2,-17 -7,-24 -2,-3 -6,-7 -9,-9 -11,-7 -25,-9 -37,-3 -3,2 -6,3 -9,5 -8,7 -14,17 -14,28z"/>
    <path class="fil2" d="M123 175c7,0 13,1 17,-3 7,-5 3,-15 -6,-17 -6,-1 -13,0 -19,0 0,2 1,4 2,5 1,2 1,3 2,5l3 7c0,1 0,2 1,2z"/>
    <path class="fil2" d="M114 152l7 0c0,-2 -20,-42 -20,-44l-3 0c0,2 1,4 2,6l4 11c1,2 1,4 2,6l8 22z"/>
    <path class="fil2" d="M124 178c0,2 1,3 1,5 4,0 3,0 5,-2 1,-1 3,-2 3,-4l-10 0z"/>
   </g>
   <g>
    <polygon class="fil3" points="38,1027 138,1028 147,1047 49,1046 37,1032 "/>
    <polygon class="fil3 str0" points="139,885 175,921 139,921 "/>
    <path class="fil4" d="M57 882l83 0 0 37 35 0 4 11 0 98c0,0 0,27 -29,17 0,0 -13,-14 -11,-17 3,-3 -82,0 -82,0l1 -146z"/>
    <g style="clip-path:url(#id0)">
     <g>
      <path id="1" class="fil3" d="M169 943c0,28 -15,53 -37,66 0,1 -1,1 -2,1 -11,6 -23,10 -36,10 -12,0 -24,-3 -34,-8 0,8 0,13 0,13 0,0 0,0 1,0l40 0c5,0 27,0 31,0 1,0 1,0 2,0 1,0 1,0 2,0 6,0 5,1 6,5 0,4 2,8 5,10 3,3 9,6 16,4 5,-1 9,-5 11,-9 1,-3 1,-5 1,-9 0,-28 0,-59 0,-87 0,-4 0,-9 0,-13 -3,0 -5,0 -8,0 1,6 2,12 2,18z"/>
     </g>
    </g>
    <path class="fil0" d="M57 882l83 0 0 37 35 0 4 11 0 98c0,0 0,27 -29,17 0,0 -13,-14 -11,-17 3,-3 -82,0 -82,0l1 -146z"/>
    <path class="fil5" d="M40 1030c16,0 32,0 48,0l36 0c2,0 4,0 6,0 1,0 4,0 6,0 1,3 0,3 3,8 1,1 1,2 2,3 1,1 2,2 3,3 -4,0 -10,0 -14,0 -22,0 -44,0 -66,0 -2,0 -5,0 -7,0 -6,-1 -11,-3 -13,-8 -1,-1 -2,-4 -2,-5l0 0zm140 -8c0,5 0,9 -1,13 -2,5 -5,9 -9,12 -5,4 -10,4 -17,4 -27,0 -54,0 -82,0 -5,0 -15,0 -20,-1 -5,-1 -10,-4 -13,-8 -1,-2 -3,-4 -4,-7 -3,-10 -1,-10 7,-10 3,0 8,0 10,0l0 0c0,-27 0,-55 0,-82 0,-17 0,-34 0,-51 0,-12 -1,-11 9,-11l71 0c11,0 5,1 12,6 0,0 1,1 1,1l23 23c0,1 1,1 1,1l8 8c3,3 1,99 1,103zm-6 -84c0,-4 0,-9 0,-13 -6,0 -13,0 -19,0l-14 0c-2,0 -3,0 -4,-1 -1,-1 -1,-7 -1,-9 0,-4 0,-27 0,-29 -2,0 -5,0 -7,0l-67 0c-4,0 -3,-1 -3,3 0,15 0,134 0,135 0,0 0,0 1,0l40 0c5,0 27,0 31,0 1,0 1,0 2,0 1,0 1,0 2,0 6,0 5,1 6,5 0,4 2,8 5,10 3,3 9,6 16,4 5,-1 9,-5 11,-9 1,-3 1,-5 1,-9 0,-28 0,-59 0,-87zm-33 -48c1,1 3,3 4,3l18 18c1,1 7,6 7,7l-28 0c0,0 0,0 0,0l0 -3 0 -25 0 0z"/>
    <path class="fil5" d="M83 947c-3,1 -3,5 0,6 1,0 52,0 59,0 2,0 8,0 10,0 1,0 2,-1 2,-3 0,-1 -1,-2 -2,-3 -1,0 -52,0 -59,0 -2,0 -8,0 -10,0l0 0z"/>
    <path class="fil5" d="M84 1005c-4,1 -5,6 1,6 3,0 43,0 44,0 4,0 5,-6 -2,-6 -5,0 -42,0 -44,0l0 0z"/>
    <path class="fil5" d="M87 973c1,0 2,0 3,0 3,0 4,0 8,0 1,0 1,0 2,0l35 0c6,0 7,-6 -1,-6l-31 0c-6,0 -13,0 -18,0 -2,0 -5,1 -4,3 0,2 3,2 6,2l0 0z"/>
    <path class="fil5" d="M85 992l45 0c1,0 3,0 4,0 4,-1 3,-6 -2,-6l-47 0c-6,0 -6,6 0,6z"/>
   </g>
   <g>
    <line class="fil0 str1" x1="203" y1="1379" x2="193" y2= "1344" />
    <path class="fil6" d="M203 1375c2,0 4,2 4,4 0,2 -2,4 -4,4 -2,0 -4,-2 -4,-4 0,-2 2,-4 4,-4z"/>
    <path class="fil7" d="M71 1420l121 -106c7,-6 16,-4 20,5l0 0c4,8 2,20 -4,26l-121 106c-7,6 -16,4 -20,-5l0 0c-4,-8 -2,-20 4,-26z"/>
    <path class="fil8" d="M170 1426c22,11 19,11 27,27l1 2c16,-6 17,-10 16,-29l-44 0z"/>
    <path class="fil6" d="M132 1470c8,35 64,26 56,-13 -7,-37 -65,-25 -56,13z"/>
    <path class="fil8" d="M89 1426l67 0c-16,1 -31,13 -33,33l-50 0 -42 1c-7,-2 1,-7 -12,-22 -5,-6 -12,-9 -18,-11l0 -108 13 0c4,1 4,1 5,3 3,7 1,88 1,103l69 1z"/>
    <path class="fil6" d="M0 1491c14,-3 25,-15 22,-34 -3,-13 -12,-20 -22,-22l0 56z"/>
    <path class="fil8" d="M0 1314l14 0c-1,-9 -5,-15 -14,-16l0 16z"/>
   </g>
   <g>
    <path class="fil9" d="M87 1796l-3 6c0,0 -1,1 -1,0l-15 -8c0,0 -1,-1 -1,-1l6 -11c0,0 0,0 0,0l22 -42c1,-2 3,-2 5,-1l60 32c2,1 3,3 2,5l-22 42c0,0 0,0 0,0l-6 11c0,0 -1,1 -1,0l-15 -8c0,0 -1,-1 -1,-1l3 -6 -34 -18z"/>
    <g style="clip-path:url(#id1)">
     <g>
      <path id="1" class="fil10" d="M87 1755c1,-2 3,-2 5,-1l60 32c2,1 3,3 2,5l8 -15c1,-2 0,-4 -2,-5l-60 -32c-2,-1 -4,-1 -5,1l-8 15z"/>
     </g>
    </g>
    <path class="fil0 str2" d="M87 1796l-3 6c0,0 -1,1 -1,0l-15 -8c0,0 -1,-1 -1,-1l6 -11c0,0 0,0 0,0l22 -42c1,-2 3,-2 5,-1l60 32c2,1 3,3 2,5l-22 42c0,0 0,0 0,0l-6 11c0,0 -1,1 -1,0l-15 -8c0,0 -1,-1 -1,-1l3 -6 -34 -18z"/>
    <path class="fil11" d="M89 1816l14 5c1,0 2,2 2,3l-16 49 5 2c2,1 3,2 2,4l-9 27c-1,2 -2,3 -4,2l-29 -10c-2,-1 -3,-2 -2,-4l9 -27c1,-2 2,-3 4,-2l5 2 16 -49c0,-1 2,-2 3,-2z"/>
    <g style="clip-path:url(#id2)">
     <g>
      <path id="1" class="fil12" d="M60 1900l24 8c2,1 4,0 4,-2l9 -27c1,-2 0,-4 -2,-4l-5 -2 16 -49c0,-1 0,-3 -2,-3l-14 -5c0,0 -1,0 -1,0 2,7 3,15 3,23 0,30 -13,55 -31,61z"/>
     </g>
    </g>
    <path class="fil0 str2" d="M89 1816l14 5c1,0 2,2 2,3l-16 49 5 2c2,1 3,2 2,4l-9 27c-1,2 -2,3 -4,2l-29 -10c-2,-1 -3,-2 -2,-4l9 -27c1,-2 2,-3 4,-2l5 2 16 -49c0,-1 2,-2 3,-2z"/>
   </g>
   <g>
    <path class="fil13" d="M51 2294l0 0c3,2 8,3 11,4 5,1 5,1 6,2 3,4 40,52 113,10 6,-5 11,-13 11,-22 0,-18 2,-25 -11,-38 -2,-2 -9,-7 -11,-8 0,-3 2,-4 2,-11 0,-14 1,-20 -8,-31 -2,-3 -4,-4 -6,-6 -11,-9 -31,-15 -46,-15 -14,0 -23,0 -37,6 -13,5 -26,13 -30,30 -1,3 -2,3 -7,7 -6,5 -14,14 -14,25l0 0 0 0c0,14 -2,25 8,35 6,6 7,7 10,8l0 0c1,1 2,1 5,3l0 0c2,1 3,2 5,3zm79 13c-10,0 -24,-2 -34,-6 -1,-1 -1,0 -2,-1 17,0 48,-10 54,-33 2,-7 0,-2 10,-10 2,-1 2,-2 4,-4 1,-1 3,-3 3,-5 3,2 7,3 10,7 30,26 -10,52 -46,52l0 0 0 0zm-86 -83c0,6 0,11 1,15 2,7 6,14 11,18 1,1 2,2 4,3 1,1 3,2 4,3 12,8 37,13 52,11 2,0 4,-1 6,-1 -2,2 -11,4 -13,5 -21,5 -53,2 -70,-14 -4,-4 -11,-13 -8,-23 2,-8 9,-14 15,-17l0 0zm6 -5c0,-12 13,-21 20,-25 21,-11 54,-11 76,0 7,4 20,13 20,25 0,18 -25,28 -37,31 -20,4 -39,3 -57,-6 -8,-3 -22,-13 -22,-26l0 0z"/>
    <path class="fil6" d="M86 2192l0 5c0,2 2,2 5,2 2,0 4,0 6,0 2,0 4,1 6,2 1,0 2,2 2,3l-16 0c-4,0 -3,0 -3,5 0,2 1,2 3,2l16 0c-1,2 -1,2 -3,4 -4,3 -10,3 -15,3 -1,0 -2,0 -2,2 0,2 0,5 0,6 1,1 1,1 2,2 1,2 5,5 7,7l11 12c0,0 0,0 1,1l1 2c0,0 0,0 0,0 0,0 1,1 1,1l9 0c1,0 2,-1 1,-2l-19 -22c0,0 -1,0 -1,-1 4,0 9,-2 11,-4 1,-1 1,-1 2,-2 2,-3 3,-5 4,-8 2,0 4,0 5,0 4,0 3,0 3,-6 0,-2 -2,-2 -4,-2 -2,0 -4,0 -5,0 0,-1 0,-3 -2,-5 0,0 -1,-1 -1,-1 2,0 7,0 10,0 1,0 2,0 2,-2l0 -4c0,-1 0,-1 -1,-1l-37 0c-1,0 -1,1 -1,2l0 0z"/>
   </g>
   <path class="fil1" d="M107 452l1 0c3,10 20,18 41,18 17,0 31,-5 38,-12 2,75 -25,129 -79,164 -50,-36 -80,-88 -79,-164 6,7 21,12 38,12 21,0 38,-8 41,-18z"/>
   <g style="clip-path:url(#id3)">
    <g>
     <path id="1" class="fil14" d="M107 452l0 170c54,-35 81,-89 79,-164 -6,7 -21,12 -38,12 -21,0 -38,-8 -41,-18l-1 0z"/>
    </g>
   </g>
   <path class="fil0 str3" d="M107 452l1 0c3,10 20,18 41,18 17,0 31,-5 38,-12 2,75 -25,129 -79,164 -50,-36 -80,-88 -79,-164 6,7 21,12 38,12 21,0 38,-8 41,-18z"/>
   <g>
    <path class="fil15" d="M92 3027l23 0 0 7 0 0c-2,0 -4,3 -4,6 0,3 2,6 4,6l0 0 0 14 -23 0 0 -32z"/>
    <polygon class="fil16" points="70,3066 136,3066 130,3051 73,3051 "/>
    <polygon class="fil17" points="65,3062 141,3062 141,3192 65,3192 "/>
    <polygon class="fil6" points="60,3186 146,3186 146,3196 60,3196 "/>
    <polygon class="fil6" points="122,3036 155,3028 155,3026 121,3034 "/>
    <polygon class="fil6" points="121,3039 155,3035 155,3033 121,3037 "/>
    <polygon class="fil6" points="121,3041 155,3041 155,3039 121,3039 "/>
    <polygon class="fil6" points="121,3043 155,3048 155,3046 121,3041 "/>
    <polygon class="fil6" points="121,3046 155,3054 155,3052 122,3044 "/>
   </g>
   <g>
    <g>
     <path class="fil18" d="M131 3459l57 54c6,6 6,15 0,21 -64,71 -149,-14 -78,-75 6,-5 16,-6 21,-1z"/>
     <path class="fil1" d="M143 3475l28 27c3,3 4,6 3,8 -14,17 -57,-25 -39,-37 2,-1 5,0 8,3z"/>
    </g>
    <path class="fil2" d="M85 3539l23 22 -62 64 -10 -1 54 -55c1,-1 1,-2 0,-3l0 0c-1,-1 -2,-1 -3,0l-57 59 -6 -6 57 -59c1,-1 1,-2 0,-3l0 0c-1,-1 -2,-1 -3,0l-39 39 -4 -4 52 -53z"/>
   </g>
   <g>
    <path class="fil7" d="M144 4004c9,38 -24,28 -53,28 -18,0 -32,-1 -38,-15 -3,-6 -18,-85 -17,-89 5,-16 18,0 28,11 19,20 -9,72 33,69 16,-1 8,-4 22,-6 8,-1 18,0 26,1l0 0z"/>
    <g>
     <path class="fil19" d="M102 3947l48 1 1 14c-15,5 -47,-3 -58,4l15 3 4 12c25,2 46,-7 53,10l7 32c5,21 13,32 -12,31 -10,-28 -6,-49 -11,-55 -13,-12 -42,4 -62,1 -10,-14 -7,-16 -7,-34 0,-14 -7,-26 -6,-37 22,-10 24,2 29,18l0 0z"/>
     <path class="fil19" d="M85 3888c6,3 16,7 11,23 -3,8 -13,14 -25,9 -18,-7 -7,-42 14,-32l0 0z"/>
    </g>
    <path class="fil7" d="M40 3915c-3,-6 -4,-12 -1,-21 3,-11 6,-11 18,-9 2,15 1,32 -17,30l0 0z"/>
   </g>
   <g>
    <path class="fil20" d="M119 4434l-27 -73c-3,-8 -11,-11 -19,-9 -91,29 -46,140 37,101 8,-4 12,-11 9,-19z"/>
    <g>
     <path class="fil20" d="M110 4354l53 -19c2,-1 5,0 6,3l2 4c1,2 0,5 -3,6l-53 19c-2,1 -5,0 -6,-3l-2 -4c-1,-2 0,-5 3,-6z"/>
     <path class="fil20" d="M121 4385l53 -19c2,-1 5,0 6,3l2 4c1,2 0,5 -3,6l-53 19c-2,1 -5,0 -6,-3l-2 -4c-1,-2 0,-5 3,-6z"/>
     <path class="fil20" d="M132 4415l53 -19c2,-1 5,0 6,3l2 4c1,2 0,5 -3,6l-53 19c-2,1 -5,0 -6,-3l-2 -4c-1,-2 0,-5 3,-6z"/>
    </g>
   </g>
   <path class="fil21" d="M117 2619l0 32c13,4 23,16 23,31 0,3 0,6 -1,9l25 21c5,-9 8,-19 8,-30 0,-32 -24,-59 -54,-63zm-18 32l0 -32c-32,4 -56,31 -56,63 0,11 3,21 8,30l25 -21c-1,-3 -1,-6 -1,-9 0,-15 10,-28 24,-31zm54 76l-24 -20c-6,5 -13,8 -21,8 -8,0 -16,-3 -21,-8l-24 20c12,12 28,19 46,19 18,0 34,-7 46,-19zm-46 -129c47,0 85,38 85,85 0,47 -38,85 -85,85 -47,0 -85,-38 -85,-85 0,-47 38,-85 85,-85z"/>
   <g>
    <path class="fil22" d="M108 5271l0 -55c0,-1 1,-2 2,-2l25 0c2,0 26,27 28,28 5,5 9,9 14,14l10 11c1,2 3,2 3,5l-79 0c-1,0 -1,0 -1,-1zm-92 -17c0,-6 1,-12 3,-15 12,-28 51,-33 67,0 11,23 -6,54 -33,54 -20,0 -37,-17 -37,-38zm-10 -36l0 81c-8,0 -6,1 -6,17 0,3 5,3 6,3 0,15 11,12 21,12 0,-9 2,-15 8,-21 10,-11 26,-11 36,0 6,7 8,12 8,21l54 0 0 -3c0,-13 12,-26 25,-26 9,0 14,2 19,8 6,6 8,13 8,22 9,0 21,2 22,-9l0 -3c8,0 7,0 7,-17 0,-3 -5,-3 -7,-3 0,-2 0,-3 0,-4 0,-3 -1,-1 0,-9 0,-2 0,-2 0,-5 0,-5 0,-4 -3,-7l-62 -65c-2,-2 -3,-4 -6,-4l-119 0c-8,0 -12,4 -12,12z"/>
    <path class="fil15" d="M33 5328l0 4c0,10 10,20 19,20l4 0c9,0 19,-10 19,-20 0,-7 -1,-12 -6,-17 -13,-14 -35,-3 -35,13z"/>
    <path class="fil15" d="M139 5328c0,13 9,22 19,22 4,0 7,0 11,-2 5,-3 11,-10 11,-17 0,-8 0,-12 -6,-18 -13,-13 -35,-3 -35,15z"/>
    <path class="fil23" d="M106 5199l0 2 20 0 0 -4c0,-5 -5,-10 -10,-10 -6,0 -10,5 -10,11z"/>
    <path class="fil24" d="M114 5165l0 15c0,2 1,3 2,4 2,0 3,-1 3,-2 0,-5 1,-14 0,-19 -1,0 -4,-2 -4,3z"/>
    <path class="fil24" d="M126 5186c3,6 6,0 10,-4 2,-2 6,-5 6,-8 0,-2 -2,-2 -3,-2 -1,0 -6,5 -7,7 -2,2 -5,4 -6,7z"/>
    <path class="fil24" d="M91 5172c-1,3 0,3 2,5 2,2 10,11 11,11 1,0 1,0 2,0 1,-4 0,-4 -6,-9 -5,-5 -6,-7 -9,-6z"/>
    <g>
     <rect class="fil23" x="47" y="5235" width="11" height="40" rx="2" ry="2"/>
     <rect class="fil23" transform="matrix(1.08762E-014 -0.43111 0.410661 1.14178E-014 33.6234 5261.02)" width="28" height="92" rx="2" ry="2"/>
    </g>
    <path class="fil25" d="M54 5292c-20,0 -37,-17 -37,-38 0,-6 1,-12 3,-15 12,-28 51,-33 67,0 11,23 -6,54 -33,54zm83 -86l-119 0c-8,0 -12,4 -12,12l0 81 201 0c0,-2 0,-2 0,-4 0,-3 -1,-1 0,-9 0,-2 0,-2 0,-5 0,-5 0,-4 -3,-7l-62 -65c-2,-2 -3,-4 -6,-4zm-29 65l0 -55c0,-1 1,-2 2,-2l25 0c2,0 26,27 28,28l14 14 10 11c1,2 3,2 3,5l-79 0c-1,0 -1,0 -1,-1z"/>
   </g>
   <g>
    <path class="fil26" d="M86 4903c0,-16 26,-16 26,0 0,16 -26,16 -26,0zm58 -23l-94 0 0 -125 98 0 0 121c0,3 -1,4 -4,4zm-33 -142c4,0 4,2 4,5l-8 0c0,-4 0,-5 4,-5zm-23 0l10 0c4,0 4,2 4,5l-18 0c0,-4 0,-5 4,-5zm-45 3l0 173c0,6 6,13 13,13l88 0c6,0 13,-6 13,-13l0 -173c0,-6 -6,-13 -13,-13l-88 0c-6,0 -13,6 -13,13z"/>
    <path class="fil14" d="M191 4768c0,26 -17,23 -6,31 14,-4 19,-32 10,-48 -3,-6 -3,-8 -12,-8 -2,7 1,5 4,11 2,4 5,9 5,15z"/>
    <path class="fil14" d="M0 4765c0,12 1,30 14,34 10,-7 -6,-4 -6,-31 0,-15 11,-16 9,-26 -9,0 -8,2 -12,8 -2,4 -5,9 -5,16z"/>
    <path class="fil14" d="M167 4750c0,14 6,5 6,23 0,5 -13,22 -2,19 14,-3 12,-49 -5,-42z"/>
    <path class="fil14" d="M17 4767c0,27 14,28 14,21 0,-4 -6,-6 -6,-18 0,-13 6,-9 6,-21 -6,0 -7,0 -11,7 -2,3 -3,6 -3,11z"/>
    <path class="fil14" d="M91 4902c0,12 15,10 15,1 0,-4 -5,-6 -8,-8 -2,1 -8,4 -8,6z"/>
    <path class="fil1" d="M148 4755l-98 0 0 125 94 0c3,0 4,-1 4,-4l0 -121z"/>
    <g>
     <rect class="fil22" transform="matrix(1.19466 0.29843 -0.431033 1.11322 129.91 4819.12)" width="71" height="58" rx="2" ry="2"/>
     <rect class="fil27" transform="matrix(1.13868 0.443015 -0.431033 1.11322 130.289 4818.81)" width="71" height="58" rx="2" ry="2"/>
     <path class="fil28" d="M174 4858l30 12 -10 26 -30 -12c-7,-3 -11,-11 -8,-18l0 0c3,-7 11,-10 18,-8z"/>
     <circle class="fil29" transform="matrix(1.13868 0.443015 -0.431033 1.11322 167.816 4869.53)" r="4"/>
    </g>
   </g>
   <g>
    <path class="fil17" d="M24 5702c0,-3 12,-57 20,-62 8,-5 115,-5 121,-1 6,5 23,53 25,65 2,17 3,31 1,31l-169 0 2 -34z"/>
    <g>
     <path class="fil15" d="M72 5671c0,-14 -3,-15 9,-15 9,0 15,-1 24,-1 10,0 17,1 26,1 8,0 18,2 25,2 1,4 2,8 4,13 3,11 9,30 9,42l-46 0c1,-1 1,-1 3,-2 4,-2 23,-3 27,-3 6,0 8,1 9,-3 -2,-3 -1,-2 -6,-2l-26 -1c-1,0 -3,3 -12,3 0,4 2,3 -8,7 -9,3 -32,2 -43,2 7,-6 13,-4 20,-4 16,-2 19,1 20,-4 -3,-5 -4,-1 -15,-2 -27,-3 -17,2 -30,2 0,4 1,3 -3,4 -6,3 -11,4 -18,4 1,-10 3,-20 5,-29l7 -27 8 -1c1,4 2,11 2,15 1,11 0,6 9,6 1,3 0,2 2,3 -3,4 -5,6 -5,12 4,-1 7,-4 9,-6 3,5 4,8 8,8 0,-5 -8,-21 -11,-25l-6 1zm-38 46c1,3 2,5 5,5l132 0c5,0 6,-1 6,-6l0 0c0,-3 -1,-6 -1,-9 0,0 0,0 0,0 0,-7 -11,-53 -16,-56 -7,-4 -83,-4 -97,-2 -13,2 -13,-2 -17,11 -3,10 -8,26 -10,40 0,0 -1,10 -2,17z"/>
     <path class="fil15" d="M93 5662c0,10 4,7 22,7 3,0 11,-11 -5,-11l0 -3c-5,0 -4,0 -7,1 -6,3 -10,2 -10,5z"/>
    </g>
    <path class="fil30" d="M161 5671c-1,-5 -3,-9 -4,-13 -7,0 -18,-2 -25,-2 -10,0 -16,-1 -26,-1 -10,0 -15,1 -24,1 -13,0 -9,1 -9,15l6 -1c2,5 10,21 11,25 -4,0 -6,-4 -8,-8 -3,2 -6,5 -9,6 0,-6 3,-8 5,-12 -2,-2 -1,0 -2,-3 -8,0 -8,5 -9,-6 0,-4 -1,-11 -2,-15l-8 1 -7 27c-2,9 -4,19 -5,29 7,0 13,-1 18,-4 4,-2 3,0 3,-4 12,0 2,-5 30,-2 10,1 11,-2 15,2 -1,5 -5,2 -20,4 -7,1 -13,-2 -20,4 11,0 34,1 43,-2 10,-4 8,-3 8,-7 9,0 11,-3 12,-3l26 1c5,0 4,-1 6,2 -1,5 -3,3 -9,3 -4,0 -23,1 -27,3 -2,1 -2,1 -3,2l46 0c0,-12 -5,-31 -9,-42zm-46 -1c-18,0 -22,2 -22,-7 0,-3 4,-2 10,-5 3,-2 2,-1 7,-1l0 3c16,0 8,11 5,11z"/>
    <path class="fil17" d="M25 5707l-2 -2c-1,-1 -1,-2 -2,-2 -2,-2 -4,-2 -6,-3 -4,-1 -9,0 -13,1 -7,14 3,16 12,16 4,0 9,-1 10,-1 0,1 0,1 0,2l2 -17c0,2 -1,5 -1,7z"/>
    <path class="fil17" d="M201 5699c-1,0 -1,0 -2,0 -7,0 -7,5 -11,7 0,-2 0,-5 -1,-9l2 19c0,-1 0,-1 0,-2 5,0 9,1 14,1 6,0 11,-1 11,-10 0,-8 -6,-8 -13,-7z"/>
    <polygon class="fil15" points="104,5653 103,5658 111,5661 109,5652 "/>
   </g>
   <path class="fil31" d="M121 6218l0 0c0,0 0,0 0,0zm-42 -211l52 0c7,0 14,1 17,2 9,3 2,8 7,8 5,0 4,-2 8,1l10 9c2,3 0,4 2,8 1,3 5,3 6,4 3,1 3,2 4,5 11,18 4,13 6,19 1,3 2,4 4,5 2,2 2,2 3,5 7,22 1,16 1,22 0,7 2,7 4,8 0,6 1,28 -1,32 -1,3 0,2 -3,2 0,4 -1,3 -1,8 0,2 2,3 2,5 0,2 -5,18 -6,20 -3,3 -2,-1 -5,4 -5,8 6,0 -7,20 -6,9 -7,1 -10,6 -4,7 3,4 -7,12 -5,4 -5,4 -14,4 -3,5 -4,7 -11,7l0 0 -1 0 -46 0c-10,0 -18,-1 -21,-2 -8,-2 -11,-3 -12,-8 5,0 10,-2 15,-2l-22 -4c-6,-1 -13,-5 -13,-11 0,-5 5,-1 14,-4l-20 -6c-5,-2 -7,-7 -9,-12 -2,-7 3,-6 3,-6l13 -2c-3,-3 -15,-7 -19,-9 -6,-3 -8,-16 -6,-22l17 -3c-8,-7 -19,-7 -19,-15 0,-22 -2,-15 19,-20 -3,-5 -15,-9 -15,-13 0,-7 2,-14 5,-18 7,0 12,-2 18,-2 -6,-5 -13,-6 -13,-9 0,-6 6,-15 8,-16 3,-1 7,-1 10,-1 5,0 6,-1 10,-1 -6,-8 -17,-5 -7,-16 5,-5 10,-3 25,-3l-4 -2c-2,-1 -2,-1 -4,-1 0,-7 7,-8 13,-8l0 0 1 0zm39 210l2 0 -2 0zm-23 -103c0,-61 48,-93 72,-44 22,44 4,112 -31,112 -28,0 -41,-43 -41,-68zm23 103c-4,0 -9,-3 -12,-5 -5,-3 -7,-3 -15,-3 4,-6 5,-3 -5,-13 -7,-7 -7,-5 -19,-5 3,-4 9,-5 5,-13l-8 -14 -13 0c7,-11 11,-4 8,-18 -3,-16 -2,-15 -15,-15 4,-6 10,-6 11,-13 2,-26 1,-23 -11,-23 12,-10 12,-4 17,-21 1,-2 2,-8 3,-10 -8,-5 -17,0 -10,-4 11,-7 9,1 23,-19 6,-8 -1,-6 -10,-6 1,-1 0,0 2,-1 1,0 3,-1 3,-1 2,-1 3,-1 6,-2 3,-1 9,-2 11,-4l9 -7c6,-5 -3,-3 -8,-3l0 -1c17,0 24,-6 30,-7l-3 2c-8,4 -4,3 -5,5 -1,1 -2,2 -3,3 -6,3 -1,-3 -8,3 -12,10 -2,5 -7,12 -1,1 -1,2 -3,2l-3 0c-2,0 -9,12 -10,14 -3,7 2,0 0,8 -2,6 -4,5 -6,5 0,4 -3,9 -4,13 -4,16 0,5 0,13 0,3 -1,5 -2,6 -1,1 -1,0 -2,3 -1,4 -1,16 -1,21 3,0 4,2 4,4 0,4 -1,5 -3,6 0,3 2,20 4,23 1,1 6,2 5,8 -1,3 -3,1 1,10 4,9 3,8 8,11 2,1 4,3 4,5l0 2c0,2 9,12 10,13 3,2 4,1 6,3 5,6 -6,-1 13,12 2,1 0,0 1,1zm3 -207l2 -1 -2 1z"/>
  </g>
 </g>
</svg>
