<?xml version="1.0" encoding="UTF-8"?>
<!DOCTYPE svg PUBLIC "-//W3C//DTD SVG 1.1//EN" "http://www.w3.org/Graphics/SVG/1.1/DTD/svg11.dtd">
<!-- Creator: CorelDRAW X6 -->
<svg xmlns="http://www.w3.org/2000/svg" xml:space="preserve" width="3in" height="1.07331in" version="1.1" style="shape-rendering:geometricPrecision; text-rendering:geometricPrecision; image-rendering:optimizeQuality; fill-rule:evenodd; clip-rule:evenodd"
viewBox="0 0 2995 1072"
 xmlns:xlink="http://www.w3.org/1999/xlink">
 <defs>
  <style type="text/css">
   <![CDATA[
    .fil0 {fill:#EB2C34}
    .fil1 {fill:#EC242B}
   ]]>
  </style>
 </defs>
 <g id="Layer_x0020_1">
  <metadata id="CorelCorpID_0Corel-Layer"/>
  <g id="_1130072768">
   <path class="fil0" d="M0 264l70 18c27,-276 -90,-214 380,-221l1002 2c5,0 20,-1 25,-1 166,-4 1388,-7 1463,32 6,23 -8,865 -23,905 -87,33 -36,19 -137,15 -82,-3 -167,9 -236,5 -14,-1 -59,-5 -59,-2 0,17 30,33 30,50l0 1c351,-7 490,70 480,-229l-3 -228c4,-70 9,-414 -7,-465 -15,-48 16,-5 8,-58 -5,-31 -27,-49 -69,-62 -76,-23 -1471,-1 -1776,-18 4,31 5,23 -2,29 -26,-41 -386,-36 -419,-16l-22 22c-24,-49 -11,-30 -218,-36 -100,-3 -404,-30 -457,45 -45,64 3,156 -30,212zm462 746c-164,0 -332,-5 -390,-21 -34,-187 -28,-43 -7,-145 17,-84 -6,-320 -2,-392 7,-122 44,-148 -58,-174l7 47c50,21 13,-1 11,14 -6,40 -15,25 -16,130 0,59 1,124 2,188l3 110c-46,349 90,286 427,290 9,0 1,0 10,0 0,-8 19,-15 19,-23l7 -15c3,-6 -5,-8 -12,-8z"/>
   <g>
    <path class="fil1" d="M1959 617c-4,-21 -6,-278 6,-319 59,-1 72,10 106,41 37,33 17,12 19,34 2,22 4,23 8,44 37,225 -124,274 -139,200zm-110 -323c14,12 13,6 15,35l-3 248c29,4 19,-4 38,13 -61,-17 -16,-6 -35,4l-4 53 -52 19c96,5 218,9 290,-18 104,-40 148,-208 71,-223 31,-14 8,24 23,-7 1,-2 3,-1 5,-2 -28,-157 -253,-154 -386,-142 9,9 2,1 18,10 13,7 6,-1 19,10z"/>
    <path class="fil0" d="M905 383c52,6 11,6 30,-6 -1,-19 -7,-81 5,-89 27,-17 121,38 73,139 -18,38 -38,42 -76,34l-1 -15c-3,-60 0,-50 -31,-63zm-118 275c29,8 183,9 201,2 -36,-29 -59,5 -56,-74 1,-36 4,-73 -1,-101 54,2 106,1 147,-26 51,-33 56,-93 11,-148 -32,-38 -63,-42 -132,-43 -55,-1 -104,3 -158,-1 2,2 4,3 6,4 1,1 4,3 6,4 2,1 9,6 11,8 35,28 24,68 21,154 -3,80 10,135 -9,209l-47 12z"/>
    <path class="fil0" d="M1260 531c13,-37 38,-111 65,-131 3,22 3,13 10,30l20 46c1,2 1,4 2,6l3 13c5,16 8,21 10,34l-110 2zm-118 132l129 1 -46 -22c0,-49 10,-51 21,-99 48,18 75,6 133,11 20,27 32,50 37,84l-45 22c78,22 121,-2 144,-1 27,1 18,11 45,3 -67,-60 -62,-83 -115,-206l-79 -170c-5,-21 2,-9 -12,-24l-141 315c-43,80 -33,51 -71,85z"/>
    <path class="fil1" d="M1584 271l49 28c2,42 19,318 -14,351 -33,32 33,-22 -12,8l178 11c-37,-35 -54,-1 -54,-76l0 -231c1,-56 4,-64 48,-86l-194 -5z"/>
   </g>
  </g>
 </g>
</svg>
