<?xml version="1.0" encoding="UTF-8"?>
<!DOCTYPE svg PUBLIC "-//W3C//DTD SVG 1.1//EN" "http://www.w3.org/Graphics/SVG/1.1/DTD/svg11.dtd">
<!-- Creator: CorelDRAW X6 -->
<svg xmlns="http://www.w3.org/2000/svg" xml:space="preserve" width="2263px" height="331px" version="1.1" style="shape-rendering:geometricPrecision; text-rendering:geometricPrecision; image-rendering:optimizeQuality; fill-rule:evenodd; clip-rule:evenodd"
viewBox="0 0 2151 315"
 xmlns:xlink="http://www.w3.org/1999/xlink">
 <defs>
  <style type="text/css">
   <![CDATA[
    .str1 {stroke:#3A4855;stroke-width:8.42232}
    .str0 {stroke:#80A447;stroke-width:8.42232}
    .fil0 {fill:none}
    .fil4 {fill:#F7AA47}
    .fil1 {fill:#FEFEFE}
    .fil6 {fill:#323332}
    .fil7 {fill:#374148}
    .fil5 {fill:#4374CE}
    .fil2 {fill:#CFE7A5}
    .fil9 {fill:#E89337}
    .fil10 {fill:#F2AF24}
    .fil8 {fill:#FEFFFF}
    .fil3 {fill:white}
    .fil11 {fill:#3A4855;fill-rule:nonzero}
   ]]>
  </style>
     <clipPath id="id0">
      <path d="M54 105l158 -40c6,-2 13,2 15,9l25 99c2,6 -2,13 -9,15l-158 40c-6,2 -13,-2 -15,-9l-25 -99c-2,-6 2,-13 9,-15z"/>
     </clipPath>
 </defs>
 <g id="Layer_x0020_1">
  <metadata id="CorelCorpID_0Corel-Layer"/>
  <g id="_1018545488">
   <rect class="fil0" x="630" width="315" height="315"/>
   <g>
    <path class="fil1" d="M54 105l158 -40c6,-2 13,2 15,9l25 99c2,6 -2,13 -9,15l-158 40c-6,2 -13,-2 -15,-9l-25 -99c-2,-6 2,-13 9,-15z"/>
    <g style="clip-path:url(#id0)">
     <g>
      <polygon id="1" class="fil2 str0" points="233,97 51,144 62,183 243,136 "/>
     </g>
    </g>
    <path class="fil0 str1" d="M54 105l158 -40c6,-2 13,2 15,9l25 99c2,6 -2,13 -9,15l-158 40c-6,2 -13,-2 -15,-9l-25 -99c-2,-6 2,-13 9,-15z"/>
    <path class="fil3 str1" d="M95 124l163 0c7,0 12,5 12,12l0 102c0,7 -5,12 -12,12l-163 0c-7,0 -12,-5 -12,-12l0 -102c0,-7 5,-12 12,-12z"/>
    <path class="fil4" d="M104 143l48 0c3,0 5,2 5,5l0 0c0,3 -2,5 -5,5l-48 0c-3,0 -5,-2 -5,-5l0 0c0,-3 2,-5 5,-5z"/>
    <path class="fil4" d="M193 220c3,0 6,3 6,6 0,3 -3,6 -6,6 -3,0 -6,-3 -6,-6 0,-3 3,-6 6,-6z"/>
    <path class="fil4" d="M247 220c3,0 6,3 6,6 0,3 -3,6 -6,6 -3,0 -6,-3 -6,-6 0,-3 3,-6 6,-6z"/>
    <path class="fil4" d="M229 220c3,0 6,3 6,6 0,3 -3,6 -6,6 -3,0 -6,-3 -6,-6 0,-3 3,-6 6,-6z"/>
    <path class="fil4" d="M211 220c3,0 6,3 6,6 0,3 -3,6 -6,6 -3,0 -6,-3 -6,-6 0,-3 3,-6 6,-6z"/>
   </g>
   <path class="fil5" d="M738 84l99 0c10,0 18,8 18,18l0 144c0,10 -8,18 -18,18l-99 0c-10,0 -18,-8 -18,-18l0 -144c0,-10 8,-18 18,-18zm71 19l0 0 0 10c-1,1 -2,2 -2,4l0 17c0,2 1,3 2,4l0 10 0 0c-5,0 -9,-4 -9,-9l0 -28c0,-5 4,-9 9,-9zm20 0l0 0c5,0 9,4 9,9l0 28c0,5 -4,9 -9,9l0 0 0 -11c1,-1 2,-2 2,-4l0 -17c0,-1 -1,-3 -2,-4l0 -11zm-15 11l11 0c3,0 5,2 5,5l0 15c0,3 -2,5 -5,5l-11 0c-3,0 -5,-2 -5,-5l0 -15c0,-3 2,-5 5,-5zm-82 -12l11 0 0 143 -11 0 0 -143zm23 117l11 0 0 26 -11 0 0 -26zm0 -39l11 0 0 26 -11 0 0 -26zm0 -39l11 0 0 26 -11 0 0 -26zm0 -39l11 0 0 26 -11 0 0 -26z"/>
   <path class="fil6" d="M881 51l-187 0c-6,0 -11,5 -11,11l0 35c0,6 5,11 11,11l12 0 0 -14 -3 0c-3,0 -5,-2 -5,-5l0 -17c0,-3 2,-5 5,-5l169 0c3,0 5,2 5,5l0 17c0,3 -2,5 -5,5l-3 0 0 14 12 0c6,0 11,-5 11,-11l0 -35c0,-6 -5,-11 -11,-11z"/>
   <g>
    <path class="fil7" d="M1556 217c-3,15 -15,26 -30,26l-216 0c-15,0 -28,-11 -30,-26l277 0z"/>
    <polygon class="fil8" points="1399,225 1437,225 1437,236 1399,236 "/>
    <path class="fil7" d="M1303 88l0 115 13 0 0 -115 203 0 0 115 16 0 0 -115c0,-9 -7,-16 -16,-16l-199 0c-9,0 -16,7 -16,16z"/>
    <polygon class="fil9" points="1370,152 1420,111 1469,152 "/>
    <g>
     <polygon class="fil9" points="1391,156 1402,156 1402,179 1406,179 1406,191 1387,191 1387,179 1391,179 "/>
     <polygon class="fil9" points="1414,156 1425,156 1425,179 1429,179 1429,191 1410,191 1410,179 1414,179 "/>
     <polygon class="fil9" points="1437,156 1449,156 1449,179 1452,179 1452,191 1433,191 1433,179 1437,179 "/>
    </g>
   </g>
   <rect class="fil0" width="315" height="315"/>
   <rect class="fil0" x="1260" width="315" height="315"/>
   <path class="fil10" d="M2048 54c-57,0 -103,46 -103,103 0,57 46,103 103,103 57,0 103,-46 103,-103 0,-57 -46,-103 -103,-103zm-90 103c0,-50 40,-90 90,-90 50,0 90,40 90,90 0,50 -40,90 -90,90 -50,0 -90,-40 -90,-90z"/>
   <path class="fil11" d="M2014 99c11,0 20,9 20,20l0 19c0,11 -9,20 -20,20 -11,0 -20,-9 -20,-20l0 -19c0,-11 9,-20 20,-20zm0 8c-6,0 -12,5 -12,12l0 19c0,6 5,12 12,12 6,0 12,-5 12,-12l0 -19c0,-6 -5,-12 -12,-12zm-4 116l-1 -7 -1 -7 4 2 71 -121 8 5 -71 121 4 2 -7 3 -7 3z"/>
   <path class="fil11" d="M2088 152c11,0 20,9 20,20l0 19c0,11 -9,20 -20,20 -11,0 -20,-9 -20,-20l0 -19c0,-11 9,-20 20,-20zm0 8c-6,0 -12,5 -12,12l0 19c0,6 5,12 12,12 6,0 12,-5 12,-12l0 -19c0,-6 -5,-12 -12,-12z"/>
  </g>
 </g>
</svg>
