<?xml version="1.0" encoding="UTF-8"?>
<!DOCTYPE svg PUBLIC "-//W3C//DTD SVG 1.1//EN" "http://www.w3.org/Graphics/SVG/1.1/DTD/svg11.dtd">
<!-- Creator: CorelDRAW X6 -->
<svg xmlns="http://www.w3.org/2000/svg" xml:space="preserve" width="1.76197in" height="2.23903in" version="1.1" style="shape-rendering:geometricPrecision; text-rendering:geometricPrecision; image-rendering:optimizeQuality; fill-rule:evenodd; clip-rule:evenodd"
viewBox="0 0 9389 11931"
 xmlns:xlink="http://www.w3.org/1999/xlink">
 <defs>
  <style type="text/css">
   <![CDATA[
    .fil0 {fill:#EA556F}
    .fil3 {fill:#F08683}
    .fil2 {fill:#FECC00}
    .fil4 {fill:#FEFEFE}
    .fil5 {fill:#6BC9EF}
    .fil1 {fill:#9DD9F5}
   ]]>
  </style>
 </defs>
 <g id="Layer_x0020_1">
  <metadata id="CorelCorpID_0Corel-Layer"/>
  <g id="_1245463808">
   <path class="fil0" d="M4242 4644c-46,-198 -142,-323 -217,-490 -502,-1122 -1096,-2519 -2720,-1739 163,243 294,430 481,661 94,116 162,159 258,286 528,699 290,689 242,1286 -34,425 55,659 53,1084 -6,998 9,1231 402,1882 311,514 1640,2441 1989,2581 306,122 471,-35 744,-184l2867 -1973c148,-137 360,-353 360,-565 0,-264 -282,-543 -489,-598 251,-375 877,-553 -326,-1360 572,-854 -179,-755 -326,-1305 299,-70 1177,-678 1402,-882 311,-282 347,-318 142,-715 -361,-697 -756,-584 -1209,-244l-2564 1678c-578,383 -524,327 -1088,598z"/>
   <path class="fil1" d="M1033 8342c126,-238 -20,-92 218,-218 238,126 92,-20 218,218 -126,238 20,92 -218,218 -238,-126 -92,20 -218,-218zm653 -381c126,-238 -20,-92 218,-218 238,126 92,-20 218,218 -126,238 20,92 -218,218 -238,-126 -92,20 -218,-218zm-1686 544c168,721 1963,3141 2502,3426 472,-298 1795,-896 1795,-1468 0,-401 -821,-1448 -1044,-1784 -264,-396 -926,-1378 -1240,-1588 -378,200 -1823,1132 -2012,1414z"/>
   <path class="fil2" d="M5790 33c-112,324 -287,1043 -249,1341 438,151 502,183 643,-489 73,-348 131,-497 93,-801 -140,-49 -202,-128 -487,-51z"/>
   <path class="fil2" d="M6583 1865c304,-38 317,-150 585,-439 174,-188 361,-334 453,-601l-42 -65c-342,-425 -491,-42 -935,388 -433,419 -334,491 -62,717z"/>
   <path class="fil2" d="M4338 318c-22,213 299,1234 471,1252 669,70 257,-632 113,-1131 -75,-261 -68,-218 -285,-363 -123,50 -280,66 -299,242z"/>
   <path class="fil2" d="M3161 1125c-34,327 937,973 991,978 112,12 287,-130 293,-188 32,-311 -199,-394 -393,-572 -108,-100 -467,-447 -593,-460 -126,-13 -286,116 -299,242z"/>
   <path class="fil3" d="M4400 4350c-46,-198 -142,-323 -217,-490 -502,-1122 -1096,-2519 -2720,-1739 163,243 294,430 481,661 94,116 163,159 258,286 528,699 290,689 242,1286 -34,425 55,659 53,1084 -6,998 9,1231 402,1882 311,514 1640,2441 1989,2581 306,122 471,-35 744,-184l2867 -1973c148,-137 360,-353 360,-565 0,-264 -282,-543 -489,-598 251,-375 877,-553 -326,-1360 572,-854 -179,-755 -326,-1305 299,-70 1177,-678 1402,-882 311,-282 347,-318 142,-715 -361,-697 -756,-584 -1209,-244 -1181,773 -2387,1669 -3652,2276z"/>
   <path class="fil4" d="M3825 7704c-1698,-1332 -649,-3331 -649,-3331 0,0 -526,1869 649,3331z"/>
   <path class="fil5" d="M4296 10463c0,-401 -821,-1448 -1044,-1784 -264,-396 -926,-1378 -1240,-1588 -163,86 -522,307 -894,554 240,13 471,64 686,146 22,-9 54,-23 100,-47 228,121 103,-9 203,190 691,390 1158,1131 1158,1980 0,770 -383,1451 -970,1862 81,72 151,125 207,155 472,-298 1795,-896 1795,-1468z"/>
  </g>
 </g>
</svg>
