<?xml version="1.0" encoding="UTF-8"?>
<!DOCTYPE svg PUBLIC "-//W3C//DTD SVG 1.1//EN" "http://www.w3.org/Graphics/SVG/1.1/DTD/svg11.dtd">
<!-- Creator: CorelDRAW X6 -->
<svg xmlns="http://www.w3.org/2000/svg" xml:space="preserve" width="55.9202mm" height="31.949mm" version="1.1" style="shape-rendering:geometricPrecision; text-rendering:geometricPrecision; image-rendering:optimizeQuality; fill-rule:evenodd; clip-rule:evenodd"
viewBox="0 0 7148 4084"
 xmlns:xlink="http://www.w3.org/1999/xlink">
 <defs>
  <style type="text/css">
   <![CDATA[
    .fil6 {fill:none}
    .fil1 {fill:black}
    .fil4 {fill:#3F3203}
    .fil3 {fill:#7F6506}
    .fil0 {fill:#FFCB0E}
    .fil2 {fill:white}
    .fil5 {fill:#2B2A29;fill-rule:nonzero}
   ]]>
  </style>
 </defs>
 <g id="Layer_x0020_1">
  <metadata id="CorelCorpID_0Corel-Layer"/>
  <g id="_768641200">
   <path class="fil0" d="M1594 2098c3,33 3,40 -5,70l3 3 144 -13c3,-2 -4,-2 7,-3l2 6 41 327 -364 54c8,33 13,66 -33,60 -28,-4 -63,-15 -91,-22l-224 -59c-20,-6 -36,-6 -41,-15 -7,-12 -22,-68 -28,-86 -15,-45 -16,-71 -44,-69 -30,2 -24,53 -36,77 -30,0 -67,6 -98,9 -32,3 -65,7 -98,10 -67,7 -130,13 -195,20 -30,3 -78,18 -71,-27 3,-19 16,-17 33,-22 14,-3 28,-7 43,-11 30,-7 153,-39 174,-42l-9 -63c-17,-7 -134,-30 -185,-50 -16,-6 -28,-10 -41,-18 -18,-10 -12,-15 -8,-38 5,-29 15,-73 16,-100l-170 0 0 630 6504 0 0 -630 -5225 0z"/>
   <path class="fil1" d="M1287 2448l3 5c-14,1 -5,0 -8,-3 -30,-9 -58,-38 -89,-50l0 -57c15,-5 27,-14 39,-19 17,-7 33,7 37,19 4,13 17,90 18,104zm-530 -128l-2 -31 2 -4 30 -1 6 51 -11 0c-1,0 -2,0 -2,1 0,1 -2,1 -2,1l-21 1 0 -17zm528 -112l79 -3 33 264c-39,9 -43,6 -78,-4l-33 -257zm109 -5l323 -24 30 245 -315 45 -38 -265zm-21 -88c-25,-1 -23,-13 -23,-34 0,-37 29,-82 66,-82 14,0 14,3 24,7 9,4 14,2 24,5 10,3 13,7 19,10 9,4 14,1 24,6 20,10 -7,1 40,19 64,25 -12,127 -46,97l-8 -8c-80,68 -52,-21 -69,-52 -8,-14 -23,-19 -29,0 -6,17 -6,26 -23,32zm-523 -581c20,-10 47,6 67,15 23,10 45,15 68,24 9,30 -28,70 -45,83 -18,13 -20,7 -31,-4 -30,-28 -71,-73 -58,-118zm376 20c-10,32 -35,75 -52,97 -29,36 -68,-3 -90,-31 -51,-66 -13,-46 99,-80 16,-5 53,-19 43,15zm-208 -100c-19,0 -33,-14 -42,-23 -11,-11 -24,-31 7,-31 26,0 93,-2 114,1 6,29 -28,52 -58,52l-22 0zm180 -332c0,62 -55,-11 -98,46 -5,7 -18,23 -20,32 28,8 42,-29 67,-32 12,-2 79,12 86,17 26,21 6,139 4,177 -4,53 7,120 -10,141 -9,11 -20,10 -38,13 -33,6 -150,33 -173,33 -38,-1 -128,-32 -155,-48 -56,-33 -32,-96 -26,-159 7,-70 -33,-185 16,-215 11,-7 31,-12 38,-1 17,25 -34,56 -15,74 17,18 18,-24 53,-25 26,-1 41,15 52,36 12,22 7,51 6,79 -1,48 -10,49 15,66l0 18c-20,9 -24,18 -61,-2 -10,-5 -17,-9 -25,-16 -13,-10 -13,-17 -27,-15 -14,22 11,14 55,79 35,52 98,66 148,38 15,-9 24,-21 33,-37 62,-99 43,-46 67,-75 -4,-12 -7,-17 -21,-19 -11,6 -13,16 -21,27 -5,7 -75,58 -95,13 8,-16 32,-22 20,-40 -18,0 -45,27 -65,0 -20,-27 25,-85 -20,-147 -22,-30 -37,-32 -46,-43 -8,-11 -3,-24 6,-30 18,-12 39,10 79,1 18,-4 16,-13 33,-8 51,16 73,-14 114,2 16,7 14,10 26,18zm-810 -187c0,-15 8,-19 22,-16 3,44 37,90 1,78 -20,-7 -22,-44 -22,-62zm121 55c12,12 10,30 27,48l28 29c8,8 -1,4 10,6 19,-27 -24,-21 -24,-56 0,-32 9,-32 37,-44 -7,-12 -21,-22 -24,-43 -5,-30 20,-30 37,-17 14,11 42,63 42,90 0,36 -15,62 -34,79 -34,32 -67,14 -85,9 -12,12 -33,25 -59,13 -37,-18 -48,-92 -15,-101 12,-3 21,-3 32,-5 12,-3 15,-9 28,-9zm43 -203c0,-17 11,-16 27,-13 13,24 27,78 27,110l-40 -10c-4,-31 -13,-51 -13,-87zm-32 70l15 1c2,23 -2,43 1,66 3,24 16,33 4,51 -23,2 -34,-26 -39,-45 -9,-30 -4,-50 9,-70 -19,6 -28,16 -41,27 3,55 18,61 23,87 -8,3 -18,13 -31,9 -8,-2 -16,-13 -19,-21 -10,-25 -7,-45 -1,-69 -10,2 -15,3 -22,10 -12,11 -4,10 -23,12 -68,5 -45,113 -5,124 0,22 -9,24 8,64 3,7 9,17 13,24 5,8 11,17 16,24 -5,8 -10,11 -17,18 -9,9 -8,12 -5,25l45 168c22,76 39,157 49,236 36,264 38,172 -6,438 -3,15 -10,47 -10,63 -1,27 -11,71 -16,100 -4,22 -10,27 8,38 13,8 26,12 41,18 51,19 168,42 185,50l9 63c-21,2 -144,34 -174,42 -15,4 -29,7 -43,11 -17,4 -30,2 -33,22 -7,45 41,29 71,27 65,-6 128,-13 195,-20 33,-3 67,-7 98,-10 31,-3 68,-9 98,-9 12,-24 7,-75 36,-77 28,-2 29,24 44,69 6,17 21,74 28,86 5,9 21,10 41,15l224 59c27,7 63,19 91,22 47,6 41,-27 33,-60l364 -54 -41 -327c-6,-4 0,-3 -9,-3l-144 13 -5 3 3 -6c8,-30 9,-37 5,-70 15,-23 9,-10 14,-50 6,-49 17,-131 18,-176 1,-18 5,-42 5,-59 1,-21 1,-40 3,-62 4,-50 9,-75 -16,-108 -17,-22 -90,-49 -127,-67 -7,-4 -14,-6 -23,-10 -8,-4 -13,-7 -22,-11l-155 -71c-8,-4 -14,-8 -24,-11 0,-32 2,-51 29,-76 5,-5 40,-17 32,-70 -10,-60 -36,-39 -23,-77 4,-12 12,-23 20,-31 11,-11 16,-16 23,-31 4,-9 10,-28 9,-42 -2,-18 -6,-27 -15,-39 -16,-20 -33,-38 -65,-38 -40,0 -44,23 -67,-23 -21,-42 -88,-67 -134,-76 -68,-15 -159,-11 -218,30 -19,13 -68,62 -80,79 -23,35 -27,85 -16,129 4,15 11,25 14,40 7,33 -1,37 -23,51 -7,4 -10,6 -21,6 -44,-83 -52,-124 -82,-185 -16,-32 20,-56 -1,-139l-33 -128c-6,-22 -15,-60 -31,-76 -9,-9 -31,-11 -43,-4 -21,13 -22,51 -22,85z"/>
   <path class="fil1" d="M5987 1958l124 0 0 -625 8 16c3,8 4,12 7,20l211 588 135 0c5,-22 100,-280 112,-313 9,-26 19,-51 28,-77l57 -156c5,-13 9,-26 14,-40 3,-8 4,-13 7,-20 1,-3 2,-5 4,-10l4 615 124 0 0 -837 -167 0c-10,0 -13,20 -19,37l-231 636 -30 -83c-52,-130 -103,-290 -155,-424l-46 -126c-6,-18 -11,-39 -20,-39l-167 0 0 837z"/>
   <path class="fil1" d="M2178 1847c-57,0 -127,3 -182,-9 -65,-14 -54,-78 -60,-131 -2,-14 0,-34 0,-48l-124 0c0,210 30,310 253,310 68,0 187,4 248,-11 129,-31 140,-139 140,-256 0,-148 -53,-212 -199,-223 -67,-5 -131,-13 -196,-16 -29,-2 -68,-5 -85,-20 -33,-27 -30,-170 9,-191 45,-25 239,-21 288,-9 22,6 34,9 41,29 10,25 8,83 8,113l121 0c6,-24 3,-53 3,-78 0,-221 -214,-194 -388,-194 -64,0 -129,9 -163,38 -16,13 -34,37 -43,57 -12,25 -16,50 -21,82 -8,57 -4,133 13,180 41,119 166,113 284,122 32,2 162,10 181,24 22,16 21,53 21,79 0,30 2,63 -3,94 -6,34 -20,41 -52,50 -24,7 -63,9 -93,9z"/>
   <path class="fil1" d="M4811 1524l-250 0 0 -280c66,0 264,-7 317,12 32,11 39,45 39,77 0,131 19,191 -105,191zm-374 433l124 0 0 -310 261 0c32,0 64,8 77,28 12,20 18,56 18,87l0 194 127 0 0 -226c0,-66 -19,-120 -62,-143 13,-17 62,-37 62,-135 0,-72 8,-180 -18,-238 -38,-84 -123,-96 -230,-96l-358 0 0 837z"/>
   <path class="fil1" d="M3755 1524l-250 0 0 -280c66,0 267,-7 319,12 28,10 37,42 37,79 0,49 9,148 -25,171 -15,10 -54,17 -80,17zm-374 433l124 0 0 -310 261 0c80,0 94,42 94,121l0 188 127 0 0 -221c0,-33 -5,-66 -14,-91 -17,-44 -38,-47 -48,-60 39,-21 62,-74 62,-135 0,-68 7,-173 -16,-229 -36,-89 -125,-102 -232,-102l-358 0 0 837z"/>
   <polygon class="fil1" points="2587,1958 2708,1958 2708,1589 3107,1589 3107,1958 3228,1958 3228,1121 3107,1121 3107,1465 2708,1465 2708,1121 2587,1121 "/>
   <path class="fil1" d="M5503 1250c10,8 14,32 19,45l121 342 -272 0c1,-11 11,-39 15,-49 6,-16 11,-32 17,-48 10,-30 99,-274 100,-290zm-374 708l129 0c8,-34 63,-174 70,-205l355 0 53 152c5,14 16,38 17,53l129 0c-1,-11 -12,-38 -17,-53 -28,-86 -63,-175 -92,-260 -13,-37 -25,-69 -37,-106 -6,-19 -12,-33 -18,-52l-129 -366 -167 0c-4,17 -12,34 -18,52 -6,19 -12,33 -18,52 -37,111 -83,230 -120,341l-138 393z"/>
   <path class="fil2" d="M897 1263c0,-19 25,-31 41,-17 15,13 5,40 -15,40 -16,0 -27,-10 -27,-23zm230 -27c29,-15 45,31 19,42 -15,6 -28,-3 -32,-12 -7,-15 2,-25 13,-30zm-214 121c8,6 15,11 25,16 37,19 41,11 61,2l0 -18c-25,-17 -16,-18 -15,-66 1,-28 5,-57 -6,-79 -11,-21 -26,-37 -52,-36 -35,1 -36,43 -53,25 -19,-19 32,-49 15,-74 -7,-11 -27,-6 -38,1 -49,30 -9,144 -16,215 -6,63 -30,126 26,159 27,16 117,47 155,48 23,1 139,-27 173,-33 18,-3 30,-2 38,-13 18,-22 7,-89 10,-141 3,-38 22,-156 -4,-177 -7,-5 -74,-19 -86,-17 -25,3 -39,40 -67,32 2,-10 15,-25 20,-32 43,-57 98,16 98,-46 -12,-8 -10,-12 -26,-18 -41,-16 -63,13 -114,-2 -17,-5 -15,4 -33,8 -39,10 -60,-13 -79,-1 -8,5 -13,19 -6,30 8,12 24,13 46,43 45,62 0,120 20,147 20,27 47,0 65,0 12,18 -11,24 -20,40 20,45 90,-6 95,-13 8,-11 10,-21 21,-27 14,2 17,7 21,19 -24,29 -5,-24 -67,75 -10,16 -18,28 -33,37 -50,29 -113,14 -148,-38 -43,-64 -69,-56 -55,-79 13,-2 13,5 27,15z"/>
   <polygon class="fil1" points="4162,1958 4283,1958 4283,1121 4162,1121 "/>
   <polygon class="fil2" points="1432,2468 1748,2423 1718,2178 1394,2203 "/>
   <path class="fil2" d="M586 972c-28,12 -37,12 -37,44 0,35 43,28 24,56 -11,-1 -2,2 -10,-6l-28 -29c-17,-17 -15,-36 -27,-48 -13,-1 -16,6 -28,9 -11,3 -21,2 -32,5 -32,9 -22,83 15,101 26,12 47,-1 59,-13 18,4 51,22 85,-9 18,-17 34,-43 34,-79 0,-27 -28,-79 -42,-90 -16,-13 -41,-13 -37,17 3,20 17,30 24,43z"/>
   <path class="fil2" d="M1373 2115c17,-6 17,-16 23,-32 7,-19 22,-14 29,0 17,32 -11,120 69,52l8 8c34,30 109,-72 46,-97 -47,-18 -20,-9 -40,-19 -10,-5 -15,-2 -24,-6 -7,-3 -9,-7 -19,-10 -10,-3 -15,-2 -24,-5 -10,-4 -10,-7 -24,-7 -37,0 -66,45 -66,82 0,20 -2,32 23,34z"/>
   <path class="fil2" d="M1318 2465c35,10 40,13 78,4l-33 -264 -79 3 33 257z"/>
   <path class="fil2" d="M1226 1554c10,-34 -27,-19 -43,-15 -112,35 -150,14 -99,80 21,28 60,67 90,31 17,-22 43,-65 52,-97z"/>
   <path class="fil2" d="M850 1534c-13,45 29,90 58,118 11,10 13,16 31,4 17,-12 54,-53 45,-83 -23,-9 -45,-13 -68,-24 -20,-9 -47,-26 -67,-15z"/>
   <path class="fil0" d="M1281 2450c9,2 3,2 5,-3 -1,-13 -14,-91 -18,-104 -4,-12 -20,-26 -37,-19 -12,5 -24,14 -39,19l0 57c31,11 59,41 89,50z"/>
   <path class="fil2" d="M1018 1454l22 0c30,0 64,-23 58,-52 -21,-4 -88,-1 -114,-1 -31,0 -18,20 -7,31 9,9 23,23 42,23z"/>
   <path class="fil2" d="M552 787c0,36 9,55 13,87l40 10c0,-32 -14,-86 -27,-110 -16,-3 -27,-5 -27,13z"/>
   <path class="fil2" d="M510 859c-14,19 -18,40 -9,70 6,19 16,47 39,45 11,-18 -2,-27 -4,-51 -3,-23 1,-43 -1,-66l-15 -1 -9 3z"/>
   <path class="fil2" d="M442 892c-6,24 -9,44 1,69 3,8 12,19 19,21 13,4 23,-6 31,-9 -6,-25 -20,-32 -23,-87 -18,0 -16,-2 -28,5z"/>
   <path class="fil2" d="M388 935c0,18 2,55 22,62 36,13 2,-33 -1,-78 -14,-3 -22,1 -22,16z"/>
   <path class="fil1" d="M897 1263c0,13 11,23 27,23 20,0 30,-27 15,-40 -16,-14 -41,-2 -41,17z"/>
   <path class="fil1" d="M1127 1236c-11,6 -20,15 -13,30 4,9 17,18 32,12 26,-11 10,-57 -19,-42z"/>
   <path class="fil0" d="M757 2320c1,2 1,-1 2,7 0,3 0,7 0,9l23 -1 11 0 -6 -51 -30 1 -2 4 2 31z"/>
   <path class="fil3" d="M782 2335l-23 1c0,-3 0,-7 0,-9 -1,-8 -1,-5 -2,-7l0 17 21 -1c1,0 2,0 2,-1 0,-1 1,-1 2,-1z"/>
   <path class="fil3" d="M1744 2161l-2 -6c-12,1 -5,0 -7,3 9,0 3,-1 9,3z"/>
   <path class="fil3" d="M1281 2450c3,3 -6,3 8,3l-3 -5c-2,5 4,5 -5,3z"/>
   <polygon class="fil4" points="1591,2170 1588,2168 1586,2174 "/>
   <path class="fil5" d="M2513 2217l10 121 -11 0c-10,-30 -23,-53 -39,-68 -23,-22 -52,-33 -88,-33 -49,0 -86,19 -112,58 -21,33 -32,71 -32,117 0,37 7,70 21,100 14,30 33,52 56,66 23,14 47,21 71,21 14,0 28,-2 41,-5 13,-4 26,-9 38,-16l0 -111c0,-19 -1,-32 -4,-38 -3,-6 -8,-11 -14,-14 -6,-3 -17,-5 -33,-5l0 -10 149 0 0 10 -7 0c-15,0 -25,5 -30,15 -4,7 -6,21 -6,41l0 118c-22,12 -43,20 -65,26 -21,5 -45,8 -71,8 -75,0 -131,-24 -170,-71 -29,-36 -44,-77 -44,-123 0,-34 8,-66 25,-97 19,-37 46,-65 80,-85 28,-16 62,-25 100,-25 14,0 27,1 38,3 11,2 28,7 49,15 11,4 18,6 21,6 4,0 7,-2 9,-5 3,-3 4,-10 5,-19l10 0zm148 231c0,38 9,68 28,90 19,22 41,33 67,33 17,0 32,-5 45,-14 13,-9 23,-25 32,-48l9 6c-4,26 -16,50 -35,71 -19,21 -43,32 -72,32 -31,0 -58,-12 -80,-36 -22,-24 -33,-57 -33,-98 0,-44 11,-79 34,-104 23,-25 52,-37 86,-37 29,0 53,10 72,29 19,19 28,45 28,77l-180 0zm0 -16l121 0c-1,-17 -3,-28 -6,-35 -5,-11 -12,-19 -21,-25 -9,-6 -19,-9 -29,-9 -16,0 -30,6 -42,18 -12,12 -20,29 -22,51zm314 -35c31,-36 60,-54 87,-54 14,0 26,4 37,11 10,7 18,19 25,35 4,11 6,29 6,52l0 111c0,16 1,27 4,33 2,5 5,8 10,11 5,3 13,4 26,4l0 10 -129 0 0 -10 5 0c12,0 21,-2 25,-5 5,-4 8,-9 10,-16 1,-3 1,-12 1,-26l0 -107c0,-24 -3,-41 -9,-52 -6,-11 -16,-16 -31,-16 -22,0 -45,12 -67,37l0 137c0,17 1,28 3,32 3,5 6,9 11,12 5,3 14,4 28,4l0 10 -130 0 0 -10 6 0c13,0 22,-3 27,-10 5,-7 7,-19 7,-38l0 -96c0,-31 -1,-50 -2,-57 -1,-7 -4,-11 -7,-14 -3,-2 -7,-4 -12,-4 -5,0 -12,1 -19,4l-4 -10 79 -32 12 0 0 54zm282 51c0,38 9,68 28,90 19,22 41,33 67,33 17,0 32,-5 45,-14 13,-9 23,-25 32,-48l9 6c-4,26 -16,50 -35,71 -19,21 -43,32 -72,32 -31,0 -58,-12 -80,-36 -22,-24 -33,-57 -33,-98 0,-44 11,-79 34,-104 23,-25 52,-37 86,-37 29,0 53,10 72,29 19,19 28,45 28,77l-180 0zm0 -16l121 0c-1,-17 -3,-28 -6,-35 -5,-11 -12,-19 -21,-25 -9,-6 -19,-9 -29,-9 -16,0 -30,6 -42,18 -12,12 -20,29 -22,51zm315 -89l0 59c22,-39 44,-59 67,-59 10,0 19,3 26,10 7,6 10,14 10,22 0,7 -2,14 -7,19 -5,5 -11,8 -18,8 -7,0 -14,-3 -22,-10 -8,-7 -14,-10 -18,-10 -3,0 -7,2 -11,6 -8,8 -17,21 -26,38l0 124c0,14 2,25 5,33 2,5 7,9 13,13 6,3 15,5 27,5l0 10 -134 0 0 -10c13,0 23,-2 29,-6 5,-3 8,-8 10,-14 1,-3 1,-12 1,-27l0 -100c0,-30 -1,-48 -2,-54 -1,-6 -4,-10 -7,-13 -3,-3 -7,-4 -12,-4 -6,0 -13,1 -20,4l-3 -10 79 -32 12 0zm287 229c-27,21 -44,33 -50,36 -10,5 -21,7 -33,7 -18,0 -33,-6 -45,-18 -12,-12 -18,-28 -18,-48 0,-13 3,-24 9,-33 8,-13 21,-25 41,-36 19,-11 51,-25 96,-41l0 -10c0,-26 -4,-43 -12,-53 -8,-10 -20,-14 -36,-14 -12,0 -21,3 -28,10 -7,6 -11,14 -11,22l1 16c0,9 -2,15 -7,20 -4,5 -10,7 -18,7 -7,0 -13,-2 -17,-7 -4,-5 -7,-12 -7,-20 0,-16 8,-31 25,-45 17,-14 40,-20 71,-20 23,0 42,4 57,12 11,6 19,15 25,27 3,8 5,25 5,50l0 88c0,25 0,40 1,45 1,6 3,9 5,11 2,2 5,3 8,3 3,0 6,-1 8,-2 4,-3 12,-9 23,-21l0 16c-21,28 -42,43 -61,43 -9,0 -17,-3 -22,-10 -6,-6 -8,-17 -9,-33zm0 -18l0 -99c-29,11 -47,19 -56,24 -15,8 -26,17 -32,26 -7,9 -10,19 -10,30 0,14 4,25 12,34 8,9 18,13 28,13 14,0 34,-9 57,-28zm224 -347l0 344c0,16 1,27 4,32 2,5 6,9 11,12 5,3 14,4 28,4l0 10 -128 0 0 -10c12,0 20,-1 25,-4 4,-2 8,-6 10,-12 2,-6 4,-16 4,-32l0 -236c0,-29 -1,-47 -2,-53 -1,-7 -4,-11 -6,-14 -3,-2 -7,-4 -11,-4 -5,0 -11,2 -19,5l-5 -10 78 -32 13 0zm402 392l0 10 -166 0 0 -10 14 0c16,0 28,-5 35,-14 5,-6 7,-21 7,-44l0 -249c0,-19 -1,-32 -4,-38 -2,-5 -6,-9 -12,-12 -8,-5 -17,-7 -26,-7l-14 0 0 -10 166 0 0 10 -14 0c-16,0 -27,5 -34,14 -5,6 -7,21 -7,44l0 249c0,19 1,32 4,38 2,5 6,9 12,12 8,5 17,7 26,7l14 0zm131 -202c31,-36 60,-54 87,-54 14,0 26,4 37,11 10,7 18,19 25,35 4,11 6,29 6,52l0 111c0,16 1,27 4,33 2,5 5,8 10,11 5,3 13,4 26,4l0 10 -129 0 0 -10 5 0c12,0 21,-2 25,-5 5,-4 8,-9 10,-16 1,-3 1,-12 1,-26l0 -107c0,-24 -3,-41 -9,-52 -6,-11 -16,-16 -31,-16 -22,0 -45,12 -67,37l0 137c0,17 1,28 3,32 3,5 6,9 11,12 5,3 14,4 28,4l0 10 -130 0 0 -10 6 0c13,0 22,-3 27,-10 5,-7 7,-19 7,-38l0 -96c0,-31 -1,-50 -2,-57 -1,-7 -4,-11 -7,-14 -3,-2 -7,-4 -12,-4 -5,0 -12,1 -19,4l-4 -10 79 -32 12 0 0 54zm407 -54l0 88 -9 0c-7,-28 -16,-46 -28,-56 -11,-10 -26,-15 -43,-15 -13,0 -24,3 -32,10 -8,7 -12,15 -12,23 0,11 3,20 9,27 6,8 18,16 36,25l42 20c39,19 58,43 58,74 0,24 -9,43 -27,57 -18,14 -38,22 -60,22 -16,0 -34,-3 -55,-8 -6,-2 -11,-3 -15,-3 -4,0 -8,2 -10,7l-9 0 0 -93 9 0c5,26 15,46 31,60 15,13 32,20 50,20 13,0 24,-4 32,-11 8,-8 12,-17 12,-28 0,-13 -5,-24 -14,-33 -9,-9 -28,-20 -55,-34 -28,-14 -46,-26 -54,-37 -8,-11 -13,-24 -13,-41 0,-21 7,-39 22,-54 15,-14 34,-22 57,-22 10,0 23,2 37,7 10,3 16,4 19,4 3,0 5,-1 7,-2 2,-1 4,-4 6,-9l9 0zm310 8l0 158c0,30 1,48 2,54 1,7 4,11 7,14 3,3 7,4 11,4 6,0 12,-2 20,-5l4 10 -78 32 -13 0 0 -54c-22,24 -40,39 -51,45 -12,6 -24,9 -37,9 -15,0 -27,-4 -38,-13 -11,-8 -18,-19 -22,-32 -4,-13 -6,-32 -6,-56l0 -116c0,-12 -1,-21 -4,-25 -3,-5 -7,-8 -12,-11 -5,-3 -15,-4 -29,-4l0 -10 92 0 0 174c0,24 4,40 13,48 8,8 19,11 31,11 8,0 17,-3 28,-8 10,-5 23,-15 37,-29l0 -147c0,-15 -3,-25 -8,-30 -5,-5 -17,-8 -34,-8l0 -10 89 0zm162 -8l0 59c22,-39 44,-59 67,-59 10,0 19,3 26,10 7,6 10,14 10,22 0,7 -2,14 -7,19 -5,5 -11,8 -18,8 -7,0 -14,-3 -22,-10 -8,-7 -14,-10 -18,-10 -3,0 -7,2 -11,6 -8,8 -17,21 -26,38l0 124c0,14 2,25 5,33 2,5 7,9 13,13 6,3 15,5 27,5l0 10 -134 0 0 -10c13,0 23,-2 29,-6 5,-3 8,-8 10,-14 1,-3 1,-12 1,-27l0 -100c0,-30 -1,-48 -2,-54 -1,-6 -4,-10 -7,-13 -3,-3 -7,-4 -12,-4 -6,0 -13,1 -20,4l-3 -10 79 -32 12 0zm287 229c-27,21 -44,33 -50,36 -10,5 -21,7 -33,7 -18,0 -33,-6 -45,-18 -12,-12 -18,-28 -18,-48 0,-13 3,-24 9,-33 8,-13 21,-25 41,-36 19,-11 51,-25 96,-41l0 -10c0,-26 -4,-43 -12,-53 -8,-10 -20,-14 -36,-14 -12,0 -21,3 -28,10 -7,6 -11,14 -11,22l1 16c0,9 -2,15 -7,20 -4,5 -10,7 -18,7 -7,0 -13,-2 -17,-7 -4,-5 -7,-12 -7,-20 0,-16 8,-31 25,-45 17,-14 40,-20 71,-20 23,0 42,4 57,12 11,6 19,15 25,27 3,8 5,25 5,50l0 88c0,25 0,40 1,45 1,6 3,9 5,11 2,2 5,3 8,3 3,0 6,-1 8,-2 4,-3 12,-9 23,-21l0 16c-21,28 -42,43 -61,43 -9,0 -17,-3 -22,-10 -6,-6 -8,-17 -9,-33zm0 -18l0 -99c-29,11 -47,19 -56,24 -15,8 -26,17 -32,26 -7,9 -10,19 -10,30 0,14 4,25 12,34 8,9 18,13 28,13 14,0 34,-9 57,-28zm210 -157c31,-36 60,-54 87,-54 14,0 26,4 37,11 10,7 18,19 25,35 4,11 6,29 6,52l0 111c0,16 1,27 4,33 2,5 5,8 10,11 5,3 13,4 26,4l0 10 -129 0 0 -10 5 0c12,0 21,-2 25,-5 5,-4 8,-9 10,-16 1,-3 1,-12 1,-26l0 -107c0,-24 -3,-41 -9,-52 -6,-11 -16,-16 -31,-16 -22,0 -45,12 -67,37l0 137c0,17 1,28 3,32 3,5 6,9 11,12 5,3 14,4 28,4l0 10 -130 0 0 -10 6 0c13,0 22,-3 27,-10 5,-7 7,-19 7,-38l0 -96c0,-31 -1,-50 -2,-57 -1,-7 -4,-11 -7,-14 -3,-2 -7,-4 -12,-4 -5,0 -12,1 -19,4l-4 -10 79 -32 12 0 0 54zm460 114c-7,34 -21,60 -41,79 -21,18 -43,27 -68,27 -30,0 -56,-12 -78,-37 -22,-25 -33,-58 -33,-100 0,-41 12,-74 37,-99 24,-25 54,-38 88,-38 26,0 47,7 63,20 17,13 25,27 25,42 0,7 -2,13 -7,17 -5,4 -11,7 -19,7 -11,0 -20,-4 -25,-11 -3,-4 -6,-12 -7,-23 -1,-11 -5,-20 -11,-26 -7,-6 -16,-8 -28,-8 -19,0 -34,7 -46,21 -15,19 -23,43 -23,73 0,31 8,58 23,82 15,24 36,36 62,36 19,0 35,-6 50,-19 11,-9 21,-24 31,-47l8 4zm103 -63c0,38 9,68 28,90 19,22 41,33 67,33 17,0 32,-5 45,-14 13,-9 23,-25 32,-48l9 6c-4,26 -16,50 -35,71 -19,21 -43,32 -72,32 -31,0 -58,-12 -80,-36 -22,-24 -33,-57 -33,-98 0,-44 11,-79 34,-104 23,-25 52,-37 86,-37 29,0 53,10 72,29 19,19 28,45 28,77l-180 0zm0 -16l121 0c-1,-17 -3,-28 -6,-35 -5,-11 -12,-19 -21,-25 -9,-6 -19,-9 -29,-9 -16,0 -30,6 -42,18 -12,12 -20,29 -22,51z"/>
   <path class="fil5" d="M522 3152c21,5 37,12 48,22 15,14 22,31 22,51 0,15 -5,30 -15,44 -10,14 -23,24 -40,31 -17,6 -43,10 -77,10l-146 0 0 -8 11 0c13,0 22,-4 28,-12 4,-5 5,-17 5,-34l0 -200c0,-19 -2,-31 -7,-36 -6,-7 -15,-10 -26,-10l-11 0 0 -8 133 0c25,0 45,2 60,5 23,6 40,15 52,29 12,14 18,30 18,48 0,15 -5,29 -14,42 -9,12 -23,21 -42,27zm-119 -13c6,1 12,2 19,2 7,1 15,1 24,1 22,0 39,-2 50,-7 11,-5 20,-12 26,-22 6,-10 9,-21 9,-32 0,-18 -7,-33 -22,-46 -15,-13 -36,-19 -64,-19 -15,0 -29,2 -41,5l0 118zm0 148c18,4 35,6 52,6 28,0 49,-6 63,-19 14,-12 22,-28 22,-46 0,-12 -3,-24 -10,-35 -7,-11 -17,-20 -32,-26 -15,-6 -33,-10 -55,-10 -9,0 -17,0 -24,0 -7,0 -12,1 -16,2l0 127zm312 -270l0 122 68 0c18,0 29,-3 35,-8 8,-7 12,-19 13,-37l8 0 0 108 -8 0c-2,-15 -4,-25 -6,-29 -3,-5 -7,-9 -13,-13 -6,-3 -16,-5 -29,-5l-68 0 0 102c0,14 1,22 2,25 1,3 3,5 6,7 3,2 9,3 17,3l52 0c17,0 30,-1 38,-4 8,-2 15,-7 23,-14 9,-9 19,-24 29,-43l9 0 -27 77 -238 0 0 -8 11 0c7,0 14,-2 21,-5 5,-2 8,-6 10,-11 2,-5 3,-15 3,-30l0 -201c0,-20 -2,-32 -6,-36 -6,-6 -15,-9 -27,-9l-11 0 0 -8 238 0 3 68 -9 0c-3,-16 -7,-28 -11,-34 -4,-6 -10,-11 -17,-14 -6,-2 -17,-3 -32,-3l-85 0zm448 284l0 8 -132 0 0 -8 11 0c13,0 22,-4 28,-11 4,-5 5,-17 5,-35l0 -200c0,-16 -1,-26 -3,-31 -2,-4 -5,-7 -9,-10 -7,-4 -14,-5 -21,-5l-11 0 0 -8 132 0 0 8 -11 0c-13,0 -22,4 -28,11 -4,5 -6,17 -6,35l0 200c0,16 1,26 3,31 1,4 5,7 10,10 7,4 13,5 21,5l11 0zm5 -301l83 0 189 232 0 -178c0,-19 -2,-31 -6,-36 -6,-6 -15,-10 -27,-10l-11 0 0 -8 109 0 0 8 -11 0c-13,0 -23,4 -28,12 -3,5 -5,16 -5,33l0 260 -8 0 -203 -249 0 190c0,19 2,31 6,36 6,6 15,10 27,10l11 0 0 8 -109 0 0 -8 11 0c13,0 23,-4 28,-12 3,-5 5,-16 5,-33l0 -215c-9,-10 -16,-17 -20,-21 -5,-3 -11,-6 -20,-9 -4,-1 -11,-2 -20,-2l0 -8zm557 -7l0 107 -8 0c-3,-21 -8,-37 -15,-49 -7,-12 -17,-22 -30,-29 -13,-7 -27,-11 -41,-11 -16,0 -29,5 -39,14 -10,10 -16,21 -16,33 0,9 3,18 10,26 9,11 32,27 67,46 29,16 49,27 59,36 11,8 19,18 24,29 6,11 9,23 9,35 0,23 -9,44 -27,60 -18,17 -42,25 -70,25 -9,0 -17,-1 -25,-2 -5,-1 -14,-4 -29,-8 -15,-5 -24,-7 -28,-7 -4,0 -7,1 -9,3 -2,2 -4,7 -5,14l-8 0 0 -106 8 0c4,22 9,39 16,50 7,11 17,20 31,27 14,7 29,11 45,11 19,0 34,-5 45,-15 11,-10 17,-22 17,-36 0,-8 -2,-15 -6,-23 -4,-8 -11,-15 -19,-22 -6,-5 -22,-14 -49,-29 -26,-15 -45,-26 -57,-35 -11,-9 -20,-19 -25,-29 -6,-11 -9,-22 -9,-35 0,-22 9,-41 26,-57 17,-16 39,-24 65,-24 16,0 34,4 52,12 9,4 15,6 18,6 4,0 7,-1 10,-4 2,-2 4,-7 6,-14l8 0zm268 15l0 -8 109 0 0 8 -12 0c-12,0 -21,5 -28,15 -3,5 -5,16 -5,33l0 125c0,31 -3,55 -9,72 -6,17 -18,32 -36,44 -18,12 -42,18 -73,18 -34,0 -59,-6 -77,-18 -17,-12 -30,-27 -37,-47 -5,-14 -7,-39 -7,-76l0 -121c0,-19 -3,-31 -8,-37 -5,-6 -14,-9 -25,-9l-12 0 0 -8 133 0 0 8 -12 0c-13,0 -22,4 -27,12 -4,5 -6,17 -6,34l0 135c0,12 1,26 3,41 2,15 6,27 12,36 6,9 14,16 25,21 11,6 24,8 40,8 20,0 38,-4 54,-13 16,-9 27,-20 33,-34 6,-14 9,-37 9,-70l0 -125c0,-19 -2,-31 -6,-36 -6,-7 -15,-10 -26,-10l-12 0zm429 301l-83 0 -105 -145c-8,0 -14,0 -18,0 -2,0 -4,0 -6,0 -2,0 -4,0 -7,0l0 90c0,19 2,31 6,36 6,7 14,10 26,10l12 0 0 8 -132 0 0 -8 12 0c13,0 22,-4 28,-13 3,-5 5,-16 5,-33l0 -200c0,-19 -2,-31 -6,-36 -6,-7 -15,-10 -26,-10l-12 0 0 -8 112 0c33,0 57,2 73,7 16,5 29,14 40,26 11,13 16,28 16,46 0,19 -6,35 -19,49 -12,14 -32,24 -58,30l64 88c15,20 27,34 38,41 10,7 24,11 41,13l0 8zm-219 -159c3,0 5,0 7,0 2,0 4,0 5,0 29,0 51,-6 66,-19 15,-13 22,-29 22,-49 0,-19 -6,-35 -18,-47 -12,-12 -28,-18 -47,-18 -9,0 -21,1 -35,4l0 129zm312 -133l0 122 68 0c18,0 29,-3 35,-8 8,-7 12,-19 13,-37l8 0 0 108 -8 0c-2,-15 -4,-25 -6,-29 -3,-5 -7,-9 -13,-13 -6,-3 -16,-5 -29,-5l-68 0 0 102c0,14 1,22 2,25 1,3 3,5 6,7 3,2 9,3 17,3l52 0c17,0 30,-1 38,-4 8,-2 15,-7 23,-14 9,-9 19,-24 29,-43l9 0 -27 77 -238 0 0 -8 11 0c7,0 14,-2 21,-5 5,-2 8,-6 10,-11 2,-5 3,-15 3,-30l0 -201c0,-20 -2,-32 -6,-36 -6,-6 -15,-9 -27,-9l-11 0 0 -8 238 0 3 68 -9 0c-3,-16 -7,-28 -11,-34 -4,-6 -10,-11 -17,-14 -6,-2 -17,-3 -32,-3l-85 0zm195 292l0 -8 12 0c13,0 22,-4 28,-13 3,-5 5,-16 5,-34l0 -200c0,-19 -2,-31 -6,-36 -6,-7 -15,-10 -26,-10l-12 0 0 -8 126 0c46,0 81,5 105,16 24,10 43,28 58,52 15,24 22,53 22,85 0,43 -13,79 -39,108 -29,32 -74,48 -134,48l-138 0zm88 -23c19,4 35,6 48,6 35,0 64,-12 87,-37 23,-25 35,-58 35,-101 0,-43 -12,-76 -35,-101 -23,-25 -53,-37 -89,-37 -14,0 -29,2 -47,7l0 263zm299 -22c7,0 13,2 18,7 5,5 7,11 7,18 0,7 -2,13 -7,18 -5,5 -11,7 -18,7 -7,0 -13,-2 -18,-7 -5,-5 -7,-11 -7,-18 0,-7 2,-13 7,-18 5,-5 11,-7 18,-7zm117 0c7,0 13,2 18,7 5,5 7,11 7,18 0,7 -2,13 -7,18 -5,5 -11,7 -18,7 -7,0 -13,-2 -18,-7 -5,-5 -7,-11 -7,-18 0,-7 2,-13 7,-18 5,-5 11,-7 18,-7zm117 0c7,0 13,2 18,7 5,5 7,11 7,18 0,7 -2,13 -7,18 -5,5 -11,7 -18,7 -7,0 -13,-2 -18,-7 -5,-5 -7,-11 -7,-18 0,-7 2,-13 7,-18 5,-5 11,-7 18,-7zm490 44l-83 0 -105 -145c-8,0 -14,0 -18,0 -2,0 -4,0 -6,0 -2,0 -4,0 -7,0l0 90c0,19 2,31 6,36 6,7 14,10 26,10l12 0 0 8 -132 0 0 -8 12 0c13,0 22,-4 28,-13 3,-5 5,-16 5,-33l0 -200c0,-19 -2,-31 -6,-36 -6,-7 -15,-10 -26,-10l-12 0 0 -8 112 0c33,0 57,2 73,7 16,5 29,14 40,26 11,13 16,28 16,46 0,19 -6,35 -19,49 -12,14 -32,24 -58,30l64 88c15,20 27,34 38,41 10,7 24,11 41,13l0 8zm-219 -159c3,0 5,0 7,0 2,0 4,0 5,0 29,0 51,-6 66,-19 15,-13 22,-29 22,-49 0,-19 -6,-35 -18,-47 -12,-12 -28,-18 -47,-18 -9,0 -21,1 -35,4l0 129zm312 -133l0 122 68 0c18,0 29,-3 35,-8 8,-7 12,-19 13,-37l8 0 0 108 -8 0c-2,-15 -4,-25 -6,-29 -3,-5 -7,-9 -13,-13 -6,-3 -16,-5 -29,-5l-68 0 0 102c0,14 1,22 2,25 1,3 3,5 6,7 3,2 9,3 17,3l52 0c17,0 30,-1 38,-4 8,-2 15,-7 23,-14 9,-9 19,-24 29,-43l9 0 -27 77 -238 0 0 -8 11 0c7,0 14,-2 21,-5 5,-2 8,-6 10,-11 2,-5 3,-15 3,-30l0 -201c0,-20 -2,-32 -6,-36 -6,-6 -15,-9 -27,-9l-11 0 0 -8 238 0 3 68 -9 0c-3,-16 -7,-28 -11,-34 -4,-6 -10,-11 -17,-14 -6,-2 -17,-3 -32,-3l-85 0zm401 -24l0 107 -8 0c-3,-21 -8,-37 -15,-49 -7,-12 -17,-22 -30,-29 -13,-7 -27,-11 -41,-11 -16,0 -29,5 -39,14 -10,10 -16,21 -16,33 0,9 3,18 10,26 9,11 32,27 67,46 29,16 49,27 59,36 11,8 19,18 24,29 6,11 9,23 9,35 0,23 -9,44 -27,60 -18,17 -42,25 -70,25 -9,0 -17,-1 -25,-2 -5,-1 -14,-4 -29,-8 -15,-5 -24,-7 -28,-7 -4,0 -7,1 -9,3 -2,2 -4,7 -5,14l-8 0 0 -106 8 0c4,22 9,39 16,50 7,11 17,20 31,27 14,7 29,11 45,11 19,0 34,-5 45,-15 11,-10 17,-22 17,-36 0,-8 -2,-15 -6,-23 -4,-8 -11,-15 -19,-22 -6,-5 -22,-14 -49,-29 -26,-15 -45,-26 -57,-35 -11,-9 -20,-19 -25,-29 -6,-11 -9,-22 -9,-35 0,-22 9,-41 26,-57 17,-16 39,-24 65,-24 16,0 34,4 52,12 9,4 15,6 18,6 4,0 7,-1 10,-4 2,-2 4,-7 6,-14l8 0zm315 7l3 73 -9 0c-2,-13 -4,-22 -7,-27 -5,-9 -11,-15 -19,-19 -8,-4 -18,-6 -31,-6l-44 0 0 236c0,19 2,31 6,36 6,6 15,10 27,10l11 0 0 8 -131 0 0 -8 11 0c13,0 23,-4 28,-12 3,-5 5,-16 5,-33l0 -236 -37 0c-14,0 -25,1 -31,3 -8,3 -15,8 -20,17 -6,8 -9,19 -10,33l-9 0 3 -73 253 0zm311 206l-120 0 -21 48c-5,12 -8,21 -8,27 0,5 2,9 7,12 4,3 14,6 29,7l0 8 -97 0 0 -8c13,-2 21,-5 25,-9 8,-7 16,-22 26,-44l109 -254 8 0 107 257c9,21 16,34 24,40 7,6 17,10 30,10l0 8 -122 0 0 -8c12,-1 21,-3 25,-6 4,-4 6,-8 6,-13 0,-7 -3,-17 -9,-32l-18 -44zm-7 -17l-52 -125 -53 125 106 0zm344 -196l0 107 -8 0c-3,-21 -8,-37 -15,-49 -7,-12 -17,-22 -30,-29 -13,-7 -27,-11 -41,-11 -16,0 -29,5 -39,14 -10,10 -16,21 -16,33 0,9 3,18 10,26 9,11 32,27 67,46 29,16 49,27 59,36 11,8 19,18 24,29 6,11 9,23 9,35 0,23 -9,44 -27,60 -18,17 -42,25 -70,25 -9,0 -17,-1 -25,-2 -5,-1 -14,-4 -29,-8 -15,-5 -24,-7 -28,-7 -4,0 -7,1 -9,3 -2,2 -4,7 -5,14l-8 0 0 -106 8 0c4,22 9,39 16,50 7,11 17,20 31,27 14,7 29,11 45,11 19,0 34,-5 45,-15 11,-10 17,-22 17,-36 0,-8 -2,-15 -6,-23 -4,-8 -11,-15 -19,-22 -6,-5 -22,-14 -49,-29 -26,-15 -45,-26 -57,-35 -11,-9 -20,-19 -25,-29 -6,-11 -9,-22 -9,-35 0,-22 9,-41 26,-57 17,-16 39,-24 65,-24 16,0 34,4 52,12 9,4 15,6 18,6 4,0 7,-1 10,-4 2,-2 4,-7 6,-14l8 0zm259 0l0 107 -8 0c-3,-21 -8,-37 -15,-49 -7,-12 -17,-22 -30,-29 -13,-7 -27,-11 -41,-11 -16,0 -29,5 -39,14 -10,10 -16,21 -16,33 0,9 3,18 10,26 9,11 32,27 67,46 29,16 49,27 59,36 11,8 19,18 24,29 6,11 9,23 9,35 0,23 -9,44 -27,60 -18,17 -42,25 -70,25 -9,0 -17,-1 -25,-2 -5,-1 -14,-4 -29,-8 -15,-5 -24,-7 -28,-7 -4,0 -7,1 -9,3 -2,2 -4,7 -5,14l-8 0 0 -106 8 0c4,22 9,39 16,50 7,11 17,20 31,27 14,7 29,11 45,11 19,0 34,-5 45,-15 11,-10 17,-22 17,-36 0,-8 -2,-15 -6,-23 -4,-8 -11,-15 -19,-22 -6,-5 -22,-14 -49,-29 -26,-15 -45,-26 -57,-35 -11,-9 -20,-19 -25,-29 -6,-11 -9,-22 -9,-35 0,-22 9,-41 26,-57 17,-16 39,-24 65,-24 16,0 34,4 52,12 9,4 15,6 18,6 4,0 7,-1 10,-4 2,-2 4,-7 6,-14l8 0zm268 15l0 -8 109 0 0 8 -12 0c-12,0 -21,5 -28,15 -3,5 -5,16 -5,33l0 125c0,31 -3,55 -9,72 -6,17 -18,32 -36,44 -18,12 -42,18 -73,18 -34,0 -59,-6 -77,-18 -17,-12 -30,-27 -37,-47 -5,-14 -7,-39 -7,-76l0 -121c0,-19 -3,-31 -8,-37 -5,-6 -14,-9 -25,-9l-12 0 0 -8 133 0 0 8 -12 0c-13,0 -22,4 -27,12 -4,5 -6,17 -6,34l0 135c0,12 1,26 3,41 2,15 6,27 12,36 6,9 14,16 25,21 11,6 24,8 40,8 20,0 38,-4 54,-13 16,-9 27,-20 33,-34 6,-14 9,-37 9,-70l0 -125c0,-19 -2,-31 -6,-36 -6,-7 -15,-10 -26,-10l-12 0zm429 301l-83 0 -105 -145c-8,0 -14,0 -18,0 -2,0 -4,0 -6,0 -2,0 -5,0 -7,0l0 90c0,19 2,31 6,36 6,7 14,10 26,10l12 0 0 8 -132 0 0 -8 12 0c13,0 22,-4 28,-13 3,-5 5,-16 5,-33l0 -200c0,-19 -2,-31 -6,-36 -6,-7 -15,-10 -26,-10l-12 0 0 -8 112 0c33,0 57,2 73,7 16,5 29,14 40,26 11,13 16,28 16,46 0,19 -6,35 -19,49 -12,14 -32,24 -58,30l64 88c15,20 27,34 38,41 10,7 24,11 41,13l0 8zm-219 -159c3,0 5,0 7,0 2,0 4,0 5,0 29,0 51,-6 66,-19 15,-13 22,-29 22,-49 0,-19 -6,-35 -18,-47 -12,-12 -28,-18 -47,-18 -9,0 -21,1 -35,4l0 129zm312 -133l0 122 68 0c18,0 29,-3 35,-8 8,-7 12,-19 13,-37l8 0 0 108 -8 0c-2,-15 -4,-25 -6,-29 -3,-5 -7,-9 -13,-13 -6,-3 -16,-5 -29,-5l-68 0 0 102c0,14 1,22 2,25 1,3 3,5 6,7 3,2 9,3 17,3l52 0c17,0 30,-1 38,-4 8,-2 15,-7 23,-14 9,-9 19,-24 29,-43l9 0 -27 77 -238 0 0 -8 11 0c7,0 14,-2 21,-5 5,-2 8,-6 10,-11 2,-5 3,-15 3,-30l0 -201c0,-20 -2,-32 -6,-36 -6,-6 -15,-9 -27,-9l-11 0 0 -8 238 0 3 68 -9 0c-3,-16 -7,-28 -11,-34 -4,-6 -10,-11 -17,-14 -6,-2 -17,-3 -32,-3l-85 0zm195 292l0 -8 12 0c13,0 22,-4 28,-13 3,-5 5,-16 5,-34l0 -200c0,-19 -2,-31 -6,-36 -6,-7 -15,-10 -26,-10l-12 0 0 -8 126 0c46,0 81,5 105,16 24,10 43,28 58,52 15,24 22,53 22,85 0,43 -13,79 -39,108 -29,32 -74,48 -134,48l-138 0zm88 -23c19,4 35,6 48,6 35,0 64,-12 87,-37 23,-25 35,-58 35,-101 0,-43 -12,-76 -35,-101 -23,-25 -53,-37 -89,-37 -14,0 -29,2 -47,7l0 263z"/>
  </g>
  <rect class="fil6" width="7148" height="4084"/>
 </g>
</svg>
