<?xml version="1.0" encoding="UTF-8"?>
<!DOCTYPE svg PUBLIC "-//W3C//DTD SVG 1.1//EN" "http://www.w3.org/Graphics/SVG/1.1/DTD/svg11.dtd">
<!-- Creator: CorelDRAW X8 -->
<svg xmlns="http://www.w3.org/2000/svg" xml:space="preserve" width="1.60427in" height="0.916732in" version="1.1" style="shape-rendering:geometricPrecision; text-rendering:geometricPrecision; image-rendering:optimizeQuality; fill-rule:evenodd; clip-rule:evenodd"
viewBox="0 0 2482 1418"
 xmlns:xlink="http://www.w3.org/1999/xlink">
 <defs>
  <style type="text/css">
   <![CDATA[
    .fil0 {fill:none}
    .fil4 {fill:#19468A}
    .fil2 {fill:#1A4589}
    .fil7 {fill:#22458A}
    .fil8 {fill:#234384}
    .fil3 {fill:#68749B}
    .fil5 {fill:#6B7AA4}
    .fil6 {fill:#858CB7}
    .fil1 {fill:#FDFDFD}
   ]]>
  </style>
 </defs>
 <g id="Layer_x0020_1">
  <metadata id="CorelCorpID_0Corel-Layer"/>
  <rect class="fil0" width="2482" height="1418"/>
  <g id="_1675696969024">
   <polygon class="fil1" points="680,1267 1801,1268 1800,150 680,151 "/>
   <path class="fil2" d="M680 151l1120 -1 1 1118 -1121 -1 0 -1116zm-32 1149l1186 0 -1 -1182 -1185 1 0 1181z"/>
   <path class="fil3" d="M648 119l1185 -1 1 1182 -1186 0 0 -1181zm-2 1182l1189 1c2,-18 0,-841 0,-889 0,-35 4,-284 -1,-297l-1188 0 0 1185z"/>
   <path class="fil4" d="M814 946l17 0c4,7 2,88 1,92l-17 1 -1 -93zm484 93l-19 0c5,-20 26,-70 34,-93 5,0 18,-1 21,2 3,2 34,83 35,91l-20 0c-5,-8 -5,-14 -8,-21 -42,-3 -37,0 -43,21zm-216 -93l17 0c6,26 -12,74 19,76 31,2 20,-37 22,-75l18 -1c2,50 10,93 -38,93 -21,0 -35,-8 -39,-28 -1,-6 -1,-59 1,-65zm151 51c2,7 7,14 11,20 3,6 10,13 12,22l-20 0 -18 -31c-1,-2 -2,-3 -3,-5 0,-1 0,-1 -1,-2 -3,-4 2,0 -4,-3l1 40 -18 1 -1 -92c34,-6 72,4 59,36 -5,12 -8,9 -18,14zm179 42l-18 0 0 -93c26,0 16,-3 31,16l30 40c3,6 1,7 5,9 4,-6 0,-53 1,-64l18 -1 1 92c-17,2 -17,2 -25,-8 -6,-7 -10,-12 -15,-18 -2,-4 -4,-5 -7,-9 -2,-3 -4,-6 -7,-10 -5,-7 -11,-17 -14,-19 1,11 2,56 0,65zm-524 -27l0 26 -19 1 0 -93 20 0c8,12 15,21 24,33l18 24c2,6 1,7 5,8l0 -64 18 -1 1 92c-20,2 -18,4 -40,-26 -4,-6 -9,-12 -13,-19 -4,-4 -4,-4 -7,-9 -4,-6 -4,-8 -8,-10l1 38zm757 -30l36 0 0 17 -36 0 0 22 36 1 0 16 -54 1 0 -92 54 -1 0 17 -36 0 0 19zm-87 40c9,0 11,0 20,-3 8,-3 5,-4 11,-7l0 19c-9,4 -14,7 -26,8 -7,0 -10,0 -15,-2 -21,-6 -37,-19 -37,-46 0,-19 11,-34 24,-41 19,-10 37,-6 54,2l0 19c-5,-2 -5,-4 -12,-7 -16,-7 -34,-3 -43,11 -6,9 -6,22 -1,32 4,8 14,15 25,15zm-574 3c2,-5 8,-10 11,-13 4,5 6,10 15,10 9,1 14,-3 16,-10 -2,-11 -15,-16 -24,-20 -8,-4 -18,-13 -15,-27 4,-22 44,-30 55,-9 -3,4 -6,8 -11,10 -6,-3 -7,-10 -18,-7 -8,2 -10,11 -4,17 8,9 48,18 34,47 -4,8 -10,12 -16,14 -18,6 -31,0 -43,-12zm21 -141l0 8 -70 0c-2,-12 3,-8 11,-13 16,-8 42,-88 52,-111l53 -134 8 0 14 32c4,11 9,23 13,33l54 133c4,11 14,40 22,46 7,6 10,3 17,6l1 6c-10,3 -35,2 -46,2 -7,0 -15,0 -22,0l-18 -1c-5,-2 -2,2 -5,-3 3,-6 0,-2 5,-4 2,-1 11,0 16,-8 6,-10 -16,-59 -21,-70 -8,0 -86,-1 -86,1l-5 8c-31,74 -11,62 7,69zm434 -7c16,0 22,0 38,-7 18,-7 15,-3 15,-36 0,-51 6,-63 -31,-69l0 -7 92 -1 0 8c-10,3 -15,0 -20,10 -6,12 -3,76 -3,95 -22,17 -64,26 -95,26 -21,0 -35,-5 -54,-13 -42,-18 -67,-67 -67,-113 0,-47 15,-91 53,-116 31,-21 62,-25 101,-16 11,3 23,8 34,8 10,-6 8,-13 22,-12 0,16 5,73 4,81l-8 0c-3,-4 -3,-7 -5,-12 -22,-64 -134,-80 -156,25 -2,9 -4,20 -3,30 0,25 1,39 8,60 7,23 25,45 46,52 6,3 21,7 29,7zm-244 -238c5,-3 94,-3 100,0 0,14 -8,2 -24,14 -7,5 -8,21 -8,32l0 155c0,37 3,38 25,44 9,1 5,-3 7,4 0,6 -11,4 -23,4l-66 0c-8,0 -8,0 -12,-3 2,-19 32,13 32,-45l0 -157c0,-62 -33,-27 -31,-48zm216 -51c-1,-7 32,-82 36,-94l46 -119 92 0c3,1 8,16 10,21 0,0 0,1 1,1l65 166c2,6 9,23 9,26l-92 0 -19 -47c-4,-10 -15,-42 -19,-47l-1 2c0,1 -1,1 -1,1l-17 44c-5,12 -12,35 -18,47 -15,1 -81,2 -92,-1zm-416 1c0,-10 26,-68 31,-83l52 -131c13,0 86,-3 92,1 5,4 1,0 4,6 1,1 2,5 3,7 10,27 75,190 76,200l-92 0 -38 -95c0,-1 0,-1 -1,-1 0,9 -5,18 -8,26l-28 70 -91 0zm441 -213l0 67c-3,3 5,2 -7,3 0,0 -6,0 -7,0l-42 0 -1 143c-8,3 -86,3 -96,0l1 -144 -54 0c-3,-8 -3,-63 0,-70 22,-4 78,-1 104,-1l98 0c4,1 1,-1 4,2zm-623 -1c12,0 204,-2 206,2 2,2 1,60 0,67l-56 0 0 144c-7,2 -87,2 -94,0l-1 -144 -56 0 1 -69zm-92 -163l0 1015 1040 0c-2,-230 -1,-469 -1,-701l0 -335 -1039 1 0 20z"/>
   <path class="fil5" d="M721 192l1039 -1 0 335c0,232 -1,471 1,701l-1040 0 0 -1015 0 -20zm-2 1036c13,2 110,1 131,1 139,0 902,2 912,-2l-1 -1036c-14,-4 -107,-1 -129,-1 -78,0 -893,-2 -913,0l0 1038z"/>
   <path class="fil2" d="M1010 789l70 0c2,-7 -12,-37 -16,-47 -2,-7 -15,-41 -18,-45 -5,6 -12,29 -16,40 -3,7 -21,47 -20,52z"/>
   <path class="fil6" d="M1436 443l-57 1c-4,12 1,117 -1,144l-92 -1c-2,-24 3,-131 -2,-144l-53 0 0 -67 205 0c-3,-3 0,-1 -4,-2l-98 0c-26,0 -82,-3 -104,1 -3,7 -3,62 0,70l54 0 -1 144c10,3 88,3 96,0l1 -143 42 0c1,0 7,0 7,0 12,-1 4,0 7,-3z"/>
   <path class="fil7" d="M1234 980l0 -12c-6,-6 -11,-10 -23,-6 -1,7 -3,23 3,25 8,3 16,-4 20,-7z"/>
   <path class="fil8" d="M1312 1003c4,0 7,0 11,0 1,0 5,0 6,0 0,0 1,0 1,0 1,0 1,0 2,0 7,-2 -1,-14 -3,-21l-7 -21c0,19 -12,32 -10,42z"/>
  </g>
 </g>
</svg>
