<?xml version="1.0" encoding="UTF-8"?>
<!DOCTYPE svg PUBLIC "-//W3C//DTD SVG 1.1//EN" "http://www.w3.org/Graphics/SVG/1.1/DTD/svg11.dtd">
<!-- Creator: CorelDRAW X6 -->
<svg xmlns="http://www.w3.org/2000/svg" xml:space="preserve" width="0.982331in" height="0.846898in" version="1.1" style="shape-rendering:geometricPrecision; text-rendering:geometricPrecision; image-rendering:optimizeQuality; fill-rule:evenodd; clip-rule:evenodd"
viewBox="0 0 391 337"
 xmlns:xlink="http://www.w3.org/1999/xlink">
 <defs>
  <style type="text/css">
   <![CDATA[
    .fil0 {fill:#4FBBB2}
    .fil1 {fill:#5ED9CF}
   ]]>
  </style>
 </defs>
 <g id="Layer_x0020_1">
  <metadata id="CorelCorpID_0Corel-Layer"/>
  <g id="_1496718528">
   <path class="fil0" d="M144 70c69,5 124,63 124,134 0,74 -60,134 -134,134 -74,0 -134,-60 -134,-134 0,-42 20,-80 51,-105l0 0 119 -98 -26 70z"/>
   <path class="fil1" d="M267 70c69,5 124,63 124,134 0,74 -60,134 -134,134 -74,0 -134,-60 -134,-134 0,-42 20,-80 51,-105l0 0 119 -98 -26 70z"/>
  </g>
 </g>
</svg>
