<?xml version="1.0" encoding="UTF-8"?>
<!DOCTYPE svg PUBLIC "-//W3C//DTD SVG 1.1//EN" "http://www.w3.org/Graphics/SVG/1.1/DTD/svg11.dtd">
<!-- Creator: CorelDRAW X6 -->
<svg xmlns="http://www.w3.org/2000/svg" xml:space="preserve" width="55.9202mm" height="31.949mm" version="1.1" style="shape-rendering:geometricPrecision; text-rendering:geometricPrecision; image-rendering:optimizeQuality; fill-rule:evenodd; clip-rule:evenodd"
viewBox="0 0 64116 36632"
 xmlns:xlink="http://www.w3.org/1999/xlink">
 <defs>
  <style type="text/css">
   <![CDATA[
    .fil0 {fill:none}
    .fil1 {fill:#FEFEFE}
    .fil2 {fill:#2D3091}
    .fil3 {fill:#2D3091;fill-rule:nonzero}
   ]]>
  </style>
 </defs>
 <g id="Layer_x0020_1">
  <metadata id="CorelCorpID_0Corel-Layer"/>
  <rect class="fil0" width="64116" height="36632"/>
  <g id="_765718976">
   <ellipse class="fil1" cx="32058" cy="16765" rx="15510" ry="15897"/>
   <g>
    <path class="fil2" d="M27422 8796l80 0 0 -80 64 0c1,-51 -5,-80 48,-80l657 0 0 -80 80 0 0 -80 304 0 0 80 80 0 0 160c79,2 78,1 80,80l64 0c2,79 1,78 80,80 0,70 -4,94 80,96 3,125 81,80 320,80 2,79 1,78 80,80l0 80 80 0 0 80 64 0c3,113 71,80 160,80 3,122 88,80 208,80 53,0 47,-29 48,-80l144 0 19 -79c66,-7 59,-10 61,-81 89,0 158,33 160,-80 89,0 158,33 160,-80l288 0c6,70 5,78 80,80 2,79 1,78 80,80 0,89 -33,158 80,160l0 304 -80 0 0 160 -80 0 0 240c-113,3 -80,71 -80,160l-64 0 0 64c-79,2 -78,1 -80,80 -125,3 -80,55 -80,464 0,53 29,47 80,48l0 64c79,2 78,1 80,80l64 0 0 560 -64 0 0 576 144 0c3,125 81,80 320,80 2,79 1,78 80,80l0 64 64 0 0 400 -64 0c0,152 43,237 -80,240 0,168 -44,253 80,256l0 80 64 0c0,153 8,160 160,160 2,79 1,78 80,80 2,103 81,80 160,80l0 64 160 0 0 80c79,2 78,1 80,80l224 0 0 80 545 0 0 80 480 0 0 96 160 0 0 80 224 0c3,113 71,80 160,80 3,125 55,80 464,80 1,51 -5,80 48,80l513 0 0 -80c89,0 158,33 160,-80 51,-1 80,5 80,-48l0 -672c79,-2 78,-1 80,-80 79,-2 78,-1 80,-80l288 0c0,89 -33,158 80,160l0 224 80 0 0 80 80 0 0 80 1025 0c3,-123 88,-80 240,-80l0 -240 -80 0 0 -80 -80 0 0 -144c79,-2 78,-1 80,-80l224 0 0 -80 160 0 0 -160 80 0 0 -160c79,-2 78,-1 80,-80 84,-2 80,-26 80,-96l160 0 0 -80 80 0 0 -80 144 0c2,-79 1,-78 80,-80 3,-113 71,-80 160,-80 2,-79 1,-78 80,-80l0 -64c409,0 462,45 464,-80 79,-2 78,-1 80,-80 79,-2 78,-1 80,-80l128 0c6,67 13,74 80,80 2,75 10,74 80,80l0 384 480 0 0 80 80 0 0 320 -80 0 0 80 -80 0 0 80 -80 0 0 80 -160 0 0 80 -160 0 0 64c-73,6 -78,20 -80,96l-144 0c-2,79 -1,78 -80,80l0 560 -80 0c0,89 33,158 -80,160 0,294 -67,61 -80,224l-64 0 0 352 64 0 0 224 -64 0 0 160 -80 0 0 80 -160 0 0 80 -160 0 0 80 -80 0c0,95 -38,173 80,176l0 704 -80 0 0 160 -80 0 0 160 -128 0c-2,-79 -1,-78 -80,-80l0 -80 -80 0 0 -160 -80 0 0 -160 -80 0 0 -400 -96 0c0,89 33,158 -80,160l0 240c-79,2 -78,1 -80,80l-144 0 0 -80c-113,-3 -80,-71 -80,-160l-64 0 0 -624 64 0 0 -80c84,-2 80,-26 80,-96l80 0 0 -80 80 0 0 -160 -1009 0 0 -80 -80 0 0 -80 -80 0 0 -160 -80 0 0 -160 -79 -19 -1 -61 -561 0 0 64 -80 17 0 159 79 20c3,75 2,75 81,76 0,89 -33,158 80,160l0 144 -80 0 0 80 -80 0 0 80 -80 0c0,95 -38,173 80,176 2,79 1,78 80,80 2,79 1,78 80,80 2,79 1,78 80,80 0,426 -45,478 80,480l0 80 80 0 0 80 80 0 0 144 81 12 -1 228c45,4 64,0 64,48l0 432 -481 0c-53,0 -47,-29 -48,-80l-176 0 0 80c-79,2 -78,1 -80,80l-64 0c-2,79 -1,78 -80,80 -2,79 -1,78 -80,80l0 160 -80 0 0 240 -80 0 0 160 -80 0 0 80c-79,2 -78,1 -80,80l-64 0c-3,113 -71,80 -160,80l0 80 -160 0 0 80 -160 0 0 80 -80 0 0 160c-79,2 -78,1 -80,80 -113,3 -80,71 -80,160l-64 0c-2,79 -1,78 -80,80l0 80 -80 0 0 160 -80 0 0 80 -80 0 0 80 -80 0 0 80 -64 0c-2,79 -1,78 -80,80 -2,79 -1,78 -80,80l0 80 -80 0 0 80 -80 0 0 80 -80 0 0 80 -80 0 0 80 -80 0 0 80c-79,2 -78,1 -80,80 -79,2 -78,1 -80,80l-64 0c-3,113 -71,80 -160,80l0 80 -80 0 0 80 -80 0 0 80c-89,0 -158,-33 -160,80l-64 0 0 80 -80 0 0 80 -160 0 0 80 -160 0 0 80 -80 0 0 849c0,53 29,47 80,48l0 1105 -80 0 0 160 -80 0 0 80c-51,1 -80,-5 -80,48l0 913c-79,2 -78,1 -80,80l-64 0 0 80 -80 0 0 80 -80 0 0 160 -80 0 0 400c-89,0 -158,-33 -160,80l-144 0c-3,113 -71,80 -160,80l0 80 -80 0 0 160 -80 0 0 80c-152,0 -238,-43 -240,80l-208 0 0 -80 -80 0 0 -160 -80 0 0 -80 -80 0 0 -160 -80 0 0 -80 -80 0 0 -160 -80 0 0 -160 -80 0 0 -160 -64 0c0,-332 45,-397 -80,-400l0 -160 -80 0 0 -160 -80 0 0 -80 -80 0 0 -160 -80 0 0 -80 -80 0 0 -160 -64 0c0,-89 33,-158 -80,-160 0,-89 33,-158 -80,-160l0 -240 -80 0 0 -160 -80 0 0 -240 -80 0 0 -160 -80 0 0 -240 -80 0 0 -160 -80 0 0 -240 -64 0c0,-152 43,-237 -80,-240l0 -160 -80 0 0 -240 -80 0 0 -320 -80 0 0 -160 -80 0 0 -320c-123,-3 -80,-88 -80,-240 -113,-3 -80,-71 -80,-160l-64 0 0 -512c0,-53 -29,-47 -80,-48l0 -1681 -96 0 0 80 -80 0 0 240 -80 0 0 80 -80 0 0 80 -80 0 0 80 -144 0 0 80 -464 0 0 -80 -80 0 0 -80 -64 0c-2,-79 -1,-78 -80,-80l0 -80 -160 0 0 -80 -80 0 0 -80 -80 0 0 -80c-89,0 -158,33 -160,-80l-64 0c0,-89 33,-158 -80,-160l0 -304c220,0 302,45 304,-80 116,0 160,35 160,-96l-384 0c-3,-113 -71,-80 -160,-80l0 -80 -80 0 0 -80 -80 0 0 -240 -80 0 0 -160c-109,-2 -80,-58 -80,-144l705 0 0 -80c239,0 317,45 320,-80l224 0 0 -80c186,0 160,9 160,-176l-80 0 0 -160 -80 0 0 -80 -80 0 0 -80 -64 0c0,-239 45,-317 -80,-320l0 -80 -80 0 0 -80 -80 0 0 -80 -81 -12 1 -148 -79 -20 -1 -204c113,-3 80,-71 80,-160 84,-2 80,-26 80,-96l80 0 0 -160 80 0 0 -80 849 0c2,-79 1,-78 80,-80l0 -64c113,-3 80,-71 80,-160 79,-2 78,-1 80,-80 79,-2 78,-1 80,-80 79,-2 78,-1 80,-80 113,-3 80,-71 80,-160l64 0 0 -80 80 0 0 -80c79,-2 78,-1 80,-80 118,-3 80,-81 80,-176l80 0 0 -80 80 0 0 -80 80 0 0 -80 80 0 0 -144c69,-6 62,-9 64,-80 125,-3 80,-81 80,-320l80 0 0 -160c124,-3 80,-88 80,-256l80 0 0 -160 80 0 0 -80 -80 0 0 -80 -80 0 0 -80 -160 0 0 -80c-79,-2 -78,-1 -80,-80l-144 0 0 -80 -80 0 0 -160 -80 0c0,-256 45,-334 -80,-336l0 -384 80 0 0 -528c0,-74 -109,-48 -160,-48l-12 -81 -212 1c-6,-70 -5,-78 -80,-80l0 -464zm-4516 7717c0,957 30,1601 256,2498 129,512 356,1241 587,1702 133,265 234,503 383,754 150,254 280,473 442,711 357,524 438,568 761,952 242,289 596,600 866,848 708,653 1969,1356 2893,1671 1946,665 3939,658 5882,16 208,-69 634,-235 823,-330 603,-304 885,-444 1451,-839 121,-85 219,-153 332,-245 109,-89 218,-162 319,-257 100,-94 209,-175 304,-272 99,-101 188,-188 288,-288 1599,-1598 2719,-4021 2719,-6472 0,-909 -43,-1574 -253,-2405 -203,-802 -258,-944 -566,-1692 -364,-885 -1166,-2043 -1819,-2696 -845,-845 -1530,-1354 -2614,-1901 -994,-502 -2455,-881 -3636,-881 -1026,0 -1513,26 -2498,272 -1098,274 -2175,795 -3057,1443 -224,165 -417,314 -623,498 -104,92 -198,166 -296,265 -517,518 -867,876 -1296,1522 -148,222 -305,453 -429,692 -122,236 -282,509 -382,755 -109,266 -227,521 -321,800 -92,274 -196,586 -257,880 -127,613 -258,1261 -258,2000z"/>
    <path class="fil2" d="M17668 16801c0,-3143 933,-5995 2492,-8332 229,-344 963,-1345 1267,-1647l336 -353c121,-144 620,-640 792,-777 45,-36 70,-72 115,-109 1129,-947 1859,-1465 3241,-2156 1112,-556 2808,-1105 4118,-1262 1098,-132 1305,-141 2389,-141 562,0 1136,64 1640,137 1407,205 2895,640 4115,1250 1586,793 2932,1742 4147,3011 42,44 52,69 96,113 40,41 73,70 113,111 406,424 1099,1331 1383,1756 122,182 225,359 343,538 253,385 763,1367 927,1763 568,1373 982,2697 1155,4209 266,2318 55,4469 -671,6647 -116,347 -353,990 -504,1305 -524,1099 -931,1867 -1667,2848 -382,510 -808,1022 -1254,1468 -153,153 -295,295 -448,449 -178,179 -798,689 -976,833 -707,574 -1398,987 -2192,1427 -970,537 -2221,976 -3293,1239 -1555,382 -3335,494 -4983,280 -444,-58 -745,-109 -1168,-193 -910,-181 -2272,-618 -3076,-1024 -462,-233 -724,-349 -1185,-625 -1269,-759 -2019,-1364 -3058,-2403 -1210,-1209 -2228,-2781 -2926,-4343 -710,-1587 -1265,-3725 -1265,-6020zm-545 -304l0 528c0,985 185,2431 410,3321 199,789 362,1389 658,2128 517,1290 1173,2487 2006,3598 401,535 820,1035 1293,1509 317,317 609,612 954,904 172,146 336,275 511,418 375,305 1226,905 1662,1140 394,214 795,468 1226,647 230,96 365,176 643,286 1097,436 1713,613 2881,851 919,187 1854,250 2825,250 2311,0 4492,-631 6064,-1383 1031,-493 2266,-1224 3132,-1976 610,-530 611,-514 1218,-1120 564,-564 1235,-1373 1678,-2037 388,-582 720,-1119 1036,-1750l448 -961c330,-745 603,-1673 803,-2464 239,-945 420,-2295 420,-3311 0,-995 -14,-1353 -128,-2354 -194,-1705 -804,-3525 -1543,-5006 -107,-214 -224,-409 -331,-614 -102,-197 -229,-389 -345,-583 -334,-559 -774,-1130 -1181,-1637 -777,-968 -1908,-2003 -2910,-2711 -364,-257 -741,-507 -1142,-732 -1182,-663 -1964,-1013 -3273,-1404 -1265,-378 -2756,-582 -4106,-587 -281,-1 -612,23 -897,32 -675,20 -1773,209 -2437,365 -1122,265 -1765,522 -2788,959 -389,166 -856,442 -1229,645 -652,356 -1959,1299 -2438,1774l-243 221c-198,154 -590,595 -814,819l-551 634c-454,566 -787,1020 -1171,1631 -125,199 -231,389 -352,592 -284,474 -683,1344 -905,1898 -244,608 -536,1509 -669,2149 -232,1112 -415,2133 -415,3332z"/>
    <path class="fil2" d="M32210 26712l-304 0c-2005,0 -4041,-769 -5473,-1830 -869,-644 -1498,-1289 -2137,-2139l-709 -1116c-139,-233 -292,-557 -400,-816 -481,-1151 -842,-2417 -842,-4042 0,-2384 837,-4645 2240,-6358 249,-304 453,-534 727,-811 59,-59 104,-87 161,-144 497,-498 1151,-962 1750,-1324 265,-160 531,-286 808,-425 548,-276 1206,-485 1813,-637 1582,-398 3323,-320 4872,118 155,44 319,90 462,147 302,119 601,218 876,357 297,150 497,244 800,417 453,259 699,445 1097,745 190,144 869,740 972,869l290 319c1120,1208 1927,2820 2296,4445 195,860 213,1305 262,2187 6,108 -4,207 -13,291 -10,91 -1,208 -2,302 -6,410 -133,1258 -213,1629 -143,666 -341,1294 -588,1862 -508,1167 -1138,2084 -1942,2958 -216,234 -701,671 -952,874 -1559,1255 -3654,2124 -5851,2124zm-10410 -9959c0,1672 388,3124 897,4290 619,1418 1571,2749 2743,3742 234,198 468,399 722,575 532,368 1036,686 1632,962 1950,900 4264,1231 6541,690 495,-118 989,-269 1459,-462 448,-184 874,-387 1290,-631 272,-160 536,-315 782,-499 206,-153 540,-391 720,-561l342 -299c104,-81 226,-221 323,-317 1263,-1262 2341,-3104 2752,-4934 394,-1755 399,-3272 15,-5030 -152,-697 -391,-1291 -641,-1889 -201,-480 -612,-1183 -900,-1614 -674,-1012 -1509,-1841 -2475,-2569 -994,-749 -2185,-1280 -3416,-1628 -318,-90 -712,-163 -1053,-212 -966,-138 -1991,-138 -2957,0 -1598,228 -3240,918 -4515,1875 -499,375 -929,760 -1362,1200 -55,56 -84,101 -144,160 -244,240 -804,996 -981,1261 -1079,1617 -1778,3709 -1778,5892z"/>
    <path class="fil2" d="M16643 16785c0,-1705 205,-2823 567,-4285 96,-385 225,-736 348,-1109 438,-1323 1392,-3084 2194,-4147 140,-185 276,-376 427,-550l329 -392c38,-45 80,-97 119,-137l469 -508c140,-182 1015,-973 1253,-1165 697,-563 1213,-940 2009,-1418 104,-62 198,-117 304,-176 252,-140 734,-398 975,-498l664 -297c227,-100 470,-186 706,-271 462,-166 1003,-339 1508,-446 1362,-288 2124,-420 3615,-420 1369,0 2203,157 3458,418 263,55 502,136 761,200 522,130 1284,446 1780,654 206,86 824,382 981,477 184,111 404,213 629,348 575,346 1755,1140 2253,1622 82,79 177,143 256,224 217,221 541,484 745,728 71,85 162,159 240,241 78,82 147,174 224,257 545,588 1231,1534 1655,2220 156,253 389,660 525,933 30,60 50,101 80,160l246 491c478,959 862,2200 1114,3258 791,3324 369,7011 -933,9994 -391,895 -842,1711 -1358,2485 -259,389 -523,747 -811,1111l-438 523c-67,69 -175,182 -228,252 -94,122 -594,618 -716,741l-248 232c-400,368 -886,755 -1321,1081 -363,272 -754,532 -1151,771 -208,125 -408,226 -615,346 -495,287 -1503,730 -1989,910 -914,338 -2085,633 -3073,770 -2995,415 -6026,-43 -8679,-1344 -436,-214 -845,-424 -1253,-669 -1073,-646 -1825,-1254 -2732,-2088 -379,-349 -606,-626 -945,-993l-439 -522c-819,-1000 -1678,-2415 -2178,-3618 -392,-942 -745,-1902 -947,-2912 -213,-1068 -380,-2185 -380,-3478zm-176 -336c0,976 4,1470 133,2461 90,691 301,1763 510,2420 241,757 451,1417 788,2142 633,1361 1302,2451 2251,3610 291,355 603,702 927,1027l360 361c194,191 677,611 904,793 647,520 1295,988 2022,1405 200,115 414,246 628,349 212,102 441,232 656,320l682 295c231,100 468,183 707,270 3098,1123 6948,1122 10046,0 597,-217 1490,-579 2055,-892 109,-60 209,-112 314,-166 108,-56 203,-125 315,-182l1474 -976c412,-306 974,-771 1337,-1129 48,-47 80,-63 129,-111l376 -377c833,-832 1962,-2303 2518,-3374 54,-104 115,-198 171,-309 59,-119 110,-212 171,-326 29,-54 48,-112 75,-165 29,-57 56,-108 86,-170l443 -1030c313,-797 486,-1424 695,-2251 295,-1167 410,-2588 410,-3833 0,-2256 -512,-4440 -1362,-6388 -536,-1229 -1350,-2593 -2191,-3621 -73,-90 -146,-168 -219,-261 -75,-94 -149,-165 -222,-258 -74,-95 -152,-161 -229,-252 -253,-302 -907,-938 -1227,-1207 -360,-303 -691,-581 -1072,-865 -1965,-1460 -4439,-2475 -6869,-2820 -2418,-342 -5184,-110 -7440,770 -933,364 -1768,714 -2612,1247 -203,128 -389,238 -589,372 -203,135 -383,262 -580,397 -183,125 -372,276 -544,417l-1153 1009c-254,250 -608,614 -825,872 -473,561 -845,990 -1270,1628 -566,850 -789,1278 -1224,2139 -138,274 -321,732 -437,1020 -674,1681 -1116,3823 -1116,5640z"/>
    <path class="fil2" d="M32322 30795c-1411,0 -2275,-80 -3555,-400 -849,-212 -1168,-350 -1917,-645 -210,-83 -395,-188 -595,-270 -224,-91 -890,-461 -1116,-597 -652,-392 -1416,-945 -1981,-1446 -3003,-2663 -4801,-6473 -4801,-10651 0,-1145 142,-2173 338,-3121 94,-457 231,-931 373,-1356 435,-1304 953,-2373 1704,-3500 390,-585 695,-947 1129,-1465 61,-73 140,-158 207,-225 78,-76 136,-152 216,-232 147,-147 282,-289 432,-433l690 -608c440,-380 1296,-965 1774,-1252 820,-493 2079,-1054 3021,-1318 2008,-564 3408,-646 5456,-450 501,48 1004,160 1468,261 857,187 1773,544 2553,890 193,86 373,186 566,283 200,100 373,195 558,307 1643,989 2937,2129 4095,3672 123,163 247,331 361,504 464,700 906,1441 1233,2225 380,909 646,1568 859,2583 99,472 196,957 255,1474 14,124 29,272 43,389 18,142 9,261 30,403 39,270 0,563 24,841 27,309 -26,1246 -70,1613 -291,2418 -959,4341 -2263,6352 -115,177 -238,337 -356,509 -116,169 -247,332 -374,491 -254,317 -516,641 -803,927 -385,385 -680,700 -1103,1043 -426,345 -764,620 -1231,931 -174,116 -354,221 -529,336 -565,372 -1738,906 -2324,1119 -430,157 -841,293 -1318,412 -917,229 -2065,407 -3052,407zm-14141 -14170c0,2176 379,4009 1221,5984 332,778 785,1565 1229,2230 267,400 795,1095 1133,1461 71,76 134,151 201,231 68,82 153,145 223,225 144,164 720,718 884,846l470 395c817,667 1723,1196 2667,1672 388,196 805,342 1223,506 427,168 879,280 1336,410 812,231 2164,402 3073,402l448 0c153,0 288,-17 416,-17 121,0 292,-5 414,-18 739,-80 1525,-168 2227,-367 453,-129 897,-241 1324,-405 219,-84 408,-157 622,-242 541,-216 1266,-578 1736,-874 182,-115 356,-217 532,-333 538,-356 757,-541 1240,-922l686 -611c96,-96 579,-565 653,-660 46,-60 147,-170 204,-228 72,-73 129,-156 200,-232 66,-70 136,-158 197,-235 1954,-2450 3194,-5559 3194,-8943 0,-1282 -106,-2302 -365,-3398 -189,-800 -524,-1866 -874,-2617l-421 -876c-340,-668 -1115,-1842 -1572,-2368 -448,-516 -771,-890 -1264,-1362l-231 -202c-80,-64 -158,-148 -238,-210 -80,-62 -149,-133 -233,-199 -718,-567 -954,-749 -1801,-1257 -2866,-1720 -6516,-2326 -9996,-1509 -1736,408 -3354,1159 -4801,2181 -170,120 -327,245 -495,370 -256,191 -471,399 -712,601 -87,73 -154,135 -239,209 -324,285 -1000,1034 -1265,1361 -893,1103 -1404,1958 -2004,3248 -375,806 -640,1682 -872,2618 -219,885 -371,2045 -371,3135z"/>
    <path class="fil2" d="M32098 27769c-2152,0 -4182,-636 -5778,-1700 -298,-199 -500,-353 -781,-564 -69,-52 -124,-93 -187,-149 -63,-56 -125,-94 -184,-152 -199,-196 -503,-437 -705,-656 -371,-403 -584,-639 -926,-1092 -1335,-1769 -2217,-4135 -2217,-6558 0,-1821 299,-3111 968,-4700 267,-635 604,-1183 964,-1726 667,-1006 1670,-2032 2665,-2731 557,-392 681,-459 1244,-774 318,-178 1062,-495 1420,-613 442,-146 589,-194 1051,-310 2310,-582 4884,-245 6860,699 156,74 299,143 454,219 155,77 283,159 432,240 441,240 1218,824 1586,1136 915,776 1860,1932 2434,2994 522,967 862,1827 1126,2957 163,697 186,1097 241,1792 14,179 31,475 31,657l-76 1270c-150,1229 -365,2109 -853,3230 -274,628 -591,1206 -955,1751 -289,434 -825,1118 -1211,1511 -452,459 -926,871 -1451,1255 -739,540 -1790,1113 -2675,1408 -1184,395 -2085,607 -3477,607zm-10522 -16891c-325,0 -144,-384 -32,-384 125,0 124,-15 192,81 38,54 37,55 18,127 -22,87 -75,176 -178,176zm1714 -801l-16 16 16 -16zm0 0l0 0zm272 -352l-223 -53c-10,108 -180,330 -254,95 -43,-137 119,-315 269,-315 256,0 205,46 352,80 -15,57 -109,140 -144,192zm-1425 -881c296,198 336,283 336,576 0,230 -149,384 -384,384 227,-338 36,-560 -240,-560 16,-70 234,-364 288,-400zm1137 1249l-528 817c-739,1280 -1207,2491 -1456,3988 -32,190 -64,393 -82,591 -108,1184 -93,2035 89,3193 162,1032 529,2173 989,3094 506,1011 1160,2011 1952,2803l345 344c113,111 223,226 345,328 63,53 124,99 183,153 179,165 374,305 571,453 355,267 856,599 1253,797 736,365 1064,550 1913,809 959,293 1321,336 2267,455 161,20 453,41 629,44 691,10 1252,-28 1927,-124 620,-87 1079,-233 1645,-389 428,-118 1079,-396 1463,-587 724,-362 1015,-572 1689,-1033 222,-151 555,-414 752,-609l688 -673c418,-413 873,-1027 1196,-1511 94,-141 173,-265 261,-412 1056,-1765 1622,-3764 1623,-5871 0,-1036 -161,-2011 -407,-2987 -172,-684 -439,-1345 -736,-1987 -210,-454 -475,-890 -747,-1302 -253,-384 -697,-1001 -1037,-1333 -67,-65 -102,-119 -168,-184 -116,-115 -220,-220 -336,-336 -702,-702 -1673,-1407 -2569,-1851 -235,-116 -448,-233 -692,-333 -161,-66 -316,-129 -492,-197 -617,-236 -1428,-453 -2166,-556 -710,-100 -1779,-172 -2577,-73 -1554,193 -2789,509 -4164,1281 -611,343 -1292,770 -1811,1248l-356 316c-214,165 -475,488 -677,684 -65,64 -101,133 -172,180 -55,-13 -87,-37 -150,-58 -325,-112 -509,6 -555,-6l-615 -505c-51,-40 -168,-154 -217,-167 19,-81 56,-85 96,-160 -69,-46 -137,-127 -208,-144 -19,70 -378,485 -451,590 -455,664 -462,614 -825,1273 -83,150 -342,545 -374,683 72,38 137,74 208,112 169,-252 381,-695 547,-974 57,-95 241,-417 319,-450 82,-35 209,30 233,118 29,106 -68,208 -106,265 -39,-10 -91,-44 -128,-64 -117,221 -248,437 -368,657 -124,227 -290,505 43,661 306,144 499,-144 598,-341 47,-94 129,-266 54,-407 -60,-113 -160,-186 -327,-186 12,-50 85,-167 112,-208 99,8 204,91 348,77 125,-13 236,-61 313,-136 154,-149 268,-333 268,-629 61,16 164,136 240,176 -82,122 -195,307 -102,486 139,267 329,132 438,106z"/>
    <path class="fil2" d="M25772 6394c-5,0 -96,-59 -96,-96l0 -144c0,-65 174,-147 231,-132 115,32 129,142 137,244 -108,72 -71,128 -272,128zm-977 -480c-70,0 -107,-46 -130,-94 -190,-390 314,-605 608,-725 297,-121 656,-126 1076,-126 -61,53 -322,148 -421,203l-1132 742zm3956 -1585c6,264 199,302 -22,634 -205,309 -510,209 -538,102 127,-11 272,-151 272,-288 0,-105 -98,-267 -176,-288 37,-51 412,-159 464,-160zm-2546 400c-419,0 -899,105 -1201,224 -177,70 -531,284 -613,460 -202,432 44,561 133,693 -91,61 -179,130 -272,192l128 208c48,-13 175,-111 224,-144 42,78 91,136 141,211 52,78 95,145 150,219 47,64 272,381 286,435 68,-18 224,-149 288,-192 -117,-175 -525,-753 -593,-881l486 -315c175,-105 340,-207 508,-309 223,-135 275,-172 512,-289 181,-90 384,-162 561,-256 16,70 42,67 48,144 -273,144 -619,204 -625,432l-43 -52c-132,166 -982,451 -982,757 0,250 150,384 400,384 115,0 793,-263 532,-676 -53,-83 -93,-88 -132,-140 91,-48 169,-98 256,-144 198,374 684,-88 977,-112l45 51c-33,155 -44,176 -178,248 -360,193 -510,53 -619,53 -47,0 -153,197 -176,240 274,145 684,-47 913,-160 623,-308 354,-689 144,-689 -133,0 -268,79 -373,124 -230,98 -267,170 -428,133 0,-165 85,-146 283,-245 109,-55 268,-111 357,-171l-127 -305c1,0 645,-272 752,-272 54,0 200,115 136,263 -34,79 -215,137 -328,137 22,93 123,235 188,292 338,297 722,85 981,-212l64 272 320 -79c-12,-146 -256,-899 -256,-1041 106,-9 185,-61 304,-64 19,80 196,1004 221,1024 26,21 302,-53 324,-63 -28,-122 -208,-922 -208,-1041l145 -28 -43 -245c-183,2 -1180,272 -1393,343l-861 308c-69,24 -148,48 -213,75 -116,49 -554,264 -614,267 -141,8 -371,-64 -528,-64z"/>
    <path class="fil2" d="M39193 6634l0 0zm112 -400c103,69 450,315 513,400 -14,52 -139,200 -176,256 -141,-95 -274,-193 -416,-288 119,-178 99,-218 80,-368zm-4853 -2145c85,7 163,26 232,56 52,22 169,55 232,56 -29,125 -45,323 -123,405 -256,267 -644,245 -710,-37 174,0 290,3 362,-102 69,-99 63,-271 6,-378zm4741 2546c-20,74 -76,102 -96,176 42,58 333,240 368,288 -20,73 -219,283 -272,384 87,58 165,144 256,192 48,-32 616,-783 625,-817 108,9 47,69 176,80 13,-50 96,-144 128,-192 -198,-133 -390,-313 -579,-462 -216,-171 -1003,-742 -1226,-856 -232,-119 -452,-251 -689,-368 -227,-112 -496,-278 -692,-349 -245,-90 -514,-202 -758,-299 -654,-262 -349,-17 -533,-508 -75,-201 -264,-523 -426,-631l-244 236c313,170 445,395 580,676l-817 -224c-68,-37 7,-37 -185,-71 -208,-37 -962,-185 -1112,-185l-32 240c162,38 448,53 487,121 18,31 37,136 33,162 -23,124 -152,140 -249,119 -212,-45 -184,-120 -175,110 15,383 357,582 655,560 182,-14 270,-74 338,-80l-71 319 327 69 237 -1045c84,54 148,86 277,97l-132 509c-29,111 -125,423 -125,532l318 88 262 -1031c246,57 527,179 763,274 82,33 173,55 232,121 58,65 53,196 -2,265 -64,79 -158,56 -256,25 -109,-34 -416,-187 -516,-189l-87 222c206,105 181,7 213,213 50,328 110,371 384,480 68,27 242,108 323,110l83 -223c-74,-39 -167,-70 -252,-104 -159,-64 -118,-35 -247,-121l0 -144c126,11 290,126 510,14 132,-67 222,-242 179,-430 61,14 204,91 259,125l798 387c158,79 345,202 480,304 70,53 166,110 229,171 83,82 91,152 91,309 -134,90 -148,143 -318,29 -100,-67 -191,-138 -291,-205 -41,61 -95,129 -128,192 25,38 119,100 160,128 -198,413 18,519 308,717 85,58 146,115 237,163 41,-61 95,-129 128,-192 -86,-58 -169,-127 -259,-189 -147,-100 -158,-85 -141,-291 87,20 115,65 229,77 103,11 177,-38 236,-77z"/>
    <path class="fil2" d="M43901 11646c81,-43 114,-80 224,-80 239,0 395,558 32,801 -22,-96 -86,-249 -122,-358 -23,-71 -40,-109 -66,-174 -26,-64 -43,-130 -69,-188zm-513 -544c7,80 75,167 96,256 -184,97 -837,387 -929,448 17,73 94,233 128,304 114,-26 351,-156 475,-213 102,-47 389,-211 486,-219l435 1230c17,76 -2,21 3,95 3,44 39,171 58,212l-176 50c-52,-100 -125,-227 -241,-258 21,-89 79,-137 79,-256 0,-82 -39,-216 -69,-282 -241,-528 -810,-291 -810,58 0,358 20,223 80,480 88,-7 98,-42 176,-48 0,-158 -115,-308 45,-421 134,-95 340,67 340,165 0,236 3,188 -240,304 70,302 90,160 240,160 91,0 189,77 208,160l-624 179c-1,112 56,233 79,334 140,-33 931,-282 1009,-288 19,233 91,138 272,96 -3,-135 -116,-361 -123,-484 -7,-123 40,1 -39,-235 -24,-73 -60,-164 -78,-242 148,-99 336,-437 336,-672l0 -96c0,-277 -201,-657 -464,-657 -187,0 -207,20 -368,128 -35,-73 -144,-301 -160,-368 -75,6 -145,62 -224,80z"/>
    <path class="fil2" d="M19654 13439c-301,0 -398,-123 -287,-415 70,-183 236,-306 495,-306 -57,246 -150,471 -208,721zm-192 288l112 0 -79 369 239 64 60 -257 1013 256 84 -334 -1013 -257c6,-70 277,-981 336,-1105 44,21 135,59 192,64 -44,187 -160,388 -160,608 0,210 149,336 352,336 313,0 546,-443 529,-721l-18 -144 290 31 55 -302 -231 -1c-144,0 -226,-46 -336,-48l-89 269c269,74 62,563 -135,563 -401,0 11,-594 16,-817 -115,-27 -251,-101 -368,-128l94 -289c-46,-25 -173,-74 -238,-79 -6,76 -114,358 -150,475 -28,91 -9,106 -98,126 -225,50 -408,79 -597,268 -382,382 -322,1053 140,1053z"/>
    <path class="fil2" d="M22809 25623l0 0zm-577 -704l0 0zm785 -96l0 0zm0 0c-29,109 -698,941 -785,1105 42,49 177,183 192,240 97,-2 733,-400 826,-455l824 -473c-13,-49 -168,-227 -208,-256l-1057 640c27,-100 704,-904 737,-1025 -34,-51 -195,-242 -240,-272 -100,53 -1007,575 -1073,592 75,-142 617,-774 753,-977 -37,-55 -162,-224 -224,-240 -12,44 -495,659 -563,750l-574 755c26,39 191,234 224,256 53,-12 234,-123 291,-157 113,-68 810,-468 878,-483z"/>
    <path class="fil2" d="M40855 7543c95,140 249,250 349,379 57,73 107,118 171,181 44,43 142,151 172,196 -23,34 -433,409 -461,420 -93,36 -230,-72 -280,-128 -127,-144 -83,-139 -44,-308 175,-15 97,-76 250,39 172,130 86,126 167,186l116 -108c-346,-702 -885,-503 -885,-100 0,255 298,510 513,560 -47,70 -93,68 -144,144 43,81 175,191 192,256 84,-22 323,-290 416,-352 40,21 91,41 128,64 72,45 256,200 256,336 0,301 -392,153 -416,-144 -58,5 -100,50 -144,80 6,245 252,576 481,576 347,0 493,-421 180,-773 -63,-71 -234,-244 -324,-268 41,-61 162,-166 224,-208 50,33 287,378 343,458 56,80 298,436 346,471 76,-40 116,-88 192,-128 -58,-109 -667,-956 -757,-1053 -78,-85 -130,-159 -202,-247 -103,-127 -575,-576 -659,-702l-180 172z"/>
    <path class="fil2" d="M19305 15488c-89,20 -182,90 -259,128 -73,36 -198,80 -240,144 72,19 395,216 496,240l-25 593c97,-9 364,-271 489,-305 167,89 318,218 481,304l-34 -592c160,-37 343,-204 498,-240 -17,-63 -128,-96 -235,-150 -70,-35 -194,-107 -262,-123l29 -593c-63,6 -183,108 -237,144 -308,205 -181,210 -487,6 -62,-42 -185,-135 -250,-151l35 592z"/>
    <path class="fil2" d="M19878 22213c46,88 83,187 128,272l1038 -519c-78,127 -766,1021 -766,1063 0,59 100,235 128,288 134,-71 271,-127 411,-198l1239 -619c-24,-103 -90,-178 -112,-272 -131,30 -402,185 -534,251 -115,57 -441,238 -539,261 86,-129 785,-1046 785,-1073 0,-75 -92,-186 -112,-272 -87,7 -712,340 -833,400 -275,138 -561,273 -833,416z"/>
    <path class="fil2" d="M43843 15488c-156,35 -343,204 -502,240 17,63 128,96 235,150 93,47 182,85 262,139l-20 576 480 -311 481 318 -32 -599c155,-35 343,-204 501,-240 -17,-63 -128,-96 -235,-150 -70,-35 -194,-107 -262,-123l20 -592c-130,33 -359,271 -485,304 -104,-55 -406,-287 -480,-304l37 592z"/>
    <path class="fil2" d="M35118 28411c214,-50 553,-241 625,37 30,115 25,178 -36,237 -60,58 -364,147 -469,172l-119 -446zm-393 -226l375 1354c32,113 113,354 121,455l304 -82 -200 -765c266,-25 186,-105 485,194 92,92 312,290 372,380 93,-45 250,-63 352,-112l-316 -356c-107,-106 -223,-246 -388,-284 49,-67 256,-136 256,-432 0,-261 -170,-592 -448,-592 -152,0 -338,67 -471,105 -122,35 -345,89 -441,135z"/>
    <path class="fil2" d="M23834 27464c84,44 148,109 224,160 94,-63 610,-871 689,-929l-201 1311c104,27 168,152 281,162 30,-113 1033,-1431 1057,-1521 -60,-40 -184,-154 -256,-160 -13,49 -281,417 -332,485 -114,153 -222,339 -341,476l202 -1330c-58,-42 -186,-168 -266,-175l-1057 1521z"/>
    <path class="fil2" d="M38056 26712c2,91 90,199 131,269l461 788c-93,-22 -1081,-704 -1105,-704 -57,0 -248,126 -272,160 67,127 152,267 229,395 83,138 155,269 236,404 79,130 150,257 230,394 51,88 213,330 233,407 55,-13 208,-112 256,-144 -20,-85 -226,-398 -283,-502 -97,-176 -204,-336 -294,-507 104,24 1043,683 1089,689 50,-14 223,-127 272,-160l-945 -1617c-61,32 -183,115 -240,128z"/>
    <path class="fil2" d="M44924 18498l-1198 -118c-2,-290 64,-586 400,-586 192,0 607,23 732,149 131,132 79,352 66,555zm-1551 176l1826 191c31,-288 72,-524 64,-799 -20,-642 -1463,-850 -1761,-272 -57,111 -129,697 -129,880z"/>
    <path class="fil2" d="M25596 28281l609 -1057c102,27 400,223 400,400 0,218 -226,564 -334,691 -289,341 -516,8 -675,-35zm-432 112c174,116 626,416 833,416 481,0 929,-776 929,-1201 0,-285 -135,-405 -311,-522 -94,-62 -434,-290 -522,-310 -120,227 -907,1525 -929,1617z"/>
    <path class="fil2" d="M42188 22965c0,-170 74,-304 214,-362 331,-139 955,277 955,586 0,115 -18,210 -108,293 -318,294 -1062,-177 -1062,-517zm-336 -64l0 80c0,416 517,773 847,883 881,292 1385,-745 618,-1322 -363,-273 -888,-466 -1261,-93 -89,89 -204,282 -204,453z"/>
    <path class="fil2" d="M19222 20195c0,86 42,221 62,290 29,98 47,190 76,292 55,189 106,383 150,571l303 -84 -204 -829 476 -134 183 742 315 -80 -197 -750c119,-11 264,-72 373,-97l212 800 300 -83c1,-69 -267,-1081 -271,-1086 -32,-51 -228,30 -343,59l-1435 391z"/>
    <path class="fil2" d="M20599 23670c85,161 574,924 593,993 91,-8 176,-118 272,-144 -2,-87 -382,-677 -432,-753 150,-79 268,-177 416,-256 66,99 349,603 400,640 91,-24 175,-122 256,-144 -10,-122 -355,-578 -384,-688 103,-24 236,-165 336,-192 47,88 389,656 432,688 83,-44 179,-108 256,-160 -12,-53 -488,-810 -577,-977 -73,17 -1483,935 -1570,993z"/>
    <path class="fil2" d="M39581 25611l625 681c94,102 585,631 653,676l821 -813c-25,-35 -183,-209 -212,-228 -104,28 -473,486 -608,576 -43,-28 -307,-308 -336,-352 42,-28 511,-481 529,-544l-212 -221 -537 529c-98,-67 -168,-204 -276,-276l580 -589 -224 -232 -801 792z"/>
    <path class="fil2" d="M18885 18578l48 321c154,0 614,-128 768,-128 44,0 112,526 112,576l-769 141c-16,40 22,210 29,249 18,106 11,73 205,36 190,-35 354,-65 542,-98 360,-65 739,-119 1082,-199l-51 -304c-237,-1 -493,112 -718,112l-96 -576 704 -132 -44 -317 -1813 320z"/>
    <path class="fil2" d="M30785 28953c0,672 785,465 785,881 0,188 -341,316 -515,83 -71,-95 -46,-176 -93,-275l-288 16c0,471 162,651 586,712 379,55 632,-231 632,-616 0,-599 -658,-548 -758,-747 -45,-90 -42,-105 1,-169 51,-75 71,-92 181,-92 211,0 272,111 288,304l304 0c14,-173 -14,-315 -109,-435 -229,-288 -1012,-313 -1012,339z"/>
    <path class="fil2" d="M32114 28921c0,279 78,467 357,572 222,84 524,79 524,341 0,190 -472,459 -609,-128l-304 49c3,157 83,357 164,444 120,129 194,166 420,190 165,18 367,-60 460,-135 231,-184 368,-869 -282,-1053 -124,-35 -326,-63 -384,-161 -79,-132 -20,-278 215,-278 263,0 218,260 272,256l288 -19c2,-309 -211,-557 -464,-557l-176 0c-266,0 -481,214 -481,480z"/>
    <path class="fil2" d="M22969 7451c13,49 107,165 144,192 128,-86 640,-565 753,-640 35,52 93,108 128,160 -109,73 -513,389 -513,560 0,205 148,224 272,224 161,0 434,-314 599,-427 144,-98 362,96 -57,409 -225,168 -256,82 -415,82 -54,233 -283,352 -48,352 364,0 336,-329 740,-163 70,29 99,67 157,83 71,-47 249,-173 256,-256 -200,-47 -43,-122 -448,-76 30,-45 125,-124 180,-192 214,-266 87,-548 -164,-548 -220,0 -565,464 -673,464 -43,0 -44,-8 -80,-16 0,-148 30,-151 233,-311 101,-79 194,-182 295,-249 -63,-94 -173,-191 -224,-288 28,-42 174,-179 224,-192 -5,-66 -101,-176 -144,-208 -32,9 -1178,982 -1217,1041z"/>
    <path class="fil2" d="M28145 28986c-67,-31 -297,-111 -371,-128 33,-63 364,-534 400,-560l-29 689zm-1124 400c31,15 258,96 288,96 47,0 240,-304 272,-352 165,79 403,125 560,208 -31,427 -59,429 122,486 60,19 128,53 182,58l35 -1985c-363,-80 -229,-255 -599,285l-580 797c-58,81 -262,333 -281,407z"/>
    <path class="fil2" d="M29968 28777l62 673 -365 -71c4,-59 264,-557 303,-602zm-993 1233l320 66 193 -386 488 88c91,17 97,7 105,103 36,438 14,349 188,388 51,12 110,29 179,29 0,-183 -48,-391 -65,-576l-139 -1142c-29,-224 5,-226 -67,-253 -28,-11 -229,-46 -274,-46 -33,0 -431,772 -475,854l-454 875z"/>
    <path class="fil2" d="M36730 28008c56,40 398,427 445,497 -61,32 -293,146 -352,160l-93 -657zm-340 -384c0,176 87,765 114,991 37,315 101,664 127,978l304 -144 -66 -448c130,-30 432,-218 530,-240 46,31 253,268 288,320 99,-23 235,-99 320,-144l-757 -829c-71,-70 -119,-134 -192,-208 -75,-75 -332,-400 -394,-399 -47,1 -198,105 -275,123z"/>
    <path class="fil2" d="M34181 28268c7,85 44,244 62,335 48,243 178,835 178,1023 0,116 -96,256 -272,256 -292,0 -315,-323 -371,-654l-158 -835 -304 48c0,111 159,899 191,1058 57,287 142,719 530,719l112 0c303,0 593,-200 593,-496 0,-270 -61,-518 -105,-759 -28,-149 -135,-642 -135,-746l-320 51z"/>
    <path class="fil2" d="M30785 3653c0,139 -10,146 16,260l176 0c0,508 -83,1167 331,1398 254,142 676,44 806,-150 -33,-49 -190,-190 -240,-224 -75,112 -129,192 -272,192 -354,0 -288,-578 -288,-897 0,-426 -119,-336 416,-336l0 560c0,82 -77,140 -112,192l272 128c59,-88 160,-177 160,-320l0 -576 112 0 0 -256 -1377 29z"/>
    <path class="fil2" d="M40330 27208c0,-342 -46,-250 -96,-464 -92,0 -258,63 -320,96 35,150 80,65 80,352 0,122 -280,503 -739,-62 -87,-106 -254,-336 -254,-515 0,-148 114,-320 304,-320 109,0 189,67 256,112l176 -272c-126,-85 -247,-198 -459,-185 -477,29 -802,560 -415,1203 238,395 758,826 1222,483 114,-84 245,-238 245,-428z"/>
    <path class="fil2" d="M41051 24134c0,606 884,1280 1399,1031 151,-73 362,-294 362,-502 0,-289 -34,-317 -208,-576 -52,14 -246,137 -272,176 13,50 50,72 82,127 138,236 58,498 -274,498 -202,0 -828,-429 -756,-770 82,-388 462,-209 500,-206 35,-74 92,-219 112,-304 -171,-40 -110,-80 -384,-80 -290,0 -561,328 -561,608z"/>
    <path class="fil2" d="M32306 3896c0,240 333,272 528,272 69,0 87,-19 144,-32l-64 -144c-120,57 -203,37 -256,-64 30,-127 127,-172 269,-126 209,68 227,152 227,302 0,313 -300,197 -657,192 -262,-3 -256,-106 -256,192l160 0c107,458 408,489 849,496 235,4 183,77 208,-224 -133,-11 -272,-26 -416,-32 -160,-7 -244,-53 -256,-208l256 16c283,0 480,-171 480,-448 0,-302 -359,-480 -673,-480 -210,0 -545,33 -545,288z"/>
    <path class="fil2" d="M43081 19907c50,23 245,66 308,81 55,-114 63,-346 112,-448l1473 352 71 -318 -1482 -348c18,-40 97,-399 97,-454l-304 -64 -276 1200z"/>
    <path class="fil2" d="M20311 17426l-1505 114 19 318 1315 -91c287,-39 182,35 213,259 29,211 -68,187 265,171 132,-6 54,-42 46,-370 -4,-156 -19,-307 -31,-450 -6,-82 -11,-159 -16,-224 -12,-166 77,-221 -246,-179 -103,13 -92,5 -82,87 13,110 23,260 23,366z"/>
    <path class="fil2" d="M44334 20996l-1426 -478 -102 300 1736 579c31,-58 320,-971 320,-1025 0,-32 -245,-102 -288,-112 -39,74 -91,261 -122,358 -39,121 -92,267 -118,378z"/>
    <path class="fil2" d="M26557 29162c45,24 246,118 288,128 40,-173 741,-1575 753,-1713l-269 -134c-81,153 -752,1634 -772,1719z"/>
    <path class="fil2" d="M23338 27016c51,14 165,136 224,176 40,-30 250,-283 297,-343l904 -1066c-35,-51 -178,-192 -240,-208l-1126 1323c-48,55 -57,30 -59,118z"/>
    <path class="fil2" d="M37736 5722c61,0 224,82 224,144 0,80 -4,240 -112,240 -357,0 -320,-384 -112,-384zm-464 96c0,333 438,528 689,528 150,0 272,-178 272,-384 103,24 204,120 304,128l69 -158c-194,-47 -837,-466 -1029,-466 -166,0 -304,183 -304,352z"/>
    <path class="fil2" d="M41771 10365c0,159 107,246 220,237 115,-9 245,-63 245,-189 0,-346 -281,-341 -383,-207 -30,39 -82,97 -82,159z"/>
    <path class="fil2" d="M43325 14320c0,246 477,286 461,-81 -2,-40 -54,-112 -80,-140 -75,-78 -381,-102 -381,221z"/>
    <path class="fil2" d="M42012 8107c0,247 218,259 316,171 66,-60 96,-205 32,-279 -129,-148 -348,-11 -348,108z"/>
    <path class="fil2" d="M23818 5994c-242,0 -215,252 -149,325 184,202 447,-61 284,-252 -19,-22 -103,-73 -136,-73z"/>
    <path class="fil2" d="M44975 17169c0,78 117,48 320,48 76,0 48,-107 48,-304 -194,-26 -166,-19 -368,-16l0 272z"/>
    <path class="fil2" d="M43725 22453c104,50 220,91 320,144 25,-47 108,-233 112,-288 -98,-52 -222,-92 -320,-144 -25,47 -107,233 -112,288z"/>
   </g>
  </g>
  <polygon class="fil3" points="16720,33429 17910,33429 17910,33948 17520,33948 17520,36223 17102,36223 17102,33948 16720,33948 "/>
  <polygon id="1" class="fil3" points="18058,33429 18477,33429 18477,34556 18939,34556 18939,33429 19357,33429 19357,36223 18939,36223 18939,35075 18477,35075 18477,36223 18058,36223 "/>
  <polygon id="2" class="fil3" points="19719,33429 20881,33429 20881,33907 20138,33907 20138,34556 20714,34556 20714,35033 20138,35033 20138,35725 20881,35725 20881,36223 19719,36223 "/>
  <polygon id="3" class="fil3" points="21607,33429 22073,33429 22565,35165 22565,33429 22889,33429 22889,36223 22514,36223 21931,34201 21931,36223 21607,36223 "/>
  <polygon id="4" class="fil3" points="23233,33429 24395,33429 24395,33907 23652,33907 23652,34556 24228,34556 24228,35033 23652,35033 23652,35725 24395,35725 24395,36223 23233,36223 "/>
  <polygon id="5" class="fil3" points="24406,33429 24834,33429 25035,35364 25286,33429 25671,33429 25906,35367 26139,33429 26493,33429 26083,36236 25707,36236 25453,34294 25192,36236 24820,36236 "/>
  <polygon id="6" class="fil3" points="27187,33429 27605,33429 27605,36223 27187,36223 "/>
  <polygon id="7" class="fil3" points="27954,33429 28419,33429 28912,35165 28912,33429 29236,33429 29236,36223 28861,36223 28278,34201 28278,36223 27954,36223 "/>
  <path id="8" class="fil3" d="M29580 33429l453 0c196,0 356,38 478,116 123,77 221,219 294,427 74,207 111,488 111,841 0,251 -22,474 -67,668 -44,195 -104,348 -176,459 -73,112 -155,187 -247,226 -91,38 -206,57 -343,57l-503 0 0 -2795zm419 478l0 1839 72 0c98,0 173,-27 227,-82 54,-54 97,-150 129,-286 32,-136 48,-332 48,-590 0,-238 -18,-421 -53,-550 -35,-128 -79,-216 -133,-262 -53,-45 -126,-68 -218,-68l-72 0z"/>
  <polygon id="9" class="fil3" points="31191,33429 31610,33429 31610,36223 31191,36223 "/>
  <path id="10" class="fil3" d="M32308 33429l423 0 546 2795 -429 0 -96 -578 -538 0 -94 578 -386 0 574 -2795zm365 1739l-193 -1145 -185 1145 378 0z"/>
  <path id="11" class="fil3" d="M34309 33429l423 0 546 2795 -429 0 -96 -578 -538 0 -94 578 -386 0 574 -2795zm365 1739l-193 -1145 -185 1145 378 0z"/>
  <path id="12" class="fil3" d="M36609 34038l-347 195c-50,-232 -140,-348 -272,-348 -62,0 -110,26 -147,77 -36,51 -54,111 -54,179 0,79 21,142 64,189 43,47 131,109 267,185 123,67 220,133 291,198 71,66 128,155 171,267 44,112 65,243 65,392 0,260 -61,474 -184,641 -123,167 -288,251 -494,251 -346,0 -568,-256 -664,-768l367 -154c45,282 148,423 309,423 74,0 133,-28 179,-83 45,-55 68,-128 68,-218 0,-68 -16,-129 -48,-184 -32,-54 -105,-110 -220,-170 -147,-77 -257,-146 -329,-208 -72,-62 -132,-151 -179,-266 -47,-115 -70,-247 -70,-394 0,-251 55,-456 166,-617 111,-160 257,-240 439,-240 333,0 540,217 622,651z"/>
  <path id="13" class="fil3" d="M38074 34038l-347 195c-50,-232 -140,-348 -272,-348 -62,0 -110,26 -147,77 -36,51 -54,111 -54,179 0,79 21,142 64,189 43,47 131,109 267,185 123,67 220,133 291,198 71,66 128,155 171,267 44,112 65,243 65,392 0,260 -61,474 -184,641 -123,167 -288,251 -494,251 -346,0 -568,-256 -664,-768l367 -154c45,282 148,423 309,423 74,0 133,-28 179,-83 45,-55 68,-128 68,-218 0,-68 -16,-129 -48,-184 -32,-54 -105,-110 -220,-170 -147,-77 -257,-146 -329,-208 -72,-62 -132,-151 -179,-266 -47,-115 -70,-247 -70,-394 0,-251 55,-456 166,-617 111,-160 257,-240 439,-240 333,0 540,217 622,651z"/>
  <path id="14" class="fil3" d="M38370 33429l419 0 0 1597c0,225 7,382 21,471 14,89 43,156 87,202 44,45 98,68 163,68 70,0 126,-25 167,-75 41,-51 66,-118 75,-201 9,-83 14,-238 14,-464l0 -1597 353 0 0 1572c0,314 -12,547 -37,702 -24,154 -87,286 -189,397 -101,110 -240,165 -418,165 -166,0 -297,-40 -392,-121 -96,-82 -163,-196 -203,-342 -40,-147 -60,-406 -60,-777l0 -1596z"/>
  <path id="15" class="fil3" d="M40031 33429l600 0c116,0 206,8 268,24 62,15 125,58 188,126 63,69 113,163 149,283 36,119 54,254 54,402 0,349 -89,595 -268,737l351 1223 -454 0 -256 -1106 -214 0 0 1106 -419 0 0 -2795zm419 453l0 783 184 0c164,0 246,-134 246,-403 0,-93 -12,-169 -36,-228 -24,-59 -53,-99 -85,-121 -32,-21 -79,-31 -141,-31l-168 0z"/>
  <path id="16" class="fil3" d="M41929 33429l423 0 546 2795 -429 0 -96 -578 -538 0 -94 578 -386 0 574 -2795zm365 1739l-193 -1145 -185 1145 378 0z"/>
  <polygon id="17" class="fil3" points="43045,33429 43510,33429 44003,35165 44003,33429 44327,33429 44327,36223 43952,36223 43369,34201 43369,36223 43045,36223 "/>
  <path id="18" class="fil3" d="M45600 35205l387 35c-14,303 -80,550 -197,740 -118,191 -273,285 -466,285 -235,0 -414,-128 -538,-383 -123,-255 -184,-606 -184,-1054 0,-451 61,-804 184,-1059 122,-255 304,-383 545,-383 399,0 615,360 651,1082l-384 41c-10,-416 -99,-624 -266,-624 -88,0 -158,67 -209,200 -52,134 -78,393 -78,778 0,344 24,580 72,709 47,129 119,193 214,193 153,0 243,-187 270,-561z"/>
  <polygon id="19" class="fil3" points="46234,33429 47396,33429 47396,33907 46653,33907 46653,34556 47229,34556 47229,35033 46653,35033 46653,35725 47396,35725 47396,36223 46234,36223 "/>
 </g>
</svg>
